<?xml version="1.0" encoding="utf-8"?>
<!-- Generator: Adobe Illustrator 22.0.0, SVG Export Plug-In . SVG Version: 6.00 Build 0)  -->
<svg version="1.1" xmlns="http://www.w3.org/2000/svg" xmlns:xlink="http://www.w3.org/1999/xlink" x="0px" y="0px"
	 viewBox="0 0 62.4 45.4" style="enable-background:new 0 0 62.4 45.4;" xml:space="preserve">
<g id="圖層_2">
	<g>
		<rect x="2.3" y="2.2" style="fill:#1C191B;" width="57.7" height="41.3"/>
		<polyline style="fill:#656565;" points="60,2.2 62.4,0.1 0,0.1 2.3,2.2 60,2.2 		"/>
		<polyline style="fill:#010001;" points="60,43.5 62.4,45.4 0,45.4 2.3,43.5 60,43.5 		"/>
		<polyline style="fill:#4A4A4B;" points="2.3,43.5 0,45.4 0,0.1 2.3,2.2 2.3,43.5 		"/>
		<polyline style="fill:#353537;" points="60,43.5 62.4,45.4 62.4,0.1 60,2.2 60,43.5 		"/>
	</g>
</g>
<g id="圖層_1">
	<g>
		<path style="fill:#FFFFFF;" d="M15.8,35.5c0.3-0.4,0.6-0.9,0.9-1.6v1.4c0,0.6,0,1.1-0.1,1.4c0,0,0.2,0,0.5,0c0.3,0,0.5,0,0.5,0
			c0-0.3,0-0.5,0-0.8v-0.8v-1.6c0.2,0.4,0.4,0.6,0.5,0.8l0.5-0.7c-0.1-0.1-0.2-0.3-0.5-0.5c-0.3-0.3-0.4-0.4-0.5-0.5v-0.2H18
			c0.2,0,0.3,0,0.4,0c0,0,0-0.2,0-0.5c0-0.3,0-0.5,0-0.5c-0.1,0-0.3,0-0.4,0h-0.4v-1.1c0.2-0.1,0.4-0.1,0.5-0.2c0.1,0,0.2,0,0.2,0
			c0,0,0.1,0,0.1,0c0,0,0-0.1-0.1-0.3c-0.1-0.2-0.2-0.4-0.4-0.6c-0.6,0.3-1.4,0.5-2.5,0.7c0.1,0.2,0.2,0.5,0.3,0.7
			c0.4,0,0.7-0.1,1-0.2v0.9h-0.6c-0.2,0-0.4,0-0.6,0c0,0,0,0.2,0,0.5c0,0.3,0,0.5,0,0.5c0.2,0,0.3,0,0.5,0h0.5
			c-0.4,0.9-0.7,1.6-1.2,2.1C15.6,35,15.7,35.3,15.8,35.5z"/>
		<path style="fill:#FFFFFF;" d="M21.8,35.8H21v-0.7h0.7c0.2,0,0.5,0,0.7,0c0,0,0-0.2,0-0.4c0-0.3,0-0.4,0-0.4c-0.3,0-0.5,0-0.7,0
			H21v-0.7c0.6-0.1,1.1-0.2,1.5-0.3L22,32.6c-0.8,0.2-1.9,0.4-3.5,0.4c0.1,0.3,0.2,0.5,0.2,0.7c0.5,0,1,0,1.4-0.1v0.6h-0.7
			c-0.2,0-0.5,0-0.7,0c0,0,0,0.2,0,0.4c0,0.3,0,0.4,0,0.4c0.3,0,0.5,0,0.7,0h0.7v0.7h-0.9c-0.4,0-0.6,0-0.9,0c0,0,0,0.2,0,0.5
			s0,0.4,0,0.5c0.4,0,0.7,0,1.1,0h1.1h1.1c0.5,0,0.8,0,1.1,0c0,0,0-0.2,0-0.5s0-0.4,0-0.5C22.4,35.8,22.1,35.8,21.8,35.8z"/>
		<path style="fill:#FFFFFF;" d="M20.5,29.7h-0.9c-0.4,0-0.7,0-0.9,0c0,0-0.1,0-0.1,0c0,0.4,0.1,0.9,0.1,1.4v1.4h1.8
			c0.7,0,1.3,0,1.8,0.1c0,0,0.1,0,0.1-0.1c0-0.4-0.1-0.9-0.1-1.4v-1.4H20.5z M21.4,31.7h-0.9h-0.9v-1.2h1.9V31.7z"/>
		<path style="fill:#FFFFFF;" d="M26,35.2v-1.8h0.6c0.2,0,0.4,0,0.6,0c0,0,0-0.2,0-0.5s0-0.5,0-0.5c-0.3,0-0.6,0-0.8,0h-0.8h-0.8
			c-0.3,0-0.6,0-0.8,0c0,0,0,0.2,0,0.5s0,0.5,0,0.5c0.2,0,0.4,0,0.6,0h0.6v1.9c-0.3,0-0.7,0.1-1.2,0.2c-0.1,0-0.2,0-0.3,0l0.3,1
			c1.4-0.3,2.6-0.6,3.7-0.8L27.5,35C26.9,35.1,26.5,35.2,26,35.2z"/>
		<path style="fill:#FFFFFF;" d="M29.7,35.8c-0.3,0-0.5-0.4-0.8-1.2c-0.2-0.8-0.4-1.8-0.5-3h1.1c0.4,0,0.8,0,1.1,0c0,0,0-0.2,0-0.5
			c0-0.3,0-0.5,0-0.5c-0.2,0-0.3,0-0.4,0h-0.4l0.5-0.5c-0.2-0.3-0.6-0.5-1-0.9l-0.6,0.5c0.4,0.3,0.7,0.6,0.9,0.8h-1.2
			c0-0.4,0-0.8,0-1.3h-1c0,0.4,0,0.9,0,1.3h-1.9c-0.7,0-1.4,0-1.9-0.1c0,0,0,0.2,0,0.5s0,0.5,0,0.5c0.4,0,0.7,0,1,0h1h2
			c0.1,1.6,0.3,2.8,0.6,3.6c0.4,1,0.9,1.5,1.5,1.5c0.4,0,0.7-0.1,0.8-0.4c0.2-0.3,0.3-0.8,0.4-1.5c-0.3-0.1-0.6-0.3-0.8-0.6
			C30,35.4,29.9,35.8,29.7,35.8z"/>
		<path style="fill:#FFFFFF;" d="M37.8,33.4h-0.8h-1.7c0-0.2,0-0.3,0-0.5h1.6c0.6,0,1.2,0,1.6,0.1c0,0,0,0,0-0.1c0-0.3,0-0.6,0-1v-1
			h-3.2v-0.3c1.2,0,2.3-0.1,3.1-0.3l-0.6-0.7c-0.8,0.1-1.7,0.3-2.9,0.3l-0.5-0.1v2.5c0,0.6,0,1-0.1,1.4c-0.1-0.5-0.3-1.1-0.6-1.7
			l-0.6,0.3c0.1,0.1,0.1,0.3,0.2,0.6l-0.6,0c0.1-0.1,0.2-0.2,0.2-0.3c0,0,0.1-0.1,0.1-0.2c0-0.1,0.1-0.1,0.1-0.1
			c0.2-0.2,0.3-0.5,0.6-0.9c0.1-0.1,0.2-0.2,0.3-0.2c0.1,0,0.1-0.1,0.1-0.1c0-0.1,0-0.2-0.2-0.3c-0.2-0.1-0.3-0.2-0.5-0.3
			c-0.2,0.4-0.4,0.8-0.7,1.3c0-0.1-0.1-0.2-0.2-0.3c0.1-0.2,0.3-0.6,0.5-0.9c0.1-0.1,0.2-0.2,0.2-0.3c0.1,0,0.1-0.1,0.1-0.1
			c0-0.1,0-0.2-0.2-0.3c-0.2-0.1-0.4-0.2-0.6-0.3c-0.1,0.4-0.3,0.9-0.6,1.4c-0.1-0.1-0.1-0.1-0.2-0.2l-0.4,0.6
			c0.4,0.5,0.7,0.8,0.9,1.2c-0.1,0.2-0.2,0.4-0.3,0.5c-0.1,0-0.2,0-0.4,0c-0.1,0-0.2,0-0.2,0l0.1,0.8l1-0.1v0.8
			c0-0.1-0.1-0.1-0.3-0.2c-0.2-0.1-0.3-0.1-0.5-0.1c-0.1,0.8-0.2,1.5-0.4,1.9c0.2,0.1,0.4,0.2,0.6,0.3c0.1-0.3,0.2-0.6,0.3-0.9
			c0-0.1,0.1-0.3,0.1-0.6c0-0.1,0-0.2,0.1-0.2c0,0,0-0.1,0-0.1v0.8c0,0.7,0,1.2-0.1,1.6c0,0,0.2,0,0.5,0c0.3,0,0.4,0,0.5,0
			c0-0.4-0.1-1-0.1-1.6v-1.7l0.4,0c0,0.2,0.1,0.3,0.1,0.5l0.6-0.3c0,0.4-0.1,0.8-0.2,1.2c-0.1-0.4-0.2-0.6-0.3-0.9l-0.6,0.2
			c0.2,0.5,0.3,1,0.3,1.4l0.4-0.1c-0.1,0.3-0.2,0.5-0.4,0.8c0.1,0,0.2,0.1,0.4,0.2c0.1,0.1,0.2,0.2,0.3,0.3c0.3-0.5,0.6-1.1,0.7-1.9
			v1c0,0.4,0,0.7,0,1c0,0,0.1,0,0.4,0s0.3,0,0.4,0c0-0.2,0-0.5,0-0.7v-0.7H36v0.7c0,0.2,0,0.5,0,0.7c0,0,0.1,0,0.3,0s0.3,0,0.3,0
			c0-0.2,0-0.5,0-0.7v-0.7h0.3v0.7c0,0.2,0,0.5,0,0.7c0,0,0.1,0,0.3,0c0.2,0,0.3,0,0.3,0c0-0.1,0-0.2,0-0.3v-0.3
			c0.1,0.2,0.2,0.5,0.2,0.7c0.3,0,0.5,0,0.7-0.1c0.1-0.1,0.1-0.2,0.2-0.3c0-0.1,0-0.2,0-0.4v-1.3c0-0.5,0-1,0.1-1.3c0,0,0,0-0.1,0
			C38.4,33.3,38.1,33.4,37.8,33.4z M35.3,31.6h2.3v0.5h-1.2h-1.1V31.6z M36,34.7h-0.3v-0.3v-0.3H36V34.7z M36.9,34.7h-0.3v-0.3v-0.3
			h0.3V34.7z M37.8,36C37.8,36.1,37.8,36.1,37.8,36c-0.1,0.1-0.1,0.1-0.2,0.1c0,0,0,0-0.1,0c0,0-0.1,0-0.1,0v-0.7h0.3V36z
			 M37.8,34.4v0.3h-0.3v-0.7h0.3V34.4z"/>
		<path style="fill:#FFFFFF;" d="M44.8,31.8h-1c-0.4,0-0.7,0-1,0c0,0,0,0.2,0,0.4c0,0.3,0,0.4,0,0.4c0.1,0,0.2,0,0.2,0h0.2v2.8
			l-0.4,0v-0.6h-1.3v-0.5h1.1v-2.9h-1.1V31h0.6c0.3,0,0.4,0,0.6,0c0,0,0-0.2,0-0.4c0-0.3,0-0.4,0-0.4c-0.2,0-0.4,0-0.6,0h-0.6v-0.3
			c0-0.1,0-0.2,0.1-0.3c0,0-0.1-0.1-0.4-0.1c-0.2,0-0.4,0-0.6,0c0,0.2,0,0.3,0,0.4v0.4h-0.6c-0.2,0-0.4,0-0.6,0c0,0,0,0.2,0,0.4
			c0,0.3,0,0.4,0,0.4c0.3,0,0.5,0,0.6,0h0.6v0.4h-1.1v2.9h1.1v0.5h-0.7c-0.2,0-0.4,0-0.6,0c0,0,0,0.2,0,0.4s0,0.4,0,0.4
			c0.3,0,0.5,0,0.6,0h0.7v0.6c0,0.2,0,0.4,0,0.6c0,0,0.2,0,0.4,0c0.3,0,0.4,0,0.4,0c0-0.2,0-0.4,0-0.6v-0.6h1.1l0.1,0.6
			c0.2,0,0.4,0,0.7-0.1c0.8-0.1,1.5-0.1,2-0.2v0.4c0,0.2,0,0.3,0,0.4c0,0,0.2,0,0.5,0c0.3,0,0.4,0,0.5,0c0-0.1,0-0.3,0-0.5v-0.5
			l0.4,0V35l-0.4,0v-2.6h0.2c0.1,0,0.1,0,0.2,0c0,0,0-0.1,0-0.4c0-0.3,0-0.4,0-0.4c-0.4,0-0.7,0-1,0H44.8z M40.8,33.6h-0.5v-0.5h0.2
			h0.2V33.6z M40.8,32.5h-0.5V32h0.2h0.2V32.5z M41.5,32H42v0.5h-0.3h-0.2V32z M41.5,33.6v-0.5H42v0.5h-0.3H41.5z M45.5,35.1
			c-0.6,0-1,0.1-1.3,0.1v-0.5h0.7h0.7V35.1z M45.5,34h-0.7h-0.7v-0.4h1.3V34z M45.5,32.9h-0.7h-0.7v-0.4h1.3V32.9z"/>
		<path style="fill:#FFFFFF;" d="M44.8,29.6H44c-0.3,0-0.5,0-0.8,0c0,0,0,0,0,0c0,0.3,0,0.6,0,0.9v0.9h1.6c0.6,0,1.1,0,1.6,0.1
			c0,0,0,0,0-0.1c0-0.3,0-0.6,0-0.9v-0.9H44.8z M45.4,30.8h-0.7h-0.7v-0.5h1.3V30.8z"/>
		<path style="fill:#FFFFFF;" d="M5.2,3.7v38.1h51.7V3.7H5.2z M54.9,39.8H7.2V5.7h47.7V39.8z"/>
		<polygon style="fill:#FFFFFF;" points="45.1,17.7 40.9,6.9 18.2,6.9 18.2,8.9 39.5,8.9 42.9,17.6 39,24.4 18.2,24.4 18.2,26.4 
			40.2,26.4 		"/>
		<path style="fill:#FFFFFF;" d="M35.1,9.2L32.4,11c0,0,0,0-0.1,0c-2-0.9-4.4-0.5-6.8,1.2l1.2,1.6c1.2-0.9,2.4-1.3,3.4-1.3
			c-2.1,1.6-3.2,3.7-3.1,5.9c0.1,1,0.4,2,1,2.7L26,22.5l1.1,1.7l2.7-1.8c0,0,0,0,0.1,0c0.7,0.3,1.4,0.5,2.2,0.5
			c1.5,0,3.1-0.6,4.6-1.7l-1.2-1.6c-1.2,0.9-2.4,1.3-3.4,1.3c2.1-1.6,3.2-3.7,3.1-5.9c-0.1-1-0.4-2-1-2.7l2.2-1.4L35.1,9.2z
			 M30.2,19.7L29.8,20c-0.4-0.5-0.7-1.1-0.8-1.8C29,16.6,30,14.9,32,13.6l0.4-0.2c0.4,0.5,0.7,1.1,0.8,1.8
			C33.2,16.8,32.2,18.5,30.2,19.7z"/>
	</g>
</g>
</svg>
