<?xml version="1.0" encoding="utf-8"?>
<!-- Generator: Adobe Illustrator 22.0.0, SVG Export Plug-In . SVG Version: 6.00 Build 0)  -->
<svg version="1.1" xmlns="http://www.w3.org/2000/svg" xmlns:xlink="http://www.w3.org/1999/xlink" x="0px" y="0px"
	 viewBox="0 0 62.4 45.4" style="enable-background:new 0 0 62.4 45.4;" xml:space="preserve">
<g id="圖層_2">
	<g>
		<rect x="2.3" y="2.2" style="fill:#1C191B;" width="57.7" height="41.3"/>
		<polyline style="fill:#656565;" points="60,2.2 62.4,0.1 0,0.1 2.3,2.2 60,2.2 		"/>
		<polyline style="fill:#010001;" points="60,43.5 62.4,45.4 0,45.4 2.3,43.5 60,43.5 		"/>
		<polyline style="fill:#4A4A4B;" points="2.3,43.5 0,45.4 0,0.1 2.3,2.2 2.3,43.5 		"/>
		<polyline style="fill:#353537;" points="60,43.5 62.4,45.4 62.4,0.1 60,2.2 60,43.5 		"/>
	</g>
</g>
<g id="圖層_1">
	<g>
		<polygon style="fill:#FFFFFF;" points="46,17.7 41.8,6.9 19.1,6.9 19.1,8.9 40,8.9 40,16.7 40.1,24.2 39.9,24.5 19.1,24.5 
			19.1,26.5 41.1,26.5 		"/>
		<polygon style="fill:#FFFFFF;" points="20.6,18.7 28,18.7 28,20.4 32.8,18.6 37.6,16.8 32.8,15 28,13.2 28,14.9 20.6,14.9 		"/>
		<path style="fill:#FFFFFF;" d="M15.5,33.6c0.3,0,0.5,0,0.6,0h0.6h0.6c0.2,0,0.4,0,0.6,0c0,0,0-0.1,0-0.4s0-0.4,0-0.4
			c-0.3,0-0.5,0-0.6,0h-0.6c-0.5,0-0.9,0-1.3-0.1c0,0,0,0.2,0,0.4C15.5,33.5,15.5,33.6,15.5,33.6z"/>
		<path style="fill:#FFFFFF;" d="M16.1,32.5h0.6h0.6c0.2,0,0.4,0,0.6,0c0,0,0-0.1,0-0.4c0-0.2,0-0.4,0-0.4c-0.3,0-0.5,0-0.6,0h-0.6
			c-0.5,0-0.9,0-1.3-0.1c0,0,0,0.2,0,0.4c0,0.3,0,0.4,0,0.4C15.8,32.5,16,32.5,16.1,32.5z"/>
		<path style="fill:#FFFFFF;" d="M18,34h-2.5v1.4V36c0,0.2,0,0.5,0,0.7c0,0,0.2,0,0.4,0c0.3,0,0.4,0,0.4,0c0,0,0,0,0-0.1
			c0,0,0-0.1,0-0.1v-0.2h0.9c0.3,0,0.6,0,0.9,0c0,0,0.1,0,0.1,0c0-0.3-0.1-0.7-0.1-1.2V34z M17.2,35.2v0.5h-0.9v-0.9h0.9V35.2z"/>
		<path style="fill:#FFFFFF;" d="M16.8,30.3h0.6c0.2,0,0.4,0,0.6,0c0,0,0-0.1,0-0.4s0-0.4,0-0.4c-0.3,0-0.5,0-0.6,0h-0.6h-0.6
			c-0.2,0-0.4,0-0.6,0c0,0,0,0.1,0,0.4s0,0.4,0,0.4C16.1,30.3,16.5,30.3,16.8,30.3z"/>
		<path style="fill:#FFFFFF;" d="M19.9,32.3c-0.5,0-0.9,0-1.2-0.1c0,0-0.1,0-0.1,0.1c0,0.4,0.1,0.9,0.1,1.6v1.6c0,0.5,0.1,0.9,0.3,1
			c0.2,0.2,0.5,0.3,1,0.3h1.3c0.4,0,0.7-0.1,0.9-0.4c0.2-0.2,0.3-0.7,0.3-1.4c-0.1,0-0.3-0.1-0.5-0.2c-0.2-0.1-0.3-0.1-0.4-0.2
			c0,0.5-0.1,0.8-0.1,1c-0.1,0.1-0.2,0.2-0.3,0.2h-1.1c-0.2,0-0.3,0-0.4-0.1c-0.1,0-0.1-0.2-0.1-0.3v-2.2h1.5v0.2c0,0,0,0.1,0,0.1
			c0,0,0,0.1,0,0.1c0,0,0.2,0,0.5,0c0.3,0,0.5,0,0.5,0c0-0.3,0-0.6,0-1v-1v-1c0-0.4,0-0.7,0-1c0,0,0,0,0,0c-0.2,0-0.5,0-0.9,0h-0.9
			c-0.7,0-1.3,0-1.7-0.1c0,0,0,0.2,0,0.5s0,0.5,0,0.5c0.5,0,0.9-0.1,1.2-0.1h1.2v1.7H19.9z"/>
		<path style="fill:#FFFFFF;" d="M15.9,31.4h0.8h0.8c0.3,0,0.5,0,0.8,0c0,0,0-0.2,0-0.4s0-0.4,0-0.4c-0.4,0-0.6,0-0.8,0h-0.8
			c-0.6,0-1.2,0-1.6-0.1c0,0,0,0.2,0,0.4s0,0.4,0,0.4C15.5,31.4,15.8,31.4,15.9,31.4z"/>
		<path style="fill:#FFFFFF;" d="M26.5,35.1c-0.2-0.1-0.4-0.1-0.6-0.2c-0.1,0.6-0.3,1.1-0.7,1.4l0.7,0.4c0.2-0.2,0.4-0.4,0.5-0.7
			c0.1-0.1,0.1-0.3,0.2-0.4c0-0.1,0.1-0.1,0.1-0.2c0,0,0.1-0.1,0.1-0.1C26.8,35.2,26.7,35.2,26.5,35.1z"/>
		<path style="fill:#FFFFFF;" d="M28.9,35.1c0.2,0.2,0.3,0.4,0.5,0.7c-0.3-0.1-0.5-0.2-0.6-0.3c0,0.2,0,0.4-0.1,0.4
			c0,0.1-0.1,0.1-0.2,0.1h-0.6c-0.1,0-0.2,0-0.2,0c0,0,0-0.1,0-0.2V35c0.3,0.2,0.5,0.4,0.6,0.5l0.5-0.5c-0.1-0.1-0.3-0.3-0.6-0.5h1
			c0.4,0,0.7,0,1,0c0,0,0,0,0,0c0-0.3,0-0.7,0-1.2v-1.2h-2h-1c-0.4,0-0.7,0-1,0c0,0,0,0,0,0c0,0.3,0,0.7,0,1.2v1.2h1.3l-0.2,0.2
			c0.1,0,0.1,0.1,0.2,0.2c0,0,0,0,0.1,0h-0.7v0.9c0,0.4,0.1,0.6,0.2,0.8c0.1,0.1,0.4,0.2,0.8,0.2h0.8c0.3,0,0.5-0.1,0.6-0.2
			c0.1-0.1,0.2-0.3,0.3-0.7c0.2,0.3,0.3,0.5,0.4,0.7l0.7-0.4c-0.2-0.5-0.5-1-1-1.5L28.9,35.1z M27,32.7h1.1h1.1v0.3H27V32.7z
			 M27,33.9v-0.3h1.1h1.1v0.3H27z"/>
		<path style="fill:#FFFFFF;" d="M25,31.2c0.2,0.5,0.3,0.9,0.3,1.2l0.6-0.2c0-0.1,0-0.2,0-0.3h2.3c1,0,1.7,0,2.3,0.1
			c0,0,0-0.2,0-0.4c0-0.3,0-0.4,0-0.4c-0.2,0-0.4,0-0.6,0h-0.6c0.1-0.2,0.2-0.4,0.3-0.6h0.3c0.1,0,0.2,0,0.3,0c0,0,0-0.1,0-0.4
			c0-0.2,0-0.4,0-0.4c-0.3,0-0.6,0-0.8,0h-0.8v-0.2c0-0.1,0-0.1,0.1-0.2c0,0-0.1-0.1-0.4-0.1c-0.2,0-0.4,0-0.7,0c0,0.1,0,0.2,0,0.3
			v0.3h-0.9c-0.3,0-0.6,0-0.9,0c0,0,0,0.1,0,0.4c0,0.2,0,0.4,0,0.4c0.2,0,0.3,0,0.4,0h0.4l-0.1,0c0.1,0.2,0.1,0.4,0.2,0.6h-1v0.3
			c-0.1-0.3-0.2-0.5-0.3-0.8L25,30.9v-0.7c0-0.2,0.1-0.5,0.2-0.7c0,0-0.1-0.1-0.4-0.1c-0.2,0-0.5,0-0.7,0c0.1,0.5,0.1,1.2,0.1,1.8
			c0,0-0.1-0.1-0.2-0.1c-0.1-0.1-0.3-0.1-0.5-0.1c0,0.4,0,0.8-0.1,1.1c-0.1,0.4-0.2,0.7-0.3,1l0.6,0.3c0.1-0.3,0.2-0.6,0.3-1.1
			c0-0.2,0.1-0.4,0.1-0.6c0-0.1,0-0.2,0.1-0.3c0,0,0,0,0-0.1v1.8V35c0,0.7,0,1.3-0.1,1.9c0,0,0.2,0,0.5,0c0.3,0,0.5,0,0.5,0
			C25,36.2,25,35.4,25,34.4V31.2z M28,30.6h0.7c0,0.1-0.1,0.2-0.2,0.5c0,0.1,0,0.1,0,0.1h-1c0-0.2-0.1-0.4-0.2-0.6H28z"/>
		<path style="fill:#FFFFFF;" d="M38.1,35.5c0,0.3,0,0.4-0.1,0.4c-0.1,0-0.2-0.6-0.2-1.7c0-0.9,0-1.9,0-3.3h-1.5v-0.8v-0.3
			c0-0.1,0-0.2,0.1-0.3c0,0-0.1-0.1-0.4-0.1c-0.2,0-0.4,0-0.6,0c0,0.3,0,0.6,0,0.8v0.8h-0.9v0.5h-1.2v-0.5h0.5c0.2,0,0.4,0,0.5,0
			c0,0,0-0.1,0-0.4s0-0.4,0-0.4c-0.2,0-0.3,0-0.5,0h-0.5v-0.3c0-0.1,0-0.2,0.1-0.3c0,0-0.1-0.1-0.4-0.1c-0.2,0-0.4,0-0.6,0
			c0,0.2,0,0.3,0,0.4v0.4H32c-0.2,0-0.4,0-0.5,0c0,0,0,0.1,0,0.4s0,0.4,0,0.4c0.2,0,0.4,0,0.5,0h0.5v0.5h-0.7c-0.2,0-0.5,0-0.7,0
			c0,0,0,0.2,0,0.4c0,0.3,0,0.4,0,0.4c0.1,0,0.3,0,0.4,0H32l-0.3,0.1c0.1,0.3,0.2,0.6,0.3,0.9h-0.3c-0.1,0-0.2,0-0.3,0
			c0,0,0,0.1,0,0.4s0,0.4,0,0.4c0.3,0,0.5,0,0.6,0h0.6v0.6H32c-0.2,0-0.4,0-0.6,0c0,0,0,0.2,0,0.4c0,0.3,0,0.4,0,0.4
			c0.2,0,0.4,0,0.6,0h0.6v0.7c0,0.2,0,0.5,0,0.7c0,0,0.2,0,0.5,0c0.3,0,0.4,0,0.5,0c0-0.2,0-0.5,0-0.7v-0.7H34c0.2,0,0.4,0,0.5,0
			c0,0,0-0.2,0-0.4c0-0.3,0-0.4,0-0.4c-0.2,0-0.4,0-0.5,0h-0.6V34h1.2v-0.6c0.1,0.1,0.3,0.2,0.5,0.4c0.1,0.1,0.1,0.1,0.2,0.1
			c-0.2,1-0.7,1.8-1.4,2.4c0.3,0.1,0.5,0.3,0.7,0.6c0.7-0.6,1.2-1.3,1.5-2.3c0.2,0.2,0.4,0.4,0.5,0.5l0.4-0.6
			c0.1,1.4,0.3,2.2,0.7,2.3c0.6,0.3,0.9-0.2,0.9-1.5c-0.1-0.1-0.3-0.3-0.5-0.7C38.1,35,38.1,35.3,38.1,35.5z M33.5,33.2h-1l0.2-0.1
			c0-0.3-0.1-0.6-0.3-1H33h0.6c-0.1,0.3-0.2,0.6-0.3,1L33.5,33.2z M35.5,31.8c0,0.2,0,0.4,0,0.5c0,0.3,0,0.5,0,0.6
			c-0.1-0.1-0.3-0.2-0.5-0.3c0,0,0,0-0.1,0l-0.4,0.6H34c0.1-0.1,0.2-0.4,0.3-0.7c0-0.1,0.1-0.2,0.1-0.2l-0.3-0.1h0.7v-0.4L35.5,31.8
			L35.5,31.8z M36.3,33.5c0.1-0.5,0.1-1.1,0.1-1.7v0H37c0,0.4,0,0.8,0,1.2c0,0.1,0,0.3,0,0.6s0,0.4,0,0.6
			C36.8,33.9,36.5,33.7,36.3,33.5z"/>
		<path style="fill:#FFFFFF;" d="M44.3,29.8h-1c-0.4,0-0.7,0-1,0c0,0,0,0.2,0,0.5c0,0.3,0,0.5,0,0.5c0.7-0.1,1.3-0.1,1.9-0.1h1
			c0.4,0,0.7,0,1,0c0,0,0-0.2,0-0.5c0-0.3,0-0.5,0-0.5c-0.3,0-0.7,0-1,0H44.3z"/>
		<path style="fill:#FFFFFF;" d="M40.8,30.9c0.2-0.2,0.4-0.4,0.5-0.6c0.1-0.1,0.2-0.2,0.3-0.2c0.1,0,0.1,0,0.1-0.1
			c0-0.1,0-0.2-0.2-0.3c-0.2-0.1-0.4-0.3-0.6-0.4c-0.2,0.3-0.5,0.6-0.8,0.9c-0.3,0.3-0.7,0.6-1,0.8c0.1,0.1,0.3,0.4,0.5,0.8
			C40,31.6,40.4,31.3,40.8,30.9z"/>
		<path style="fill:#FFFFFF;" d="M41.8,31.4c-0.2-0.1-0.4-0.3-0.6-0.3c-0.3,0.4-0.6,0.9-1,1.3c-0.4,0.4-0.8,0.8-1.2,1.1
			c0.1,0.2,0.3,0.4,0.6,0.8c0.2-0.2,0.4-0.4,0.6-0.6v1.6c0,0.6,0,1.1-0.1,1.6c0,0,0.2,0,0.5,0c0.3,0,0.5,0,0.5,0c0-0.3,0-0.6,0-1v-1
			v-2.1c0.1-0.1,0.2-0.3,0.4-0.5c0-0.1,0.1-0.1,0.1-0.1c0.1-0.1,0.2-0.2,0.3-0.2c0.1,0,0.1-0.1,0.1-0.1C42.1,31.7,42,31.6,41.8,31.4
			z"/>
		<path style="fill:#FFFFFF;" d="M44.2,32h-1.1c-0.5,0-0.8,0-1.1,0c0,0,0,0.2,0,0.5c0,0.3,0,0.5,0,0.5c0.4,0,0.8,0,1.2,0h1.2v2.8
			c0,0.1-0.1,0.2-0.2,0.2c-0.3,0-0.6,0-1.1,0c0.1,0.3,0.2,0.6,0.3,1c0.4,0,0.7,0,0.9,0c0.3,0,0.5-0.1,0.6-0.1
			c0.2-0.1,0.3-0.2,0.4-0.3c0.1-0.1,0.1-0.3,0.1-0.6v-2.8h0.5c0.2,0,0.4,0,0.5,0c0,0,0-0.2,0-0.5c0-0.3,0-0.5,0-0.5
			c-0.4,0-0.7,0-1.1,0H44.2z"/>
		<path style="fill:#FFFFFF;" d="M5,3.7v38.1h51.7V3.7H5z M54.7,39.8H7V5.7h47.7V39.8z"/>
	</g>
</g>
</svg>
