<?xml version="1.0" encoding="utf-8"?>
<!-- Generator: Adobe Illustrator 22.0.0, SVG Export Plug-In . SVG Version: 6.00 Build 0)  -->
<svg version="1.1" xmlns="http://www.w3.org/2000/svg" xmlns:xlink="http://www.w3.org/1999/xlink" x="0px" y="0px"
	 viewBox="0 0 62.4 45.4" style="enable-background:new 0 0 62.4 45.4;" xml:space="preserve">
<g id="圖層_2">
	<g>
		<rect x="2.3" y="2.2" style="fill:#1C191B;" width="57.7" height="41.3"/>
		<polyline style="fill:#656565;" points="60,2.2 62.4,0.1 0,0.1 2.3,2.2 60,2.2 		"/>
		<polyline style="fill:#010001;" points="60,43.5 62.4,45.4 0,45.4 2.3,43.5 60,43.5 		"/>
		<polyline style="fill:#4A4A4B;" points="2.3,43.5 0,45.4 0,0.1 2.3,2.2 2.3,43.5 		"/>
		<polyline style="fill:#353537;" points="60,43.5 62.4,45.4 62.4,0.1 60,2.2 60,43.5 		"/>
	</g>
</g>
<g id="圖層_1">
	<g>
		<path style="fill:#FFFFFF;" d="M18,33.7h1.6V35c0,0.1-0.1,0.2-0.2,0.2c-0.6,0-1,0-1.4,0c0.2,0.3,0.3,0.7,0.4,0.9
			c0.9,0,1.4,0,1.7-0.2c0.2-0.1,0.3-0.2,0.4-0.3s0.1-0.4,0.1-0.6v-1.3h1.6c0.6,0,1.1,0,1.5,0.1c0,0,0-0.2,0-0.5s0-0.5,0-0.5
			c-0.3,0-0.6,0-0.8,0H22h-1.5v-0.9h1.3c0.5,0,0.9,0,1.3,0.1c0,0,0-0.2,0-0.5c0-0.3,0-0.5,0-0.5c-0.5,0-0.9,0.1-1.3,0.1h-1.3v-1
			c0.6-0.1,1.2-0.2,1.7-0.3c0.1,0,0.3,0,0.3,0c0.1,0,0.1,0,0.2,0c0.1,0,0.1-0.1-0.1-0.4c-0.1-0.2-0.2-0.4-0.4-0.6
			c-0.6,0.2-1.4,0.3-2.4,0.4c-0.9,0.1-1.9,0.2-2.9,0.2c0.1,0.3,0.2,0.6,0.2,0.8c0.9,0,1.7-0.1,2.4-0.2v0.9h-1.3
			c-0.5,0-0.9,0-1.3-0.1c0,0,0,0.2,0,0.5c0,0.3,0,0.5,0,0.5c0.5,0,0.9-0.1,1.3-0.1h1.3v0.9H18c-0.6,0-1.1,0-1.5-0.1c0,0,0,0.2,0,0.5
			c0,0.3,0,0.5,0,0.5C17,33.7,17.5,33.7,18,33.7z"/>
		<path style="fill:#FFFFFF;" d="M29.9,28.8H29c0,0.8,0,1.3,0,1.7h-0.7V30h-1.5v-0.4c0.5-0.1,1-0.1,1.4-0.2l-0.4-0.7
			c-0.8,0.2-2,0.3-3.4,0.4c0.1,0.2,0.2,0.4,0.2,0.7c0.4,0,0.8,0,1.3-0.1V30h-0.8c-0.3,0-0.5,0-0.8,0c0,0,0,0.1,0,0.4
			c0,0.2,0,0.4,0,0.4c0.3,0,0.6,0,0.8,0h0.8V31h-1.3v1.2v1.2h1.3v0.3h-0.7c-0.2,0-0.5,0-0.7,0c0,0,0,0.1,0,0.4s0,0.4,0,0.4
			c0.3,0,0.5,0,0.7,0h0.7V35c-0.4,0-0.9,0.1-1.6,0.1l0.1,0.8c0.6,0,1.6-0.2,3.1-0.3c0.2,0.2,0.4,0.4,0.6,0.6c0.6-0.5,1.1-1.2,1.3-2
			c0.2-0.7,0.4-1.7,0.4-2.8h0.7c0,1.3-0.1,2.2-0.1,2.8c0,0.6-0.1,0.9-0.2,1c-0.1,0.1-0.2,0.1-0.3,0.1c-0.2,0-0.5,0-0.8,0
			c0.2,0.3,0.3,0.6,0.3,0.9c0.5,0,0.8,0,1,0c0.1,0,0.3-0.1,0.3-0.1c0.1-0.1,0.2-0.2,0.3-0.3c0.1-0.2,0.2-0.6,0.3-1.3
			c0-0.6,0.1-1.8,0.1-3.5c0-0.1,0-0.3,0-0.4h-1.6C29.9,30.1,29.9,29.5,29.9,28.8z M25.9,32.9h-0.6v-0.4h0.3h0.3V32.9z M25.9,32h-0.6
			v-0.4h0.3h0.3V32z M26.8,31.6h0.3h0.3V32h-0.6V31.6z M26.8,32.5h0.6v0.4h-0.3h-0.3V32.5z M28.8,33.3c-0.1,0.6-0.3,1.1-0.6,1.5
			c-0.6,0.1-1,0.1-1.4,0.1v-0.4h0.7c0.2,0,0.5,0,0.7,0c0,0,0-0.1,0-0.4s0-0.4,0-0.4c-0.3,0-0.5,0-0.7,0h-0.7v-0.3h1.4v-1.2V31h-1.4
			v-0.3h1.5v0.6H29C29,32.1,28.9,32.7,28.8,33.3z"/>
		<path style="fill:#FFFFFF;" d="M38.7,32.6h-0.8h-1.7c0-0.2,0-0.3,0-0.5h1.6c0.6,0,1.2,0,1.6,0.1c0,0,0,0,0-0.1c0-0.3,0-0.6,0-1v-1
			h-3.2v-0.3c1.2,0,2.3-0.1,3.1-0.3l-0.6-0.7c-0.8,0.1-1.7,0.3-2.9,0.3L35.4,29v2.5c0,0.6,0,1-0.1,1.4c-0.1-0.5-0.3-1.1-0.6-1.7
			l-0.6,0.3c0.1,0.1,0.1,0.3,0.2,0.6l-0.6,0c0.1-0.1,0.2-0.2,0.2-0.3c0,0,0.1-0.1,0.1-0.2c0-0.1,0.1-0.1,0.1-0.1
			c0.2-0.2,0.3-0.5,0.6-0.9c0.1-0.1,0.2-0.2,0.3-0.2c0.1,0,0.1-0.1,0.1-0.1c0-0.1,0-0.2-0.2-0.3c-0.2-0.1-0.3-0.2-0.5-0.3
			c-0.2,0.4-0.4,0.8-0.7,1.3c0-0.1-0.1-0.2-0.2-0.3c0.1-0.2,0.3-0.6,0.5-0.9c0.1-0.1,0.2-0.2,0.2-0.3c0.1,0,0.1-0.1,0.1-0.1
			c0-0.1,0-0.2-0.2-0.3c-0.2-0.1-0.4-0.2-0.6-0.3c-0.1,0.4-0.3,0.9-0.6,1.4c-0.1-0.1-0.1-0.1-0.2-0.2l-0.4,0.6
			c0.4,0.5,0.7,0.8,0.9,1.2c-0.1,0.2-0.2,0.4-0.3,0.5c-0.1,0-0.2,0-0.4,0c-0.1,0-0.2,0-0.2,0l0.1,0.8l1-0.1v0.8
			c0-0.1-0.1-0.1-0.3-0.2c-0.2-0.1-0.3-0.1-0.5-0.1c-0.1,0.8-0.2,1.5-0.4,1.9c0.2,0.1,0.4,0.2,0.6,0.3c0.1-0.3,0.2-0.6,0.3-0.9
			c0-0.1,0.1-0.3,0.1-0.6c0-0.1,0-0.2,0.1-0.2c0,0,0-0.1,0-0.1v0.8c0,0.7,0,1.2-0.1,1.6c0,0,0.2,0,0.5,0c0.3,0,0.4,0,0.5,0
			c0-0.4-0.1-1-0.1-1.6v-1.7l0.4,0c0,0.2,0.1,0.3,0.1,0.5l0.6-0.3c0,0.4-0.1,0.8-0.2,1.2c-0.1-0.4-0.2-0.6-0.3-0.9l-0.6,0.2
			c0.2,0.5,0.3,1,0.3,1.4l0.4-0.1c-0.1,0.3-0.2,0.5-0.4,0.8c0.1,0,0.2,0.1,0.4,0.2c0.1,0.1,0.2,0.2,0.3,0.3c0.3-0.5,0.6-1.1,0.7-1.9
			v1c0,0.4,0,0.7,0,1c0,0,0.1,0,0.4,0s0.3,0,0.4,0c0-0.2,0-0.5,0-0.7v-0.7h0.3v0.7c0,0.2,0,0.5,0,0.7c0,0,0.1,0,0.3,0s0.3,0,0.3,0
			c0-0.2,0-0.5,0-0.7v-0.7h0.3v0.7c0,0.2,0,0.5,0,0.7c0,0,0.1,0,0.3,0c0.2,0,0.3,0,0.3,0c0-0.1,0-0.2,0-0.3v-0.3
			c0.1,0.2,0.2,0.5,0.2,0.7c0.3,0,0.5,0,0.7-0.1c0.1-0.1,0.1-0.2,0.2-0.3c0-0.1,0-0.2,0-0.4V34c0-0.5,0-1,0.1-1.3c0,0,0,0-0.1,0
			C39.3,32.6,39,32.6,38.7,32.6z M36.2,30.9h2.3v0.5h-1.2h-1.1V30.9z M36.9,34h-0.3v-0.3v-0.3h0.3V34z M37.8,34h-0.3v-0.3v-0.3h0.3
			V34z M38.8,35.3C38.8,35.4,38.7,35.4,38.8,35.3c-0.1,0.1-0.1,0.1-0.2,0.1c0,0,0,0-0.1,0c0,0-0.1,0-0.1,0v-0.7h0.3V35.3z
			 M38.8,33.7V34h-0.3v-0.7h0.3V33.7z"/>
		<path style="fill:#FFFFFF;" d="M45.7,28.9h-0.8c-0.3,0-0.5,0-0.8,0c0,0,0,0,0,0c0,0.3,0,0.6,0,0.9v0.9h1.6c0.6,0,1.1,0,1.6,0.1
			c0,0,0,0,0-0.1c0-0.3,0-0.6,0-0.9v-0.9H45.7z M46.4,30.1h-0.7H45v-0.5h1.3V30.1z"/>
		<path style="fill:#FFFFFF;" d="M45.7,31h-1c-0.4,0-0.7,0-1,0c0,0,0,0.2,0,0.4c0,0.3,0,0.4,0,0.4c0.1,0,0.2,0,0.2,0h0.2v2.8l-0.4,0
			V34h-1.3v-0.5h1.1v-2.9h-1.1v-0.4h0.6c0.3,0,0.4,0,0.6,0c0,0,0-0.2,0-0.4c0-0.3,0-0.4,0-0.4c-0.2,0-0.4,0-0.6,0h-0.6v-0.3
			c0-0.1,0-0.2,0.1-0.3c0,0-0.1-0.1-0.4-0.1c-0.2,0-0.4,0-0.6,0c0,0.2,0,0.3,0,0.4v0.4H41c-0.2,0-0.4,0-0.6,0c0,0,0,0.2,0,0.4
			c0,0.3,0,0.4,0,0.4c0.3,0,0.5,0,0.6,0h0.6v0.4h-1.1v2.9h1.1V34H41c-0.2,0-0.4,0-0.6,0c0,0,0,0.2,0,0.4s0,0.4,0,0.4
			c0.3,0,0.5,0,0.6,0h0.7v0.6c0,0.2,0,0.4,0,0.6c0,0,0.2,0,0.4,0c0.3,0,0.4,0,0.4,0c0-0.2,0-0.4,0-0.6v-0.6h1.1l0.1,0.6
			c0.2,0,0.4,0,0.7-0.1c0.8-0.1,1.5-0.1,2-0.2v0.4c0,0.2,0,0.3,0,0.4c0,0,0.2,0,0.5,0c0.3,0,0.4,0,0.5,0c0-0.1,0-0.3,0-0.5v-0.5
			l0.4,0v-0.8l-0.4,0v-2.6h0.2c0.1,0,0.1,0,0.2,0c0,0,0-0.1,0-0.4c0-0.3,0-0.4,0-0.4c-0.4,0-0.7,0-1,0H45.7z M41.7,32.9h-0.5v-0.5
			h0.2h0.2V32.9z M41.7,31.8h-0.5v-0.5h0.2h0.2V31.8z M42.4,31.3h0.5v0.5h-0.3h-0.2V31.3z M42.4,32.9v-0.5h0.5v0.5h-0.3H42.4z
			 M46.4,34.4c-0.6,0-1,0.1-1.3,0.1V34h0.7h0.7V34.4z M46.4,33.3h-0.7H45v-0.4h1.3V33.3z M46.4,32.2h-0.7H45v-0.4h1.3V32.2z"/>
		<path style="fill:#FFFFFF;" d="M5.3,3.8v38.1H57V3.8H5.3z M55,39.9H7.3V5.8H55V39.9z"/>
		<polygon style="fill:#FFFFFF;" points="46,16.4 41.1,6.6 19.1,6.6 19.1,8.6 39.9,8.6 39.9,24.1 19.1,24.1 19.1,26.1 41.1,26.1 		
			"/>
		<path style="fill:#FFFFFF;" d="M26.2,16.9c0.3,0.5,0.6,0.9,1,1.3l0.6,0.8c0.3,0.5,0.7,0.8,1.2,1.1c0.5,0.3,1,0.4,1.5,0.5l0.6,0
			l0.1,0c0,0,0,0,0.1,0c1.5-0.2,2.6-1.2,2.6-2.5c0-1,0-1.9,0-2.9l0-0.7c0-0.5-0.4-0.9-1-0.9c-0.1,0-0.2,0-0.4,0
			c0-0.3-0.2-0.5-0.4-0.7c-0.3-0.2-0.6-0.2-1-0.2c-0.2-0.5-0.6-0.6-1-0.6c-0.1,0-0.4,0-0.6,0.2c-0.2,0.1-0.3,0.3-0.4,0.4
			c0,0,0,0,0,0c-0.4-0.1-0.7-0.1-1,0.1c-0.3,0.2-0.4,0.5-0.4,0.9c0,0.2,0,0.3,0,0.5l0,1.2c-0.3-0.1-0.5-0.3-0.8-0.4
			c-0.4-0.1-0.7-0.1-1,0.1c-0.3,0.2-0.4,0.6-0.2,0.9C25.9,16.3,26.1,16.6,26.2,16.9z M28.2,16.8l0.4,0.3l0-2.5c0-0.3,0-0.6,0-0.9
			c0-0.2,0.1-0.2,0.2-0.3c0.1,0,0.1,0,0.2,0.1s0.1,0.1,0.1,0.2c0,0.5,0,1.1,0,1.6l0,1.3h0.8l0-3.4c0-0.2,0.1-0.2,0.2-0.3
			c0.1,0,0.2,0,0.2,0c0.1,0.1,0.1,0.2,0.1,0.3c0,0.4,0,0.8,0,1.3l0,1.8l0.5,0l0.2,0l0.1-0.2c0,0,0-0.1,0-0.2l0-2.2
			c0-0.2,0.1-0.3,0.3-0.3c0.1,0,0.3,0,0.3,0.3v2.8h0.8v-1.9c0,0,0-0.1,0-0.1c0-0.1,0.1-0.2,0.2-0.2c0,0,0,0,0,0
			c0.1,0,0.2,0.1,0.2,0.2c0,0.4,0,0.9,0,1.3l0,2.1c0,0.8-0.5,1.5-1.4,1.8c-1,0.3-1.8,0.2-2.6-0.4c-0.2-0.2-0.4-0.4-0.6-0.7
			c-0.6-0.8-1.1-1.5-1.6-2.3l-0.1-0.2c-0.1-0.1-0.1-0.2-0.2-0.3c0,0,0,0,0-0.1c0,0,0,0,0.1,0c0.3,0.1,0.6,0.3,0.8,0.4
			c0.2,0.1,0.3,0.2,0.4,0.3C28,16.6,28.1,16.7,28.2,16.8z"/>
		<path style="fill:#FFFFFF;" d="M24,9.8v13.1h11.8V9.8H24z M34.3,21.4h-8.8V11.3h8.8V21.4z"/>
	</g>
</g>
</svg>
