<?xml version="1.0" encoding="utf-8"?>
<!-- Generator: Adobe Illustrator 22.0.0, SVG Export Plug-In . SVG Version: 6.00 Build 0)  -->
<svg version="1.1" xmlns="http://www.w3.org/2000/svg" xmlns:xlink="http://www.w3.org/1999/xlink" x="0px" y="0px"
	 viewBox="0 0 62.4 45.4" style="enable-background:new 0 0 62.4 45.4;" xml:space="preserve">
<g id="圖層_2">
	<g>
		<rect x="2.3" y="2.2" style="fill:#1C191B;" width="57.7" height="41.3"/>
		<polyline style="fill:#656565;" points="60,2.2 62.4,0 0,0 2.3,2.2 60,2.2 		"/>
		<polyline style="fill:#010001;" points="60,43.4 62.4,45.4 0,45.4 2.3,43.4 60,43.4 		"/>
		<polyline style="fill:#4A4A4B;" points="2.3,43.4 0,45.4 0,0 2.3,2.2 2.3,43.4 		"/>
		<polyline style="fill:#353537;" points="60,43.4 62.4,45.4 62.4,0 60,2.2 60,43.4 		"/>
	</g>
</g>
<g id="圖層_1">
	<g>
		<path style="fill:#FFFFFF;" d="M16.4,32.8c-0.3,0-0.4,0-0.5,0l0.1,0.8c0.4,0,0.8-0.1,1.1-0.1v1.6c0,0.7,0,1.2-0.1,1.6
			c0,0,0.2,0,0.5,0c0.3,0,0.4,0,0.5,0c0-0.2,0-0.5,0-0.8v-0.8v-1.7l0.5-0.1c0.1,0.2,0.1,0.3,0.1,0.5l0.7-0.3c-0.1-0.5-0.4-1-0.8-1.7
			l-0.7,0.3c0.1,0.2,0.2,0.4,0.3,0.5l-0.8,0.1c0.3-0.4,0.6-0.8,1-1.4c0.1-0.1,0.2-0.2,0.3-0.2c0.1,0,0.1-0.1,0.1-0.1
			c0-0.1,0-0.2-0.2-0.3c-0.2-0.1-0.3-0.3-0.5-0.4c-0.2,0.4-0.4,0.9-0.7,1.3c0,0-0.1-0.1-0.1-0.1c-0.1-0.1-0.1-0.2-0.2-0.2
			c0.2-0.3,0.4-0.6,0.5-0.9c0.1-0.1,0.2-0.2,0.2-0.3c0.1,0,0.1-0.1,0.1-0.1c0-0.1,0-0.2-0.2-0.3c-0.2-0.1-0.4-0.2-0.6-0.3
			c-0.1,0.4-0.3,0.9-0.6,1.4c0,0,0,0-0.1-0.1c-0.1,0-0.1-0.1-0.1-0.1l-0.4,0.6c0.4,0.4,0.7,0.8,1,1.1c-0.1,0.2-0.3,0.4-0.3,0.5
			C16.5,32.8,16.4,32.8,16.4,32.8z"/>
		<path style="fill:#FFFFFF;" d="M22.5,35.8c-0.3-0.1-0.4-1-0.5-2.6h0.6c0.2,0,0.4,0,0.6,0c0,0,0-0.2,0-0.5c0-0.3,0-0.5,0-0.5
			c-0.3,0-0.5,0-0.6,0h-0.6c0-0.6,0-1.2,0-1.9c0.2-0.1,0.4-0.1,0.6-0.2c0.1,0,0.2,0,0.3,0c0,0,0.1,0,0.1,0c0.1,0,0-0.1-0.1-0.3
			s-0.3-0.4-0.5-0.6c-0.6,0.3-1.4,0.5-2.6,0.7L19.3,30v2.9v2.9c-0.2,0.1-0.4,0.1-0.6,0.1l0.3,0.9c1-0.3,1.8-0.5,2.4-0.7l-0.1-0.8
			c-0.1,0-0.2,0.1-0.4,0.1c-0.3,0.1-0.6,0.1-0.7,0.2v-2.3h1c0.1,1,0.2,1.8,0.3,2.3c0.2,0.6,0.4,1,0.7,1.2c0.3,0.2,0.6,0.2,0.8,0
			c0.3-0.2,0.4-0.7,0.5-1.3c-0.3-0.2-0.5-0.4-0.7-0.6C22.7,35.5,22.6,35.9,22.5,35.8z M20.2,32.3v-0.7v-0.7c0.3-0.1,0.6-0.1,0.9-0.2
			c0,0.6,0,1.1,0,1.7H20.2z"/>
		<path style="fill:#FFFFFF;" d="M16.8,35.3c0.1-0.2,0.1-0.4,0.1-0.6c0-0.1,0.1-0.2,0.1-0.3c0,0,0.1-0.1,0.1-0.1
			c0-0.1-0.1-0.1-0.3-0.2c-0.2-0.1-0.4-0.1-0.6-0.2c-0.1,0.8-0.2,1.5-0.4,1.9c0.3,0.1,0.5,0.2,0.7,0.4C16.6,36,16.7,35.7,16.8,35.3z
			"/>
		<path style="fill:#FFFFFF;" d="M18.7,34L18,34.2c0.1,0.2,0.2,0.4,0.3,0.7c0.1,0.3,0.1,0.5,0.2,0.7l0.7-0.3
			C19.1,35,18.9,34.5,18.7,34z"/>
		<path style="fill:#FFFFFF;" d="M30.4,31.5c0,0.1-0.1,0.1-0.1,0.1h-0.2c0,0-0.1,0-0.1,0c0,0,0-0.1,0-0.2V31h0.5c0.2,0,0.4,0,0.5,0
			c0,0,0-0.1,0-0.4c0-0.3,0-0.4,0-0.4c-0.2,0-0.3,0-0.5,0H30v-0.4c0-0.1,0-0.2,0.1-0.4c0,0-0.1-0.1-0.4-0.1c-0.2,0-0.4,0-0.6,0
			c0,0.2,0,0.3,0,0.4v0.4h-0.4v-0.4c0-0.1,0-0.2,0.1-0.3c0,0-0.1-0.1-0.4-0.1c-0.2,0-0.4,0-0.6,0c0,0.2,0,0.3,0,0.4v0.4h-0.7v-0.4
			c0-0.1,0-0.2,0.1-0.3c0,0-0.1-0.1-0.4-0.1c-0.2,0-0.4,0-0.6,0c0,0.2,0,0.3,0,0.4v0.4H26v-0.4c0-0.1,0-0.2,0.1-0.4
			c0,0-0.1-0.1-0.4-0.1c-0.2,0-0.4,0-0.6,0c0,0.2,0,0.3,0,0.4v0.4h-0.5c-0.2,0-0.4,0-0.5,0c0,0,0,0.1,0,0.4c0,0.3,0,0.4,0,0.4
			c0.2,0,0.3,0,0.5,0h0.5c-0.1,0.4-0.4,0.7-1,0.9c0.2,0.2,0.4,0.4,0.5,0.6c0.7-0.3,1.2-0.8,1.3-1.5h0.5v1.2h1.2h1.2V31h0.4v0.4
			c0,0.4,0.1,0.6,0.2,0.7c0.1,0.1,0.3,0.2,0.6,0.2h0.5c0.2,0,0.4-0.1,0.5-0.2s0.2-0.4,0.2-0.8c-0.3-0.1-0.6-0.2-0.7-0.3
			C30.5,31.3,30.5,31.4,30.4,31.5z M27.9,31.5h-0.3h-0.3V31h0.7V31.5z"/>
		<path style="fill:#FFFFFF;" d="M29.3,32.5h-1.7h-1.7c-0.7,0-1.3,0-1.7-0.1c0,0,0,0,0,0.1c0,0.2,0,0.5,0,0.9v0.9h0.8v1.1
			c0,0.4,0,0.8,0,1.1c0,0,0.2,0,0.5,0c0.3,0,0.5,0,0.5,0c0-0.2,0-0.5,0-0.9v-0.9h1.2v1.1c0,0.5,0,0.8,0,1.1c0,0,0.2,0,0.5,0
			c0.3,0,0.5,0,0.5,0c0-0.3,0-0.6,0-1.1v-1.1h1.4v0.8c0,0.1,0,0.1-0.1,0.1c-0.2,0-0.5,0-0.9,0c0.1,0.3,0.2,0.5,0.3,0.8
			c0.3,0,0.6,0,0.7,0c0.2,0,0.4-0.1,0.5-0.1c0.1-0.1,0.2-0.2,0.3-0.3c0.1-0.1,0.1-0.3,0.1-0.5v-1.3H31v-0.9c0-0.3,0-0.6,0-0.9
			c0,0,0-0.1,0-0.1C30.6,32.5,30,32.5,29.3,32.5z M27.1,33.9h-1h-1v-0.6h2V33.9z M30.1,33.9H29H28v-0.6h2.1V33.9z"/>
		<path style="fill:#FFFFFF;" d="M38.8,35.5c0,0.3,0,0.4-0.1,0.4c-0.1,0-0.2-0.6-0.2-1.7c0-0.9,0-1.9,0-3.3h-1.5v-0.8v-0.3
			c0-0.1,0-0.2,0.1-0.3c0,0-0.1-0.1-0.4-0.1c-0.2,0-0.4,0-0.6,0c0,0.3,0,0.6,0,0.8v0.8h-0.9v0.5h-1.2v-0.5h0.5c0.2,0,0.4,0,0.5,0
			c0,0,0-0.1,0-0.4s0-0.4,0-0.4c-0.2,0-0.3,0-0.5,0h-0.5v-0.3c0-0.1,0-0.2,0.1-0.3c0,0-0.1-0.1-0.4-0.1c-0.2,0-0.4,0-0.6,0
			c0,0.2,0,0.3,0,0.4v0.4h-0.5c-0.2,0-0.4,0-0.5,0c0,0,0,0.1,0,0.4s0,0.4,0,0.4c0.2,0,0.4,0,0.5,0h0.5v0.5h-0.7c-0.2,0-0.5,0-0.7,0
			c0,0,0,0.2,0,0.4s0,0.4,0,0.4c0.1,0,0.3,0,0.4,0h0.4l-0.3,0.1c0.1,0.3,0.2,0.6,0.3,0.9h-0.3c-0.1,0-0.2,0-0.3,0c0,0,0,0.1,0,0.4
			s0,0.4,0,0.4c0.3,0,0.5,0,0.6,0h0.6v0.6h-0.6c-0.2,0-0.4,0-0.6,0c0,0,0,0.2,0,0.4c0,0.3,0,0.4,0,0.4c0.2,0,0.4,0,0.6,0h0.6v0.7
			c0,0.2,0,0.5,0,0.7c0,0,0.2,0,0.5,0s0.4,0,0.5,0c0-0.2,0-0.5,0-0.7v-0.7h0.6c0.2,0,0.4,0,0.5,0c0,0,0-0.2,0-0.4c0-0.3,0-0.4,0-0.4
			c-0.2,0-0.4,0-0.5,0h-0.6V34h1.2v-0.6c0.1,0.1,0.3,0.2,0.5,0.4c0.1,0.1,0.1,0.1,0.2,0.1c-0.2,1-0.7,1.8-1.4,2.4
			c0.3,0.1,0.5,0.3,0.7,0.6c0.7-0.6,1.2-1.3,1.5-2.3c0.2,0.2,0.4,0.4,0.5,0.5l0.4-0.6c0.1,1.4,0.3,2.2,0.7,2.3
			c0.6,0.3,0.9-0.2,0.9-1.5c-0.1-0.1-0.3-0.3-0.5-0.7C38.9,35,38.9,35.3,38.8,35.5z M34.2,33.2h-1l0.2-0.1c0-0.3-0.1-0.6-0.3-1h0.6
			h0.6c-0.1,0.3-0.2,0.6-0.3,1L34.2,33.2z M36.3,31.8c0,0.2,0,0.4,0,0.5c0,0.3,0,0.5,0,0.6c-0.1-0.1-0.3-0.2-0.5-0.3c0,0,0,0-0.1,0
			l-0.4,0.6h-0.5c0.1-0.1,0.2-0.4,0.3-0.7c0-0.1,0.1-0.2,0.1-0.2l-0.3-0.1h0.7v-0.4L36.3,31.8L36.3,31.8z M37,33.5
			c0.1-0.5,0.1-1.1,0.1-1.7v0h0.6c0,0.4,0,0.8,0,1.2c0,0.1,0,0.3,0,0.6c0,0.2,0,0.4,0,0.6C37.5,33.9,37.3,33.7,37,33.5z"/>
		<path style="fill:#FFFFFF;" d="M45.1,29.8h-1c-0.4,0-0.7,0-1,0c0,0,0,0.2,0,0.5c0,0.3,0,0.5,0,0.5c0.7-0.1,1.3-0.1,1.9-0.1h1
			c0.4,0,0.7,0,1,0c0,0,0-0.2,0-0.5c0-0.3,0-0.5,0-0.5c-0.3,0-0.7,0-1,0H45.1z"/>
		<path style="fill:#FFFFFF;" d="M45,32h-1.1c-0.5,0-0.8,0-1.1,0c0,0,0,0.2,0,0.5c0,0.3,0,0.5,0,0.5c0.4,0,0.8,0,1.2,0h1.2v2.8
			c0,0.1-0.1,0.2-0.2,0.2c-0.3,0-0.6,0-1.1,0c0.1,0.3,0.2,0.6,0.3,1c0.4,0,0.7,0,0.9,0c0.3,0,0.5-0.1,0.6-0.1
			c0.2-0.1,0.3-0.2,0.4-0.3c0.1-0.1,0.1-0.3,0.1-0.6v-2.8h0.5c0.2,0,0.4,0,0.5,0c0,0,0-0.2,0-0.5c0-0.3,0-0.5,0-0.5
			c-0.4,0-0.7,0-1.1,0H45z"/>
		<path style="fill:#FFFFFF;" d="M42.6,31.4c-0.2-0.1-0.4-0.3-0.6-0.3c-0.3,0.4-0.6,0.9-1,1.3c-0.4,0.4-0.8,0.8-1.2,1.1
			c0.1,0.2,0.3,0.4,0.6,0.8c0.2-0.2,0.4-0.4,0.6-0.6v1.6c0,0.6,0,1.1-0.1,1.6c0,0,0.2,0,0.5,0c0.3,0,0.5,0,0.5,0c0-0.3,0-0.6,0-1v-1
			v-2.1c0.1-0.1,0.2-0.3,0.4-0.5c0-0.1,0.1-0.1,0.1-0.1c0.1-0.1,0.2-0.2,0.3-0.2c0.1,0,0.1-0.1,0.1-0.1
			C42.9,31.7,42.8,31.6,42.6,31.4z"/>
		<path style="fill:#FFFFFF;" d="M41.5,30.9c0.2-0.2,0.4-0.4,0.5-0.6c0.1-0.1,0.2-0.2,0.3-0.2c0.1,0,0.1,0,0.1-0.1
			c0-0.1,0-0.2-0.2-0.3c-0.2-0.1-0.4-0.3-0.6-0.4c-0.2,0.3-0.5,0.6-0.8,0.9c-0.3,0.3-0.7,0.6-1,0.8c0.1,0.1,0.3,0.4,0.5,0.8
			C40.8,31.6,41.1,31.3,41.5,30.9z"/>
		<path style="fill:#FFFFFF;" d="M33.9,21.9l3.8-5.3l-3-5.8H19.4l4.3,5.7l-4.4,5.4H33.9z M23.4,12.9h10.1l1.9,3.6l-2.5,3.4h-9.4
			l2.7-3.3L23.4,12.9z"/>
		<path style="fill:#FFFFFF;" d="M5.3,3.6v38.1H57V3.6H5.3z M55,39.7H7.3V5.6H55V39.7z"/>
		<polygon style="fill:#FFFFFF;" points="46,16.4 41.1,6.6 19.1,6.6 19.1,8.6 39.9,8.6 39.9,24.1 19.1,24.1 19.1,26.1 41.1,26.1 		
			"/>
	</g>
</g>
</svg>
