<?xml version="1.0" encoding="utf-8"?>
<!-- Generator: Adobe Illustrator 22.0.0, SVG Export Plug-In . SVG Version: 6.00 Build 0)  -->
<svg version="1.1" xmlns="http://www.w3.org/2000/svg" xmlns:xlink="http://www.w3.org/1999/xlink" x="0px" y="0px"
	 viewBox="0 0 62.4 45.4" style="enable-background:new 0 0 62.4 45.4;" xml:space="preserve">
<g id="圖層_2">
	<g>
		<rect x="2.3" y="2.2" style="fill:#1C191B;" width="57.7" height="41.3"/>
		<polyline style="fill:#656565;" points="60,2.2 62.4,0 0,0 2.3,2.2 60,2.2 		"/>
		<polyline style="fill:#010001;" points="60,43.4 62.4,45.4 0,45.4 2.3,43.4 60,43.4 		"/>
		<polyline style="fill:#4A4A4B;" points="2.3,43.4 0,45.4 0,0 2.3,2.2 2.3,43.4 		"/>
		<polyline style="fill:#353537;" points="60,43.4 62.4,45.4 62.4,0 60,2.2 60,43.4 		"/>
	</g>
</g>
<g id="圖層_1">
	<g>
		<path style="fill:#FFFFFF;" d="M26.2,36.9c0-0.3-0.2-0.6-0.4-0.9c0.4,0,0.9,0,1.4,0c0.2,0,0.2-0.1,0.2-0.2v-1.3H26
			c-0.5,0-1,0-1.5,0.1c0,0,0-0.2,0-0.5c0-0.3,0-0.5,0-0.5c0.4,0,0.9,0.1,1.5,0.1h1.6v-0.9h-1.3c-0.4,0-0.8,0-1.3,0.1
			c0,0,0-0.2,0-0.5c0-0.3,0-0.5,0-0.5c0.4,0,0.8,0.1,1.3,0.1h1.3v-0.9c-0.7,0.1-1.5,0.1-2.4,0.2c0-0.3-0.1-0.6-0.2-0.8
			c1,0,2-0.1,2.9-0.2c1-0.1,1.8-0.3,2.4-0.4c0.2,0.2,0.3,0.4,0.4,0.6c0.1,0.2,0.1,0.3,0.1,0.4c0,0-0.1,0-0.2,0c-0.1,0-0.2,0-0.3,0
			c-0.5,0.1-1.1,0.2-1.7,0.3v1h1.3c0.4,0,0.8,0,1.3-0.1c0,0,0,0.2,0,0.5c0,0.3,0,0.5,0,0.5c-0.4,0-0.8-0.1-1.3-0.1h-1.3v0.9H30h0.8
			c0.2,0,0.4,0,0.8,0c0,0,0,0.2,0,0.5s0,0.5,0,0.5c-0.4,0-0.9-0.1-1.5-0.1h-1.6v1.3c0,0.3,0,0.5-0.1,0.6s-0.2,0.3-0.4,0.3
			C27.7,36.8,27.1,36.9,26.2,36.9z"/>
		<path style="fill:#FFFFFF;" d="M33.9,36.9c-0.3,0-0.4,0-0.4,0c0-0.2,0-0.4,0-0.6v-0.6h-0.6c-0.1,0-0.3,0-0.6,0c0,0,0-0.2,0-0.4
			s0-0.4,0-0.4c0.2,0,0.4,0,0.6,0h0.6v-0.5h-1v-1.4v-1.4h1V31H33c-0.2,0-0.4,0-0.5,0c0,0,0-0.2,0-0.4c0-0.3,0-0.4,0-0.4
			c0.1,0,0.3,0,0.5,0h0.6v-0.4c0-0.1,0-0.2,0-0.4c0.2,0,0.4,0,0.6,0c0.2,0,0.4,0.1,0.4,0.1c-0.1,0.1-0.1,0.2-0.1,0.3v0.3h0.6
			c0.2,0,0.4,0,0.6,0c0,0,0,0.2,0,0.4c0,0.3,0,0.4,0,0.4c-0.1,0-0.3,0-0.6,0h-0.6v0.4h1c0.3-0.2,0.7-0.5,1-0.9
			c0.3-0.4,0.5-0.7,0.7-1.1h0.8c0.3,0.4,0.5,0.8,0.9,1.1c0.4,0.4,0.7,0.7,1,0.8c-0.2,0.3-0.4,0.5-0.5,0.8c-0.2-0.1-0.3-0.3-0.5-0.4
			v0.6h-2.5v-0.6c-0.1,0.1-0.3,0.3-0.6,0.5c-0.1-0.2-0.2-0.4-0.4-0.6v2.7h-1v0.5h0.6c0.2,0,0.4,0,0.6,0c0,0,0,0.2,0,0.4s0,0.4,0,0.4
			c-0.1,0-0.3,0-0.6,0h-0.6v0.6c0,0.2,0,0.4,0,0.6C34.3,36.9,34.2,36.9,33.9,36.9z M33.2,32.5h0.4v-0.2v-0.2h-0.4V32.5z M33.2,33.6
			h0.4v-0.2v-0.2h-0.4V33.6z M34.2,32.5h0.4v-0.5h-0.4v0.2V32.5z M34.2,33.6h0.4v-0.5h-0.4v0.2V33.6z M36,36.9c-0.2,0-0.4,0-0.4,0
			c0-0.2,0-0.6,0-1v-1v-1c0-0.4,0-0.8,0-1c0-0.1,0-0.1,0-0.1c0.5,0.1,1.1,0.1,1.9,0.1h0.9c0.4,0,0.7,0,0.9,0c0,0,0.1,0,0.1,0
			c0,0.4-0.1,0.9-0.1,1.6v1.6c0,0.3-0.1,0.5-0.2,0.7c-0.1,0.1-0.4,0.2-0.7,0.1c0-0.3-0.1-0.5-0.2-0.7c0.1,0,0.2,0,0.3,0
			c0,0,0.1,0,0.1-0.1v-0.9h-0.4V36c0,0.3,0,0.6,0,0.8c0,0-0.1,0-0.3,0s-0.3,0-0.3,0c0-0.2,0-0.5,0-0.8v-0.8h-0.4V36
			c0,0.3,0,0.6,0,0.8c0,0-0.1,0-0.3,0c-0.2,0-0.3,0-0.3,0c0-0.2,0-0.5,0-0.8v-0.8h-0.4V36c0,0.3,0,0.6,0,0.9
			C36.4,36.9,36.2,36.9,36,36.9z M36.4,34.4h0.4v-0.8h-0.4V34V34.4z M36.5,31.6h1h1c-0.4-0.4-0.8-0.9-1.1-1.3
			C37.2,30.7,36.9,31.2,36.5,31.6z M37.3,34.4h0.4v-0.8h-0.4V34V34.4z M38.2,34.4h0.4v-0.8h-0.4V34V34.4z"/>
	</g>
	<g>
		<path style="fill:#FFFFFF;" d="M30.8,33.5H30h-1.5v-0.9h1.3c0.5,0,0.9,0,1.3,0.1c0,0,0-0.2,0-0.5c0-0.3,0-0.5,0-0.5
			c-0.5,0-0.9,0.1-1.3,0.1h-1.3v-1c0.6-0.1,1.2-0.2,1.7-0.3c0.1,0,0.3,0,0.3,0c0.1,0,0.1,0,0.2,0c0.1,0,0.1-0.1-0.1-0.4
			c-0.1-0.2-0.2-0.4-0.4-0.6c-0.6,0.2-1.4,0.3-2.4,0.4c-0.9,0.1-1.9,0.2-2.9,0.2c0.1,0.3,0.2,0.6,0.2,0.8c0.9,0,1.7-0.1,2.4-0.2v0.9
			h-1.3c-0.5,0-0.9,0-1.3-0.1c0,0,0,0.2,0,0.5c0,0.3,0,0.5,0,0.5c0.5,0,0.9-0.1,1.3-0.1h1.3v0.9H26c-0.6,0-1.1,0-1.5-0.1
			c0,0,0,0.2,0,0.5c0,0.3,0,0.5,0,0.5c0.5,0,1.1-0.1,1.5-0.1h1.6v1.3c0,0.1-0.1,0.2-0.2,0.2c-0.6,0-1,0-1.4,0
			c0.2,0.3,0.3,0.7,0.4,0.9c0.9,0,1.4,0,1.7-0.2c0.2-0.1,0.3-0.2,0.4-0.3s0.1-0.4,0.1-0.6v-1.3h1.6c0.6,0,1.1,0,1.5,0.1
			c0,0,0-0.2,0-0.5s0-0.5,0-0.5C31.3,33.5,31,33.5,30.8,33.5z"/>
		<path style="fill:#FFFFFF;" d="M38.5,32.8h-0.9c-0.7,0-1.4,0-1.9-0.1c0,0,0,0,0,0.1c0,0.2,0,0.6,0,1v1v1c0,0.4,0,0.8,0,1
			c0,0,0.2,0,0.4,0s0.4,0,0.4,0c0-0.2,0-0.5,0-0.9v-0.9h0.4V36c0,0.3,0,0.6,0,0.8c0,0,0.1,0,0.3,0c0.2,0,0.3,0,0.3,0
			c0-0.2,0-0.5,0-0.8v-0.8h0.4V36c0,0.3,0,0.6,0,0.8c0,0,0.1,0,0.3,0s0.3,0,0.3,0c0-0.2,0-0.5,0-0.8v-0.8h0.4v0.9
			c0,0.1,0,0.1-0.1,0.1c-0.1,0-0.2,0-0.3,0c0.1,0.2,0.2,0.5,0.2,0.7c0.3,0,0.6,0,0.7-0.1c0.2-0.1,0.2-0.3,0.2-0.7v-1.6
			c0-0.7,0-1.2,0.1-1.6c0,0,0,0-0.1,0C39.2,32.8,38.9,32.8,38.5,32.8z M36.7,34.4h-0.4V34v-0.4h0.4V34.4z M37.7,34.4h-0.4V34v-0.4
			h0.4V34.4z M38.6,34.4h-0.4V34v-0.4h0.4V34.4z"/>
		<path style="fill:#FFFFFF;" d="M37.9,29.4H37c-0.2,0.3-0.4,0.7-0.7,1.1c-0.3,0.4-0.7,0.7-1,0.9h-1V31h0.6c0.2,0,0.4,0,0.6,0
			c0,0,0-0.2,0-0.4c0-0.3,0-0.4,0-0.4c-0.2,0-0.4,0-0.6,0h-0.6v-0.3c0-0.1,0-0.2,0.1-0.3c0,0-0.1-0.1-0.4-0.1c-0.2,0-0.4,0-0.6,0
			c0,0.2,0,0.3,0,0.4v0.4H33c-0.2,0-0.4,0-0.5,0c0,0,0,0.2,0,0.4c0,0.3,0,0.4,0,0.4c0.2,0,0.4,0,0.5,0h0.6v0.4h-1v1.4v1.4h1v0.5
			h-0.6c-0.2,0-0.4,0-0.6,0c0,0,0,0.2,0,0.4s0,0.4,0,0.4c0.3,0,0.5,0,0.6,0h0.6v0.6c0,0.2,0,0.4,0,0.6c0,0,0.2,0,0.4,0
			c0.3,0,0.4,0,0.4,0c0-0.2,0-0.4,0-0.6v-0.6h0.6c0.2,0,0.4,0,0.6,0c0,0,0-0.2,0-0.4s0-0.4,0-0.4c-0.2,0-0.4,0-0.6,0h-0.6v-0.5h1
			v-2.7c0.2,0.2,0.3,0.4,0.4,0.6c0.2-0.2,0.4-0.3,0.6-0.5v0.6h2.5v-0.6c0.2,0.2,0.4,0.3,0.5,0.4c0.1-0.3,0.3-0.5,0.5-0.8
			c-0.3-0.2-0.7-0.5-1-0.8C38.4,30.2,38.1,29.8,37.9,29.4z M33.6,33.4v0.2h-0.4v-0.5h0.4V33.4z M33.6,32.3v0.2h-0.4v-0.5h0.4V32.3z
			 M34.7,33.6h-0.4v-0.2v-0.2h0.4V33.6z M34.7,32.5h-0.4v-0.2v-0.2h0.4V32.5z M37.5,31.6h-1c0.4-0.4,0.8-0.8,1-1.3
			c0.3,0.4,0.6,0.9,1.1,1.3H37.5z"/>
		<path style="fill:#FFFFFF;" d="M5.3,3.6v38.1H57V3.6H5.3z M55,39.7H7.3V5.6H55V39.7z"/>
		<path style="fill:#FFFFFF;" d="M32,27.9c5.9,0,10.7-4.8,10.7-10.7c0-5.9-4.8-10.7-10.7-10.7c-5.9,0-10.7,4.8-10.7,10.7
			C21.3,23.1,26.1,27.9,32,27.9z M23.4,18.1h6.1c0.4,1,1.4,1.7,2.5,1.7c0.4,0,0.8-0.1,1.1-0.2l3.7,4.8c-1.4,0.9-3,1.5-4.8,1.5
			C27.5,25.9,23.9,22.5,23.4,18.1z M32.6,16.7c0.1,0.1,0.2,0.3,0.2,0.5c0,0.4-0.3,0.7-0.7,0.7c-0.4,0-0.7-0.3-0.7-0.7
			s0.3-0.7,0.7-0.7C32.2,16.4,32.4,16.5,32.6,16.7z M40.7,17.1c0,2.3-0.9,4.4-2.4,6l-3.8-4.9c0.1-0.3,0.2-0.7,0.2-1
			c0-0.4-0.1-0.7-0.2-1l3.7-5C39.8,12.6,40.7,14.8,40.7,17.1z M32,8.4c1.7,0,3.3,0.5,4.7,1.4l-3.6,4.8c-0.3-0.2-0.7-0.2-1.1-0.2
			c-1.2,0-2.1,0.7-2.5,1.7h-6.1C23.9,11.8,27.5,8.4,32,8.4z"/>
	</g>
</g>
</svg>
