<?xml version="1.0" encoding="utf-8"?>
<!-- Generator: Adobe Illustrator 22.0.0, SVG Export Plug-In . SVG Version: 6.00 Build 0)  -->
<svg version="1.1" xmlns="http://www.w3.org/2000/svg" xmlns:xlink="http://www.w3.org/1999/xlink" x="0px" y="0px"
	 viewBox="0 0 62.4 45.4" style="enable-background:new 0 0 62.4 45.4;" xml:space="preserve">
<g id="圖層_2">
	<g>
		<rect x="2.3" y="2.2" style="fill:#1C191B;" width="57.7" height="41.3"/>
		<polyline style="fill:#656565;" points="60,2.2 62.4,0.1 0,0.1 2.3,2.2 60,2.2 		"/>
		<polyline style="fill:#010001;" points="60,43.5 62.4,45.4 0,45.4 2.3,43.5 60,43.5 		"/>
		<polyline style="fill:#4A4A4B;" points="2.3,43.5 0,45.4 0,0.1 2.3,2.2 2.3,43.5 		"/>
		<polyline style="fill:#353537;" points="60,43.5 62.4,45.4 62.4,0.1 60,2.2 60,43.5 		"/>
	</g>
</g>
<g id="圖層_1">
	<g>
		<path style="fill:#FFFFFF;" d="M30.7,31h-0.9v-0.8c0-0.3,0.1-0.5,0.2-0.8c0,0-0.2-0.1-0.5-0.1c-0.3,0-0.5,0-0.7,0
			c0,0.3,0,0.6,0,0.8V31h-2.2h-1.1c-0.5,0-0.8,0-1.1,0c0,0,0,0.2,0,0.5c0,0.3,0,0.5,0,0.6c0.8-0.1,1.5-0.1,2.2-0.1h2.2v3.7
			c0,0.1,0,0.2-0.1,0.2s-0.1,0.1-0.2,0.1c0,0-0.1,0-0.1,0c-0.6,0-1.1,0-1.4,0c0.2,0.4,0.4,0.8,0.4,1.1c0.9,0,1.5-0.1,1.8-0.2
			c0.2-0.1,0.3-0.2,0.4-0.4c0.1-0.2,0.1-0.4,0.1-0.7V32h0.9c0.4,0,0.6,0,0.9,0c0,0,0-0.2,0-0.5c0-0.3,0-0.5,0-0.5
			C31.2,31,30.9,31,30.7,31z"/>
		<path style="fill:#FFFFFF;" d="M26.8,33.5c-0.2-0.3-0.5-0.6-0.8-1L25.2,33c0.3,0.3,0.5,0.7,0.8,1c0.3,0.4,0.4,0.7,0.6,1l0.9-0.5
			C27.3,34.2,27.1,33.8,26.8,33.5z"/>
		<path style="fill:#FFFFFF;" d="M37.9,29.5H37c0,0.8,0,1.3,0,1.7h-0.7v-0.4h-1.5v-0.4c0.5-0.1,1-0.1,1.4-0.2l-0.4-0.7
			c-0.8,0.2-1.9,0.3-3.4,0.4c0.1,0.2,0.2,0.4,0.2,0.7c0.4,0,0.8,0,1.3-0.1v0.3h-0.8c-0.3,0-0.5,0-0.8,0c0,0,0,0.1,0,0.4
			c0,0.2,0,0.4,0,0.4c0.3,0,0.6,0,0.8,0h0.8v0.3h-1.3V33v1.2h1.3v0.3h-0.7c-0.2,0-0.5,0-0.7,0c0,0,0,0.1,0,0.4s0,0.4,0,0.4
			c0.3,0,0.5,0,0.7,0h0.7v0.5c-0.4,0-0.9,0.1-1.6,0.1l0.1,0.8c0.6,0,1.6-0.2,3.1-0.3c0.2,0.2,0.4,0.4,0.6,0.6c0.6-0.5,1.1-1.2,1.3-2
			c0.2-0.7,0.4-1.7,0.4-2.8h0.7c0,1.3-0.1,2.2-0.1,2.8c0,0.6-0.1,0.9-0.2,1C38.2,35.9,38.2,36,38,36c-0.2,0-0.5,0-0.8,0
			c0.2,0.3,0.3,0.6,0.3,0.9c0.5,0,0.8,0,1,0c0.1,0,0.3-0.1,0.3-0.1c0.1-0.1,0.2-0.2,0.3-0.3c0.1-0.2,0.2-0.6,0.3-1.3
			c0-0.6,0.1-1.8,0.1-3.5c0-0.1,0-0.3,0-0.4h-1.6C37.9,30.9,37.9,30.3,37.9,29.5z M33.9,33.6h-0.6v-0.4h0.3h0.3V33.6z M33.9,32.7
			h-0.6v-0.4h0.3h0.3V32.7z M34.8,32.4h0.3h0.3v0.4h-0.6V32.4z M34.8,33.3h0.6v0.4h-0.3h-0.3V33.3z M36.8,34
			c-0.1,0.6-0.3,1.1-0.6,1.5c-0.6,0.1-1,0.1-1.4,0.1v-0.4h0.7c0.2,0,0.5,0,0.7,0c0,0,0-0.1,0-0.4s0-0.4,0-0.4c-0.3,0-0.5,0-0.7,0
			h-0.7v-0.3h1.4V33v-1.2h-1.4v-0.3h1.5v0.6H37C37,32.8,36.9,33.5,36.8,34z"/>
		<path style="fill:#FFFFFF;" d="M5.3,3.6v38.1H57V3.6H5.3z M55,39.7H7.3V5.6H55V39.7z"/>
		<polygon style="fill:#FFFFFF;" points="17.7,14.1 21.5,27.1 27.1,14.7 30.7,27.2 35.8,14.9 39.2,27.1 45.3,14 47.7,18.5 
			49.4,17.5 45.2,9.6 39.7,21.3 36.2,8.7 31,21.2 27.5,8.9 21.9,21.3 18.4,9.5 13,17.3 14.6,18.4 		"/>
	</g>
</g>
</svg>
