<?xml version="1.0" encoding="utf-8"?>
<!-- Generator: Adobe Illustrator 22.0.0, SVG Export Plug-In . SVG Version: 6.00 Build 0)  -->
<svg version="1.1" xmlns="http://www.w3.org/2000/svg" xmlns:xlink="http://www.w3.org/1999/xlink" x="0px" y="0px"
	 viewBox="0 0 62.4 45.4" style="enable-background:new 0 0 62.4 45.4;" xml:space="preserve">
<g id="圖層_2">
	<g>
		<rect x="2.3" y="2.2" style="fill:#1C191B;" width="57.7" height="41.3"/>
		<polyline style="fill:#656565;" points="60,2.2 62.4,0 0,0 2.3,2.2 60,2.2 		"/>
		<polyline style="fill:#010001;" points="60,43.4 62.4,45.4 0,45.4 2.3,43.4 60,43.4 		"/>
		<polyline style="fill:#4A4A4B;" points="2.3,43.4 0,45.4 0,0 2.3,2.2 2.3,43.4 		"/>
		<polyline style="fill:#353537;" points="60,43.4 62.4,45.4 62.4,0 60,2.2 60,43.4 		"/>
	</g>
</g>
<g id="圖層_1">
	<g>
		<path style="fill:#FFFFFF;" d="M30.9,34.1c0,0,0,0.1,0.1,0.1c0,0.1,0.1,0.1,0.1,0.1l0.7-0.4c-0.2-0.2-0.4-0.5-0.7-0.8h0.3V32
			c0-0.5,0-0.8,0-1.1c0,0,0,0,0,0c-0.2,0-0.5,0-0.9,0h-0.9v-0.3h1c0.4,0,0.8,0,1,0c0,0,0-0.2,0-0.4s0-0.4,0-0.4c-0.3,0-0.7,0-1,0h-1
			v-0.2c0-0.1,0-0.1,0.1-0.2c0,0-0.1-0.1-0.4-0.1c-0.2,0-0.4,0-0.6,0c0,0.1,0,0.2,0,0.3v0.2h-1.9l0.1-0.2L26,29.4
			c-0.2,0.6-0.5,1.1-0.8,1.7c-0.3,0.5-0.6,1-1,1.3c0.1,0.1,0.2,0.3,0.3,0.5c0.1,0.2,0.2,0.4,0.2,0.5c0.2-0.2,0.4-0.4,0.5-0.6v2
			c0,0.8,0,1.5-0.1,2c0,0,0.2,0,0.5,0c0.3,0,0.5,0,0.5,0c0-0.4-0.1-0.8-0.1-1.4v-1.4v-2.8c0.2-0.4,0.4-0.7,0.5-1.1v0.4h2v0.3h-0.9
			c-0.3,0-0.6,0-0.9,0c0,0,0,0,0,0c0,0.3,0,0.6,0,1.1v1.1h1.7v0.3c0,0-0.1,0-0.2,0c-0.9,0-1.5,0-1.8,0l0.1,0.7c1.1,0,2.1,0,3.1-0.1
			v0.3h-1.7c-0.7,0-1.2,0-1.7-0.1c0,0,0,0.2,0,0.4c0,0.2,0,0.4,0,0.4c0.2,0,0.4,0,0.5,0h0.5l-0.4,0.3c0.4,0.4,0.7,0.7,0.9,1.1
			l0.7-0.5c-0.2-0.2-0.4-0.5-0.8-0.9h1.7V36c0,0.1-0.1,0.1-0.2,0.1c-0.3,0-0.6,0-0.9,0c0.1,0.3,0.2,0.6,0.3,0.8c0.4,0,0.6,0,0.7,0
			c0.2,0,0.4-0.1,0.5-0.1c0.1-0.1,0.3-0.1,0.3-0.3c0.1-0.1,0.1-0.3,0.1-0.5v-0.8h0.5c0.2,0,0.4,0,0.5,0c0,0,0-0.1,0-0.4
			c0-0.2,0-0.4,0-0.4c-0.2,0-0.3,0-0.5,0h-0.5v-0.4L30.9,34.1z M28.7,32.6h-0.9v-0.3h0.4h0.4V32.6z M28.7,31.8h-0.9v-0.3h0.4h0.4
			V31.8z M29.6,33.4v-0.3h0.5l-0.1,0c0,0,0.1,0.1,0.1,0.1c0,0,0.1,0.1,0.1,0.1L29.6,33.4z M30.5,32.6H30h-0.4v-0.3h0.9V32.6z
			 M30.5,31.8H30h-0.4v-0.3h0.9V31.8z"/>
		<path style="fill:#FFFFFF;" d="M32.3,33.4l0.2,0.9l0.7-0.2v1.7c0,0.1,0,0.1-0.1,0.1c-0.1,0-0.3,0-0.6,0c0.1,0.3,0.2,0.6,0.2,0.9
			c0.5,0,0.9,0,1.1-0.2c0.1-0.1,0.2-0.2,0.2-0.3c0-0.1,0.1-0.3,0.1-0.5v-1v-1c0.1,0,0.1,0,0.2-0.1c0.2-0.1,0.4-0.1,0.5-0.2l-0.1-0.9
			L34.1,33v-1.2h0.3c0.1,0,0.2,0,0.3,0c0,0,0-0.2,0-0.5s0-0.4,0-0.5c-0.1,0-0.3,0-0.3,0h-0.3v-0.7c0-0.2,0.1-0.5,0.2-0.7
			c0,0-0.1-0.1-0.4-0.1c-0.2,0-0.5,0-0.7,0c0,0.3,0,0.5,0,0.8v0.8h-0.4c-0.2,0-0.3,0-0.4,0c0,0,0,0.2,0,0.5c0,0.3,0,0.5,0,0.5
			c0.1,0,0.3,0,0.4,0h0.4v1.4C32.9,33.3,32.6,33.4,32.3,33.4z"/>
		<path style="fill:#FFFFFF;" d="M38.8,29.5c-1,0.2-2.3,0.4-3.9,0.5c0.1,0.3,0.2,0.5,0.2,0.7c0.8,0,1.5-0.1,2.2-0.2
			c0.8-0.1,1.5-0.2,2-0.3L38.8,29.5z"/>
		<path style="fill:#FFFFFF;" d="M36.8,31.3c0.1,0.2,0.1,0.3,0.1,0.5l0.8-0.2c-0.1-0.3-0.2-0.6-0.3-1l-0.7,0.2
			C36.7,30.9,36.8,31,36.8,31.3z"/>
		<path style="fill:#FFFFFF;" d="M34.8,32.5c0,0.2,0,0.4,0,0.6c0,0,0.2,0,0.4,0c0.3,0,0.4,0,0.4,0c0-0.1,0-0.2,0-0.3v-0.3h1.5h1.5
			v0.3c0,0.1,0,0.2,0,0.3c0,0,0.2,0,0.4,0c0.3,0,0.4,0,0.5,0c0-0.2,0-0.4,0-0.6v-0.7h-0.8c0-0.1,0.1-0.2,0.2-0.4
			c0-0.1,0.1-0.1,0.1-0.2c0.1-0.1,0.1-0.2,0.2-0.2c0.1,0,0.1-0.1,0.1-0.1c0-0.1-0.1-0.1-0.3-0.3c-0.2-0.1-0.4-0.2-0.6-0.3
			c-0.2,0.5-0.4,1-0.6,1.4h-2.2l0.6-0.2c-0.1-0.3-0.2-0.6-0.4-1l-0.7,0.2c0.2,0.3,0.3,0.7,0.4,1h-0.7V32.5z"/>
		<path style="fill:#FFFFFF;" d="M39.1,33.5l-0.6-0.2l-0.1,0h-1.6H36c-0.3,0-0.5,0-0.8,0c0,0,0,0.2,0,0.4s0,0.4,0,0.4
			c0.1,0,0.2,0,0.3,0h0.3l-0.4,0.1c0.3,0.5,0.6,0.9,0.9,1.3c-0.5,0.2-1.1,0.4-1.8,0.5c0.1,0.1,0.1,0.2,0.2,0.4s0.1,0.3,0.2,0.4
			c0.8-0.2,1.5-0.4,2.1-0.8c0.5,0.4,1.2,0.6,2,0.8c0.1-0.1,0.1-0.3,0.2-0.4c0.1-0.2,0.2-0.3,0.3-0.4c-0.7-0.1-1.3-0.3-1.8-0.5
			C38.5,35,38.9,34.3,39.1,33.5z M37.1,35.1c-0.3-0.3-0.6-0.6-0.8-1h0.9H38C37.8,34.5,37.5,34.8,37.1,35.1z"/>
		<path style="fill:#FFFFFF;" d="M5.3,3.6v38.1H57V3.6H5.3z M55,39.7H7.3V5.6H55V39.7z"/>
		<polygon style="fill:#FFFFFF;" points="14.6,11.1 16.7,17 19.8,11.5 21.8,17.1 24.6,11.6 26.4,17 29.9,11.1 31,12.9 32.3,12 
			29.8,8.3 26.8,13.4 24.9,7.8 22,13.3 20.1,7.9 17,13.4 15.1,8.2 11.9,11.9 13.1,12.9 		"/>
		<path style="fill:#FFFFFF;" d="M27.1,23.3c0-2.8-2.3-5.1-5.1-5.1S17,20.5,17,23.3c0,2.8,2.3,5.1,5.1,5.1S27.1,26.1,27.1,23.3z
			 M22.3,23.1c0,0,0.1,0.1,0.1,0.2c0,0.3-0.6,0.3-0.6,0c0-0.2,0.1-0.3,0.3-0.3C22.1,23,22.2,23,22.3,23.1z M22.1,19.7
			c0.7,0,1.3,0.2,1.9,0.5l-1.4,1.9C22.4,22,22.2,22,22.1,22c-0.5,0-1,0.3-1.2,0.8h-2.4C18.8,21,20.3,19.7,22.1,19.7z M18.5,23.8h2.4
			c0.2,0.5,0.6,0.8,1.2,0.8c0.2,0,0.3,0,0.5-0.1l1.4,1.8c-0.6,0.4-1.2,0.6-1.9,0.6C20.3,26.9,18.8,25.5,18.5,23.8z M24.7,25.6
			l-1.5-1.9c0.1-0.1,0.1-0.3,0.1-0.4c0-0.2,0-0.3-0.1-0.5l1.4-2c0.6,0.6,1,1.5,1,2.4C25.6,24.2,25.3,25,24.7,25.6z"/>
		<polygon style="fill:#FFFFFF;" points="34.7,21 39.2,21 39.2,23.3 43.1,20.8 47,18.4 43.1,16.1 39.2,13.7 39.2,15.9 34.7,15.9 		
			"/>
		<polygon style="fill:#FFFFFF;" points="40.3,26 50.9,18.5 40.3,11 34.5,12.7 35,14.2 40.1,12.6 48.3,18.5 40.1,24.3 35,22.6 
			34.5,24.1 		"/>
	</g>
</g>
</svg>
