<?xml version="1.0" encoding="utf-8"?>
<!-- Generator: Adobe Illustrator 22.0.0, SVG Export Plug-In . SVG Version: 6.00 Build 0)  -->
<svg version="1.1" xmlns="http://www.w3.org/2000/svg" xmlns:xlink="http://www.w3.org/1999/xlink" x="0px" y="0px"
	 viewBox="0 0 62.4 45.4" style="enable-background:new 0 0 62.4 45.4;" xml:space="preserve">
<g id="圖層_2">
	<g>
		<rect x="2.4" y="2.2" style="fill:#1C191B;" width="57.7" height="41.3"/>
		<polyline style="fill:#656565;" points="60.1,2.2 62.4,0 0.1,0 2.4,2.2 60.1,2.2 		"/>
		<polyline style="fill:#010001;" points="60.1,43.4 62.4,45.4 0.1,45.4 2.4,43.4 60.1,43.4 		"/>
		<polyline style="fill:#4A4A4B;" points="2.4,43.4 0.1,45.4 0.1,0 2.4,2.2 2.4,43.4 		"/>
		<polyline style="fill:#353537;" points="60.1,43.4 62.4,45.4 62.4,0 60.1,2.2 60.1,43.4 		"/>
	</g>
</g>
<g id="圖層_1">
	<g>
		<path style="fill:#FFFFFF;" d="M17.1,36.8c0.5-0.9,0.8-2.2,0.8-4.1v-1.3h2.2c0,0.1,0,0.3-0.1,0.5h-0.8c-0.3,0-0.5,0-0.8,0
			c0,0-0.1,0-0.1,0c0,0.3,0.1,0.8,0.1,1.3v1.3h1.8V36c0,0,0,0.1,0,0.1s-0.1,0-0.1,0c-0.2,0-0.5,0-0.8,0c0.1,0.3,0.2,0.5,0.3,0.7
			c0.3,0,0.6,0,0.7,0c0.2,0,0.4,0,0.5-0.1c0.1-0.1,0.2-0.1,0.3-0.2c0.1-0.1,0.1-0.2,0.1-0.4v-1.5h0.9c0.4,0,0.7,0,0.9,0
			c0,0,0.1,0,0.1,0c0-0.3-0.1-0.8-0.1-1.3v-1.3h-1.9l0.2-0.5l-0.1,0h1.2c0.5,0,0.9,0,1.2,0c0,0,0-0.2,0-0.4c0-0.3,0-0.4,0-0.4
			c-0.5,0-1.1,0.1-1.6,0.1h-1.6h-1.6c-0.7,0-1.2,0-1.6-0.1c0,0,0,0,0,0.1c0,0.3,0,0.6,0,1v1c0,0.7,0,1.3-0.1,1.9
			c-0.1,0.8-0.3,1.4-0.6,1.8c0.1,0,0.3,0.1,0.4,0.2C16.9,36.6,17.1,36.7,17.1,36.8z M22,33.8h-2.7v-0.4h1.3H22V33.8z M20.7,32.5H22
			v0.4h-2.7v-0.4H20.7z"/>
		<path style="fill:#FFFFFF;" d="M22.3,34.6L21.5,35c0.3,0.2,0.5,0.4,0.8,0.7c0.3,0.3,0.5,0.5,0.6,0.7l0.8-0.4
			C23.5,35.6,23,35.2,22.3,34.6z"/>
		<path style="fill:#FFFFFF;" d="M19.8,35.2c0,0,0.1,0,0.1-0.1c0,0-0.1-0.1-0.3-0.2c-0.2-0.1-0.4-0.2-0.7-0.2
			c-0.1,0.3-0.3,0.5-0.6,0.7s-0.5,0.4-0.8,0.6c0.3,0.1,0.5,0.3,0.8,0.5c0.3-0.2,0.6-0.4,0.8-0.7c0.1-0.1,0.2-0.2,0.4-0.4
			C19.6,35.3,19.7,35.2,19.8,35.2z"/>
		<path style="fill:#FFFFFF;" d="M25.5,35.3c0,0.2,0.1,0.4,0.1,0.6c0,0.2,0,0.4,0,0.6l0.6-0.1c0-0.4-0.1-0.8-0.2-1.2L25.5,35.3z"/>
		<path style="fill:#FFFFFF;" d="M25.6,34.4c-0.5,0-0.9,0-1.1,0l0,0.7c1,0,2.2-0.1,3.6-0.2l0-0.6c-0.1,0-0.4,0-0.7,0
			c-0.3,0-0.5,0-0.7,0v-0.3h0.6c0.2,0,0.4,0,0.6,0c0,0,0-0.1,0-0.3s0-0.3,0-0.3c-0.3,0-0.5,0-0.6,0h-0.6v-0.3H28v-1.3
			c0-0.5,0-1,0.1-1.3c0,0,0,0-0.1,0c-0.2,0-0.5,0-0.8,0h-0.8h-0.8c-0.3,0-0.6,0-0.8,0c0,0-0.1,0-0.1,0c0,0.3,0.1,0.8,0.1,1.3v1.3
			h1.2v0.3h-0.6c-0.3,0-0.5,0-0.6,0c0,0,0,0.1,0,0.3s0,0.3,0,0.3c0.2,0,0.4,0,0.6,0h0.6v0.3C25.8,34.4,25.7,34.4,25.6,34.4z
			 M26.6,31.7v-0.6h0.7v0.3l-0.4-0.1c0,0.2-0.1,0.6-0.3,1V31.7z M26.6,32.3l0.3,0.1c0-0.1,0.1-0.3,0.2-0.5c0-0.1,0.1-0.2,0.1-0.3
			v0.5v0.5h-0.7V32.3z M25.4,32.6v-1.2c0.1,0.3,0.2,0.6,0.2,1l0.4-0.1c0-0.3-0.1-0.7-0.2-1l-0.4,0.1v-0.3H26v0.8v0.7H25.4z"/>
		<path style="fill:#FFFFFF;" d="M25.3,35.4c-0.1-0.1-0.3-0.1-0.5-0.2c-0.1,0.5-0.3,0.9-0.5,1.2l0.6,0.3c0.1-0.1,0.3-0.3,0.4-0.6
			c0-0.1,0.1-0.2,0.1-0.4c0-0.1,0.1-0.1,0.1-0.2c0,0,0.1,0,0.1-0.1C25.6,35.6,25.5,35.5,25.3,35.4z"/>
		<path style="fill:#FFFFFF;" d="M31,31.7h-0.8v-0.7c0-0.2,0.1-0.4,0.2-0.7c0,0-0.1-0.1-0.4-0.1c-0.2,0-0.5,0-0.7,0
			c0,0.3,0,0.5,0,0.8V32v1.6h-1v1.6c0,0.3,0,0.6,0,0.9c-0.1-0.3-0.3-0.7-0.6-1l-0.6,0.2c0.1,0.2,0.2,0.4,0.3,0.6
			c0.1,0.2,0.2,0.4,0.2,0.5l0.6-0.2c0,0.2,0,0.4-0.1,0.6c0,0,0.2,0,0.5,0s0.4,0,0.4,0c0,0,0,0,0,0c0,0,0-0.1,0-0.1v-0.1h1.5v0.1
			c0,0,0,0,0,0.1c0,0,0,0,0,0c0,0,0.2,0,0.5,0s0.5,0,0.5,0c-0.1-0.4-0.1-1-0.1-1.6v-1.6h-1.2v-1.1H31c0.3,0,0.5,0,0.8,0
			c0,0,0-0.1,0-0.4s0-0.4,0-0.4C31.4,31.7,31.1,31.7,31,31.7z M30.6,34.3v1.4h-1.5V35v-0.7H30.6z"/>
		<path style="fill:#FFFFFF;" d="M26.3,35.3c0.1,0.2,0.1,0.4,0.2,0.6c0.1,0.2,0.1,0.4,0.1,0.6l0.6-0.1c-0.1-0.4-0.2-0.7-0.3-1.1
			L26.3,35.3z"/>
		<path style="fill:#FFFFFF;" d="M34.3,31.1c0.1-0.1,0.2-0.1,0.2-0.2c0.1,0,0.1,0,0.1-0.1c0,0,0-0.1-0.2-0.2
			c-0.2-0.1-0.4-0.2-0.6-0.3c-0.2,0.2-0.4,0.5-0.7,0.7c-0.3,0.3-0.6,0.5-0.9,0.6c0.2,0.2,0.3,0.4,0.5,0.6c0.3-0.2,0.7-0.5,1-0.8
			C34,31.4,34.1,31.3,34.3,31.1z"/>
		<path style="fill:#FFFFFF;" d="M39.2,34.6l-0.6-0.2l-0.2,0h-1.6c0.1-0.1,0.1-0.1,0.2-0.3c0,0,0-0.1,0.1-0.1h1c0.4,0,0.7,0,1,0
			c0,0,0.1,0,0.1,0c0-0.3-0.1-0.7-0.1-1.1V32h-3.3c0,0,0,0,0.1-0.1c0.1-0.1,0.1-0.2,0.2-0.2h1.8c0.7,0,1.3,0,1.8,0.1
			c0,0,0-0.2,0-0.4s0-0.4,0-0.4C39,30.9,38.5,31,38,31h-1.6c0.1-0.1,0.1-0.2,0.1-0.2c0,0,0.1-0.1,0.1-0.1c0,0,0,0,0.1,0
			c0,0-0.1-0.1-0.3-0.1c-0.2-0.1-0.4-0.1-0.7-0.2c-0.2,0.7-0.6,1.2-1.1,1.7L34,31.8c-0.2,0.3-0.5,0.7-0.8,1c-0.3,0.3-0.6,0.6-1,0.8
			c0.1,0.1,0.2,0.2,0.3,0.4c0.1,0.2,0.2,0.3,0.2,0.4c0.2-0.2,0.4-0.3,0.6-0.5v1.5c0,0.6,0,1.1-0.1,1.5c0,0,0.2,0,0.5,0
			c0.3,0,0.5,0,0.5,0c0-0.2,0-0.6,0-1v-1v-1.9c0.2-0.3,0.4-0.5,0.5-0.6c0.2,0.1,0.3,0.2,0.5,0.3c0.1-0.1,0.2-0.2,0.2-0.2v1.7h0.7
			c-0.4,0.5-0.9,0.8-1.6,1.1c0.1,0.1,0.3,0.2,0.6,0.5c0.2-0.1,0.4-0.2,0.6-0.4c0.1,0.2,0.3,0.3,0.5,0.5c-0.5,0.2-1.1,0.3-1.8,0.3
			c0.2,0.2,0.3,0.4,0.4,0.7c0.9-0.1,1.6-0.3,2.2-0.6c0.6,0.3,1.3,0.4,2.1,0.5c0.1-0.3,0.3-0.5,0.5-0.7c-0.7-0.1-1.2-0.2-1.7-0.3
			C38.6,35.5,39,35.1,39.2,34.6z M36.3,32.5h1h1v0.3h-2V32.5z M36.3,33.5v-0.3h1h1v0.3H36.3z M37.2,35.5c-0.3-0.2-0.5-0.3-0.7-0.5
			h0.7H38C37.8,35.1,37.6,35.3,37.2,35.5z"/>
		<path style="fill:#FFFFFF;" d="M46.8,34c0,0,0.1,0,0.4,0c0.3,0,0.4,0,0.4,0c0-0.1,0-0.3,0-0.5v-0.5h-2h-1.9v0.5c0,0.2,0,0.4,0,0.5
			c0,0,0.1,0,0.4,0s0.4,0,0.4,0c0-0.1,0-0.1,0-0.2v-0.2h0.8v0.5h-1.3v1.1c0,0.4,0,0.8-0.1,1.1c0,0,0.2,0,0.4,0s0.4,0,0.4,0
			c0-0.2,0-0.5,0-0.8v-0.8h0.5v1c0,0.4,0,0.8,0,1c0,0,0.2,0,0.5,0c0.3,0,0.4,0,0.5,0c0-0.3,0-0.6,0-1v-1h0.5v0.8c0,0,0,0.1-0.1,0.1
			c-0.1,0-0.2,0-0.4,0c0.1,0.2,0.2,0.4,0.2,0.6c0.4,0,0.7,0,0.8-0.1c0.1-0.1,0.2-0.1,0.2-0.2c0-0.1,0-0.2,0-0.4v-1.5H46v-0.5h0.8
			v0.2C46.8,33.8,46.8,33.9,46.8,34z"/>
		<path style="fill:#FFFFFF;" d="M45.2,31.1h1.1v0.3h-1.3c-0.5,0-0.9,0-1.3,0c0,0,0,0.1,0,0.3s0,0.3,0,0.3c0.5,0,1,0,1.3,0h1.3v0.3
			h-1.1c-0.4,0-0.8,0-1.1,0c0,0,0,0.1,0,0.3s0,0.3,0,0.3c0.3,0,0.6,0,0.7,0h0.8h1.5v-0.8h0.3c0.1,0,0.2,0,0.3,0c0,0,0-0.1,0-0.3
			s0-0.3,0-0.3c-0.1,0-0.2,0-0.3,0h-0.3v-0.8h-1.5c-0.6,0-1.1,0-1.5-0.1c0,0,0,0.1,0,0.3s0,0.3,0,0.3C44.5,31.1,44.8,31.1,45.2,31.1
			z"/>
		<path style="fill:#FFFFFF;" d="M42.5,35.6v-0.5H43c0.2,0,0.4,0,0.5,0c0,0,0-0.1,0-0.3s0-0.3,0-0.3c-0.1,0-0.3,0-0.5,0h-0.5V34h0.9
			v-0.8c0-0.3,0-0.5,0-0.7c0,0,0,0,0,0c-0.3,0-0.6,0-1,0h-1v-0.2h1c0.4,0,0.7,0,0.9,0c0,0,0,0,0,0c0-0.2,0-0.4,0-0.7v-0.7h-1.2
			c0,0,0,0,0-0.1c0-0.1,0-0.1,0.1-0.1c0-0.1,0.1-0.1,0.1-0.1c0,0,0,0,0.1,0c0,0-0.1-0.1-0.3-0.1s-0.4-0.1-0.7-0.1
			c0,0.1,0,0.3-0.1,0.6h-0.7v1.6V34h1v1.6l-0.3,0V35c0-0.2,0.1-0.4,0.2-0.7c0,0-0.1-0.1-0.4-0.1c-0.2,0-0.4,0-0.6,0
			c0,0.2,0,0.5,0,0.8v0.7l-0.3,0l0.1,0.7c1-0.1,2.1-0.3,3.1-0.4l0-0.7L42.5,35.6z M41.5,31.4h1.1v0.3h-0.6h-0.6V31.4z M41.5,33.5
			v-0.3h0.6h0.6v0.3H41.5z"/>
		<path style="fill:#FFFFFF;" d="M5.4,3.6v38.1h51.7V3.6H5.4z M55.1,39.7H7.4V5.6h47.7V39.7z"/>
		<path style="fill:#FFFFFF;" d="M31.7,28c4.5,0,8.3-3.5,8.6-7.9h3.3v-1.5h-3.3c-0.4-4.2-3.7-7.5-7.9-7.9V7.1H31v3.6
			c-4.4,0.4-7.9,4.1-7.9,8.6C23,24.1,26.9,28,31.7,28z M32.5,26v-5.9h5.9C38,23.2,35.5,25.6,32.5,26z M31,12.7v5.9h-5.9
			C25.4,15.5,27.9,13,31,12.7z"/>
	</g>
</g>
</svg>
