<?xml version="1.0" encoding="utf-8"?>
<!-- Generator: Adobe Illustrator 22.0.0, SVG Export Plug-In . SVG Version: 6.00 Build 0)  -->
<svg version="1.1" xmlns="http://www.w3.org/2000/svg" xmlns:xlink="http://www.w3.org/1999/xlink" x="0px" y="0px"
	 viewBox="0 0 62.4 45.4" style="enable-background:new 0 0 62.4 45.4;" xml:space="preserve">
<g id="圖層_2">
	<g>
		<rect x="2.3" y="2.2" style="fill:#1C191B;" width="57.7" height="41.3"/>
		<polyline style="fill:#656565;" points="60,2.2 62.4,0.1 0,0.1 2.3,2.2 60,2.2 		"/>
		<polyline style="fill:#010001;" points="60,43.5 62.4,45.4 0,45.4 2.3,43.5 60,43.5 		"/>
		<polyline style="fill:#4A4A4B;" points="2.3,43.5 0,45.4 0,0.1 2.3,2.2 2.3,43.5 		"/>
		<polyline style="fill:#353537;" points="60,43.5 62.4,45.4 62.4,0.1 60,2.2 60,43.5 		"/>
	</g>
</g>
<g id="圖層_1">
	<g>
		<path style="fill:#FFFFFF;" d="M11.4,35.3h1.2v1.3c0,0.5,0,0.9-0.1,1.3c0,0,0.3,0,0.7,0c0.4,0,0.7,0,0.7,0c0-0.2,0-0.4,0-0.6v-0.6
			v-1.3h1.2c0.5,0,0.9,0,1.2,0.1c0,0,0-0.3,0-0.7c0-0.4,0-0.7,0-0.7c-0.4,0-0.8,0.1-1.2,0.1h-1.2v-1.3c0-0.5,0-0.9,0.1-1.3
			c0,0-0.3-0.1-0.7-0.1c-0.4,0-0.7,0-0.7,0.1c0,0.3,0.1,0.8,0.1,1.3V34h-1.2c-0.5,0-0.9,0-1.2-0.1c0,0,0,0.3,0,0.7
			c0,0.4,0,0.7,0,0.7C10.6,35.3,11,35.3,11.4,35.3z"/>
		<path style="fill:#FFFFFF;" d="M20.8,38c0,0.4,0,0.8,0,1.2c0,0,0.3,0.1,0.9,0.1c0.6,0,0.8,0,0.9-0.1c0-0.4,0-0.8,0-1.2v-1.2H23
			c0.2,0,0.4,0,0.5,0c0,0,0-0.3,0-0.7s0-0.7,0-0.7c-0.2,0-0.4,0-0.5,0h-0.5v-5.2h-2.1L18.7,33l-1.7,2.7v1.2h3.8V38z M18.8,35.5
			l0.7-1.1l0.7-1.1c0.2-0.5,0.5-0.9,0.7-1.4h0c0,0.1,0,0.2,0,0.4c0,0.7,0,1.2,0,1.5v1.8H18.8z"/>
		<path style="fill:#FFFFFF;" d="M6.2,4.6v38.1h51.7V4.6H6.2z M55.9,40.7H8.2V6.6h47.7V40.7z"/>
		<path style="fill:#FFFFFF;" d="M31.5,29c4.5,0,8.3-3.5,8.6-7.9h3.3v-1.5h-3.3c-0.4-4.2-3.7-7.5-7.9-7.9V8.1h-1.5v3.6
			c-4.4,0.4-7.9,4.1-7.9,8.6C22.8,25.1,26.7,29,31.5,29z M32.2,21.1h5.9c-0.3,3.1-2.8,5.5-5.9,5.9V21.1z M30.7,13.7v5.9h-5.9
			C25.2,16.5,27.7,14,30.7,13.7z"/>
	</g>
</g>
</svg>
