<?xml version="1.0" encoding="utf-8"?>
<!-- Generator: Adobe Illustrator 22.0.0, SVG Export Plug-In . SVG Version: 6.00 Build 0)  -->
<svg version="1.1" xmlns="http://www.w3.org/2000/svg" xmlns:xlink="http://www.w3.org/1999/xlink" x="0px" y="0px"
	 viewBox="0 0 62.4 45.4" style="enable-background:new 0 0 62.4 45.4;" xml:space="preserve">
<g id="圖層_2">
	<g>
		<rect x="2.3" y="2.2" style="fill:#1C191B;" width="57.7" height="41.3"/>
		<polyline style="fill:#656565;" points="60,2.2 62.4,0 0,0 2.3,2.2 60,2.2 		"/>
		<polyline style="fill:#010001;" points="60,43.4 62.4,45.4 0,45.4 2.3,43.4 60,43.4 		"/>
		<polyline style="fill:#4A4A4B;" points="2.3,43.4 0,45.4 0,0 2.3,2.2 2.3,43.4 		"/>
		<polyline style="fill:#353537;" points="60,43.4 62.4,45.4 62.4,0 60,2.2 60,43.4 		"/>
	</g>
</g>
<g id="圖層_1">
	<g>
		<path style="fill:#FFFFFF;" d="M10.4,34.3h1.2v1.3c0,0.5,0,0.9-0.1,1.3c0,0,0.3,0,0.7,0c0.4,0,0.7,0,0.7,0c0-0.2,0-0.4,0-0.6v-0.6
			v-1.3h1.2c0.5,0,0.9,0,1.2,0.1c0,0,0-0.3,0-0.7c0-0.4,0-0.7,0-0.7c-0.4,0-0.8,0.1-1.2,0.1h-1.2v-1.3c0-0.5,0-0.9,0.1-1.3
			c0,0-0.3-0.1-0.7-0.1c-0.4,0-0.7,0-0.7,0.1c0,0.3,0.1,0.8,0.1,1.3V33h-1.2c-0.5,0-0.9,0-1.2-0.1c0,0,0,0.3,0,0.7
			c0,0.4,0,0.7,0,0.7C9.6,34.3,10.1,34.3,10.4,34.3z"/>
		<path style="fill:#FFFFFF;" d="M22.7,38.3c0-0.1,0-0.4,0-0.9c0-0.5,0-0.8,0-0.8c-0.8,0.1-1.5,0.1-2.1,0.1h-2.1l4.1-6.3v-1.1h-3
			c-1.2,0-2.1,0-3-0.1c0,0.1,0,0.3,0,0.9c0,0.5,0,0.8,0,0.8c0.7-0.1,1.4-0.1,1.9-0.1h1.9l-2.1,3.2l-2.1,3.2v1.1h3.2
			C20.8,38.2,21.9,38.2,22.7,38.3z"/>
		<path style="fill:#FFFFFF;" d="M5.3,3.6v38.1H57V3.6H5.3z M55,39.7H7.3V5.6H55V39.7z"/>
		<path style="fill:#FFFFFF;" d="M31.5,27.9c4.5,0,8.3-3.5,8.6-7.9h3.3v-1.5h-3.3c-0.4-4.2-3.7-7.5-7.9-7.9V7h-1.5v3.6
			c-4.4,0.4-7.9,4.1-7.9,8.6C22.8,24,26.7,27.9,31.5,27.9z M32.2,25.9V20h5.9C37.8,23.1,35.3,25.5,32.2,25.9z M30.7,12.6v5.9h-5.9
			C25.2,15.4,27.7,12.9,30.7,12.6z"/>
	</g>
</g>
</svg>
