<?xml version="1.0" encoding="utf-8"?>
<!-- Generator: Adobe Illustrator 22.0.0, SVG Export Plug-In . SVG Version: 6.00 Build 0)  -->
<svg version="1.1" xmlns="http://www.w3.org/2000/svg" xmlns:xlink="http://www.w3.org/1999/xlink" x="0px" y="0px"
	 viewBox="0 0 62.4 45.4" style="enable-background:new 0 0 62.4 45.4;" xml:space="preserve">
<g id="圖層_2">
	<g>
		<rect x="2.3" y="2.2" style="fill:#1C191B;" width="57.7" height="41.3"/>
		<polyline style="fill:#656565;" points="60,2.2 62.4,0 0,0 2.3,2.2 60,2.2 		"/>
		<polyline style="fill:#010001;" points="60,43.4 62.4,45.4 0,45.4 2.3,43.4 60,43.4 		"/>
		<polyline style="fill:#4A4A4B;" points="2.3,43.4 0,45.4 0,0 2.3,2.2 2.3,43.4 		"/>
		<polyline style="fill:#353537;" points="60,43.4 62.4,45.4 62.4,0 60,2.2 60,43.4 		"/>
	</g>
</g>
<g id="圖層_1">
	<g>
		<path style="fill:#FFFFFF;" d="M5.3,3.6v38.1H57V3.6H5.3z M55,39.7H7.3V5.6H55V39.7z"/>
		<g>
			<path style="fill:#FFFFFF;" d="M27.1,23.3h-1.4c-1.1,0-2,0-2.7-0.1c0,0.1-0.1,0.4-0.1,1.2c0,0.7,0,1.1,0.1,1.1
				c0.4,0,0.9-0.1,1.4-0.1h1.4h1.4c0.6,0,1,0,1.4,0.1c0,0,0.1-0.4,0.1-1.1s0-1.1-0.1-1.1C28,23.3,27.5,23.3,27.1,23.3z"/>
			<path style="fill:#FFFFFF;" d="M36.4,15.3l-1.5,3.6c-0.2,0.5-0.5,1.2-0.9,2.2c-0.2,0.5-0.3,0.8-0.4,1.1h-0.1
				c-0.3-0.9-0.8-1.9-1.3-3.3l-1.5-3.6h-3.1l4.4,9.4v5.4h3v-5.4l2.2-4.7l2.2-4.7H36.4z"/>
		</g>
	</g>
</g>
</svg>
