<?xml version="1.0" encoding="utf-8"?>
<!-- Generator: Adobe Illustrator 22.0.0, SVG Export Plug-In . SVG Version: 6.00 Build 0)  -->
<svg version="1.1" xmlns="http://www.w3.org/2000/svg" xmlns:xlink="http://www.w3.org/1999/xlink" x="0px" y="0px"
	 viewBox="0 0 62.4 45.4" style="enable-background:new 0 0 62.4 45.4;" xml:space="preserve">
<g id="圖層_2">
	<g>
		<rect x="2.3" y="2.2" style="fill:#1C191B;" width="57.7" height="41.3"/>
		<polyline style="fill:#656565;" points="60,2.2 62.4,0 0,0 2.3,2.2 60,2.2 		"/>
		<polyline style="fill:#010001;" points="60,43.5 62.4,45.4 0,45.4 2.3,43.5 60,43.5 		"/>
		<polyline style="fill:#4A4A4B;" points="2.3,43.5 0,45.4 0,0 2.3,2.2 2.3,43.5 		"/>
		<polyline style="fill:#353537;" points="60,43.5 62.4,45.4 62.4,0 60,2.2 60,43.5 		"/>
	</g>
</g>
<g id="圖層_1">
	<g>
		<path style="fill:#FFFFFF;" d="M10.6,34.3h1.2v1.3c0,0.5,0,0.9-0.1,1.3c0,0,0.3,0,0.7,0c0.4,0,0.7,0,0.7,0c0-0.2,0-0.4,0-0.6v-0.6
			v-1.3h1.2c0.5,0,0.9,0,1.2,0.1c0,0,0-0.3,0-0.7c0-0.4,0-0.7,0-0.7c-0.4,0-0.8,0.1-1.2,0.1h-1.2v-1.3c0-0.5,0-0.9,0.1-1.3
			c0,0-0.3-0.1-0.7-0.1c-0.4,0-0.7,0-0.7,0.1c0,0.3,0.1,0.8,0.1,1.3v1.3h-1.2c-0.5,0-0.9,0-1.2-0.1c0,0,0,0.3,0,0.7
			c0,0.4,0,0.7,0,0.7C9.8,34.3,10.2,34.3,10.6,34.3z"/>
		<path style="fill:#FFFFFF;" d="M19.1,36.9c-0.7,0-1.3-0.3-2-0.9l-0.8,1.1c0.8,0.8,1.8,1.2,3,1.2c0.9,0,1.6-0.3,2.2-0.8
			c0.6-0.6,0.9-1.4,0.9-2.3c0-0.9-0.3-1.6-0.8-2.1c-0.5-0.5-1.1-0.7-1.9-0.7c-0.4,0-0.7,0.1-1.1,0.3l0.2-1.9h1.6
			c0.7,0,1.2,0,1.6,0.1c0,0,0-0.3,0-0.8s0-0.8,0-0.8c-0.5,0-0.9,0-1.2,0h-1.2h-2.4L17,33.6l0.8,0.5c0.3-0.2,0.5-0.3,0.7-0.4
			c0.2-0.1,0.4-0.1,0.7-0.1c0.5,0,0.8,0.1,1.1,0.4c0.3,0.3,0.4,0.7,0.4,1.2c0,0.5-0.1,0.9-0.4,1.2C19.9,36.8,19.5,36.9,19.1,36.9z"
			/>
		<path style="fill:#FFFFFF;" d="M5.3,3.7v38.1H57V3.7H5.3z M55,39.8H7.3V5.7H55V39.8z"/>
		<path style="fill:#FFFFFF;" d="M31.5,29c4.5,0,8.3-3.5,8.6-7.9h3.3v-1.5h-3.3c-0.4-4.2-3.7-7.5-7.9-7.9V8.2h-1.5v3.6
			c-4.4,0.4-7.9,4.1-7.9,8.6C22.8,25.1,26.7,29,31.5,29z M32.2,27v-5.9h5.9C37.8,24.2,35.3,26.6,32.2,27z M30.7,13.7v5.9h-5.9
			C25.2,16.5,27.7,14.1,30.7,13.7z"/>
	</g>
</g>
</svg>
