<?xml version="1.0" encoding="utf-8"?>
<!-- Generator: Adobe Illustrator 22.0.0, SVG Export Plug-In . SVG Version: 6.00 Build 0)  -->
<svg version="1.1" xmlns="http://www.w3.org/2000/svg" xmlns:xlink="http://www.w3.org/1999/xlink" x="0px" y="0px"
	 viewBox="0 0 62.4 45.4" style="enable-background:new 0 0 62.4 45.4;" xml:space="preserve">
<g id="圖層_2">
	<g>
		<rect x="2.3" y="2.2" style="fill:#1C191B;" width="57.7" height="41.3"/>
		<polyline style="fill:#656565;" points="60,2.2 62.4,0.1 0,0.1 2.3,2.2 60,2.2 		"/>
		<polyline style="fill:#010001;" points="60,43.5 62.4,45.4 0,45.4 2.3,43.5 60,43.5 		"/>
		<polyline style="fill:#4A4A4B;" points="2.3,43.5 0,45.4 0,0.1 2.3,2.2 2.3,43.5 		"/>
		<polyline style="fill:#353537;" points="60,43.5 62.4,45.4 62.4,0.1 60,2.2 60,43.5 		"/>
	</g>
</g>
<g id="圖層_1">
	<g>
		<g>
			<path style="fill:#FFFFFF;" d="M13.3,37c-0.4,0-0.7,0-0.7,0c0-0.3,0.1-0.8,0.1-1.3v-1.3h-1.2c-0.4,0-0.8,0-1.2,0.1
				c0,0,0-0.3,0-0.7c0-0.4,0-0.7,0-0.7c0.3,0,0.7,0.1,1.2,0.1h1.2v-1.3c0-0.5,0-0.9-0.1-1.3c0,0,0.3-0.1,0.7-0.1
				c0.4,0,0.7,0,0.7,0.1c0,0.3-0.1,0.8-0.1,1.3v1.3h1.2c0.4,0,0.8,0,1.2-0.1c0,0,0,0.3,0,0.7c0,0.4,0,0.7,0,0.7
				c-0.3,0-0.7-0.1-1.2-0.1h-1.2v1.3v0.6c0,0.3,0,0.5,0,0.6C14,37,13.7,37,13.3,37z"/>
			<path style="fill:#FFFFFF;" d="M17,38.3l1.2-2.3l1.2-2.3l-2.3-4.3h2l0.9,1.8c0.1,0.1,0.2,0.4,0.3,0.7c0.1,0.3,0.3,0.6,0.3,0.7
				h0.1c0.2-0.5,0.4-1,0.6-1.4l0.8-1.8H24l-2.3,4.4l2.5,4.5h-2l-1-2c-0.1-0.2-0.2-0.4-0.3-0.7c-0.2-0.3-0.3-0.6-0.3-0.7h0
				c-0.2,0.6-0.5,1.1-0.6,1.5l-0.9,2H17z"/>
		</g>
		<path style="fill:#FFFFFF;" d="M6.2,4.6v38.1h51.7V4.6H6.2z M55.9,40.7H8.2V6.6h47.7V40.7z"/>
		<path style="fill:#FFFFFF;" d="M31.5,29c4.5,0,8.3-3.5,8.6-7.9h3.3v-1.5h-3.3c-0.4-4.2-3.7-7.5-7.9-7.9V8.1h-1.5v3.6
			c-4.4,0.4-7.9,4.1-7.9,8.6C22.8,25.1,26.7,29,31.5,29z M32.2,21.1h5.9c-0.3,3.1-2.8,5.5-5.9,5.9V21.1z M30.7,13.7v5.9h-5.9
			C25.2,16.5,27.7,14,30.7,13.7z"/>
	</g>
</g>
</svg>
