<?xml version="1.0" encoding="utf-8"?>
<!-- Generator: Adobe Illustrator 22.0.0, SVG Export Plug-In . SVG Version: 6.00 Build 0)  -->
<svg version="1.1" xmlns="http://www.w3.org/2000/svg" xmlns:xlink="http://www.w3.org/1999/xlink" x="0px" y="0px"
	 viewBox="0 0 62.4 45.4" style="enable-background:new 0 0 62.4 45.4;" xml:space="preserve">
<g id="圖層_2">
	<g>
		<rect x="2.4" y="2.2" style="fill:#1C191B;" width="57.7" height="41.3"/>
		<polyline style="fill:#656565;" points="60.1,2.2 62.5,0 0.1,0 2.4,2.2 60.1,2.2 		"/>
		<polyline style="fill:#010001;" points="60.1,43.4 62.5,45.4 0.1,45.4 2.4,43.4 60.1,43.4 		"/>
		<polyline style="fill:#4A4A4B;" points="2.4,43.4 0.1,45.4 0.1,0 2.4,2.2 2.4,43.4 		"/>
		<polyline style="fill:#353537;" points="60.1,43.4 62.5,45.4 62.5,0 60.1,2.2 60.1,43.4 		"/>
	</g>
</g>
<g id="圖層_1">
	<g>
		<path style="fill:#FFFFFF;" d="M19.7,11.5c0.2-0.4,1-1.7,2.2-1.9c1.2-0.2,2.4,0.9,3.2,2v12.1l0.1,0.2c0.1,0.1,1.4,2.2,3.4,2.2
			c0,0,0.1,0,0.1,0c1.2,0,2.4-0.7,3.4-2.2l0.1-0.2v-6.6V17v-5.3c0.2-0.4,1-1.7,2.2-1.9c1.2-0.2,2.4,0.9,3.2,2V24l0.1,0.2
			c0.1,0.1,1.4,2.2,3.4,2.2c0,0,0.1,0,0.1,0c1.2,0,2.4-0.7,3.4-2.2l0.1-0.2v-6.8h-1.5v6.3c-0.7,0.9-1.4,1.4-2.1,1.4c0,0,0,0,0,0
			c-0.9,0-1.7-0.9-2-1.4V11.3L39,11.1c-1.6-2-3.2-2.9-4.8-2.7c-2.2,0.3-3.4,2.8-3.4,2.9l-0.1,0.1V17v0.1v6.1
			c-0.7,0.9-1.4,1.4-2.1,1.4c-0.9,0-1.7-0.9-2-1.4V11.1l-0.2-0.2c-1.6-2-3.2-2.9-4.8-2.7c-2.2,0.3-3.4,2.8-3.4,2.9l-0.1,0.1V17h1.5
			V11.5z"/>
		<path style="fill:#FFFFFF;" d="M25.7,31.5c0.2,0.4,0.3,0.8,0.4,1.1l0.7-0.3c-0.1-0.4-0.3-0.9-0.6-1.5l-0.4,0.2v-0.7
			c0-0.2,0.1-0.5,0.2-0.7c0,0-0.2-0.1-0.5-0.1c-0.2,0-0.5,0-0.7,0c0.1,0.5,0.1,1.1,0.1,1.8c0,0-0.1,0-0.2-0.1
			C24.5,31,24.3,31,24.1,31c-0.1,0.9-0.2,1.6-0.4,2.1l0.7,0.2c0.1-0.3,0.2-0.7,0.2-1.1c0-0.1,0-0.3,0.1-0.5c0,0,0-0.1,0-0.1
			c0-0.1,0-0.1,0-0.1v1.7V35c0,0.7,0,1.3-0.1,1.9c0,0,0.2,0,0.5,0c0.3,0,0.5,0,0.6,0c-0.1-0.6-0.1-1.4-0.1-2.4V31.5z"/>
		<path style="fill:#FFFFFF;" d="M29.2,33.9h0.9c0.4,0,0.7,0,0.9,0c0,0,0-0.2,0-0.5s0-0.5,0-0.5c-0.1,0-0.2,0-0.2,0h-0.2v-1.2v-1.2
			h-1.7V30c0-0.2,0.1-0.4,0.2-0.6c0,0-0.1-0.1-0.4-0.1c-0.2,0-0.5,0-0.7,0c0,0.2,0,0.4,0,0.6v0.6h-0.7c-0.2,0-0.4,0-0.7,0
			c0,0,0,0.2,0,0.5s0,0.5,0,0.5c0.3,0,0.5,0,0.7,0H28v0.7c0,0.3,0,0.6,0,0.7h-0.8c-0.3,0-0.6,0-0.8,0c0,0,0,0.2,0,0.5s0,0.5,0,0.5
			c0.3,0,0.6,0,0.8,0h0.8c-0.2,1-0.9,1.8-1.9,2.3c0.1,0.1,0.2,0.2,0.4,0.4c0.1,0.1,0.2,0.3,0.3,0.4c1-0.6,1.6-1.4,2-2.4
			c0.5,1.1,1.1,1.9,2,2.4c0.1-0.1,0.2-0.3,0.3-0.5c0.1-0.2,0.2-0.3,0.4-0.4C30.3,35.7,29.7,34.9,29.2,33.9z M28.9,32.2v-0.7h0.8v0.7
			V33h-0.8C28.9,32.7,28.9,32.5,28.9,32.2z"/>
		<path style="fill:#FFFFFF;" d="M37.4,29.5h-0.9c0,0.8,0,1.3,0,1.7h-0.7v-0.4h-1.5v-0.4c0.5-0.1,1-0.1,1.4-0.2l-0.4-0.7
			c-0.8,0.2-2,0.3-3.4,0.4c0.1,0.2,0.2,0.4,0.2,0.7c0.4,0,0.8,0,1.3-0.1v0.3h-0.8c-0.3,0-0.5,0-0.8,0c0,0,0,0.1,0,0.4
			c0,0.2,0,0.4,0,0.4c0.3,0,0.6,0,0.8,0h0.8v0.3h-1.3V33v1.2h1.3v0.3h-0.7c-0.2,0-0.5,0-0.7,0c0,0,0,0.1,0,0.4s0,0.4,0,0.4
			c0.3,0,0.5,0,0.7,0h0.7v0.5c-0.4,0-0.9,0.1-1.6,0.1l0.1,0.8c0.6,0,1.6-0.2,3.1-0.3c0.2,0.2,0.4,0.4,0.6,0.6c0.6-0.5,1.1-1.2,1.3-2
			c0.2-0.7,0.4-1.7,0.4-2.8h0.7c0,1.3-0.1,2.2-0.1,2.8c0,0.6-0.1,0.9-0.2,1c-0.1,0.1-0.2,0.1-0.3,0.1c-0.2,0-0.5,0-0.8,0
			c0.2,0.3,0.3,0.6,0.3,0.9c0.5,0,0.8,0,1,0c0.1,0,0.3-0.1,0.3-0.1c0.1-0.1,0.2-0.2,0.3-0.3c0.1-0.2,0.2-0.6,0.3-1.3
			c0-0.6,0.1-1.8,0.1-3.5c0-0.1,0-0.3,0-0.4h-1.6C37.4,30.9,37.4,30.3,37.4,29.5z M33.4,33.6h-0.6v-0.4h0.3h0.3V33.6z M33.4,32.7
			h-0.6v-0.4h0.3h0.3V32.7z M34.3,32.4h0.3h0.3v0.4h-0.6V32.4z M34.3,33.3h0.6v0.4h-0.3h-0.3V33.3z M36.3,34
			c-0.1,0.6-0.3,1.1-0.6,1.5c-0.6,0.1-1,0.1-1.4,0.1v-0.4H35c0.2,0,0.5,0,0.7,0c0,0,0-0.1,0-0.4s0-0.4,0-0.4c-0.3,0-0.5,0-0.7,0
			h-0.7v-0.3h1.4V33v-1.2h-1.4v-0.3h1.5v0.6h0.7C36.5,32.8,36.4,33.5,36.3,34z"/>
		<path style="fill:#FFFFFF;" d="M5.4,3.6v38.1h51.7V3.6H5.4z M55.1,39.7H7.4V5.6h47.7V39.7z"/>
	</g>
</g>
</svg>
