<?xml version="1.0" encoding="utf-8"?>
<!-- Generator: Adobe Illustrator 22.0.0, SVG Export Plug-In . SVG Version: 6.00 Build 0)  -->
<svg version="1.1" xmlns="http://www.w3.org/2000/svg" xmlns:xlink="http://www.w3.org/1999/xlink" x="0px" y="0px"
	 viewBox="0 0 62.4 45.4" style="enable-background:new 0 0 62.4 45.4;" xml:space="preserve">
<g id="圖層_2">
	<g>
		<rect x="2.3" y="2.2" style="fill:#1C191B;" width="57.7" height="41.3"/>
		<polyline style="fill:#656565;" points="60,2.2 62.4,0 0,0 2.3,2.2 60,2.2 		"/>
		<polyline style="fill:#010001;" points="60,43.4 62.4,45.4 0,45.4 2.3,43.4 60,43.4 		"/>
		<polyline style="fill:#4A4A4B;" points="2.3,43.4 0,45.4 0,0 2.3,2.2 2.3,43.4 		"/>
		<polyline style="fill:#353537;" points="60,43.4 62.4,45.4 62.4,0 60,2.2 60,43.4 		"/>
	</g>
</g>
<g id="圖層_1">
	<g>
		<path style="fill:#FFFFFF;" d="M5.3,3.6v38.1H57V3.6H5.3z M55,39.7H7.3V5.6H55V39.7z"/>
		<g>
			<path style="fill:#FFFFFF;" d="M26.4,23.3H25c-1.1,0-2,0-2.7-0.1c0,0.1-0.1,0.4-0.1,1.2c0,0.7,0,1.1,0.1,1.1
				c0.4,0,0.9-0.1,1.4-0.1H25h1.4c0.6,0,1,0,1.4,0.1c0,0,0.1-0.4,0.1-1.1s0-1.1-0.1-1.1C27.3,23.3,26.8,23.3,26.4,23.3z"/>
			<path style="fill:#FFFFFF;" d="M36,22.6l3.9-7.3h-3.1l-1.4,3c-0.3,0.7-0.6,1.4-1,2.3h-0.1c-0.1-0.3-0.3-0.7-0.6-1.2
				c-0.2-0.5-0.4-0.9-0.5-1.1l-1.5-3h-3.3l3.9,7.2l-2.1,3.8l-2.1,3.8h3.1l1.6-3.3c0.3-0.6,0.7-1.5,1.1-2.4h0.1
				c0.1,0.3,0.3,0.7,0.6,1.2c0.3,0.6,0.4,1,0.6,1.2l1.7,3.3h3.3L36,22.6z"/>
		</g>
	</g>
</g>
</svg>
