<?xml version="1.0" encoding="utf-8"?>
<!-- Generator: Adobe Illustrator 22.0.0, SVG Export Plug-In . SVG Version: 6.00 Build 0)  -->
<svg version="1.1" xmlns="http://www.w3.org/2000/svg" xmlns:xlink="http://www.w3.org/1999/xlink" x="0px" y="0px"
	 viewBox="0 0 62.4 45.4" style="enable-background:new 0 0 62.4 45.4;" xml:space="preserve">
<g id="圖層_2">
	<g>
		<rect x="2.4" y="2.2" style="fill:#1C191B;" width="57.7" height="41.3"/>
		<polyline style="fill:#656565;" points="60.1,2.2 62.4,0 0,0 2.4,2.2 60.1,2.2 		"/>
		<polyline style="fill:#010001;" points="60.1,43.4 62.4,45.4 0,45.4 2.4,43.4 60.1,43.4 		"/>
		<polyline style="fill:#4A4A4B;" points="2.4,43.4 0,45.4 0,0 2.4,2.2 2.4,43.4 		"/>
		<polyline style="fill:#353537;" points="60.1,43.4 62.4,45.4 62.4,0 60.1,2.2 60.1,43.4 		"/>
	</g>
</g>
<g id="圖層_1">
	<g>
		<path style="fill:#FFFFFF;" d="M10.6,34.3h1.2v1.3c0,0.5,0,0.9-0.1,1.3c0,0,0.3,0,0.7,0c0.4,0,0.7,0,0.7,0c0-0.2,0-0.4,0-0.6v-0.6
			v-1.3h1.2c0.5,0,0.9,0,1.2,0.1c0,0,0-0.3,0-0.7c0-0.4,0-0.7,0-0.7c-0.4,0-0.8,0.1-1.2,0.1h-1.2v-1.3c0-0.5,0-0.9,0.1-1.3
			c0,0-0.3-0.1-0.7-0.1c-0.4,0-0.7,0-0.7,0.1c0,0.3,0.1,0.8,0.1,1.3V33h-1.2c-0.5,0-0.9,0-1.2-0.1c0,0,0,0.3,0,0.7
			c0,0.4,0,0.7,0,0.7C9.9,34.3,10.3,34.3,10.6,34.3z"/>
		<path style="fill:#FFFFFF;" d="M18.6,38.2h1.8v-3.3l1.3-2.8l1.3-2.8h-1.8l-0.9,2.2c-0.1,0.3-0.3,0.7-0.5,1.3
			c-0.1,0.3-0.2,0.5-0.3,0.6h0c-0.2-0.5-0.5-1.2-0.8-2l-0.9-2.2H16l2.7,5.6V38.2z"/>
		<path style="fill:#FFFFFF;" d="M5.4,3.6v38.1h51.7V3.6H5.4z M55.1,39.7H7.4V5.6h47.7V39.7z"/>
		<path style="fill:#FFFFFF;" d="M31.7,29.3c4.5,0,8.3-3.5,8.6-7.9h3.3v-1.5h-3.3c-0.4-4.2-3.7-7.5-7.9-7.9V8.4H31v3.6
			C26.5,12.3,23,16,23,20.6C23,25.4,26.9,29.3,31.7,29.3z M32.5,21.3h5.9c-0.3,3.1-2.8,5.5-5.9,5.9V21.3z M31,13.9v5.9h-5.9
			C25.4,16.7,27.9,14.3,31,13.9z"/>
	</g>
</g>
</svg>
