<?xml version="1.0" encoding="utf-8"?>
<!-- Generator: Adobe Illustrator 22.0.0, SVG Export Plug-In . SVG Version: 6.00 Build 0)  -->
<svg version="1.1" xmlns="http://www.w3.org/2000/svg" xmlns:xlink="http://www.w3.org/1999/xlink" x="0px" y="0px"
	 viewBox="0 0 62.4 45.4" style="enable-background:new 0 0 62.4 45.4;" xml:space="preserve">
<g id="圖層_2">
	<g>
		<rect x="2.3" y="2.2" style="fill:#1C191B;" width="57.7" height="41.3"/>
		<polyline style="fill:#656565;" points="60,2.2 62.4,0.1 0,0.1 2.3,2.2 60,2.2 		"/>
		<polyline style="fill:#010001;" points="60,43.5 62.4,45.4 0,45.4 2.3,43.5 60,43.5 		"/>
		<polyline style="fill:#4A4A4B;" points="2.3,43.5 0,45.4 0,0.1 2.3,2.2 2.3,43.5 		"/>
		<polyline style="fill:#353537;" points="60,43.5 62.4,45.4 62.4,0.1 60,2.2 60,43.5 		"/>
	</g>
</g>
<g id="圖層_1">
	<g>
		<path style="fill:#FFFFFF;" d="M5.3,3.7v38.1H57V3.7H5.3z M55,39.8H7.3V5.7H55V39.8z"/>
		<g>
			<path style="fill:#FFFFFF;" d="M26.6,23.3h-1.4c-1.1,0-2,0-2.7-0.1c0,0.1-0.1,0.4-0.1,1.2c0,0.7,0,1.1,0.1,1.1
				c0.4,0,0.9-0.1,1.4-0.1h1.4h1.4c0.6,0,1,0,1.4,0.1c0,0,0.1-0.4,0.1-1.1s0-1.1-0.1-1.1C27.5,23.3,27,23.3,26.6,23.3z"/>
			<path style="fill:#FFFFFF;" d="M39.9,27.5c-1.3,0.1-2.5,0.1-3.5,0.1h-3.5l6.9-10.6v-1.8h-4.9c-1.9,0-3.6-0.1-4.9-0.2
				c0,0.1-0.1,0.6-0.1,1.4c0,0.9,0,1.3,0.1,1.4c1.2-0.1,2.3-0.1,3.1-0.1h3.1l-3.5,5.3l-3.4,5.3v1.8h5.3c2.1,0,3.9,0.1,5.3,0.2
				c0-0.1,0.1-0.6,0.1-1.5S39.9,27.6,39.9,27.5z"/>
		</g>
	</g>
</g>
</svg>
