<?xml version="1.0" encoding="utf-8"?>
<!-- Generator: Adobe Illustrator 22.0.0, SVG Export Plug-In . SVG Version: 6.00 Build 0)  -->
<svg version="1.1" xmlns="http://www.w3.org/2000/svg" xmlns:xlink="http://www.w3.org/1999/xlink" x="0px" y="0px"
	 viewBox="0 0 62.4 45.4" style="enable-background:new 0 0 62.4 45.4;" xml:space="preserve">
<g id="圖層_2">
	<g>
		<rect x="2.3" y="2.2" style="fill:#1C191B;" width="57.7" height="41.3"/>
		<polyline style="fill:#656565;" points="60,2.2 62.4,0 0,0 2.3,2.2 60,2.2 		"/>
		<polyline style="fill:#010001;" points="60,43.4 62.4,45.4 0,45.4 2.3,43.4 60,43.4 		"/>
		<polyline style="fill:#4A4A4B;" points="2.3,43.4 0,45.4 0,0 2.3,2.2 2.3,43.4 		"/>
		<polyline style="fill:#353537;" points="60,43.4 62.4,45.4 62.4,0 60,2.2 60,43.4 		"/>
	</g>
</g>
<g id="圖層_1">
	<g>
		<g>
			<path style="fill:#FFFFFF;" d="M57,41.7H5.3V3.6H57V41.7z M7.3,39.7H55V5.6H7.3V39.7z"/>
		</g>
		<g>
			<path style="fill:#FFFFFF;" d="M22.4,25.4c0,0-0.1-0.4-0.1-1.1c0-0.7,0-1.1,0.1-1.2c0.7,0.1,1.6,0.1,2.7,0.1h1.4
				c0.5,0,0.9,0,1.4-0.1c0,0,0.1,0.4,0.1,1.1s0,1.1-0.1,1.1c-0.3,0-0.8-0.1-1.4-0.1h-1.4h-1.4C23.3,25.3,22.8,25.4,22.4,25.4z"/>
			<path style="fill:#FFFFFF;" d="M36.9,30.1c-0.9,0-1.4,0-1.5-0.1c0.1-0.6,0.1-1.3,0.1-1.9v-1.9h-6.3v-2l2.8-4.5l2.8-4.5h3.5v8.7
				h0.9c0.2,0,0.5,0,0.9,0c0,0,0.1,0.4,0.1,1.1c0,0.8,0,1.1-0.1,1.2c-0.3,0-0.6,0-0.9,0h-0.9v1.9c0,0.6,0,1.3,0.1,1.9
				C38.3,30.1,37.8,30.1,36.9,30.1z M32.1,23.9h3.4v-3c0-0.5,0-1.3,0.1-2.4c0-0.3,0-0.5,0-0.6h-0.1c-0.4,0.8-0.8,1.6-1.2,2.4
				l-1.2,1.8L32.1,23.9z"/>
		</g>
	</g>
</g>
</svg>
