<?xml version="1.0" encoding="utf-8"?>
<!-- Generator: Adobe Illustrator 22.0.0, SVG Export Plug-In . SVG Version: 6.00 Build 0)  -->
<svg version="1.1" xmlns="http://www.w3.org/2000/svg" xmlns:xlink="http://www.w3.org/1999/xlink" x="0px" y="0px"
	 viewBox="0 0 62.4 45.4" style="enable-background:new 0 0 62.4 45.4;" xml:space="preserve">
<g id="圖層_2">
	<g>
		<rect x="2.3" y="2.2" style="fill:#1C191B;" width="57.7" height="41.3"/>
		<polyline style="fill:#656565;" points="60,2.2 62.4,0 0,0 2.3,2.2 60,2.2 		"/>
		<polyline style="fill:#010001;" points="60,43.4 62.4,45.4 0,45.4 2.3,43.4 60,43.4 		"/>
		<polyline style="fill:#4A4A4B;" points="2.3,43.4 0,45.4 0,0 2.3,2.2 2.3,43.4 		"/>
		<polyline style="fill:#353537;" points="60,43.4 62.4,45.4 62.4,0 60,2.2 60,43.4 		"/>
	</g>
</g>
<g id="圖層_1">
	<g>
		<g>
			<path style="fill:#FFFFFF;" d="M57,41.7H5.3V3.6H57V41.7z M7.3,39.7H55V5.6H7.3V39.7z"/>
		</g>
		<g>
			<path style="fill:#FFFFFF;" d="M22.7,25.4c0,0-0.1-0.4-0.1-1.1c0-0.7,0-1.1,0.1-1.2c0.7,0.1,1.6,0.1,2.7,0.1h1.4
				c0.5,0,0.9,0,1.4-0.1c0,0,0.1,0.4,0.1,1.1s0,1.1-0.1,1.1c-0.3,0-0.8-0.1-1.4-0.1h-1.4H24C23.5,25.3,23.1,25.3,22.7,25.4z"/>
			<path style="fill:#FFFFFF;" d="M34.6,30.3c-2,0-3.7-0.7-5-2l1.4-1.9c1,1,2.1,1.5,3.3,1.5c0.8,0,1.4-0.2,1.9-0.7
				c0.5-0.5,0.7-1.2,0.7-2s-0.2-1.5-0.7-2c-0.5-0.5-1.1-0.7-1.8-0.7c-0.4,0-0.8,0.1-1.1,0.2c-0.3,0.1-0.6,0.3-1.1,0.6l-1.3-0.9
				l0.4-7.2h4h2c0.4,0,1.1,0,2-0.1c0,0,0.1,0.5,0.1,1.3c0,0.8,0,1.3-0.1,1.3c-0.7-0.1-1.5-0.1-2.7-0.1h-2.7l-0.3,3.1
				c0.6-0.3,1.2-0.4,1.8-0.4c1.3,0,2.4,0.4,3.2,1.1c0.9,0.8,1.3,2,1.3,3.6c0,1.6-0.5,2.9-1.6,3.8C37.2,29.8,36,30.3,34.6,30.3z"/>
		</g>
	</g>
</g>
</svg>
