<?xml version="1.0" encoding="utf-8"?>
<!-- Generator: Adobe Illustrator 22.0.0, SVG Export Plug-In . SVG Version: 6.00 Build 0)  -->
<svg version="1.1" xmlns="http://www.w3.org/2000/svg" xmlns:xlink="http://www.w3.org/1999/xlink" x="0px" y="0px"
	 viewBox="0 0 62.4 45.4" style="enable-background:new 0 0 62.4 45.4;" xml:space="preserve">
<g id="圖層_2">
	<g>
		<rect x="2.3" y="2.2" style="fill:#1C191B;" width="57.7" height="41.3"/>
		<polyline style="fill:#656565;" points="60,2.2 62.4,0 0,0 2.3,2.2 60,2.2 		"/>
		<polyline style="fill:#010001;" points="60,43.5 62.4,45.4 0,45.4 2.3,43.5 60,43.5 		"/>
		<polyline style="fill:#4A4A4B;" points="2.3,43.5 0,45.4 0,0 2.3,2.2 2.3,43.5 		"/>
		<polyline style="fill:#353537;" points="60,43.5 62.4,45.4 62.4,0 60,2.2 60,43.5 		"/>
	</g>
</g>
<g id="圖層_1">
	<g>
		<path style="fill:#FFFFFF;" d="M21.7,35.3h0.8c0.3,0,0.5,0,0.8,0c0,0,0.1,0,0.1,0c0-0.4-0.1-0.8-0.1-1.3v-1.3h-1.5
			c-0.6,0-1.1,0-1.5-0.1c0,0-0.1,0-0.1,0.1c0,0.4,0.1,0.8,0.1,1.3v1.3H21.7z M21,33.5h0.6h0.6v1H21V33.5z"/>
		<path style="fill:#FFFFFF;" d="M20.4,35.8c-0.7,0-1.2-0.1-1.6-0.2v-1.3h0.5c0.2,0,0.4,0,0.5,0c0,0,0-0.2,0-0.4c0-0.3,0-0.4,0-0.4
			c-0.2,0-0.3,0-0.5,0h-0.5v-0.9h1.1v-0.4c0.2,0.1,0.4,0.3,0.5,0.4c0.7-0.5,1.1-1.2,1.3-2.2h0.8c0,0.6-0.1,1-0.2,1.1
			c-0.1,0.1-0.1,0.1-0.2,0.1c-0.2,0-0.5,0-0.6,0c0.1,0.2,0.2,0.5,0.2,0.8c0.4,0,0.6,0,0.9,0c0.2,0,0.4-0.1,0.5-0.3
			c0.1-0.1,0.2-0.3,0.2-0.7c0-0.3,0.1-0.8,0.1-1.5c0-0.1,0-0.2,0-0.3h-1.7h-0.9c-0.3,0-0.6,0-0.9,0c0,0,0,0.2,0,0.4
			c0,0.3,0,0.4,0,0.4c0.1,0,0.3,0,0.4,0h0.4c-0.1,0.7-0.5,1.2-0.9,1.5v-0.2h-1.2V31h0.6c0.2,0,0.4,0,0.6,0c0,0,0-0.2,0-0.4
			c0-0.3,0-0.4,0-0.4c-0.2,0-0.4,0-0.6,0h-0.6v-0.4c0-0.1,0-0.2,0.1-0.4c0,0-0.1-0.1-0.4-0.1c-0.2,0-0.4,0-0.6,0c0,0.2,0,0.3,0,0.4
			v0.4h-0.6c-0.2,0-0.4,0-0.6,0c0,0,0,0.2,0,0.4c0,0.3,0,0.4,0,0.4c0.2,0,0.4,0,0.6,0h0.6v0.7h-0.7c-0.2,0-0.5,0-0.7,0
			c0,0,0,0.2,0,0.5s0,0.4,0,0.5c0.3,0,0.6,0,0.7,0h0.7V35c-0.2-0.2-0.3-0.5-0.4-0.8c0-0.1,0-0.1,0-0.3c0-0.1,0-0.2,0-0.3
			c0-0.1,0-0.2,0.1-0.2c0,0,0-0.1,0-0.1c0,0-0.1-0.1-0.3-0.1c-0.2,0-0.4-0.1-0.6-0.1c0,0.8,0,1.5-0.1,1.9c-0.1,0.6-0.2,1.1-0.4,1.5
			c0.2,0.1,0.5,0.2,0.7,0.4c0.2-0.4,0.3-0.8,0.4-1.3c0.3,0.4,0.7,0.7,1.2,0.9c0.4,0.1,1,0.2,1.8,0.2h3c0.1-0.4,0.2-0.7,0.4-0.9
			C23,35.8,21.9,35.8,20.4,35.8z"/>
		<path style="fill:#FFFFFF;" d="M30.7,35.9h-0.8v-0.7h0.7c0.2,0,0.5,0,0.7,0c0,0,0-0.2,0-0.4c0-0.3,0-0.4,0-0.4c-0.3,0-0.5,0-0.7,0
			h-0.7v-0.7c0.6-0.1,1.1-0.2,1.5-0.3l-0.6-0.7c-0.8,0.2-1.9,0.4-3.5,0.4c0.1,0.3,0.2,0.5,0.2,0.7c0.5,0,1,0,1.4-0.1v0.6h-0.7
			c-0.2,0-0.5,0-0.7,0c0,0,0,0.2,0,0.4c0,0.3,0,0.4,0,0.4c0.3,0,0.5,0,0.7,0H29v0.7h-0.9c-0.4,0-0.6,0-0.9,0c0,0,0,0.2,0,0.5
			s0,0.4,0,0.5c0.4,0,0.7,0,1.1,0h1.1h1.1c0.5,0,0.8,0,1.1,0c0,0,0-0.2,0-0.5s0-0.4,0-0.5C31.3,35.8,31,35.9,30.7,35.9z"/>
		<path style="fill:#FFFFFF;" d="M26.5,33.7c0.2,0.4,0.4,0.6,0.5,0.8l0.5-0.7c-0.1-0.1-0.2-0.3-0.5-0.5c-0.3-0.3-0.4-0.4-0.5-0.5
			v-0.2h0.4c0.2,0,0.3,0,0.4,0c0,0,0-0.2,0-0.5s0-0.5,0-0.5c-0.1,0-0.3,0-0.4,0h-0.4v-1.1c0.2-0.1,0.4-0.1,0.5-0.2
			c0.1,0,0.2,0,0.2,0c0,0,0.1,0,0.1,0c0,0,0-0.1-0.1-0.3c-0.1-0.2-0.2-0.4-0.4-0.6c-0.6,0.3-1.4,0.5-2.5,0.7
			c0.1,0.2,0.2,0.5,0.3,0.7c0.4,0,0.7-0.1,1-0.2v0.9H25c-0.2,0-0.4,0-0.6,0c0,0,0,0.2,0,0.5s0,0.5,0,0.5c0.2,0,0.3,0,0.5,0h0.5
			c-0.4,0.9-0.7,1.6-1.2,2.1c0.2,0.3,0.3,0.6,0.4,0.9c0.3-0.4,0.6-0.9,0.9-1.6v1.4c0,0.6,0,1.1-0.1,1.4c0,0,0.2,0,0.5,0
			c0.3,0,0.5,0,0.5,0c0-0.3,0-0.5,0-0.8v-0.8V33.7z"/>
		<path style="fill:#FFFFFF;" d="M29.4,29.7h-0.9c-0.4,0-0.7,0-0.9,0c0,0-0.1,0-0.1,0c0,0.4,0.1,0.9,0.1,1.4v1.4h1.8
			c0.7,0,1.3,0,1.8,0.1c0,0,0.1,0,0.1-0.1c0-0.4-0.1-0.9-0.1-1.4v-1.4H29.4z M30.4,31.7h-0.9h-0.9v-1.2h1.9V31.7z"/>
		<path style="fill:#FFFFFF;" d="M33.5,32c0-0.4-0.2-0.8-0.4-1.3l-0.6,0.2c0.1,0.2,0.1,0.4,0.2,0.7c0.1,0.2,0.1,0.5,0.1,0.6L33.5,32
			z"/>
		<path style="fill:#FFFFFF;" d="M38.8,32.9h-0.9v-0.3h0.6c0.2,0,0.4,0,0.6,0c0,0,0-0.1,0-0.4s0-0.3,0-0.4c-0.3,0-0.5,0-0.6,0h-0.6
			v-0.3h1.5v-1c0-0.4,0-0.7,0-1c0,0,0,0,0,0c-0.3,0-0.6,0-1,0h-1h-1c-0.4,0-0.7,0-1,0c0,0,0,0,0,0c0,0.3,0,0.6,0,1V31
			c0,0-0.1-0.1-0.2-0.2c-0.2-0.1-0.3-0.2-0.5-0.3c-0.1,0.5-0.2,1-0.4,1.4l0.5,0.3c0-0.1,0.1-0.2,0.2-0.4c0-0.1,0.1-0.2,0.1-0.2
			c0,0,0-0.1,0.1-0.2c0-0.1,0.1-0.1,0.1-0.2c0-0.1,0.1-0.1,0.1-0.1c0,0,0,0,0,0v0.6h1.4v0.3h-0.6c-0.3,0-0.4,0-0.6,0
			c0,0,0,0.1,0,0.3s0,0.3,0,0.3c0.2,0,0.4,0,0.6,0h0.6v0.3h-1.6v-0.6h-1.1v-2c0.2,0,0.4-0.1,0.6-0.1c0.1,0,0.2,0,0.3,0
			c0,0,0.1,0,0.1,0c0.1,0,0-0.1-0.1-0.3c-0.1-0.2-0.2-0.3-0.4-0.5c-0.6,0.2-1.5,0.4-2.6,0.5c0.1,0.2,0.2,0.4,0.2,0.6
			c0.4,0,0.7-0.1,1-0.1v1.9H33c-0.2,0-0.4,0-0.6,0c0,0,0,0.2,0,0.4s0,0.4,0,0.4c0.2,0,0.4,0,0.5,0h0.5c-0.1,0.4-0.3,0.8-0.5,1.2
			c-0.2,0.4-0.4,0.7-0.6,1c0.2,0.4,0.3,0.7,0.4,0.9c0.3-0.4,0.6-1,0.9-1.7v1.3c0,0.5,0,0.9-0.1,1.2c0,0,0.2,0,0.4,0
			c0.3,0,0.4,0,0.4,0c0-0.4-0.1-0.8-0.1-1.3v-1.3c0.3,0.3,0.5,0.6,0.6,0.8l0.5-0.6c-0.1-0.1-0.3-0.3-0.5-0.5
			c-0.3-0.3-0.5-0.5-0.6-0.6v-0.2h1v0.5h1l-0.3,0.1c0.1,0.2,0.2,0.4,0.3,0.7H36c-0.2,0-0.3,0-0.4,0c0,0,0,0.1,0,0.4s0,0.3,0,0.4
			c0.3,0,0.6,0,0.8,0h0.8v0.4h-0.7c-0.2,0-0.4,0-0.7,0c0,0,0,0.1,0,0.4c0,0.2,0,0.3,0,0.4c0.3,0,0.5,0,0.7,0h0.7v0.4
			c0,0.2,0,0.3,0,0.4c0,0,0.2,0,0.5,0c0.3,0,0.4,0,0.5,0c0-0.1,0-0.2,0-0.4V36h0.7c0.2,0,0.5,0,0.7,0c0,0,0-0.1,0-0.4
			c0-0.2,0-0.3,0-0.4c-0.3,0-0.5,0-0.7,0h-0.7V35h0.8c0.3,0,0.5,0,0.8,0c0,0,0-0.1,0-0.4s0-0.3,0-0.4c-0.2,0-0.3,0-0.5,0h-0.5
			c0.1-0.2,0.3-0.5,0.4-0.7l-0.2-0.1h0.5c0.2,0,0.4,0,0.5,0c0,0,0-0.1,0-0.3s0-0.3,0-0.4C39.4,32.9,39.1,32.9,38.8,32.9z M38.3,30.3
			h0.4v0.3V31h-0.4V30.3z M36.7,31h-0.4v-0.3v-0.3h0.4V31z M37.3,30.3h0.4v0.3V31h-0.4V30.3z M38,34.3h-1l0.2-0.1
			c-0.1-0.2-0.2-0.5-0.3-0.7h0.7h0.7c-0.1,0.2-0.2,0.5-0.3,0.7L38,34.3z"/>
		<path style="fill:#FFFFFF;" d="M45.4,30.8c0-0.1,0.1-0.4,0.2-0.6c0-0.1,0.1-0.2,0.1-0.3c0,0,0.1-0.1,0.1-0.1
			c0-0.1-0.1-0.1-0.3-0.2c-0.2-0.1-0.5-0.1-0.7-0.2c-0.2,1.5-0.6,2.6-1.1,3.3v-0.1c0-0.1,0-0.3,0-0.4h-1.6v-0.8H43
			c0.3,0,0.6,0,0.9,0c0,0,0-0.2,0-0.5c0-0.3,0-0.5,0-0.5c-0.3,0-0.5,0-0.6,0h-0.6V30c0-0.2,0.1-0.4,0.2-0.6c0,0-0.1-0.1-0.4-0.1
			c-0.2,0-0.5,0-0.7,0c0,0.2,0,0.5,0,0.6v0.6H41c-0.2,0-0.4,0-0.6,0c0,0,0,0.2,0,0.5s0,0.4,0,0.5c0.2,0,0.3,0,0.4,0h0.4V33
			c0,0.6-0.1,1.2-0.2,1.6c-0.1,0.6-0.4,1.1-0.8,1.6c0.3,0.2,0.5,0.4,0.7,0.6c0.4-0.5,0.8-1.1,0.9-1.8c0.1-0.5,0.2-1.2,0.2-1.9h0.7
			c0,1.7-0.1,2.6-0.2,2.7C42.5,36,42.4,36,42.3,36c-0.2,0-0.4,0-0.6,0c0.1,0.2,0.2,0.5,0.2,0.9c0.4,0,0.7,0,0.8,0
			c0.2,0,0.4-0.2,0.5-0.3c0.1-0.1,0.2-0.5,0.2-1c0-0.4,0.1-1.2,0.1-2.4c0,0,0,0,0.1,0c0.3,0.2,0.5,0.4,0.6,0.5
			c0.1-0.2,0.2-0.3,0.3-0.5c0.1,0.6,0.3,1.1,0.6,1.6c-0.4,0.6-1,1-1.7,1.4c0.1,0.1,0.2,0.2,0.3,0.4c0.1,0.2,0.2,0.3,0.2,0.4
			c0.7-0.4,1.3-0.8,1.7-1.4c0.4,0.5,0.9,1,1.5,1.3c0.2-0.3,0.4-0.6,0.6-0.8c-0.6-0.3-1.1-0.7-1.6-1.3c0.4-0.8,0.7-1.8,0.9-3h0.3
			c0.1,0,0.2,0,0.3,0c0,0,0-0.2,0-0.5s0-0.4,0-0.5c-0.2,0-0.4,0-0.6,0h-0.6H45.4z M46,32.8c-0.1,0.3-0.2,0.6-0.3,0.9
			c-0.2-0.5-0.4-1.2-0.6-1.9l0-0.1h1C46.1,32.1,46.1,32.4,46,32.8z"/>
		<path style="fill:#FFFFFF;" d="M5.3,3.7v38.1H57V3.7H5.3z M55,39.8H7.3V5.7H55V39.8z"/>
		<path style="fill:#FFFFFF;" d="M17.8,27.3l0-4.2l3.2,1.5l4.2,1.9l0-3l19.5-0.2v3h2V9.3h-2v3.8l-3.2-1.4l-4.2-1.9l0,3L23,12.9V8.6
			h-2v4.3l-3.9,0l0,1.9l3.8,0v3.1h2v-3.1l14.3-0.2l0,3l4.1-2l3.1-1.5v7.5l-19.5,0.2l0-3l-4.1,2l-3.2,1.5l0-3.8l-2,0l0,8.9l1,0
			L17.8,27.3z M25.1,22.6L25.1,22.6L25.1,22.6L25.1,22.6z"/>
	</g>
</g>
</svg>
