<?xml version="1.0" encoding="utf-8"?>
<!-- Generator: Adobe Illustrator 22.0.0, SVG Export Plug-In . SVG Version: 6.00 Build 0)  -->
<svg version="1.1" xmlns="http://www.w3.org/2000/svg" xmlns:xlink="http://www.w3.org/1999/xlink" x="0px" y="0px"
	 viewBox="0 0 62.4 45.4" style="enable-background:new 0 0 62.4 45.4;" xml:space="preserve">
<g id="圖層_2">
	<g>
		<rect x="2.3" y="2.2" style="fill:#1C191B;" width="57.7" height="41.3"/>
		<polyline style="fill:#656565;" points="60,2.2 62.4,0 0,0 2.3,2.2 60,2.2 		"/>
		<polyline style="fill:#010001;" points="60,43.4 62.4,45.4 0,45.4 2.3,43.4 60,43.4 		"/>
		<polyline style="fill:#4A4A4B;" points="2.3,43.4 0,45.4 0,0 2.3,2.2 2.3,43.4 		"/>
		<polyline style="fill:#353537;" points="60,43.4 62.4,45.4 62.4,0 60,2.2 60,43.4 		"/>
	</g>
</g>
<g id="圖層_1">
	<g>
		<path style="fill:#FFFFFF;" d="M17.9,31.5h1.4v-1.6h-1.4h-1.4v0.8c0,0,0,0.1,0,0.2c0,0.3,0,0.5,0,0.6c0,0,0,0.1,0,0.1
			C16.9,31.6,17.4,31.5,17.9,31.5z M17.4,30.5h1.1V31h-0.6h-0.5V30.5z"/>
		<path style="fill:#FFFFFF;" d="M17.6,36.1h1.5v0.5c0,0.2,0,0.4,0,0.5c0,0,0.2,0,0.5,0c0.3,0,0.5,0,0.5,0c0-0.1,0-0.3,0-0.5v-0.5
			h1.5c0.6,0,1.1,0,1.5,0.1c0,0,0-0.2,0-0.5s0-0.4,0-0.5c-0.5,0-1,0.1-1.5,0.1H20v-0.4h1.2c0.5,0,0.9,0,1.2,0c0,0,0.1,0,0.1,0
			c0-0.4-0.1-0.9-0.1-1.5v-1.5h-2.8h-1.4c-0.5,0-1,0-1.4-0.1c0,0-0.1,0-0.1,0.1c0,0.4,0.1,0.9,0.1,1.5v1.5h2.2v0.4h-1.5
			c-0.6,0-1.1,0-1.5-0.1c0,0,0,0.2,0,0.5s0,0.4,0,0.5C16.6,36.1,17.1,36.1,17.6,36.1z M20,32.6h1.4V33h-0.7H20V32.6z M20,33.7h1.4
			v0.4h-0.7H20V33.7z M17.7,32.6h0.7h0.7V33h-1.3V32.6z M17.7,34.1v-0.4h0.7h0.7v0.4H17.7z"/>
		<path style="fill:#FFFFFF;" d="M19.8,30.7c0,0,0,0.1,0,0.2c0,0.3,0,0.5,0,0.6c0,0,0,0.1,0,0.1c0.4,0,0.8-0.1,1.4-0.1h1.4v-1.6
			h-1.4h-1.4V30.7z M20.6,30.5h1.1V31h-0.6h-0.6V30.5z"/>
		<path style="fill:#FFFFFF;" d="M30,30.3h-1.1c0-0.1,0.1-0.1,0.1-0.2c0,0,0.1-0.1,0.1-0.1c0,0,0,0,0,0c0,0-0.1-0.1-0.3-0.1
			c-0.2-0.1-0.4-0.1-0.6-0.2c-0.2,0.5-0.4,0.9-0.8,1.3v-0.6h-1.8c0.1-0.1,0.1-0.2,0.1-0.2c0,0,0-0.1,0.1-0.1c0,0,0,0,0,0
			c0,0-0.1-0.1-0.3-0.1c-0.2-0.1-0.4-0.1-0.6-0.2c-0.1,0.3-0.3,0.7-0.5,1c-0.2,0.3-0.4,0.6-0.7,0.8c0.3,0.2,0.5,0.3,0.8,0.5
			c0.2-0.3,0.5-0.6,0.7-0.9h0.1c0.1,0.2,0.3,0.5,0.3,0.7l-0.2,0c0,0.1-0.1,0.3-0.1,0.5h-0.9v2.6c0,1,0,1.8-0.1,2.4c0,0,0.2,0,0.5,0
			c0.3,0,0.5,0,0.5,0c0-0.1,0-0.2,0-0.3v-0.3h1.1c0.5,0,0.8,0,1.1,0c0,0,0-0.1,0-0.4c0-0.2,0-0.4,0-0.4c-0.4,0-0.7,0-1.1,0h-1.1
			v-0.3h1c0.4,0,0.8,0,1,0c0,0,0-0.2,0-0.4s0-0.3,0-0.4c-0.3,0-0.7,0-1,0h-1v-0.3h1.1c0.4,0,0.8,0,1.1,0c0,0,0.1,0,0.1,0
			c0-0.4-0.1-0.8-0.1-1.2v-1.2h-1.2c0.1-0.2,0.2-0.3,0.2-0.4l-0.1,0l0.2-0.1c0-0.2-0.1-0.4-0.3-0.6h1.1c-0.1,0.1-0.2,0.2-0.4,0.4
			c0.3,0.2,0.6,0.4,0.8,0.5c0.3-0.2,0.5-0.5,0.7-0.9h0.3c0.2,0.3,0.4,0.6,0.5,0.9h-1.4v2.6v1.3c0,0.5,0,0.9-0.1,1.3c0,0,0.2,0,0.5,0
			c0.3,0,0.5,0,0.5,0c-0.1-0.6-0.1-1.3-0.1-2.1v-2.1H30v2.4c0,0.1,0,0.1-0.1,0.1c-0.1,0-0.4,0-0.7,0c0.1,0.3,0.2,0.6,0.2,0.9
			c0.3,0,0.5,0,0.7,0c0.2,0,0.4-0.1,0.5-0.1c0.1-0.1,0.2-0.2,0.3-0.3c0-0.1,0.1-0.3,0.1-0.5v-3.3h-1.2l0.5-0.2
			c-0.1-0.2-0.2-0.4-0.4-0.7h0.7c0.2,0,0.4,0,0.7,0c0,0,0-0.1,0-0.4s0-0.4,0-0.4C30.7,30.3,30.4,30.3,30,30.3z M26.6,33.9h-1.2v-0.3
			H26h0.6V33.9z M26.6,32.7V33H26h-0.6v-0.3H26.6z"/>
		<path style="fill:#FFFFFF;" d="M38.8,35.8c0,0.3,0,0.4-0.1,0.4c-0.1,0-0.2-0.6-0.2-1.7c0-0.9,0-1.9,0-3.3h-1.5v-0.8v-0.3
			c0-0.1,0-0.2,0.1-0.3c0,0-0.1-0.1-0.4-0.1c-0.2,0-0.4,0-0.6,0c0,0.3,0,0.6,0,0.8v0.8h-0.9v0.5h-1.2v-0.5h0.5c0.2,0,0.4,0,0.5,0
			c0,0,0-0.1,0-0.4s0-0.4,0-0.4c-0.2,0-0.3,0-0.5,0h-0.5V30c0-0.1,0-0.2,0.1-0.3c0,0-0.1-0.1-0.4-0.1c-0.2,0-0.4,0-0.6,0
			c0,0.2,0,0.3,0,0.4v0.4h-0.5c-0.2,0-0.4,0-0.5,0c0,0,0,0.1,0,0.4s0,0.4,0,0.4c0.2,0,0.4,0,0.5,0h0.5v0.5h-0.7c-0.2,0-0.5,0-0.7,0
			c0,0,0,0.2,0,0.4s0,0.4,0,0.4c0.1,0,0.3,0,0.4,0h0.4l-0.3,0.1c0.1,0.3,0.2,0.6,0.3,0.9h-0.3c-0.1,0-0.2,0-0.3,0c0,0,0,0.1,0,0.4
			s0,0.4,0,0.4c0.3,0,0.5,0,0.6,0h0.6v0.6h-0.6c-0.2,0-0.4,0-0.6,0c0,0,0,0.2,0,0.4c0,0.3,0,0.4,0,0.4c0.2,0,0.4,0,0.6,0h0.6v0.7
			c0,0.2,0,0.5,0,0.7c0,0,0.2,0,0.5,0c0.3,0,0.4,0,0.5,0c0-0.2,0-0.5,0-0.7v-0.7h0.6c0.2,0,0.4,0,0.5,0c0,0,0-0.2,0-0.4
			c0-0.3,0-0.4,0-0.4c-0.2,0-0.4,0-0.5,0h-0.6v-0.6h1.2v-0.6c0.1,0.1,0.3,0.2,0.5,0.4c0.1,0.1,0.1,0.1,0.2,0.1
			c-0.2,1-0.7,1.8-1.4,2.4c0.3,0.1,0.5,0.3,0.7,0.6c0.7-0.6,1.2-1.3,1.5-2.3c0.2,0.2,0.4,0.4,0.5,0.5l0.4-0.6
			c0.1,1.4,0.3,2.2,0.7,2.3c0.6,0.3,0.9-0.2,0.9-1.5c-0.1-0.1-0.3-0.3-0.5-0.7C38.9,35.2,38.9,35.5,38.8,35.8z M34.2,33.5h-1
			l0.2-0.1c0-0.3-0.1-0.6-0.3-1h0.6h0.6c-0.1,0.3-0.2,0.6-0.3,1L34.2,33.5z M36.3,32.1c0,0.2,0,0.4,0,0.5c0,0.3,0,0.5,0,0.6
			c-0.1-0.1-0.3-0.2-0.5-0.3c0,0,0,0-0.1,0l-0.4,0.6h-0.5c0.1-0.1,0.2-0.4,0.3-0.7c0-0.1,0.1-0.2,0.1-0.2l-0.3-0.1h0.7V32L36.3,32.1
			L36.3,32.1z M37,33.8c0.1-0.5,0.1-1.1,0.1-1.7v0h0.6c0,0.4,0,0.8,0,1.2c0,0.1,0,0.3,0,0.6c0,0.2,0,0.4,0,0.6
			C37.5,34.1,37.3,34,37,33.8z"/>
		<path style="fill:#FFFFFF;" d="M45.1,30.1h-1c-0.4,0-0.7,0-1,0c0,0,0,0.2,0,0.5c0,0.3,0,0.5,0,0.5c0.7-0.1,1.3-0.1,1.9-0.1h1
			c0.4,0,0.7,0,1,0c0,0,0-0.2,0-0.5c0-0.3,0-0.5,0-0.5c-0.3,0-0.7,0-1,0H45.1z"/>
		<path style="fill:#FFFFFF;" d="M45,32.3h-1.1c-0.5,0-0.8,0-1.1,0c0,0,0,0.2,0,0.5c0,0.3,0,0.5,0,0.5c0.4,0,0.8,0,1.2,0h1.2V36
			c0,0.1-0.1,0.2-0.2,0.2c-0.3,0-0.6,0-1.1,0c0.1,0.3,0.2,0.6,0.3,1c0.4,0,0.7,0,0.9,0c0.3,0,0.5-0.1,0.6-0.1
			c0.2-0.1,0.3-0.2,0.4-0.3c0.1-0.1,0.1-0.3,0.1-0.6v-2.8h0.5c0.2,0,0.4,0,0.5,0c0,0,0-0.2,0-0.5c0-0.3,0-0.5,0-0.5
			c-0.4,0-0.7,0-1.1,0H45z"/>
		<path style="fill:#FFFFFF;" d="M42.1,30.6c0.1-0.1,0.2-0.2,0.3-0.2c0.1,0,0.1,0,0.1-0.1c0-0.1,0-0.2-0.2-0.3
			c-0.2-0.1-0.4-0.3-0.6-0.4c-0.2,0.3-0.5,0.6-0.8,0.9c-0.3,0.3-0.7,0.6-1,0.8c0.1,0.1,0.3,0.4,0.5,0.8c0.4-0.3,0.8-0.6,1.1-1
			C41.7,31,41.9,30.8,42.1,30.6z"/>
		<path style="fill:#FFFFFF;" d="M42.6,31.7c-0.2-0.1-0.4-0.3-0.6-0.3c-0.3,0.4-0.6,0.9-1,1.3c-0.4,0.4-0.8,0.8-1.2,1.1
			c0.1,0.2,0.3,0.4,0.6,0.8c0.2-0.2,0.4-0.4,0.6-0.6v1.6c0,0.6,0,1.1-0.1,1.6c0,0,0.2,0,0.5,0c0.3,0,0.5,0,0.5,0c0-0.3,0-0.6,0-1v-1
			v-2.1c0.1-0.1,0.2-0.3,0.4-0.5c0-0.1,0.1-0.1,0.1-0.1c0.1-0.1,0.2-0.2,0.3-0.2c0.1,0,0.1-0.1,0.1-0.1
			C42.9,31.9,42.8,31.8,42.6,31.7z"/>
		<polygon style="fill:#FFFFFF;" points="28.8,19.3 31.6,17.8 34.3,16.4 31.6,14.9 28.8,13.5 28.8,14.9 24.6,14.9 24.6,17.9 
			28.8,17.9 		"/>
		<path style="fill:#FFFFFF;" d="M22.4,9.7v13.4h14.1V9.7H22.4z M35,21.6H23.9V11.2H35V21.6z"/>
		<path style="fill:#FFFFFF;" d="M5.3,3.6v38.1H57V3.6H5.3z M55,39.7H7.3V5.6H55V39.7z"/>
		<polygon style="fill:#FFFFFF;" points="46,16.4 41.1,6.6 19.1,6.6 19.1,8.6 39.9,8.6 39.9,24.1 19.1,24.1 19.1,26.1 41.1,26.1 		
			"/>
	</g>
</g>
</svg>
