<?xml version="1.0" encoding="utf-8"?>
<!-- Generator: Adobe Illustrator 22.0.0, SVG Export Plug-In . SVG Version: 6.00 Build 0)  -->
<svg version="1.1" xmlns="http://www.w3.org/2000/svg" xmlns:xlink="http://www.w3.org/1999/xlink" x="0px" y="0px"
	 viewBox="0 0 62.4 45.4" style="enable-background:new 0 0 62.4 45.4;" xml:space="preserve">
<g id="圖層_2">
	<g>
		<rect x="2.3" y="2.2" style="fill:#1C191B;" width="57.7" height="41.3"/>
		<polyline style="fill:#656565;" points="60,2.2 62.4,0 0,0 2.3,2.2 60,2.2 		"/>
		<polyline style="fill:#010001;" points="60,43.4 62.4,45.4 0,45.4 2.3,43.4 60,43.4 		"/>
		<polyline style="fill:#4A4A4B;" points="2.3,43.4 0,45.4 0,0 2.3,2.2 2.3,43.4 		"/>
		<polyline style="fill:#353537;" points="60,43.4 62.4,45.4 62.4,0 60,2.2 60,43.4 		"/>
	</g>
</g>
<g id="圖層_1">
	<g>
		<path style="fill:#FFFFFF;" d="M17.9,36.1h1.5v0.5c0,0.2,0,0.4,0,0.5c0,0,0.2,0,0.5,0c0.3,0,0.5,0,0.5,0c0-0.1,0-0.3,0-0.5v-0.5
			h1.5c0.6,0,1.1,0,1.5,0.1c0,0,0-0.2,0-0.5s0-0.4,0-0.5c-0.5,0-1,0.1-1.5,0.1h-1.5v-0.4h1.2c0.5,0,0.9,0,1.2,0c0,0,0.1,0,0.1,0
			c0-0.4-0.1-0.9-0.1-1.5v-1.5h-2.8h-1.4c-0.5,0-1,0-1.4-0.1c0,0-0.1,0-0.1,0.1c0,0.4,0.1,0.9,0.1,1.5v1.5h2.2v0.4h-1.5
			c-0.6,0-1.1,0-1.5-0.1c0,0,0,0.2,0,0.5s0,0.4,0,0.5C17,36.1,17.4,36.1,17.9,36.1z M20.4,32.6h1.4V33h-0.7h-0.7V32.6z M20.4,33.7
			h1.4v0.4h-0.7h-0.7V33.7z M18.1,32.6h0.7h0.7V33h-1.3V32.6z M18.1,34.1v-0.4h0.7h0.7v0.4H18.1z"/>
		<path style="fill:#FFFFFF;" d="M20.2,30.7c0,0,0,0.1,0,0.2c0,0.3,0,0.5,0,0.6c0,0,0,0.1,0,0.1c0.4,0,0.8-0.1,1.4-0.1H23v-1.6h-1.4
			h-1.4V30.7z M21,30.5h1.1V31h-0.6H21V30.5z"/>
		<path style="fill:#FFFFFF;" d="M18.3,31.5h1.4v-1.6h-1.4h-1.4v0.8c0,0,0,0.1,0,0.2c0,0.3,0,0.5,0,0.6c0,0,0,0.1,0,0.1
			C17.3,31.6,17.8,31.5,18.3,31.5z M17.7,30.5h1.1V31h-0.6h-0.5V30.5z"/>
		<path style="fill:#FFFFFF;" d="M30.3,30.3h-1.1c0-0.1,0.1-0.1,0.1-0.2c0,0,0.1-0.1,0.1-0.1c0,0,0,0,0,0c0,0-0.1-0.1-0.3-0.1
			c-0.2-0.1-0.4-0.1-0.6-0.2c-0.2,0.5-0.4,0.9-0.8,1.3v-0.6H26c0.1-0.1,0.1-0.2,0.1-0.2c0,0,0-0.1,0.1-0.1c0,0,0,0,0,0
			c0,0-0.1-0.1-0.3-0.1c-0.2-0.1-0.4-0.1-0.6-0.2c-0.1,0.3-0.3,0.7-0.5,1c-0.2,0.3-0.4,0.6-0.7,0.8c0.3,0.2,0.5,0.3,0.8,0.5
			c0.2-0.3,0.5-0.6,0.7-0.9h0.1c0.1,0.2,0.3,0.5,0.3,0.7l-0.2,0c0,0.1-0.1,0.3-0.1,0.5h-0.9v2.6c0,1,0,1.8-0.1,2.4c0,0,0.2,0,0.5,0
			c0.3,0,0.5,0,0.5,0c0-0.1,0-0.2,0-0.3v-0.3h1.1c0.5,0,0.8,0,1.1,0c0,0,0-0.1,0-0.4c0-0.2,0-0.4,0-0.4c-0.4,0-0.7,0-1.1,0h-1.1
			v-0.3h1c0.4,0,0.8,0,1,0c0,0,0-0.2,0-0.4s0-0.3,0-0.4c-0.3,0-0.7,0-1,0h-1v-0.3h1.1c0.4,0,0.8,0,1.1,0c0,0,0.1,0,0.1,0
			c0-0.4-0.1-0.8-0.1-1.2v-1.2h-1.2c0.1-0.2,0.2-0.3,0.2-0.4l-0.1,0l0.2-0.1c0-0.2-0.1-0.4-0.3-0.6h1.1c-0.1,0.1-0.2,0.2-0.4,0.4
			c0.3,0.2,0.6,0.4,0.8,0.5c0.3-0.2,0.5-0.5,0.7-0.9h0.3c0.2,0.3,0.4,0.6,0.5,0.9h-1.4v2.6v1.3c0,0.5,0,0.9-0.1,1.3c0,0,0.2,0,0.5,0
			c0.3,0,0.5,0,0.5,0c-0.1-0.6-0.1-1.3-0.1-2.1v-2.1h1.2v2.4c0,0.1,0,0.1-0.1,0.1c-0.1,0-0.4,0-0.7,0c0.1,0.3,0.2,0.6,0.2,0.9
			c0.3,0,0.5,0,0.7,0c0.2,0,0.4-0.1,0.5-0.1c0.1-0.1,0.2-0.2,0.3-0.3c0-0.1,0.1-0.3,0.1-0.5v-3.3H30l0.5-0.2
			c-0.1-0.2-0.2-0.4-0.4-0.7h0.7c0.2,0,0.4,0,0.7,0c0,0,0-0.1,0-0.4s0-0.4,0-0.4C31.1,30.3,30.7,30.3,30.3,30.3z M26.9,33.9h-1.2
			v-0.3h0.6h0.6V33.9z M26.9,32.7V33h-0.6h-0.6v-0.3H26.9z"/>
		<path style="fill:#FFFFFF;" d="M36,29.6c0,0.3,0,0.7,0,1v1c-0.1-0.3-0.3-0.6-0.4-0.9L35,31v-1h-1.2c-0.5,0-0.9,0-1.2,0
			c0,0-0.1,0-0.1,0c0,0.4,0.1,0.8,0.1,1.3v1.3h0.9v2.8l-0.3,0.1V34c0-0.3,0.1-0.5,0.2-0.8c0,0-0.1-0.1-0.3-0.1c-0.2,0-0.4,0-0.6,0
			c0,0.4,0.1,0.9,0.1,1.3v1.3l-0.4,0.1l0.2,0.9c0.8-0.2,1.8-0.5,2.8-0.8l-0.1-0.8c-0.1,0-0.2,0.1-0.4,0.1c-0.2,0-0.3,0.1-0.4,0.1
			v-1.1h0.4l0,0l0.5,0.9c0.1-0.1,0.2-0.2,0.4-0.4c0.2-0.1,0.3-0.2,0.4-0.3c-0.1,1-0.5,1.6-1.2,2c0.1,0.1,0.2,0.2,0.3,0.3
			c0.1,0.1,0.2,0.3,0.3,0.4c0.6-0.4,1-1,1.2-1.8c0.2-0.6,0.3-1.3,0.3-2.3v-1.7v-0.9c0-0.3,0.1-0.5,0.2-0.8c0,0-0.1-0.1-0.4-0.1
			C36.5,29.6,36.3,29.6,36,29.6z M34.2,31.3v0.5h-0.8v-1h0.8V31.3z M36.1,33c0,0.2,0,0.3,0,0.4c-0.2,0.1-0.5,0.3-0.9,0.5
			c0,0-0.1,0-0.1,0.1v-0.7h-0.7v-0.8H35v-0.7v-0.7c0.3,0.6,0.5,1.1,0.6,1.6l0.5-0.2V33z"/>
		<path style="fill:#FFFFFF;" d="M39.1,35l0.6-0.7c-0.2-0.3-0.7-0.7-1.3-1.2l-0.2,0.2v-0.8l0.4,0.2c0.1-0.2,0.3-0.5,0.5-1
			c0.1-0.1,0.2-0.2,0.3-0.3c0.1,0,0.1-0.1,0.1-0.1c0-0.1,0-0.2-0.2-0.3c-0.2-0.1-0.4-0.3-0.6-0.4c-0.1,0.5-0.3,0.9-0.5,1.3v-1.5
			c0-0.3,0.1-0.5,0.2-0.8c0,0-0.1-0.1-0.4-0.1c-0.2,0-0.5,0-0.7,0c0,0.4,0.1,1,0.1,1.6v1.5v3.1c0,0.5,0.1,0.8,0.2,1
			c0.1,0.2,0.3,0.3,0.7,0.3h0.6c0.3,0,0.5-0.1,0.6-0.3c0.1-0.2,0.2-0.6,0.3-1c-0.3-0.1-0.5-0.2-0.8-0.4c0,0.4,0,0.6,0,0.7
			c0,0.1-0.1,0.2-0.1,0.2h-0.4c-0.1,0-0.1,0-0.1-0.1c0,0,0-0.2,0-0.3v-1.6C38.6,34.5,38.9,34.8,39.1,35z"/>
		<path style="fill:#FFFFFF;" d="M45.4,30.1c0-0.1,0.1-0.1,0.1-0.1c0,0,0.1,0,0.1,0c0,0-0.1-0.1-0.3-0.2c-0.2-0.1-0.4-0.2-0.6-0.2
			c-0.3,0.8-0.7,1.5-1.3,2v-1.5h-1.4c-0.5,0-1,0-1.4-0.1c0,0-0.1,0-0.1,0.1c0,0.4,0.1,0.9,0.1,1.5v1.5v1.5c0,0.6,0,1.1-0.1,1.5
			c0,0,0.2,0,0.4,0c0.2,0,0.4,0,0.4,0c0-0.1,0-0.2,0-0.3v-0.3h2v-1.4c0,0,0,0,0,0.1c0.1,0.2,0.2,0.3,0.2,0.4l0.2-0.1v1.3
			c0,0.5,0,0.9-0.1,1.3c0,0,0.2,0,0.5,0c0.3,0,0.4,0,0.4,0c0,0,0,0,0,0c0,0,0-0.1,0-0.1v-0.1h1.6V37c0,0,0,0,0,0.1c0,0,0,0,0,0
			c0,0,0.2,0,0.5,0s0.5,0,0.5,0c0-0.4-0.1-0.8-0.1-1.3v-1.3l0.1,0c0.2-0.3,0.4-0.6,0.6-0.8c-0.6-0.2-1.2-0.5-1.7-0.9
			c0.5-0.6,1-1.3,1.2-2.1l-0.6-0.3l-0.2,0h-1.3C45.3,30.3,45.3,30.2,45.4,30.1z M41.6,33.9v0.8h-0.4v-1.6h0.4V33.9z M41.6,31.6v0.7
			h-0.4v-1.4h0.4V31.6z M42.6,34.7h-0.4v-0.8v-0.8h0.4V34.7z M42.6,32.3h-0.4v-0.7v-0.7h0.4V32.3z M43.3,33.7v-0.8v-0.8
			c0.2,0.2,0.3,0.3,0.4,0.4c0.2-0.2,0.4-0.4,0.6-0.6c0.2,0.3,0.4,0.6,0.6,0.8C44.3,33.1,43.8,33.5,43.3,33.7z M46.2,36h-1.6v-1h0.8
			h0.8V36z M46.5,34.1h-1.1h-1.1c0.4-0.2,0.7-0.5,1.1-0.8C45.8,33.7,46.1,33.9,46.5,34.1z M45.4,31.2h0.7c-0.2,0.3-0.4,0.7-0.7,1
			c-0.3-0.3-0.5-0.6-0.7-0.9l0-0.1H45.4z"/>
		<path style="fill:#FFFFFF;" d="M22.7,9.7v13.4h14.1V9.7H22.7z M35.4,21.6H24.2V11.2h11.1V21.6z"/>
		
			<rect x="23.9" y="15.4" transform="matrix(0.7264 -0.6873 0.6873 0.7264 -2.8793 25.0821)" style="fill:#FFFFFF;" width="12.4" height="1.5"/>
		<path style="fill:#FFFFFF;" d="M5.3,3.6v38.1H57V3.6H5.3z M55,39.7H7.3V5.6H55V39.7z"/>
		<polygon style="fill:#FFFFFF;" points="46,16.4 41.1,6.6 19.1,6.6 19.1,8.6 39.9,8.6 39.9,24.1 19.1,24.1 19.1,26.1 41.1,26.1 		
			"/>
	</g>
</g>
</svg>
