<?xml version="1.0" encoding="utf-8"?>
<!-- Generator: Adobe Illustrator 22.0.0, SVG Export Plug-In . SVG Version: 6.00 Build 0)  -->
<svg version="1.1" xmlns="http://www.w3.org/2000/svg" xmlns:xlink="http://www.w3.org/1999/xlink" x="0px" y="0px"
	 viewBox="0 0 62.4 45.4" style="enable-background:new 0 0 62.4 45.4;" xml:space="preserve">
<g id="圖層_2">
	<g>
		<rect x="2.3" y="2.2" style="fill:#1C191B;" width="57.7" height="41.3"/>
		<polyline style="fill:#656565;" points="60,2.2 62.4,0 0,0 2.3,2.2 60,2.2 		"/>
		<polyline style="fill:#010001;" points="60,43.4 62.4,45.4 0,45.4 2.3,43.4 60,43.4 		"/>
		<polyline style="fill:#4A4A4B;" points="2.3,43.4 0,45.4 0,0 2.3,2.2 2.3,43.4 		"/>
		<polyline style="fill:#353537;" points="60,43.4 62.4,45.4 62.4,0 60,2.2 60,43.4 		"/>
	</g>
</g>
<g id="圖層_1">
	<g>
		<path style="fill:#FFFFFF;" d="M17.6,32.6l0.6-0.6c-0.3-0.3-0.7-0.6-1.2-0.9l-0.6,0.6c0.2,0.1,0.4,0.3,0.7,0.5
			C17.3,32.3,17.5,32.5,17.6,32.6z"/>
		<path style="fill:#FFFFFF;" d="M17.8,31l0.6-0.6c-0.2-0.3-0.6-0.6-1.2-1L16.7,30c0.2,0.1,0.4,0.3,0.6,0.5
			C17.6,30.7,17.7,30.8,17.8,31z"/>
		<path style="fill:#FFFFFF;" d="M16.3,35.9l0.4,0.9c0.3-0.3,0.7-0.6,1-1c0.2,0.3,0.5,0.5,0.9,0.7c0.3,0.1,0.7,0.2,1.2,0.2
			c0.5,0,1.1,0,1.8,0c0.7,0,1.3,0,1.8,0c0-0.3,0.1-0.6,0.3-0.9c-0.5,0-1.2,0.1-2,0.1c-0.8,0-1.4,0-1.9,0c-0.3,0-0.5,0-0.7-0.1
			c0.7-0.3,1.2-0.6,1.6-1l-0.8-0.3h1.9l-0.6,0.4c0.5,0.3,1,0.6,1.4,0.9l1-0.4c-0.4-0.3-0.9-0.6-1.6-0.9h0.8c0.3,0,0.6,0,0.8,0
			c0,0,0-0.2,0-0.4s0-0.4,0-0.4c-0.3,0-0.5,0-0.6,0h-0.6v-0.6h0.5c0.2,0,0.4,0,0.5,0c0,0,0-0.1,0-0.4s0-0.4,0-0.4
			c-0.2,0-0.4,0-0.5,0h-0.5v-0.4h0.5c0.3,0,0.4-0.1,0.6-0.2c0.1-0.1,0.2-0.3,0.2-0.6c-0.3,0-0.5-0.1-0.6-0.3c0,0.1,0,0.2-0.1,0.3
			c0,0-0.1,0.1-0.2,0.1h-0.6c-0.1,0-0.2,0-0.2,0c0,0,0-0.1,0-0.2v-0.2h1.5v-1.5h-1.2h-1.1v1.7c0,0.2,0,0.4,0.1,0.5
			c0.1,0.1,0.1,0.2,0.3,0.3v0.5h-1v-0.4c0.2,0,0.3-0.1,0.4-0.2c0.1-0.1,0.1-0.3,0.2-0.5c-0.3,0-0.5-0.1-0.7-0.3c0,0.1,0,0.2-0.1,0.3
			c0,0-0.1,0.1-0.2,0.1h-0.6c-0.1,0-0.2,0-0.2,0c0,0,0-0.1,0-0.2v-0.2h1.5v-1.5h-1.1c-0.5,0-0.8,0-1.1,0c0,0,0,0,0,0
			c0,0.2,0,0.5,0,0.8v0.8c0,0.3,0.1,0.6,0.2,0.7c0.1,0.1,0.4,0.2,0.7,0.2h0.2v0.4h-0.5c-0.2,0-0.4,0-0.5,0c0,0,0,0.1,0,0.4
			s0,0.4,0,0.4c0.2,0,0.3,0,0.5,0h0.5v0.6H19c-0.2,0-0.4,0-0.6,0c0,0,0,0.1,0,0.4s0,0.4,0,0.4c0.3,0,0.6,0,0.8,0h0.8
			c-0.3,0.3-0.8,0.5-1.5,0.7c0.1,0.1,0.4,0.3,0.7,0.6c-0.5-0.1-0.8-0.4-1-0.7V33h-0.8c-0.3,0-0.6,0-0.8,0c0,0,0,0.2,0,0.5
			s0,0.4,0,0.5c0.2,0,0.3,0,0.4,0h0.4v1.3C16.9,35.4,16.6,35.6,16.3,35.9z M21.8,30.2h0.7v0.4h-0.4h-0.4V30.2z M20.4,33.2h0.5h0.5
			v0.6h-1V33.2z M19.3,30.2H20v0.4h-0.4h-0.4V30.2z"/>
		<path style="fill:#FFFFFF;" d="M30.7,32.8h-1v-0.4h0.8c0.3,0,0.6,0,0.8,0c0,0,0-0.1,0-0.4c0-0.2,0-0.4,0-0.4c-0.3,0-0.6,0-0.8,0
			h-0.8v-0.3h0.9c0.4,0,0.6,0,0.9,0c0,0,0,0,0,0c0-0.3,0-0.5,0-0.9v-0.9h-2.2h-1.1c-0.5,0-0.8,0-1.1,0c0,0,0,0,0,0
			c0,0.3,0,0.5,0,0.9v0.9h1.6v0.3H28c-0.3,0-0.5,0-0.8,0c0,0,0,0.1,0,0.4c0,0.2,0,0.4,0,0.4c0.3,0,0.6,0,0.8,0h0.8v0.4h-1
			c-0.4,0-0.7,0-1,0c0,0,0,0.2,0,0.4c0,0.1,0,0.2,0,0.2l-0.1-0.7l-0.6,0.2v-1.2h0.4c0.1,0,0.2,0,0.4,0c0,0,0-0.2,0-0.5s0-0.4,0-0.4
			c-0.1,0-0.3,0-0.4,0h-0.4v-0.7c0-0.2,0.1-0.5,0.2-0.7c0,0-0.1-0.1-0.4-0.1c-0.2,0-0.4,0-0.7,0c0,0.3,0,0.5,0,0.8v0.8h-0.4
			c-0.2,0-0.3,0-0.4,0c0,0,0,0.2,0,0.5s0,0.4,0,0.5c0.1,0,0.3,0,0.4,0h0.4v1.4c-0.1,0-0.2,0-0.3,0.1c-0.3,0.1-0.5,0.1-0.7,0.2
			l0.2,0.9c0,0,0.1,0,0.2,0c0.3-0.1,0.4-0.1,0.6-0.2v1.8c0,0.1,0,0.1-0.1,0.1c-0.1,0-0.3,0-0.6,0c0.1,0.3,0.2,0.6,0.2,0.9
			c0.5,0,0.9,0,1.1-0.2c0.1-0.1,0.2-0.2,0.2-0.3c0-0.1,0.1-0.3,0.1-0.5v-1v-1c0.2-0.1,0.5-0.1,0.8-0.2l0,0c0.2,0,0.4,0,0.6,0h0.6
			l-0.2,0c0.1,0.2,0.1,0.4,0.2,0.6h-0.5c-0.2,0-0.4,0-0.5,0c0,0,0,0.1,0,0.4c0,0.2,0,0.4,0,0.4c0.3,0,0.7,0,0.9,0h0.9v0.4h-0.8
			c-0.3,0-0.6,0-0.8,0c0,0,0,0.1,0,0.4c0,0.2,0,0.4,0,0.4c0.3,0,0.6,0,0.8,0h0.8v0.5c0,0.2,0,0.4,0,0.5c0,0,0.2,0,0.5,0
			c0.3,0,0.5,0,0.5,0c0-0.1,0-0.3,0-0.5v-0.5h0.9c0.3,0,0.6,0,0.9,0c0,0,0-0.1,0-0.4c0-0.2,0-0.4,0-0.4c-0.3,0-0.6,0-0.9,0h-0.9
			v-0.4h1c0.4,0,0.7,0,1,0c0,0,0-0.2,0-0.4c0-0.2,0-0.4,0-0.4c-0.2,0-0.3,0-0.5,0h-0.5c0.1-0.1,0.2-0.3,0.3-0.6h0.4
			c0.1,0,0.3,0,0.4,0c0,0,0-0.1,0-0.4c0-0.2,0-0.4,0-0.4C31.3,32.8,31,32.8,30.7,32.8z M30.2,30.3h0.5v0.3v0.3h-0.5V30.3z
			 M28.3,30.8h-0.5v-0.3v-0.3h0.5V30.8z M29,30.3h0.5v0.3v0.3H29V30.3z M29.8,34.1h-1.2l0.2,0c0-0.1-0.1-0.3-0.2-0.6h0.7h0.7
			c0,0.1-0.1,0.3-0.2,0.5C29.7,34,29.7,34.1,29.8,34.1L29.8,34.1z"/>
		<path style="fill:#FFFFFF;" d="M37.1,32.9c0.8,0,1.4,0,2,0.1c0,0,0,0,0-0.1c0-0.2,0-0.5,0-0.8v-0.8h-2h-1c-0.4,0-0.7,0-1,0
			c0,0,0,0,0,0c0,0.2,0,0.5,0,0.8v0.8H37.1z M36,31.8h1.1h1.1v0.4H36V31.8z"/>
		<path style="fill:#FFFFFF;" d="M34.1,34.1v-2.8c0.2-0.4,0.4-0.8,0.6-1.2v0.7h2.6c1,0,1.8,0,2.4,0.1c0,0,0-0.2,0-0.5s0-0.4,0-0.5
			c-0.3,0-0.7,0-1,0h-1v-0.3c0-0.1,0-0.2,0.1-0.3c0,0-0.1-0.1-0.4-0.1c-0.2,0-0.5,0-0.7,0c0,0.1,0,0.3,0,0.4v0.4h-1.9
			c0,0,0-0.1,0-0.1c0,0,0-0.1,0-0.1c0,0,0-0.1,0.1-0.1c0,0,0,0,0,0c0,0-0.3-0.2-1-0.4c-0.2,0.6-0.5,1.1-0.8,1.7
			c-0.3,0.5-0.6,1-1,1.3c0.1,0.1,0.2,0.3,0.3,0.5c0.1,0.2,0.2,0.4,0.2,0.5c0.2-0.2,0.4-0.4,0.5-0.6v2c0,0.8,0,1.5-0.1,2
			c0,0,0.2,0,0.5,0c0.3,0,0.5,0,0.5,0c0-0.4-0.1-0.8-0.1-1.4V34.1z"/>
		<path style="fill:#FFFFFF;" d="M37.9,34.2h-0.8h-0.8c-0.3,0-0.5,0-0.8,0c0,0,0,0.2,0,0.4s0,0.4,0,0.4c0.2,0,0.4,0,0.5,0h0.5v0.9
			c0,0,0,0.1,0,0.1c0,0-0.1,0-0.1,0c-0.2,0-0.5,0-0.9,0c0.1,0.3,0.2,0.6,0.3,0.9c0.4,0,0.6,0,0.8,0c0.2,0,0.4-0.1,0.6-0.1
			c0.2-0.1,0.3-0.2,0.3-0.3c0.1-0.1,0.1-0.3,0.1-0.5V35h0.6c0.2,0,0.4,0,0.6,0c0,0,0-0.1,0-0.4s0-0.4,0-0.4
			C38.3,34.2,38,34.2,37.9,34.2z"/>
		<path style="fill:#FFFFFF;" d="M39.7,33.2h-2.6h-2.6v0.8c0,0.3,0,0.5,0,0.8c0,0,0.2,0,0.4,0s0.4,0,0.4,0c0-0.1,0-0.2,0-0.4v-0.4
			h3.6v0.4c0,0.1,0,0.3,0,0.4c0,0,0.2,0,0.4,0s0.4,0,0.5,0c0-0.3,0-0.5,0-0.8V33.2z"/>
		<path style="fill:#FFFFFF;" d="M44.8,31.9v-1.6c0-0.3,0.1-0.5,0.2-0.8c0,0-0.2-0.1-0.5-0.1c-0.3,0-0.5,0-0.8,0
			c0.1,0.6,0.1,1.4,0.1,2.4v3.7h-1.4v-3.6c0-0.3,0.1-0.5,0.2-0.8c0,0-0.2-0.1-0.5-0.1c-0.3,0-0.5,0-0.8,0c0.1,0.6,0.1,1.3,0.1,2.3
			v2.2h-0.5c-0.2,0-0.4,0-0.5,0c0,0,0,0.2,0,0.5c0,0.3,0,0.5,0,0.5c0.6,0,1.2-0.1,1.8-0.1H44h1.8c0.7,0,1.3,0,1.8,0.1
			c0,0,0-0.2,0-0.5c0-0.3,0-0.5,0-0.5c-0.5,0-1,0.1-1.4,0.1h-1.4v-2.7H46c0.5,0,0.9,0,1.2,0c0,0,0-0.2,0-0.5c0-0.3,0-0.5,0-0.5
			c-0.4,0-0.8,0-1.2,0H44.8z"/>
		<path style="fill:#FFFFFF;" d="M5.3,3.6v38.1H57V3.6H5.3z M55,39.7H7.3V5.6H55V39.7z"/>
		<polygon style="fill:#FFFFFF;" points="41.7,26.5 46.7,16.7 41.7,6.9 19.7,6.9 19.7,8.9 40.5,8.9 40.5,24.5 19.7,24.5 19.7,26.5 
					"/>
		<path style="fill:#FFFFFF;" d="M30,9.8c-2.7,0-5,1.4-6.2,3.6l1.4,0.6c1-1.6,2.8-2.7,4.8-2.7c1.6,0,3,0.6,4.1,1.7
			c0.5-0.3,1-0.5,1.4-0.7C34.1,10.7,32.1,9.8,30,9.8z"/>
		<path style="fill:#FFFFFF;" d="M30.7,22.1l0.5,1.4c3.4-0.6,5.9-3.4,5.9-6.9c0-1-0.2-2-0.6-2.8c-0.4,0.2-0.8,0.4-1.3,0.7
			c0.3,0.7,0.5,1.4,0.5,2.1C35.6,19.5,33.5,21.8,30.7,22.1z"/>
		<path style="fill:#FFFFFF;" d="M22.8,16.7c0,3.6,2.7,6.5,6.3,6.9L28.6,22c-2.4-0.6-4.3-2.7-4.3-5.3c0-0.3,0-0.6,0.1-0.9L23,15.2
			C22.9,15.7,22.8,16.2,22.8,16.7z"/>
	</g>
</g>
</svg>
