<?xml version="1.0" encoding="utf-8"?>
<!-- Generator: Adobe Illustrator 22.0.0, SVG Export Plug-In . SVG Version: 6.00 Build 0)  -->
<svg version="1.1" xmlns="http://www.w3.org/2000/svg" xmlns:xlink="http://www.w3.org/1999/xlink" x="0px" y="0px"
	 viewBox="0 0 62.4 45.4" style="enable-background:new 0 0 62.4 45.4;" xml:space="preserve">
<g id="圖層_2">
	<g>
		<rect x="2.3" y="2.2" style="fill:#1C191B;" width="57.7" height="41.3"/>
		<polyline style="fill:#656565;" points="60,2.2 62.4,0 0,0 2.3,2.2 60,2.2 		"/>
		<polyline style="fill:#010001;" points="60,43.4 62.4,45.4 0,45.4 2.3,43.4 60,43.4 		"/>
		<polyline style="fill:#4A4A4B;" points="2.3,43.4 0,45.4 0,0 2.3,2.2 2.3,43.4 		"/>
		<polyline style="fill:#353537;" points="60,43.4 62.4,45.4 62.4,0 60,2.2 60,43.4 		"/>
	</g>
</g>
<g id="圖層_1">
	<g>
		<path style="fill:#FFFFFF;" d="M16.3,34.5c0.2,0.4,0.3,0.6,0.4,0.8c0.2-0.3,0.4-0.8,0.6-1.5v1.5c0,0.6,0,1.1-0.1,1.5
			c0,0,0.2,0,0.5,0c0.3,0,0.4,0,0.5,0c0-0.2,0-0.5,0-0.9V35v-1.8c0,0,0,0,0,0c0.2,0.5,0.3,0.8,0.4,0.9l0.3-0.5v0.4h0.5
			c0,0.5-0.1,0.8-0.3,1.1c-0.2,0.4-0.4,0.7-0.7,0.9c0.1,0.1,0.2,0.2,0.3,0.3c0.1,0.1,0.2,0.2,0.2,0.3c0.5-0.4,0.8-0.9,1-1.5
			c0.3,0.2,0.5,0.4,0.6,0.5l0.5-0.6c-0.2-0.2-0.5-0.4-0.9-0.7c0-0.1,0-0.2,0-0.3H21c0.1,0.5,0.2,1,0.4,1.3c-0.4,0.3-0.8,0.5-1.3,0.7
			c0.2,0.2,0.4,0.4,0.5,0.6c0.4-0.2,0.8-0.4,1.2-0.6c0.3,0.4,0.7,0.6,1.1,0.6c0.3,0,0.5-0.1,0.7-0.2c0.1-0.2,0.2-0.5,0.3-0.9
			c-0.3-0.1-0.5-0.3-0.6-0.4c0,0.3-0.1,0.5-0.1,0.6c0,0.1-0.1,0.2-0.2,0.2c-0.2,0-0.4-0.1-0.5-0.4c0.4-0.4,0.7-0.8,0.9-1.2l-0.7-0.3
			h0.6c0.2,0,0.4,0,0.5,0c0,0,0-0.1,0-0.4c0-0.3,0-0.4,0-0.4c-0.1,0-0.2,0-0.3,0H23l0.2-0.1c-0.1-0.2-0.3-0.3-0.6-0.5l0.6-0.1
			c0,0.1,0,0.1,0.1,0.3c0,0,0,0,0,0.1l0.6-0.2c0-0.3-0.2-0.7-0.4-1.2l-0.5,0.2c0.1,0.1,0.1,0.2,0.1,0.3l-0.5,0
			c0.2-0.3,0.4-0.6,0.6-0.9c0.1-0.1,0.2-0.2,0.3-0.3c0.1,0,0.1-0.1,0.1-0.1c0-0.1,0-0.2-0.2-0.3c-0.1-0.1-0.3-0.2-0.5-0.3
			c-0.1,0.2-0.2,0.5-0.4,0.8c-0.1-0.1-0.1-0.1-0.2-0.2c0.1-0.1,0.2-0.3,0.3-0.5c0.1-0.1,0.1-0.2,0.2-0.2c0.1,0,0.1-0.1,0.1-0.1
			c0-0.1,0-0.1-0.2-0.3c-0.2-0.1-0.3-0.2-0.5-0.3c-0.1,0.3-0.2,0.7-0.4,1l-0.1-0.1l-0.2,0.3c0-0.4,0-0.9,0-1.3h-0.8
			c0,0.3,0,0.7,0,1.2l-0.5-0.3c-0.1,0.2-0.2,0.5-0.4,0.8c0,0-0.1-0.1-0.2-0.2c0-0.1,0.1-0.2,0.2-0.4c0-0.1,0.1-0.1,0.1-0.2
			c0.1-0.1,0.1-0.2,0.2-0.2c0.1,0,0.1-0.1,0.1-0.1c0-0.1,0-0.1-0.2-0.3c-0.2-0.1-0.3-0.2-0.5-0.3c-0.1,0.4-0.2,0.7-0.4,1L19,30.3
			l-0.4,0.5c0,0,0,0,0.1,0c0.1,0,0.1,0.1,0.1,0.1h-0.7v-0.8c0-0.3,0.1-0.5,0.2-0.8c0,0-0.1-0.1-0.4-0.1c-0.2,0-0.4,0-0.6,0
			c0,0.3,0,0.5,0,0.9v0.8h-0.4c-0.2,0-0.3,0-0.4,0c0,0,0,0.2,0,0.5c0,0.3,0,0.4,0,0.5c0.2,0,0.3,0,0.4,0h0.4c-0.1,0.5-0.2,1-0.4,1.5
			C16.7,33.8,16.5,34.2,16.3,34.5z M22.3,34.5c-0.1,0.1-0.1,0.2-0.2,0.4c-0.1-0.2-0.1-0.5-0.2-0.7h0.6
			C22.4,34.2,22.3,34.3,22.3,34.5z M22.3,32.7L22,33.1c0.1,0.1,0.2,0.2,0.4,0.3h-0.7c0,0,0-0.1,0-0.2c0-0.1,0-0.2,0-0.2
			c0,0,0-0.1,0-0.2c0-0.1,0-0.1,0-0.2l0,0.2c0.1,0,0.1,0,0.3,0C22.1,32.8,22.2,32.8,22.3,32.7z M22.1,31.6c-0.1,0.2-0.3,0.4-0.4,0.6
			l-0.2,0c0-0.3,0-0.5,0-0.6c0-0.3,0-0.5,0-0.6C21.7,31.1,22,31.3,22.1,31.6z M20.7,30.7c0,0.2,0,0.5,0,0.9c0,0.2,0,0.5,0.1,0.9
			c-0.1-0.3-0.2-0.6-0.3-0.9L20,31.8c0,0.1,0.1,0.2,0.1,0.4l-0.4,0C20,31.8,20.3,31.3,20.7,30.7z M18.1,31.8h0.7V31
			c0.2,0.2,0.4,0.4,0.6,0.6c-0.1,0.2-0.2,0.4-0.4,0.6c0,0,0,0,0,0.1l-0.2,0l0.1,0.7c0.1,0,0.4,0,0.7-0.1s0.6-0.1,0.7-0.1
			c0,0.1,0,0.1,0,0.2v0l0.5-0.2c0,0.2,0.1,0.4,0.1,0.5h-1h-1c-0.2-0.4-0.5-0.8-0.7-1.2V31.8z"/>
		<path style="fill:#FFFFFF;" d="M30.9,29.5l-0.6,0.3c0.1,0.2,0.2,0.3,0.3,0.5c0.1,0.2,0.2,0.3,0.2,0.5l0.6-0.4
			C31.4,30.1,31.2,29.8,30.9,29.5z"/>
		<path style="fill:#FFFFFF;" d="M30.9,35.9c-0.1,0-0.2-0.3-0.3-0.8c0.4-0.6,0.6-1.3,0.9-2.1c0-0.2,0.1-0.3,0.2-0.4
			c0,0,0.1-0.1,0.1-0.2c0-0.1-0.1-0.2-0.3-0.2c-0.2-0.1-0.4-0.1-0.6-0.2c-0.1,0.7-0.3,1.3-0.5,1.7c-0.1-0.6-0.1-1.4-0.1-2.2h0.7
			c0.2,0,0.5,0,0.7,0c0,0,0-0.2,0-0.5s0-0.4,0-0.5c-0.3,0-0.5,0-0.7,0h-0.7c0-0.3,0-0.8,0-1.4h-0.9c0,0.3,0,0.8,0,1.4h-1.2
			c-0.5,0-0.9,0-1.2,0c0,0,0,0.2,0,0.5s0,0.4,0,0.5c0.2,0,0.4,0,0.6,0h0.6h1.2c0,1.5,0.2,2.6,0.3,3.4c-0.2,0.3-0.4,0.5-0.6,0.7v-1.8
			h0.2c0,0,0.1,0,0.1,0c0,0,0.1,0,0.1,0c0,0,0-0.1,0-0.4s0-0.4,0-0.4c0,0,0,0-0.1,0c0,0-0.1,0-0.1,0H29v-0.6c0-0.2,0.1-0.4,0.2-0.6
			c0,0-0.1-0.1-0.4-0.1c-0.2,0-0.4,0-0.5,0c0,0.2,0,0.5,0,0.7v0.6H28v-0.6c0-0.2,0.1-0.4,0.2-0.6c0,0-0.1-0.1-0.3-0.1
			c-0.2,0-0.4,0-0.5,0c0,0.2,0,0.5,0,0.7v0.6h-0.2c0,0-0.1,0-0.1,0c0,0-0.1,0-0.1,0L27,33c-0.1-0.1-0.2-0.3-0.4-0.5
			c-0.2-0.3-0.3-0.4-0.4-0.6v-0.1h0.3c0.1,0,0.2,0,0.3,0c0,0,0-0.2,0-0.5c0-0.3,0-0.4,0-0.5c-0.1,0-0.2,0-0.3,0h-0.3v-0.8
			c0-0.3,0.1-0.5,0.2-0.7c0,0-0.1-0.1-0.4-0.1c-0.2,0-0.4,0-0.7,0c0,0.3,0,0.6,0,0.8v0.8h-0.4c-0.2,0-0.3,0-0.4,0c0,0,0,0.2,0,0.5
			c0,0.3,0,0.5,0,0.5c0.1,0,0.3,0,0.4,0h0.4v0.1c-0.1,0.5-0.3,1-0.5,1.4c-0.2,0.5-0.4,0.9-0.6,1.2c0.2,0.4,0.4,0.7,0.4,0.9
			c0.2-0.3,0.4-0.8,0.6-1.4v1.4c0,0.5,0,1-0.1,1.4c0,0,0.2,0,0.5,0s0.5,0,0.5,0c0-0.3,0-0.6,0-1v-1v-1.9c0.2,0.4,0.3,0.6,0.4,0.7
			l0.4-0.5c0,0,0,0.1,0,0.4c0,0.3,0,0.4,0,0.4c0,0,0,0,0.1,0c0,0,0.1,0,0.1,0h0.2c-0.1,0.9-0.3,1.6-0.7,2.2c0.3,0.1,0.5,0.3,0.6,0.5
			c0.5-0.6,0.8-1.5,0.8-2.6h0.4v1.9H29c-0.2,0.1-0.3,0.3-0.5,0.4c0.2,0.2,0.5,0.3,0.6,0.5c0.3-0.2,0.6-0.5,0.8-0.8
			c0.2,0.5,0.5,0.8,0.8,0.8c0.3,0,0.5-0.1,0.6-0.3c0.1-0.2,0.2-0.6,0.3-1.1c-0.2-0.1-0.5-0.3-0.6-0.5C31,35.5,31,35.9,30.9,35.9z"/>
		<path style="fill:#FFFFFF;" d="M39.2,35.2v-1.9v-1.9h-0.1l0.5-0.3c-0.1-0.4-0.5-0.9-1-1.5L38,29.9c0.4,0.5,0.7,0.9,0.9,1.4h-0.9
			v-1.2c0-0.3,0.1-0.5,0.2-0.8c0,0-0.1-0.1-0.4-0.1c-0.2,0-0.5,0-0.7,0c0,0.3,0,0.7,0,1v1h-0.9c0.2-0.2,0.3-0.5,0.5-0.8
			c0.1-0.1,0.1-0.2,0.2-0.3c0.1,0,0.1-0.1,0.1-0.1c0-0.1-0.1-0.2-0.2-0.3c-0.2-0.1-0.4-0.2-0.6-0.2c-0.2,0.6-0.5,1-0.9,1.4
			c0.1,0.1,0.3,0.2,0.6,0.4v3.8h0.6c-0.2,0.2-0.5,0.4-0.9,0.7l-0.1-0.6c-0.1,0-0.3,0.1-0.6,0.1c-0.2,0-0.4,0.1-0.5,0.1v-1.9h0.5
			c0.2,0,0.4,0,0.5,0c0,0,0-0.2,0-0.4s0-0.4,0-0.4c-0.2,0-0.3,0-0.5,0h-0.5v-0.6h0.4c0.2,0,0.3,0,0.4,0c0,0,0-0.1,0-0.4
			c0-0.3,0-0.4,0-0.4c0,0,0,0-0.1,0c0,0-0.1,0-0.1,0H35l0.5-0.8c-0.2-0.3-0.6-0.7-1.2-1.2h-0.7c-0.3,0.8-0.8,1.4-1.4,1.9
			c0.1,0.1,0.2,0.2,0.3,0.3c0.1,0.1,0.2,0.2,0.2,0.3c0,0,0,0,0.1-0.1c0,0,0.1-0.1,0.1-0.1v0.3h0.7v0.6H33c-0.2,0-0.4,0-0.5,0
			c0,0,0,0.2,0,0.4s0,0.4,0,0.4c0.2,0,0.4,0,0.5,0h0.5v2.1c-0.5,0.1-0.9,0.1-1.2,0.2l0.2,0.9c0.8-0.1,1.6-0.3,2.5-0.5l-0.1,0
			c0.2,0.2,0.4,0.4,0.6,0.6c0.3-0.1,0.6-0.3,0.9-0.5c0.3-0.2,0.6-0.5,0.8-0.7l-0.5-0.4h1.5l-0.5,0.4c0.5,0.4,0.9,0.8,1.2,1.2
			l0.8-0.5c-0.3-0.3-0.7-0.7-1.2-1.1H39.2z M33.3,31.3c0.3-0.3,0.5-0.7,0.7-1.1c0.4,0.4,0.7,0.7,0.9,1.1h-0.8H33.3z M38.4,34.5h-1.7
			v-0.4h0.9h0.9V34.5z M38.4,33.4h-1.7V33h0.9h0.9V33.4z M38.4,32.4h-1.7V32h0.9h0.9V32.4z"/>
		<path style="fill:#FFFFFF;" d="M34.8,33.7c-0.1,0.5-0.2,0.9-0.3,1.3l0.6,0.2c0-0.1,0.1-0.3,0.2-0.5c0,0,0-0.1,0-0.1c0,0,0,0,0-0.1
			c0-0.1,0.1-0.2,0.1-0.3c0-0.1,0.1-0.1,0.1-0.1c0,0,0.1,0,0.1-0.1c0,0-0.1-0.1-0.2-0.2C35.1,33.8,34.9,33.7,34.8,33.7z"/>
		<path style="fill:#FFFFFF;" d="M33.5,35.1c0-0.4-0.1-0.9-0.3-1.4l-0.6,0.2c0.1,0.2,0.1,0.4,0.2,0.7c0,0.3,0.1,0.5,0.1,0.7
			L33.5,35.1z"/>
		<path style="fill:#FFFFFF;" d="M44.5,30.1v-0.4c0-0.1,0-0.2,0.1-0.4c0,0-0.1-0.1-0.4-0.1c-0.2,0-0.5,0-0.7,0c0,0.2,0,0.3,0,0.4
			v0.4h-2.8v1c0,0.4,0,0.7,0,1c0,0,0.2,0,0.5,0c0.3,0,0.5,0,0.5,0c0-0.1,0-0.3,0-0.5V31H44h2.4v0.6c0,0.2,0,0.4,0,0.5
			c0,0,0.2,0,0.5,0c0.3,0,0.5,0,0.5,0c0-0.3,0-0.6,0-1v-1H44.5z"/>
		<path style="fill:#FFFFFF;" d="M44.5,35.7v-1.2h1.1c0.5,0,0.8,0,1.1,0c0,0,0-0.2,0-0.5s0-0.5,0-0.5c-0.4,0-0.7,0-1.1,0h-1.1v-1
			h0.8c0.3,0,0.6,0,0.8,0c0,0,0-0.2,0-0.5c0-0.3,0-0.5,0-0.5c-0.4,0-0.7,0-1.1,0H44h-1.1c-0.4,0-0.8,0-1.1,0c0,0,0,0.2,0,0.5
			c0,0.3,0,0.5,0,0.5c0.3,0,0.6,0,0.8,0h0.8v2.8c-0.5-0.2-0.9-0.7-1.1-1.3c0-0.2,0.1-0.3,0.1-0.5c0-0.1,0.1-0.2,0.1-0.2
			c0,0,0.1-0.1,0.1-0.1c0,0-0.1-0.1-0.3-0.2c-0.2-0.1-0.5-0.1-0.7-0.1c-0.2,1.5-0.6,2.5-1.4,3.1c0.3,0.2,0.5,0.4,0.8,0.6
			c0.4-0.4,0.8-0.9,1-1.5c0.3,0.5,0.8,0.9,1.3,1.1c0.5,0.2,1.1,0.3,1.9,0.3h2c0-0.1,0.1-0.3,0.1-0.5c0.1-0.2,0.1-0.4,0.2-0.5
			c-0.4,0-1.1,0-2.2,0C45.1,35.7,44.8,35.7,44.5,35.7z"/>
		<path style="fill:#FFFFFF;" d="M5.3,3.6v38.1H57V3.6H5.3z M55,39.7H7.3V5.6H55V39.7z"/>
		<polygon style="fill:#FFFFFF;" points="22.4,19.3 28.9,19.3 28.9,21.4 33.2,19.1 37.4,16.9 33.2,14.7 28.9,12.5 28.9,14.6 
			22.4,14.6 		"/>
		<polygon style="fill:#FFFFFF;" points="46.5,16.9 41.6,7.2 19.5,7.2 19.5,9.2 40.3,9.2 44.2,16.9 40.3,24.7 19.5,24.7 19.5,26.7 
			41.6,26.7 		"/>
	</g>
</g>
</svg>
