<?xml version="1.0" encoding="utf-8"?>
<!-- Generator: Adobe Illustrator 22.0.0, SVG Export Plug-In . SVG Version: 6.00 Build 0)  -->
<svg version="1.1" xmlns="http://www.w3.org/2000/svg" xmlns:xlink="http://www.w3.org/1999/xlink" x="0px" y="0px"
	 viewBox="0 0 62.4 45.4" style="enable-background:new 0 0 62.4 45.4;" xml:space="preserve">
<g id="圖層_2">
	<g>
		<rect x="2.3" y="2.2" style="fill:#1C191B;" width="57.7" height="41.3"/>
		<polyline style="fill:#656565;" points="60,2.2 62.4,0.1 0,0.1 2.3,2.2 60,2.2 		"/>
		<polyline style="fill:#010001;" points="60,43.5 62.4,45.4 0,45.4 2.3,43.5 60,43.5 		"/>
		<polyline style="fill:#4A4A4B;" points="2.3,43.5 0,45.4 0,0.1 2.3,2.2 2.3,43.5 		"/>
		<polyline style="fill:#353537;" points="60,43.5 62.4,45.4 62.4,0.1 60,2.2 60,43.5 		"/>
	</g>
</g>
<g id="圖層_1">
	<g>
		<path style="fill:#FFFFFF;" d="M6,3.5v38.1h51.7V3.5H6z M55.7,39.6H8V5.5h47.7V39.6z"/>
		<path style="fill:#FFFFFF;" d="M27.7,27.9c0.6,0.4,1.1,0.8,1.4,1.1c0.5,0.5,0.9,0.8,1.2,1.1l1.5-1.1c-0.6-0.6-1.4-1.2-2.7-2
			L27.7,27.9z"/>
		<path style="fill:#FFFFFF;" d="M17.9,22.5h1.2v5.4c0,0.1,0,0.1-0.1,0.2c0,0-0.1,0.1-0.2,0.1c-0.6,0-1.2,0-1.6,0
			c0.3,0.6,0.5,1.2,0.6,1.8c1.2,0,2-0.1,2.4-0.3c0.3-0.1,0.5-0.3,0.6-0.6c0.1-0.2,0.1-0.6,0.1-1.1v-5.4h0.9c-0.2,0.8-0.4,1.5-0.5,2
			l1.4,0.3c0.4-1,0.7-2.3,1.1-3.8l-1.1-0.3l-0.3,0h-0.8l0.4-0.6c-0.3-0.2-0.6-0.5-0.9-0.8c0.8-0.8,1.6-1.8,2.2-2.9v0.7h3
			c-0.1,0.5-0.1,0.8-0.2,1.1h-2.3v4.2v2.1c0,0.1,0,0.2,0,0.4c0,0.9,0,1.5-0.1,1.8c0,0.1,0,0.1,0.1,0.1c0.4,0,0.9-0.1,1.5-0.1
			c-0.3,0.3-0.8,0.7-1.4,1.1c-0.6,0.4-1.2,0.7-1.8,0.9c0.5,0.4,0.9,0.8,1.2,1.2c0.7-0.3,1.3-0.6,1.9-1c0.3-0.2,0.6-0.4,0.9-0.6
			c0.1-0.1,0.3-0.2,0.4-0.2c0.1,0,0.2,0,0.2-0.1c0.1-0.1,0-0.3-0.4-0.6c-0.3-0.3-0.6-0.6-1-0.8c0.6,0,1.2,0,1.9,0h1.7
			c0.7,0,1.3,0,1.7,0.1c0.1,0,0.2,0,0.2-0.1c-0.1-1.1-0.2-2.5-0.2-4.2v-4.2h-2.8c0.1-0.3,0.2-0.7,0.3-1.1h1.5c0.5,0,1,0,1.5,0.1
			c0,0,0-0.3,0-0.9s0-0.9,0-0.9c-1.5,0.1-2.8,0.2-4,0.2h-4v0.7l-1.1-0.8L22,15.7h-2.4c-1,0-1.8,0-2.4-0.1c0,0,0,0.3,0,0.9
			s0,0.9,0,0.9c0.7-0.1,1.3-0.1,1.8-0.1h1.8c-0.2,0.4-0.6,0.8-1,1.3c-0.6-0.3-1-0.6-1.5-0.7l-0.9,1.2c1,0.5,1.9,1.1,2.7,1.7h-1.7
			c-0.7,0-1.2,0-1.7-0.1c0,0,0,0.3,0,0.9s0,0.9,0,0.9C17.2,22.6,17.6,22.5,17.9,22.5z M29.1,25.4h-1.8h-1.7v-1h3.5V25.4z M29.1,23.1
			h-1.8h-1.7v-1h3.5V23.1z M29.1,19.8v1h-1.8h-1.7v-1H29.1z"/>
		<path style="fill:#FFFFFF;" d="M45.5,24.8c0-0.7,0-1.2,0.1-1.7c0-0.1,0-0.1-0.1-0.1C44.8,23,43.9,23,42.9,23h-2.6h-2.6
			c-1,0-1.9,0-2.6-0.1c-0.1,0-0.1,0-0.1,0.1c0.1,0.5,0.1,1.1,0.1,1.7v1.7c0,1.5,0,2.6-0.1,3.5c0.1,0.1,0.4,0.1,1,0.1
			c0.6,0,0.9,0,0.9-0.1c0,0,0-0.1,0-0.1c0-0.1,0-0.1,0-0.2v-0.3h6.9v0.2c0,0,0,0.1,0,0.1c0,0,0,0.1,0,0.1c0,0.1,0.3,0.1,1,0.1
			c0.6,0,1,0,1.1-0.1c-0.1-0.9-0.1-2-0.1-3.5V24.8z M39.3,28h-2.5v-1.1H38h1.3V28z M39.3,25.6H38h-1.2v-1h2.5V25.6z M43.6,28h-2.6
			v-1.1h1.3h1.3V28z M43.6,25.6h-1.3h-1.3v-1h2.6V25.6z"/>
		<path style="fill:#FFFFFF;" d="M33.3,22.8c0.4-0.1,1.2-0.3,2.2-0.6c1.3-0.4,2.3-0.6,3-0.8c0.1,0.2,0.2,0.4,0.3,0.7l0.7-0.3
			c0.4,0.4,0.6,0.7,0.8,1.2c1.1-0.5,1.9-1.3,2.4-2.2c0.4-0.8,0.7-1.8,0.8-3.2h1.6c-0.1,1.9-0.2,3-0.4,3.2c-0.1,0.1-0.3,0.2-0.5,0.2
			c-0.4,0-0.8,0-1.3-0.1c0.3,0.5,0.4,1.1,0.5,1.6c0.8,0,1.4,0,1.8,0c0.5-0.1,0.8-0.3,1.1-0.6c0.2-0.2,0.4-0.8,0.5-1.5
			c0.1-0.7,0.2-2,0.2-3.7c0-0.2,0-0.5,0-0.7h-3.4h-1.7c-0.7,0-1.2,0-1.7-0.1c0,0,0,0.3,0,0.8c0,0.5,0,0.8,0,0.8c0.3,0,0.6,0,0.7,0
			h0.8c-0.1,0.8-0.2,1.4-0.4,1.9c-0.2,0.6-0.6,1.1-1.1,1.5c-0.4-0.9-1-1.9-1.8-2.9l-1.5,0.7c0.3,0.4,0.5,0.8,0.8,1.3l-1.8,0.4
			l-0.1-2.7c1-0.2,1.8-0.4,2.5-0.6c0.3-0.1,0.5-0.1,0.7,0c0.1,0,0.2,0,0.3,0c0.1,0,0.1-0.3-0.1-0.7c-0.2-0.4-0.4-0.8-0.7-1.2
			c-0.9,0.4-2,0.8-3.2,1.2l-1.4-0.4l0.3,4.8c-0.5,0.1-0.9,0.2-1.3,0.3L33.3,22.8z"/>
	</g>
</g>
</svg>
