<?xml version="1.0" encoding="utf-8"?>
<!-- Generator: Adobe Illustrator 22.0.0, SVG Export Plug-In . SVG Version: 6.00 Build 0)  -->
<svg version="1.1" xmlns="http://www.w3.org/2000/svg" xmlns:xlink="http://www.w3.org/1999/xlink" x="0px" y="0px"
	 viewBox="0 0 62.4 45.4" style="enable-background:new 0 0 62.4 45.4;" xml:space="preserve">
<g id="圖層_2">
	<g>
		<rect x="2.3" y="2.2" style="fill:#1C191B;" width="57.7" height="41.3"/>
		<polyline style="fill:#656565;" points="60,2.2 62.4,0 0,0 2.3,2.2 60,2.2 		"/>
		<polyline style="fill:#010001;" points="60,43.4 62.4,45.4 0,45.4 2.3,43.4 60,43.4 		"/>
		<polyline style="fill:#4A4A4B;" points="2.3,43.4 0,45.4 0,0 2.3,2.2 2.3,43.4 		"/>
		<polyline style="fill:#353537;" points="60,43.4 62.4,45.4 62.4,0 60,2.2 60,43.4 		"/>
	</g>
</g>
<g id="圖層_1">
	<g>
		<path style="fill:#FFFFFF;" d="M20,30c-0.4,0-0.8,0-1.1,0c0,0,0,0.2,0,0.5s0,0.5,0,0.5c0.2,0,0.4,0,0.6,0h0.6c0,0.9,0,1.6-0.1,2.1
			c-0.1,0.7-0.3,1.3-0.5,1.8c-0.3,0.5-0.7,1-1.3,1.3c0.1,0.1,0.2,0.2,0.4,0.4c0.1,0.1,0.2,0.3,0.3,0.4c0.6-0.4,1.1-0.9,1.4-1.6
			c0.3-0.5,0.5-1.2,0.6-2c0.1-0.6,0.1-1.4,0.2-2.4h1.2c0,1.6-0.1,2.8-0.1,3.5c-0.1,0.7-0.1,1.1-0.2,1.3c-0.1,0.1-0.2,0.2-0.3,0.2
			c-0.4,0-0.7,0-1,0c0.1,0.1,0.1,0.3,0.2,0.5c0,0.2,0.1,0.3,0.1,0.5c0.5,0,0.9,0,1.1,0c0.2,0,0.3-0.1,0.4-0.1
			c0.1-0.1,0.2-0.2,0.3-0.3c0.1-0.2,0.2-0.7,0.3-1.6c0.1-0.8,0.1-2.2,0.1-4.2c0-0.2,0-0.3,0-0.5H21H20z"/>
		<path style="fill:#FFFFFF;" d="M19.1,34.9c0.1-0.2,0.2-0.6,0.3-1.2c-0.1,0-0.3-0.1-0.4-0.2c-0.2-0.1-0.3-0.2-0.4-0.2
			c0,0.4,0,0.7,0,0.8c0,0.1-0.1,0.2-0.1,0.2h-0.4c-0.1,0-0.1,0-0.1-0.1c0,0,0-0.1,0-0.3v-1.6l1.7-0.3l-0.1-0.9l-1.5,0.3v-1
			c0-0.3,0.1-0.5,0.2-0.8c0,0-0.1-0.1-0.4-0.1c-0.2,0-0.5,0-0.7,0c0,0.1,0,0.3,0,0.5v0.5v1l-0.9,0.2l0.1,0.9l0.7-0.1V34
			c0,0.5,0.1,0.8,0.2,1c0.1,0.2,0.4,0.3,0.7,0.3h0.6C18.7,35.3,18.9,35.2,19.1,34.9z"/>
		<path style="fill:#FFFFFF;" d="M26.6,30.1c0.1,0.2,0.3,0.5,0.4,0.8c0.2,0.4,0.3,0.6,0.3,0.8l0.8-0.4c-0.2-0.5-0.4-1-0.8-1.5
			L26.6,30.1z"/>
		<path style="fill:#FFFFFF;" d="M26.5,30.2c0-0.3,0.1-0.5,0.2-0.8c0,0-0.1-0.1-0.4-0.1c-0.3,0-0.5,0-0.7,0c0,0.3,0,0.7,0,1.2v1.2
			h-0.9c0.2-0.2,0.4-0.6,0.5-1c0.1-0.1,0.1-0.2,0.2-0.3c0.1,0,0.1-0.1,0.1-0.1c0-0.1-0.1-0.2-0.3-0.3c-0.2-0.1-0.4-0.2-0.6-0.2
			c-0.1,0.3-0.1,0.5-0.3,0.8c-0.1,0.3-0.3,0.5-0.4,0.7c0.1,0.1,0.3,0.2,0.6,0.4h-0.2v2.6v1.3c0,0.5,0,0.9-0.1,1.3c0,0,0.2,0,0.5,0
			c0.3,0,0.5,0,0.5,0c0-0.2,0-0.5,0-0.8v-0.8h1.6v0.6c0,0.1,0,0.1-0.1,0.1c-0.3,0-0.5,0-0.7,0c0.2,0.3,0.3,0.6,0.3,0.9
			c0.5,0,0.9-0.1,1.1-0.2c0.1-0.1,0.2-0.2,0.3-0.3c0-0.1,0.1-0.3,0.1-0.5v-4.2h-1.2V30.2z M26.9,34.4h-1.6v-0.5h0.8h0.8V34.4z
			 M26.9,32.6v0.5h-0.8h-0.8v-0.5H26.9z"/>
		<path style="fill:#FFFFFF;" d="M30,29.5c0,0.4,0.1,1,0.1,1.6v1.5v3.1c0,0.1-0.1,0.2-0.2,0.2c-0.4,0-0.8,0-1.2,0
			c0.2,0.3,0.3,0.6,0.3,1c0.8,0,1.3-0.1,1.6-0.2c0.2-0.1,0.3-0.2,0.3-0.3C31,36.2,31,36,31,35.7v-5.3c0-0.3,0.1-0.5,0.2-0.8
			c0,0-0.1-0.1-0.4-0.1C30.5,29.5,30.3,29.5,30,29.5z"/>
		<path style="fill:#FFFFFF;" d="M28.3,33.7c0,0.5,0,0.8,0,1.1c0,0,0.2,0,0.5,0c0.3,0,0.5,0,0.5,0c-0.1-0.5-0.1-1.1-0.1-1.8v-1.8
			c0-0.3,0.1-0.5,0.2-0.8c0,0-0.1-0.1-0.4-0.1c-0.2,0-0.5,0-0.7,0c0,0.3,0,0.7,0,1.2v1.1V33.7z"/>
		<path style="fill:#FFFFFF;" d="M33.5,30c-0.5,0-0.9,0-1.2,0c0,0-0.1,0-0.1,0c0,0.4,0.1,0.8,0.1,1.3v1.3V34c0,0.5,0,0.9-0.1,1.3
			c0,0,0.2,0,0.5,0c0.3,0,0.4,0,0.4,0c0-0.1,0-0.2,0-0.4v-0.4h1.5v-1.8c0.2,0.1,0.4,0.3,0.5,0.4c0.3-0.4,0.5-0.9,0.8-1.6h0.4v1.2
			c0,0.5-0.2,1.1-0.5,1.6c-0.4,0.7-1,1.2-1.8,1.6c0.1,0.1,0.2,0.2,0.3,0.4c0.1,0.2,0.2,0.3,0.3,0.4c0.6-0.3,1.1-0.7,1.6-1.3
			c0.3-0.4,0.6-0.9,0.7-1.3c0.1,0.4,0.3,0.8,0.6,1.3c0.4,0.6,0.9,1,1.4,1.3c0.2-0.3,0.4-0.6,0.6-0.8c-0.7-0.4-1.3-0.9-1.7-1.6
			c-0.3-0.5-0.4-1.1-0.4-1.6v-1.2h1c-0.1,0.5-0.2,0.9-0.3,1.4l0.8,0.2c0.2-0.6,0.4-1.4,0.6-2.4l-0.7-0.2l-0.1,0h-2.3
			c0-0.2,0.1-0.3,0.2-0.6c0-0.1,0.1-0.2,0.1-0.2c0,0,0.1-0.1,0.1-0.1c0-0.1-0.1-0.1-0.3-0.2c-0.2-0.1-0.5-0.1-0.7-0.2
			c-0.2,1.1-0.5,2-0.9,2.7V30H33.5z M33.8,33.7h-0.7v-1.4v-1.4h0.7V33.7z"/>
		<path style="fill:#FFFFFF;" d="M45.8,31.7l-0.7,0.4c0.4,0.2,0.7,0.5,1,0.8h-1.3v-1.3L45.8,31.7c0.4,0,0.7,0,1,0c0,0,0,0,0,0
			c0-0.3,0-0.6,0-1v-1h-3h-1.5c-0.6,0-1.1,0-1.5-0.1c0,0,0,0,0,0.1c0,0.3,0,0.7,0,1.2V32c0,0.9,0,1.6-0.1,2.2
			c-0.1,0.9-0.4,1.6-0.7,2.1c0.1,0,0.3,0.1,0.4,0.2c0.2,0.1,0.3,0.2,0.4,0.3c0.5-0.8,0.8-2.1,0.9-3.8c0.1,0.1,0.3,0.2,0.5,0.4
			c0,0,0,0,0,0l0,0v1.7c0,0.7,0,1.3-0.1,1.7c0,0,0.2,0,0.5,0c0.3,0,0.5,0,0.5,0c0-0.1,0-0.3,0-0.6v-0.6h2.6v0.3c0,0.1,0,0.1-0.1,0.1
			c0,0,0,0-0.1,0c-0.3,0-0.5,0-0.7,0c0.1,0.3,0.2,0.5,0.3,0.8c0.6,0,1,0,1.2-0.1c0.1-0.1,0.2-0.2,0.3-0.3c0-0.1,0.1-0.3,0.1-0.5
			v-2.6l0.6-0.4c-0.1-0.2-0.4-0.4-0.7-0.6C46.4,32.1,46.1,31.9,45.8,31.7z M41.7,30.4h4.1v0.5h-2.1h-2.1V30.4z M42.8,33
			c0.2-0.1,0.3-0.3,0.5-0.5c0.1-0.1,0.2-0.2,0.3-0.2c0.1,0,0.1,0,0.1-0.1c0,0,0-0.1-0.2-0.2s-0.4-0.2-0.6-0.3
			c-0.3,0.4-0.7,0.7-1.2,1.1c0,0,0,0,0,0c0-0.4,0-0.6,0-0.8v-0.3h1.1H44V33H42.8z M45.8,35h-2.6v-0.3h1.3h1.3V35z M45.8,34h-1.3
			h-1.3v-0.3h2.6V34z"/>
		<polygon style="fill:#FFFFFF;" points="42.7,14.7 45.5,13.8 48.2,12.9 45.4,12.1 42.7,11.2 42.7,12 38.5,12 38.5,13.9 42.7,13.9 
					"/>
		<path style="fill:#FFFFFF;" d="M5.3,3.6v38.1H57V3.6H5.3z M55,39.7H7.3V5.6H55V39.7z"/>
		<path style="fill:#FFFFFF;" d="M34.2,21.6v-8.4l-4.4-2.8H13.5v1.5h15.4v10.8H13.5v1.5h16.2L34.2,21.6z M32.7,20.8l-2.3,1.4v-9.6
			l2.3,1.5V20.8z"/>
		<polygon style="fill:#FFFFFF;" points="42.7,19 45.5,18.1 48.2,17.2 45.4,16.4 42.7,15.5 42.7,16.3 38.5,16.3 38.5,18.2 
			42.7,18.2 		"/>
		<polygon style="fill:#FFFFFF;" points="42.4,23.5 45.2,22.6 47.9,21.7 45.2,20.9 42.4,20 42.4,20.8 38.2,20.8 38.2,22.7 
			42.4,22.7 		"/>
	</g>
</g>
</svg>
