<?xml version="1.0" encoding="utf-8"?>
<!-- Generator: Adobe Illustrator 22.0.0, SVG Export Plug-In . SVG Version: 6.00 Build 0)  -->
<svg version="1.1" xmlns="http://www.w3.org/2000/svg" xmlns:xlink="http://www.w3.org/1999/xlink" x="0px" y="0px"
	 viewBox="0 0 62.4 45.4" style="enable-background:new 0 0 62.4 45.4;" xml:space="preserve">
<g id="圖層_2">
	<g>
		<rect x="2.3" y="2.2" style="fill:#1C191B;" width="57.7" height="41.3"/>
		<polyline style="fill:#656565;" points="60,2.2 62.4,0 0,0 2.3,2.2 60,2.2 		"/>
		<polyline style="fill:#010001;" points="60,43.4 62.4,45.4 0,45.4 2.3,43.4 60,43.4 		"/>
		<polyline style="fill:#4A4A4B;" points="2.3,43.4 0,45.4 0,0 2.3,2.2 2.3,43.4 		"/>
		<polyline style="fill:#353537;" points="60,43.4 62.4,45.4 62.4,0 60,2.2 60,43.4 		"/>
	</g>
</g>
<g id="圖層_1">
	<g>
		<path style="fill:#FFFFFF;" d="M16.7,33.6v0.6H16c-0.2,0-0.5,0-0.7,0c0,0,0,0.2,0,0.4c0,0.3,0,0.4,0,0.4c0.3,0,0.5,0,0.7,0h0.7
			v0.7h-0.9c-0.4,0-0.6,0-0.9,0c0,0,0,0.2,0,0.5s0,0.4,0,0.5c0.4,0,0.7,0,1.1,0h1.1h1.1c0.5,0,0.8,0,1.1,0c0,0,0-0.2,0-0.5
			s0-0.4,0-0.5c-0.3,0-0.6,0-0.8,0h-0.8v-0.7h0.7c0.2,0,0.5,0,0.7,0c0,0,0-0.2,0-0.4c0-0.3,0-0.4,0-0.4c-0.3,0-0.5,0-0.7,0h-0.7
			v-0.7c0.6-0.1,1.1-0.2,1.5-0.3l-0.6-0.7c-0.8,0.2-1.9,0.4-3.5,0.4c0.1,0.3,0.2,0.5,0.2,0.7C15.9,33.7,16.3,33.7,16.7,33.6z"/>
		<path style="fill:#FFFFFF;" d="M15.4,32.5h1.8c0.7,0,1.3,0,1.8,0.1c0,0,0.1,0,0.1-0.1c0-0.4-0.1-0.9-0.1-1.4v-1.4h-1.8h-0.9
			c-0.4,0-0.7,0-0.9,0c0,0-0.1,0-0.1,0c0,0.4,0.1,0.9,0.1,1.4V32.5z M16.3,30.5h1.9v1.2h-0.9h-0.9V30.5z"/>
		<path style="fill:#FFFFFF;" d="M12.5,35.5c0.3-0.4,0.6-0.9,0.9-1.6v1.4c0,0.6,0,1.1-0.1,1.4c0,0,0.2,0,0.5,0c0.3,0,0.5,0,0.5,0
			c0-0.3,0-0.5,0-0.8v-0.8v-1.6c0.2,0.4,0.4,0.6,0.5,0.8l0.5-0.7c-0.1-0.1-0.2-0.3-0.5-0.5c-0.3-0.3-0.4-0.4-0.5-0.5v-0.2h0.4
			c0.2,0,0.3,0,0.4,0c0,0,0-0.2,0-0.5s0-0.5,0-0.5c-0.1,0-0.3,0-0.4,0h-0.4v-1.1c0.2-0.1,0.4-0.1,0.5-0.2c0.1,0,0.2,0,0.2,0
			c0,0,0.1,0,0.1,0c0,0,0-0.1-0.1-0.3c-0.1-0.2-0.2-0.4-0.4-0.6c-0.6,0.3-1.4,0.5-2.5,0.7c0.1,0.2,0.2,0.5,0.3,0.7
			c0.4,0,0.7-0.1,1-0.2v0.9h-0.6c-0.2,0-0.4,0-0.6,0c0,0,0,0.2,0,0.5s0,0.5,0,0.5c0.2,0,0.3,0,0.5,0h0.5c-0.4,0.9-0.7,1.6-1.2,2.1
			C12.2,35,12.4,35.3,12.5,35.5z"/>
		<path style="fill:#FFFFFF;" d="M22.7,35.2v-1.8h0.6c0.2,0,0.4,0,0.6,0c0,0,0-0.2,0-0.5s0-0.5,0-0.5c-0.3,0-0.6,0-0.8,0h-0.8h-0.8
			c-0.3,0-0.6,0-0.8,0c0,0,0,0.2,0,0.5s0,0.5,0,0.5c0.2,0,0.4,0,0.6,0h0.6v1.9c-0.3,0-0.7,0.1-1.2,0.2c-0.1,0-0.2,0-0.3,0l0.3,1
			c1.4-0.3,2.6-0.6,3.7-0.8L24.1,35C23.6,35.1,23.1,35.2,22.7,35.2z"/>
		<path style="fill:#FFFFFF;" d="M26.4,35.8c-0.3,0-0.5-0.4-0.8-1.2c-0.2-0.8-0.4-1.8-0.5-3h1.1c0.4,0,0.8,0,1.1,0c0,0,0-0.2,0-0.5
			c0-0.3,0-0.5,0-0.5c-0.2,0-0.3,0-0.4,0h-0.4l0.5-0.5c-0.2-0.3-0.6-0.5-1-0.9l-0.6,0.5c0.4,0.3,0.7,0.6,0.9,0.8h-1.2
			c0-0.4,0-0.8,0-1.3h-1c0,0.4,0,0.9,0,1.3h-1.9c-0.7,0-1.4,0-1.9-0.1c0,0,0,0.2,0,0.5s0,0.5,0,0.5c0.4,0,0.7,0,1,0h1h2
			c0.1,1.6,0.3,2.8,0.6,3.6c0.4,1,0.9,1.5,1.5,1.5c0.4,0,0.7-0.1,0.8-0.4c0.2-0.3,0.3-0.8,0.4-1.5c-0.3-0.1-0.6-0.3-0.8-0.6
			C26.6,35.4,26.5,35.8,26.4,35.8z"/>
		<path style="fill:#FFFFFF;" d="M35,31.7c0-0.4,0-0.7,0-1c0,0,0-0.1,0-0.1c-0.4,0-0.9,0.1-1.4,0.1h-1.4v-0.7c0-0.2,0.1-0.4,0.2-0.6
			c0,0-0.2-0.1-0.5-0.1c-0.3,0-0.5,0-0.7,0c0,0.3,0,0.5,0,0.7v0.7h-1.4c-0.5,0-1,0-1.4-0.1c0,0,0,0,0,0.1c0,0.2,0,0.6,0,1v1v1
			c0,0.4,0,0.8,0,1c0,0,0.2,0,0.5,0s0.5,0,0.5,0c0-0.1,0-0.1,0-0.2v-0.2h1.8v1.2c0,0.5,0,0.9-0.1,1.2c0,0,0.2,0,0.6,0
			c0.3,0,0.5,0,0.6,0c0-0.4-0.1-0.8-0.1-1.2v-1.2H34v0.2c0,0,0,0.1,0,0.1c0,0,0,0.1,0,0.1c0,0,0.2,0,0.5,0s0.5,0,0.6,0
			c-0.1-0.5-0.1-1.2-0.1-2V31.7z M31.3,33.4h-1.8v-1.7h0.9h0.9V33.4z M34,33.4h-1.8v-1.7h0.9H34V33.4z"/>
		<path style="fill:#FFFFFF;" d="M42.6,33.5h-0.8h-1.5v-0.9h1.3c0.5,0,0.9,0,1.3,0.1c0,0,0-0.2,0-0.5c0-0.3,0-0.5,0-0.5
			c-0.5,0-0.9,0.1-1.3,0.1h-1.3v-1c0.6-0.1,1.2-0.2,1.7-0.3c0.1,0,0.3,0,0.3,0c0.1,0,0.1,0,0.2,0c0.1,0,0.1-0.1-0.1-0.4
			c-0.1-0.2-0.2-0.4-0.4-0.6c-0.6,0.2-1.4,0.3-2.4,0.4c-0.9,0.1-1.9,0.2-2.9,0.2c0.1,0.3,0.2,0.6,0.2,0.8c0.9,0,1.7-0.1,2.4-0.2v0.9
			H38c-0.5,0-0.9,0-1.3-0.1c0,0,0,0.2,0,0.5c0,0.3,0,0.5,0,0.5c0.5,0,0.9-0.1,1.3-0.1h1.3v0.9h-1.6c-0.6,0-1.1,0-1.5-0.1
			c0,0,0,0.2,0,0.5c0,0.3,0,0.5,0,0.5c0.5,0,1.1-0.1,1.5-0.1h1.6v1.3c0,0.1-0.1,0.2-0.2,0.2c-0.6,0-1,0-1.4,0
			c0.2,0.3,0.3,0.7,0.4,0.9c0.9,0,1.4,0,1.7-0.2c0.2-0.1,0.3-0.2,0.4-0.3s0.1-0.4,0.1-0.6v-1.3h1.6c0.6,0,1.1,0,1.5,0.1
			c0,0,0-0.2,0-0.5s0-0.5,0-0.5C43,33.4,42.8,33.5,42.6,33.5z"/>
		<path style="fill:#FFFFFF;" d="M46.1,29.8c0-0.1,0-0.2,0.1-0.3c0,0-0.1-0.1-0.4-0.1c-0.2,0-0.4,0-0.6,0c0,0.2,0,0.3,0,0.4v0.4
			h-0.6c-0.2,0-0.4,0-0.5,0c0,0,0,0.2,0,0.4c0,0.3,0,0.4,0,0.4c0.2,0,0.4,0,0.5,0h0.6v0.4h-1v1.4v1.4h1v0.5h-0.6c-0.2,0-0.4,0-0.6,0
			c0,0,0,0.2,0,0.4s0,0.4,0,0.4c0.3,0,0.5,0,0.6,0h0.6v0.6c0,0.2,0,0.4,0,0.6c0,0,0.2,0,0.4,0c0.3,0,0.4,0,0.4,0c0-0.2,0-0.4,0-0.6
			v-0.6h0.6c0.2,0,0.4,0,0.6,0c0,0,0-0.2,0-0.4s0-0.4,0-0.4c-0.2,0-0.4,0-0.6,0h-0.6v-0.5h1v-2.7c0.2,0.2,0.3,0.4,0.4,0.6
			c0.2-0.2,0.4-0.3,0.6-0.5v0.6h2.5v-0.6c0.2,0.2,0.4,0.3,0.5,0.4c0.1-0.3,0.3-0.5,0.5-0.8c-0.3-0.2-0.7-0.5-1-0.8
			c-0.3-0.4-0.6-0.7-0.9-1.1h-0.8c-0.2,0.3-0.4,0.7-0.7,1.1c-0.3,0.4-0.7,0.7-1,0.9h-1V31h0.6c0.2,0,0.4,0,0.6,0c0,0,0-0.2,0-0.4
			c0-0.3,0-0.4,0-0.4c-0.2,0-0.4,0-0.6,0h-0.6V29.8z M45.4,33.4v0.2H45v-0.5h0.4V33.4z M45.4,32.3v0.2H45V32h0.4V32.3z M49.2,30.2
			c0.3,0.4,0.6,0.9,1.1,1.3h-1h-1C48.7,31.1,49,30.7,49.2,30.2z M46.4,33.6H46v-0.2v-0.2h0.4V33.6z M46.4,32v0.5H46v-0.2V32H46.4z"
			/>
		<path style="fill:#FFFFFF;" d="M50.2,32.8h-0.9c-0.7,0-1.4,0-1.9-0.1c0,0,0,0,0,0.1c0,0.2,0,0.6,0,1v1v1c0,0.4,0,0.8,0,1
			c0,0,0.2,0,0.4,0s0.4,0,0.4,0c0-0.2,0-0.5,0-0.9v-0.9h0.4v0.8c0,0.3,0,0.6,0,0.8c0,0,0.1,0,0.3,0c0.2,0,0.3,0,0.3,0
			c0-0.2,0-0.5,0-0.8v-0.8h0.4v0.8c0,0.3,0,0.6,0,0.8c0,0,0.1,0,0.3,0c0.2,0,0.3,0,0.3,0c0-0.2,0-0.5,0-0.8v-0.8h0.4V36
			c0,0.1,0,0.1-0.1,0.1c-0.1,0-0.2,0-0.3,0c0.1,0.2,0.2,0.5,0.2,0.7c0.3,0,0.6,0,0.7-0.1c0.2-0.1,0.2-0.3,0.2-0.7v-1.6
			c0-0.7,0-1.2,0.1-1.6c0,0,0,0-0.1,0C50.9,32.7,50.6,32.8,50.2,32.8z M48.5,34.3h-0.4v-0.4v-0.4h0.4V34.3z M49.4,34.3h-0.4v-0.4
			v-0.4h0.4V34.3z M50.4,34.3H50v-0.4v-0.4h0.4V34.3z"/>
		<path style="fill:#FFFFFF;" d="M5.3,3.6v38.1H57V3.6H5.3z M55,39.7H7.3V5.6H55V39.7z"/>
		<polygon style="fill:#FFFFFF;" points="46.5,16.7 41.6,6.9 19.5,6.9 19.5,8.9 40.3,8.9 44.2,16.7 40.3,24.5 19.5,24.5 19.5,26.5 
			41.6,26.5 		"/>
		<path style="fill:#FFFFFF;" d="M37.4,16.7c0-3.4-2.8-6.2-6.2-6.2S25,13.3,25,16.7s2.8,6.2,6.2,6.2S37.4,20.1,37.4,16.7z
			 M31.5,16.4c0,0.1,0.1,0.1,0.1,0.3c0,0.2-0.2,0.4-0.4,0.4s-0.4-0.2-0.4-0.4s0.2-0.4,0.4-0.4C31.3,16.3,31.4,16.3,31.5,16.4z
			 M34.3,19.5l-1.8-2.3c0.1-0.2,0.1-0.4,0.1-0.6c0-0.2-0.1-0.4-0.1-0.6l1.7-2.3c0.7,0.8,1.2,1.8,1.2,2.9
			C35.4,17.8,35,18.8,34.3,19.5z M31.2,12.5c0.8,0,1.6,0.3,2.3,0.7l-1.7,2.2c-0.2-0.1-0.4-0.1-0.6-0.1c-0.6,0-1.1,0.4-1.3,0.9H27
			C27.3,14.1,29,12.5,31.2,12.5z M27,17.2h2.8c0.2,0.5,0.7,0.9,1.3,0.9c0.2,0,0.4-0.1,0.6-0.1l1.7,2.2c-0.7,0.4-1.5,0.7-2.3,0.7
			C29,20.9,27.3,19.3,27,17.2z"/>
	</g>
</g>
</svg>
