<?xml version="1.0" encoding="utf-8"?>
<!-- Generator: Adobe Illustrator 22.0.0, SVG Export Plug-In . SVG Version: 6.00 Build 0)  -->
<svg version="1.1" xmlns="http://www.w3.org/2000/svg" xmlns:xlink="http://www.w3.org/1999/xlink" x="0px" y="0px"
	 viewBox="0 0 62.4 45.4" style="enable-background:new 0 0 62.4 45.4;" xml:space="preserve">
<g id="圖層_2">
	<g>
		<rect x="2.3" y="2.2" style="fill:#1C191B;" width="57.7" height="41.3"/>
		<polyline style="fill:#656565;" points="60,2.2 62.4,0 0,0 2.3,2.2 60,2.2 		"/>
		<polyline style="fill:#010001;" points="60,43.4 62.4,45.4 0,45.4 2.3,43.4 60,43.4 		"/>
		<polyline style="fill:#4A4A4B;" points="2.3,43.4 0,45.4 0,0 2.3,2.2 2.3,43.4 		"/>
		<polyline style="fill:#353537;" points="60,43.4 62.4,45.4 62.4,0 60,2.2 60,43.4 		"/>
	</g>
</g>
<g id="圖層_1">
	<g>
		<path style="fill:#FFFFFF;" d="M5.3,3.6v38.1H57V3.6H5.3z M55,39.7H7.3V5.6H55V39.7z"/>
		<g>
			<path style="fill:#FFFFFF;" d="M25,15.5c0,0.1,0,0.2,0,0.3c-0.2,1.7-0.3,2.9-0.3,3.6v2.5c0,0.9,0,1.7-0.1,2.5
				c0.1,0.1,0.5,0.1,1.2,0.1c0.7,0,1.1,0,1.2-0.1c-0.1-0.8-0.1-1.8-0.1-3v-3v-5.9h-2.6l-2,5.5c-0.1,0.3-0.2,0.7-0.4,1.2
				c-0.1,0.5-0.3,0.8-0.3,1.1h-0.1c-0.1-0.2-0.1-0.4-0.2-0.7c-0.2-0.7-0.4-1.2-0.5-1.6l-2-5.5h-2.6v7c0,2-0.1,3.6-0.2,4.8
				c0.1,0.1,0.5,0.1,1.2,0.1c0.7,0,1.1,0,1.2-0.1c-0.1-0.7-0.1-1.5-0.1-2.5v-2.5c0-0.6-0.1-1.7-0.2-3.3c0-0.3-0.1-0.4-0.1-0.6H18
				l0.9,2.8l1.8,5h1.4l1.8-5L25,15.5L25,15.5z"/>
			<path style="fill:#FFFFFF;" d="M32.4,22.7c-0.9,0-1.8-0.4-2.6-1.2L28.7,23c1.1,1.1,2.4,1.6,4,1.6c1.2,0,2.1-0.4,2.9-1.1
				c0.8-0.8,1.2-1.8,1.2-3.1c0-1.2-0.4-2.2-1.1-2.8c-0.7-0.6-1.5-0.9-2.6-0.9c-0.5,0-1,0.1-1.4,0.3l0.2-2.5h2.2c0.9,0,1.6,0,2.1,0.1
				c0-0.1,0-0.4,0-1.1s0-1,0-1c-0.7,0-1.2,0.1-1.6,0.1h-1.6H30l-0.3,5.7l1.1,0.7c0.4-0.2,0.7-0.4,0.9-0.5c0.3-0.1,0.6-0.1,0.9-0.1
				c0.6,0,1.1,0.2,1.5,0.6c0.4,0.4,0.5,0.9,0.5,1.6s-0.2,1.2-0.6,1.6C33.6,22.5,33.1,22.7,32.4,22.7z"/>
			<path style="fill:#FFFFFF;" d="M46.7,19.5c-0.3,0-0.5,0-0.7,0h-0.7v-7h-2.8l-2.2,3.6l-2.2,3.6v1.6h5v1.5c0,0.5,0,1-0.1,1.5
				c0,0.1,0.4,0.1,1.2,0.1c0.7,0,1.1,0,1.2-0.1c0-0.5-0.1-1-0.1-1.5v-1.5H46c0.2,0,0.5,0,0.7,0c0,0,0-0.3,0-0.9
				C46.8,19.8,46.7,19.5,46.7,19.5z M43.2,15.1c0,0.9-0.1,1.6-0.1,2v2.4h-2.8l0.9-1.5l0.9-1.5c0.3-0.6,0.6-1.2,0.9-1.9h0.1
				C43.2,14.7,43.2,14.9,43.2,15.1z"/>
			<path style="fill:#FFFFFF;" d="M19.4,29.2c0-1-0.6-1.6-1.9-1.6h-0.9c-0.4,0-0.7,0-0.9,0c0,0-0.1,0-0.1,0c0,0.3,0.1,0.8,0.1,1.3
				v1.3v2.6h1v-2h0.7l1.1,2h1.2l-1.2-2.1C19.1,30.4,19.4,29.9,19.4,29.2z M17.4,30h-0.7v-0.8v-0.8h0.7c0.3,0,0.6,0.1,0.8,0.2
				c0.2,0.1,0.3,0.3,0.3,0.6C18.4,29.7,18,30,17.4,30z"/>
			<path style="fill:#FFFFFF;" d="M22.6,31.9h-1.1v-1.4h0.9c0.4,0,0.7,0,0.9,0c0,0,0-0.2,0-0.5s0-0.5,0-0.5c-0.3,0-0.6,0-0.9,0h-0.9
				v-1.2h1.1c0.4,0,0.8,0,1.1,0c0,0,0-0.2,0-0.5s0-0.5,0-0.5c-0.6,0-1.1,0.1-1.6,0.1h-0.8c-0.3,0-0.6,0-0.8,0c0,0-0.1,0-0.1,0
				c0,0.3,0.1,0.8,0.1,1.3v1.3v1.3c0,0.1,0,0.1,0,0.2c0,0.5,0,0.9-0.1,1.1c0,0,0,0,0.1,0c0.2,0,0.5,0,0.8,0h0.8c0.6,0,1.2,0,1.6,0.1
				c0,0,0-0.2,0-0.5c0-0.3,0-0.5,0-0.5C23.3,31.9,22.9,31.9,22.6,31.9z"/>
			<path style="fill:#FFFFFF;" d="M27.1,29.9l-0.7-0.3c0,0,0,0,0,0c-0.3-0.1-0.4-0.2-0.5-0.3c-0.1-0.1-0.2-0.2-0.2-0.4
				c0-0.2,0.1-0.3,0.2-0.4c0.1-0.1,0.3-0.1,0.5-0.1c0.4,0,0.8,0.1,1.1,0.4l0.5-0.7c-0.2-0.2-0.5-0.4-0.7-0.5
				c-0.3-0.1-0.6-0.2-0.9-0.2c-0.5,0-1,0.1-1.3,0.4s-0.5,0.6-0.5,1.1c0,0.6,0.3,1.1,1,1.4l0.7,0.3c0,0,0,0,0,0
				c0.3,0.1,0.4,0.2,0.5,0.3c0.1,0.1,0.2,0.2,0.2,0.4c0,0.2-0.1,0.3-0.2,0.4c-0.1,0.1-0.3,0.2-0.6,0.2c-0.2,0-0.5-0.1-0.7-0.2
				c-0.2-0.1-0.4-0.2-0.6-0.4l-0.6,0.7c0.3,0.2,0.5,0.4,0.9,0.6c0.3,0.1,0.7,0.2,1,0.2c0.6,0,1-0.2,1.4-0.5c0.3-0.3,0.5-0.7,0.5-1.1
				c0-0.4-0.1-0.7-0.3-0.9C27.7,30.2,27.5,30,27.1,29.9z"/>
			<path style="fill:#FFFFFF;" d="M32.9,29.2c0-1-0.6-1.6-1.9-1.6H30c-0.4,0-0.7,0-0.9,0c0,0-0.1,0-0.1,0c0,0.3,0.1,0.8,0.1,1.3v1.3
				v2.6h1v-2h0.7l1.1,2h1.2l-1.2-2.1C32.5,30.4,32.9,29.9,32.9,29.2z M30.8,30h-0.7v-0.8v-0.8h0.7c0.3,0,0.6,0.1,0.8,0.2
				c0.2,0.1,0.3,0.3,0.3,0.6C31.8,29.7,31.5,30,30.8,30z"/>
			<path style="fill:#FFFFFF;" d="M35.8,30.1c-0.1,0.2-0.1,0.5-0.2,0.9c-0.1,0.4-0.2,0.6-0.2,0.8h0c-0.1-0.2-0.1-0.5-0.2-0.9
				c-0.1-0.3-0.2-0.6-0.2-0.8l-0.7-2.5h-1.1l1.6,5.2H36l0.8-2.6l0.8-2.6h-1L35.8,30.1z"/>
			<path style="fill:#FFFFFF;" d="M40.3,31.9h-1.1v-1.4h0.9c0.4,0,0.7,0,0.9,0c0,0,0-0.2,0-0.5s0-0.5,0-0.5c-0.3,0-0.6,0-0.9,0h-0.9
				v-1.2h1.1c0.4,0,0.8,0,1.1,0c0,0,0-0.2,0-0.5s0-0.5,0-0.5c-0.6,0-1.1,0.1-1.6,0.1h-0.8c-0.3,0-0.6,0-0.8,0c0,0-0.1,0-0.1,0
				c0,0.3,0.1,0.8,0.1,1.3v1.3v1.3c0,0.1,0,0.1,0,0.2c0,0.5,0,0.9-0.1,1.1c0,0,0,0,0.1,0c0.2,0,0.5,0,0.8,0h0.8c0.6,0,1.2,0,1.6,0.1
				c0,0,0-0.2,0-0.5c0-0.3,0-0.5,0-0.5C41,31.9,40.6,31.9,40.3,31.9z"/>
			<path style="fill:#FFFFFF;" d="M43.9,27.6h-0.7c-0.3,0-0.5,0-0.7,0c0,0-0.1,0-0.1,0c0,0.3,0.1,0.8,0.1,1.3v1.3v1.3
				c0,0.1,0,0.1,0,0.2c0,0.5,0,0.9-0.1,1.1c0,0,0,0,0.1,0c0.2,0,0.4,0,0.7,0h0.7c0.8,0,1.4-0.2,1.8-0.7c0.5-0.5,0.7-1.1,0.7-2
				s-0.2-1.5-0.7-1.9C45.3,27.8,44.7,27.6,43.9,27.6z M43.8,31.9h-0.3v-1.8v-1.8h0.3c1,0,1.6,0.6,1.6,1.7
				C45.4,31.4,44.8,31.9,43.8,31.9z"/>
		</g>
	</g>
</g>
</svg>
