<?xml version="1.0" encoding="utf-8"?>
<!-- Generator: Adobe Illustrator 22.0.0, SVG Export Plug-In . SVG Version: 6.00 Build 0)  -->
<svg version="1.1" xmlns="http://www.w3.org/2000/svg" xmlns:xlink="http://www.w3.org/1999/xlink" x="0px" y="0px"
	 viewBox="0 0 62.4 45.4" style="enable-background:new 0 0 62.4 45.4;" xml:space="preserve">
<g id="圖層_2">
	<g>
		<rect x="2.3" y="2.2" style="fill:#1C191B;" width="57.7" height="41.3"/>
		<polyline style="fill:#656565;" points="60,2.2 62.4,0 0,0 2.3,2.2 60,2.2 		"/>
		<polyline style="fill:#010001;" points="60,43.4 62.4,45.4 0,45.4 2.3,43.4 60,43.4 		"/>
		<polyline style="fill:#4A4A4B;" points="2.3,43.4 0,45.4 0,0 2.3,2.2 2.3,43.4 		"/>
		<polyline style="fill:#353537;" points="60,43.4 62.4,45.4 62.4,0 60,2.2 60,43.4 		"/>
	</g>
</g>
<g id="圖層_1">
	<g>
		<path style="fill:#FFFFFF;" d="M16.3,35.2c0,0.7,0,1.2-0.1,1.6c0,0,0.2,0,0.5,0c0.3,0,0.5,0,0.5,0c0,0,0,0,0-0.1
			c0-0.1,0-0.1,0-0.1v-0.2H21v0.2c0,0,0,0.1,0,0.1c0,0,0,0.1,0,0.1c0,0,0.2,0,0.5,0s0.5,0,0.6,0C22,36.2,22,35.4,22,34.4v-2
			c0-0.8,0-1.5,0.1-2c0,0,0-0.1-0.1-0.1c-0.4,0-0.8,0.1-1.3,0.1h-1.3c0.2-0.4,0.3-0.7,0.4-0.9l-1.1-0.1c0,0.3-0.1,0.6-0.2,1h-1
			c-0.4,0-0.7,0-1,0c0,0-0.1,0-0.1,0c0,0.4,0.1,0.9,0.1,1.6v1.6V35.2z M17.3,31.2H21v0.8h-1.9h-1.9V31.2z M17.3,32.9H21v0.8h-1.9
			h-1.9V32.9z M17.3,34.7h1.9H21v0.8h-3.7V34.7z"/>
		<path style="fill:#FFFFFF;" d="M29,29.4h-0.9c0,0.8,0,1.3,0,1.7h-0.7v-0.4h-1.5v-0.4c0.5-0.1,1-0.1,1.4-0.2l-0.4-0.7
			c-0.8,0.2-2,0.3-3.4,0.4c0.1,0.2,0.2,0.4,0.2,0.7c0.4,0,0.8,0,1.3-0.1v0.3h-0.8c-0.3,0-0.5,0-0.8,0c0,0,0,0.1,0,0.4
			c0,0.2,0,0.4,0,0.4c0.3,0,0.6,0,0.8,0H25v0.3h-1.3v1.2v1.2H25v0.3h-0.7c-0.2,0-0.5,0-0.7,0c0,0,0,0.1,0,0.4s0,0.4,0,0.4
			c0.3,0,0.5,0,0.7,0H25v0.5c-0.4,0-0.9,0.1-1.6,0.1l0.1,0.8c0.6,0,1.6-0.2,3.1-0.3c0.2,0.2,0.4,0.4,0.6,0.6c0.6-0.5,1.1-1.2,1.3-2
			c0.2-0.7,0.4-1.7,0.4-2.8h0.7c0,1.3-0.1,2.2-0.1,2.8c0,0.6-0.1,0.9-0.2,1c-0.1,0.1-0.2,0.1-0.3,0.1c-0.2,0-0.5,0-0.8,0
			c0.2,0.3,0.3,0.6,0.3,0.9c0.5,0,0.8,0,1,0c0.1,0,0.3-0.1,0.3-0.1c0.1-0.1,0.2-0.2,0.3-0.3c0.1-0.2,0.2-0.6,0.3-1.3
			c0-0.6,0.1-1.8,0.1-3.5c0-0.1,0-0.3,0-0.4H29C29,30.7,29,30.2,29,29.4z M25,33.5h-0.6v-0.4h0.3H25V33.5z M25,32.6h-0.6v-0.4h0.3
			H25V32.6z M25.9,32.3h0.3h0.3v0.4h-0.6V32.3z M25.9,33.2h0.6v0.4h-0.3h-0.3V33.2z M27.9,33.9c-0.1,0.6-0.3,1.1-0.6,1.5
			c-0.6,0.1-1,0.1-1.4,0.1v-0.4h0.7c0.2,0,0.5,0,0.7,0c0,0,0-0.1,0-0.4s0-0.4,0-0.4c-0.3,0-0.5,0-0.7,0h-0.7v-0.3h1.4v-1.2v-1.2
			h-1.4v-0.3h1.5V32h0.7C28.1,32.7,28,33.4,27.9,33.9z"/>
		<path style="fill:#FFFFFF;" d="M34.8,29.6h-1.5c-0.6,0-1.1,0-1.5-0.1c0,0-0.1,0-0.1,0.1c0,0.4,0.1,1,0.1,1.8v1.8V35
			c0,0.8,0,1.3-0.1,1.8c0,0,0.2,0,0.5,0c0.3,0,0.5,0,0.6,0c-0.1-0.5-0.1-1.2-0.1-2v-2h1c0.4,0,0.8,0,1,0c0,0,0.1,0,0.1,0
			c0-0.4-0.1-0.9-0.1-1.5V29.6z M33.9,31.9h-1.2v-0.5h0.6h0.6V31.9z M33.9,30.8h-0.6h-0.6v-0.4h1.2V30.8z"/>
		<path style="fill:#FFFFFF;" d="M37.7,29.6h-0.8c-0.6,0-1.1,0-1.5-0.1c0,0-0.1,0-0.1,0.1c0,0.4,0.1,0.9,0.1,1.6v0.8
			c0,0,0,0.1,0,0.2c0,0.3,0,0.5,0,0.6c0,0,0,0,0,0c0.3,0,0.6,0,1.1,0h1.1v2.9c0,0.1,0,0.1,0,0.2c0,0-0.1,0-0.2,0c0,0,0,0-0.1,0
			c-0.5,0-0.9,0-1.2,0c0.1,0.1,0.1,0.3,0.2,0.5c0.1,0.2,0.1,0.4,0.1,0.5c0.4,0,0.8,0,1,0c0.3,0,0.5-0.1,0.6-0.2
			c0.2-0.1,0.3-0.2,0.4-0.3c0.1-0.1,0.1-0.4,0.1-0.6v-3v-1.5c0-0.6,0-1.1,0.1-1.5c0,0,0,0-0.1,0C38.2,29.6,37.9,29.6,37.7,29.6z
			 M37.5,32h-1.2v-0.5h0.6h0.6V32z M37.5,30.8h-0.6h-0.6v-0.4h1.2V30.8z"/>
		<path style="fill:#FFFFFF;" d="M43.3,29.6c0,0.4,0.1,0.8,0.1,1.4v1.4h2.2v3.2c0,0.1-0.1,0.2-0.2,0.2c-0.2,0-0.5,0-0.9,0
			c0.1,0.1,0.1,0.3,0.2,0.5s0.1,0.3,0.1,0.5c0.3,0,0.6,0,0.8,0c0.2,0,0.4-0.1,0.5-0.2c0.1-0.1,0.2-0.2,0.3-0.3
			c0.1-0.1,0.1-0.3,0.1-0.6v-3v-1.5c0-0.6,0-1.1,0.1-1.5c0,0,0,0-0.1,0c-0.3,0-0.5,0-0.8,0h-0.8C44.3,29.6,43.8,29.6,43.3,29.6
			C43.3,29.5,43.3,29.6,43.3,29.6z M44.2,30.3h1.3v0.4h-0.6h-0.6V30.3z M44.2,31.3h0.6h0.6v0.5h-1.3V31.3z"/>
		<path style="fill:#FFFFFF;" d="M44.2,35h0.4c0.2,0,0.3,0,0.4,0c0,0,0-0.1,0-0.4c0-0.3,0-0.4,0-0.4c-0.1,0-0.3,0-0.4,0h-0.4v-0.6
			h0.4c0.1,0,0.3,0,0.4,0c0,0,0-0.1,0-0.4s0-0.4,0-0.4c-0.3,0-0.7,0-0.9,0h-1h-0.9c-0.4,0-0.7,0-0.9,0c0,0,0,0.2,0,0.4s0,0.4,0,0.4
			c0.1,0,0.3,0,0.4,0h0.4v0.6h-0.4c-0.2,0-0.3,0-0.4,0c0,0,0,0.1,0,0.4s0,0.4,0,0.4c0.2,0,0.3,0,0.4,0h0.4c-0.1,0.6-0.4,1-0.8,1.2
			c0.2,0.2,0.4,0.4,0.6,0.5c0.3-0.2,0.5-0.5,0.7-0.9c0.1-0.3,0.2-0.6,0.3-0.9h0.8v0.8c0,0.3,0,0.6,0,0.8c0,0,0.2,0,0.4,0
			s0.4,0,0.4,0c0-0.2,0-0.5,0-0.8V35z M43.4,34.2h-0.7v-0.6h0.4h0.4V34.2z"/>
		<path style="fill:#FFFFFF;" d="M40.7,32.4h1.1c0.4,0,0.8,0,1.1,0c0,0,0.1,0,0.1,0c0-0.4-0.1-0.8-0.1-1.4v-1.4h-1.5
			c-0.6,0-1.1,0-1.5-0.1c0,0-0.1,0-0.1,0.1c0,0.4,0.1,1,0.1,1.8v1.8V35c0,0.7,0,1.3-0.1,1.8c0,0,0.2,0,0.5,0c0.3,0,0.5,0,0.5,0
			c-0.1-0.6-0.1-1.3-0.1-2.2V32.4z M40.7,30.3h1.2v0.4h-0.6h-0.6V30.3z M40.7,31.3h0.6h0.6v0.4h-1.2V31.3z"/>
		<path style="fill:#FFFFFF;" d="M5.3,3.6v38.1H57V3.6H5.3z M55,39.7H7.3V5.6H55V39.7z"/>
		<path style="fill:#FFFFFF;" d="M44.5,27.4l0-20.4L31.7,7l0,20.4L44.5,27.4z M33.7,25.4l0-1.8l3.8,0l0,1l3-1.1l2-0.7l0,2.6
			L33.7,25.4z M42.5,9l0,13.1l-2-0.7l-3-1.1l0,1l-3.9,0l0-12.3L42.5,9z"/>
		<path style="fill:#FFFFFF;" d="M34.1,14.9l8.2,0l0-5.7l-8.2,0L34.1,14.9z M41.5,10l0,4.2l-6.7,0l0-4.2L41.5,10z"/>
		<path style="fill:#FFFFFF;" d="M30.7,27.4L30.7,7L17.8,7l0.1,20.4L30.7,27.4z M19.9,25.4l0-2.6l2,0.7l3,1.1l0-1l3.8,0l0,1.8
			L19.9,25.4z M28.7,9l0,12.3l-3.9,0l0-1l-3,1.1l-2,0.7l0-13.1L28.7,9z"/>
		<path style="fill:#FFFFFF;" d="M20.1,14.9l8.2,0l0-5.7l-8.2,0L20.1,14.9z M27.5,10l0,4.2l-6.7,0l0-4.2L27.5,10z"/>
	</g>
</g>
</svg>
