<?xml version="1.0" encoding="utf-8"?>
<!-- Generator: Adobe Illustrator 22.0.0, SVG Export Plug-In . SVG Version: 6.00 Build 0)  -->
<svg version="1.1" xmlns="http://www.w3.org/2000/svg" xmlns:xlink="http://www.w3.org/1999/xlink" x="0px" y="0px"
	 viewBox="0 0 62.4 45.4" style="enable-background:new 0 0 62.4 45.4;" xml:space="preserve">
<g id="圖層_2">
	<g>
		<rect x="2.3" y="2.2" style="fill:#1C191B;" width="57.7" height="41.3"/>
		<polyline style="fill:#656565;" points="60,2.2 62.4,0 0,0 2.3,2.2 60,2.2 		"/>
		<polyline style="fill:#010001;" points="60,43.4 62.4,45.4 0,45.4 2.3,43.4 60,43.4 		"/>
		<polyline style="fill:#4A4A4B;" points="2.3,43.4 0,45.4 0,0 2.3,2.2 2.3,43.4 		"/>
		<polyline style="fill:#353537;" points="60,43.4 62.4,45.4 62.4,0 60,2.2 60,43.4 		"/>
	</g>
</g>
<g id="圖層_1">
	<g>
		<path style="fill:#FFFFFF;" d="M21.4,29.6h-0.9c-0.4,0-0.7,0-0.9,0c0,0-0.1,0-0.1,0c0,0.4,0.1,0.9,0.1,1.4v1.4h1.8
			c0.7,0,1.3,0,1.8,0.1c0,0,0.1,0,0.1-0.1c0-0.4-0.1-0.9-0.1-1.4v-1.4H21.4z M22.4,31.6h-0.9h-0.9v-1.2h1.9V31.6z"/>
		<path style="fill:#FFFFFF;" d="M22.7,35.7h-0.8V35h0.7c0.2,0,0.5,0,0.7,0c0,0,0-0.2,0-0.4c0-0.3,0-0.4,0-0.4c-0.3,0-0.5,0-0.7,0
			h-0.7v-0.7c0.6-0.1,1.1-0.2,1.5-0.3l-0.6-0.7c-0.8,0.2-1.9,0.4-3.5,0.4c0.1,0.3,0.2,0.5,0.2,0.7c0.5,0,1,0,1.4-0.1v0.6h-0.7
			c-0.2,0-0.5,0-0.7,0c0,0,0,0.2,0,0.4c0,0.3,0,0.4,0,0.4c0.3,0,0.5,0,0.7,0H21v0.7h-0.9c-0.4,0-0.6,0-0.9,0c0,0,0,0.2,0,0.5
			s0,0.4,0,0.5c0.4,0,0.7,0,1.1,0h1.1h1.1c0.5,0,0.8,0,1.1,0c0,0,0-0.2,0-0.5s0-0.4,0-0.5C23.3,35.7,23,35.7,22.7,35.7z"/>
		<path style="fill:#FFFFFF;" d="M16.7,35.4c0.3-0.4,0.6-0.9,0.9-1.6v1.4c0,0.6,0,1.1-0.1,1.4c0,0,0.2,0,0.5,0c0.3,0,0.5,0,0.5,0
			c0-0.3,0-0.5,0-0.8v-0.8v-1.6c0.2,0.4,0.4,0.6,0.5,0.8l0.5-0.7c-0.1-0.1-0.2-0.3-0.5-0.5c-0.3-0.3-0.4-0.4-0.5-0.5v-0.2h0.4
			c0.2,0,0.3,0,0.4,0c0,0,0-0.2,0-0.5s0-0.5,0-0.5c-0.1,0-0.3,0-0.4,0h-0.4v-1.1c0.2-0.1,0.4-0.1,0.5-0.2c0.1,0,0.2,0,0.2,0
			c0,0,0.1,0,0.1,0c0,0,0-0.1-0.1-0.3c-0.1-0.2-0.2-0.4-0.4-0.6c-0.6,0.3-1.4,0.5-2.5,0.7c0.1,0.2,0.2,0.5,0.3,0.7
			c0.4,0,0.7-0.1,1-0.2v0.9H17c-0.2,0-0.4,0-0.6,0c0,0,0,0.2,0,0.5s0,0.5,0,0.5c0.2,0,0.3,0,0.5,0h0.5c-0.4,0.9-0.7,1.6-1.2,2.1
			C16.5,34.9,16.6,35.2,16.7,35.4z"/>
		<path style="fill:#FFFFFF;" d="M26.9,35.1v-1.8h0.6c0.2,0,0.4,0,0.6,0c0,0,0-0.2,0-0.5s0-0.5,0-0.5c-0.3,0-0.6,0-0.8,0h-0.8h-0.8
			c-0.3,0-0.6,0-0.8,0c0,0,0,0.2,0,0.5s0,0.5,0,0.5c0.2,0,0.4,0,0.6,0H26v1.9c-0.3,0-0.7,0.1-1.2,0.2c-0.1,0-0.2,0-0.3,0l0.3,1
			c1.4-0.3,2.6-0.6,3.7-0.8l-0.1-0.8C27.9,35,27.4,35.1,26.9,35.1z"/>
		<path style="fill:#FFFFFF;" d="M30.6,35.7c-0.3,0-0.5-0.4-0.8-1.2c-0.2-0.8-0.4-1.8-0.5-3h1.1c0.4,0,0.8,0,1.1,0c0,0,0-0.2,0-0.5
			c0-0.3,0-0.5,0-0.5c-0.2,0-0.3,0-0.4,0h-0.4l0.5-0.5c-0.2-0.3-0.6-0.5-1-0.9l-0.6,0.5c0.4,0.3,0.7,0.6,0.9,0.8h-1.2
			c0-0.4,0-0.8,0-1.3h-1c0,0.4,0,0.9,0,1.3h-1.9c-0.7,0-1.4,0-1.9-0.1c0,0,0,0.2,0,0.5s0,0.5,0,0.5c0.4,0,0.7,0,1,0h1h2
			c0.1,1.6,0.3,2.8,0.6,3.6c0.4,1,0.9,1.5,1.5,1.5c0.4,0,0.7-0.1,0.8-0.4c0.2-0.3,0.3-0.8,0.4-1.5c-0.3-0.1-0.6-0.3-0.8-0.6
			C30.9,35.3,30.8,35.7,30.6,35.7z"/>
		<path style="fill:#FFFFFF;" d="M39.2,34h-0.4v-1.5c0-0.6,0-1.1,0.1-1.5c0,0,0,0-0.1,0c-0.3,0-0.7,0-1.2,0h-1.2v-0.5h1.5
			c0.6,0,1.1,0,1.5,0.1c0,0,0-0.2,0-0.5c0-0.3,0-0.5,0-0.5c-0.5,0-1.1,0.1-1.7,0.1H36h-1.7c-0.7,0-1.3,0-1.7-0.1c0,0,0,0.2,0,0.5
			c0,0.3,0,0.5,0,0.5c0.5,0,1-0.1,1.4-0.1h1.4v0.5h-1.1c-0.5,0-0.9,0-1.1,0c0,0-0.1,0-0.1,0c0,0.4,0.1,0.9,0.1,1.5V34h-0.4
			c-0.2,0-0.3,0-0.4,0c0,0,0,0.2,0,0.5s0,0.5,0,0.5c0.1,0,0.3,0,0.4,0h0.4v0.9c0,0.4,0,0.7,0,0.9c0,0,0.2,0,0.5,0s0.5,0,0.5,0
			c0-0.3,0-0.6,0-0.9v-0.9h3.7v0.8c0,0.1,0,0.1,0,0.1s-0.1,0-0.1,0c0,0,0,0-0.1,0c-0.4,0-0.7,0-1,0c0.2,0.3,0.3,0.6,0.3,0.9
			c0.4,0,0.7,0,0.8,0c0.3,0,0.4-0.1,0.6-0.1c0.2-0.1,0.3-0.2,0.3-0.3c0.1-0.1,0.1-0.3,0.1-0.6v-0.8h0.4c0.2,0,0.3,0,0.4,0
			c0,0,0-0.2,0-0.5s0-0.5,0-0.5C39.5,34,39.4,34,39.2,34z M35.5,34h-1.4v-0.6h0.7h0.7V34z M35.5,32.6h-0.7h-0.7V32h1.4V32.6z
			 M37.8,34h-1.4v-0.6h0.7h0.7V34z M37.8,32.6h-0.7h-0.7V32h1.4V32.6z"/>
		<path style="fill:#FFFFFF;" d="M44.5,30c0-0.2,0.1-0.5,0.2-0.7c0,0-0.2-0.1-0.5-0.1c-0.3,0-0.5,0-0.7,0c0,0.3,0,0.5,0,0.8v0.7
			h-1.2c0.1-0.2,0.1-0.3,0.2-0.6c0-0.1,0.1-0.2,0.1-0.2c0,0,0.1-0.1,0.1-0.1c0,0-0.1-0.1-0.3-0.2c-0.2-0.1-0.5-0.2-0.7-0.2
			c-0.1,0.6-0.3,1.1-0.6,1.6c-0.3,0.5-0.5,0.9-0.8,1.3c0.3,0.2,0.6,0.3,0.8,0.6c0.2-0.3,0.5-0.7,0.7-1.2h1.6v1.4h-1.1
			c-0.4,0-0.8,0-1.1,0c0,0,0,0.2,0,0.5c0,0.3,0,0.5,0,0.5c0.4,0,0.7,0,1.1,0h1.1v1.6H42c-0.6,0-1.1,0-1.5-0.1c0,0,0,0.2,0,0.5
			s0,0.5,0,0.5c0.6,0,1.2-0.1,1.8-0.1H44h1.8c0.7,0,1.3,0,1.8,0.1c0,0,0-0.2,0-0.5s0-0.5,0-0.5c-0.5,0-1,0.1-1.5,0.1h-1.5V34h1.2
			c0.5,0,0.9,0,1.2,0c0,0,0-0.2,0-0.5c0-0.3,0-0.5,0-0.5c-0.4,0-0.8,0-1.2,0h-1.2v-1.4h1.3c0.5,0,0.9,0,1.3,0.1c0,0,0-0.2,0-0.5
			c0-0.3,0-0.5,0-0.5c-0.5,0-1,0.1-1.3,0.1h-1.3V30z"/>
		<path style="fill:#FFFFFF;" d="M5.3,3.6v38.1H57V3.6H5.3z M55,39.7H7.3V5.6H55V39.7z"/>
		<polygon style="fill:#FFFFFF;" points="32.6,19.2 36.8,19.2 36.8,21.4 39.6,19 42.3,16.6 39.6,14.2 36.8,11.8 36.8,14 32.6,14 		
			"/>
		<path style="fill:#FFFFFF;" d="M20.3,22.4l0.9,1.2l2.7-1.9c-0.2,0.7-0.3,1.1-0.3,1.1l1.4,0.4c0-0.1,0.3-1.2,0.7-2.8l4.6-3.2
			L29.4,16l-3.3,2.3c0.1-0.5,0.2-0.9,0.2-1.4l0.9,0.4l0.6-1.4l-1.3-0.6c0.1-1,0.2-2,0.2-3c0-0.6,0.1-2.4-1.2-2.8
			c-1.4-0.5-3.3,1.5-4,2.3l1.2,1c0.8-1,2-1.9,2.3-1.9c0,0,0.2,0.2,0.2,1.4c0,0.8-0.1,1.6-0.2,2.4l-0.5-0.2L24,15.9l0.9,0.4
			c-0.2,1.2-0.4,2.3-0.6,3.3L20.3,22.4z"/>
		<polygon style="fill:#FFFFFF;" points="45.7,16.6 40.7,6.9 18.7,6.9 18.7,8.9 39.5,8.9 43.4,16.6 39.5,24.4 18.7,24.4 18.7,26.4 
			40.7,26.4 		"/>
	</g>
</g>
</svg>
