<?xml version="1.0" encoding="utf-8"?>
<!-- Generator: Adobe Illustrator 22.0.0, SVG Export Plug-In . SVG Version: 6.00 Build 0)  -->
<svg version="1.1" xmlns="http://www.w3.org/2000/svg" xmlns:xlink="http://www.w3.org/1999/xlink" x="0px" y="0px"
	 viewBox="0 0 62.4 45.4" style="enable-background:new 0 0 62.4 45.4;" xml:space="preserve">
<g id="圖層_2">
	<g>
		<rect x="2.3" y="2.2" style="fill:#1C191B;" width="57.7" height="41.3"/>
		<polyline style="fill:#656565;" points="60,2.2 62.4,0 0,0 2.3,2.2 60,2.2 		"/>
		<polyline style="fill:#010001;" points="60,43.4 62.4,45.4 0,45.4 2.3,43.4 60,43.4 		"/>
		<polyline style="fill:#4A4A4B;" points="2.3,43.4 0,45.4 0,0 2.3,2.2 2.3,43.4 		"/>
		<polyline style="fill:#353537;" points="60,43.4 62.4,45.4 62.4,0 60,2.2 60,43.4 		"/>
	</g>
</g>
<g id="圖層_1">
	<g>
		<g>
			<path style="fill:#FFFFFF;" d="M57,41.7H5.3V3.6H57V41.7z M7.3,39.7H55V5.6H7.3V39.7z"/>
		</g>
		<g>
			<path style="fill:#FFFFFF;" d="M17.3,24.5c-0.7,0-1.2,0-1.2-0.1c0.1-1.2,0.2-2.8,0.2-4.8v-7h2.6l2,5.5c0.1,0.3,0.3,0.9,0.5,1.6
				c0.1,0.3,0.2,0.6,0.2,0.7h0.1c0.1-0.2,0.2-0.6,0.3-1.1c0.2-0.6,0.3-1,0.4-1.2l2-5.5H27v5.9v3c0,1.2,0,2.2,0.1,3
				c-0.1,0.1-0.5,0.1-1.2,0.1c-0.7,0-1.1,0-1.2-0.1c0.1-0.7,0.1-1.5,0.1-2.5v-2.5c0-0.7,0.1-1.9,0.3-3.6c0-0.1,0-0.2,0-0.3h-0.1
				l-1,2.8l-1.8,5h-1.4l-1.8-5l-0.9-2.8h-0.1c0,0.1,0,0.3,0.1,0.6c0.2,1.6,0.2,2.7,0.2,3.3V22c0,0.9,0,1.7,0.1,2.5
				C18.4,24.5,18,24.5,17.3,24.5z"/>
			<path style="fill:#FFFFFF;" d="M32.9,24.7c-1.6,0-2.9-0.5-4-1.6l1.1-1.5c0.8,0.8,1.7,1.2,2.6,1.2c0.6,0,1.1-0.2,1.5-0.6
				c0.4-0.4,0.6-0.9,0.6-1.6s-0.2-1.2-0.5-1.6c-0.4-0.4-0.8-0.6-1.5-0.6c-0.3,0-0.6,0-0.9,0.1c-0.2,0.1-0.5,0.2-0.9,0.5l-1.1-0.7
				l0.3-5.7h3.2h1.6c0.4,0,0.9,0,1.6-0.1c0,0,0,0.4,0,1s0,1,0,1.1c-0.5-0.1-1.2-0.1-2.1-0.1h-2.2l-0.2,2.5c0.5-0.2,0.9-0.3,1.4-0.3
				c1.1,0,1.9,0.3,2.6,0.9c0.7,0.7,1.1,1.6,1.1,2.8c0,1.3-0.4,2.3-1.2,3.1C35,24.3,34,24.7,32.9,24.7z"/>
			<path style="fill:#FFFFFF;" d="M42.9,24.7c-1.2,0-2.2-0.5-3-1.4c-0.9-1.1-1.3-2.6-1.3-4.6c0-2.1,0.5-3.7,1.4-4.8
				c0.8-1,1.9-1.5,3.2-1.5c1.3,0,2.3,0.4,3.2,1.3l-1.2,1.4c-0.2-0.2-0.5-0.4-0.8-0.6c-0.3-0.2-0.7-0.3-1-0.3c-0.7,0-1.3,0.3-1.8,0.9
				c-0.5,0.7-0.8,1.7-0.8,3.1c0.3-0.4,0.7-0.7,1.2-0.9c0.4-0.2,0.9-0.3,1.3-0.3c1,0,1.9,0.3,2.4,0.9c0.6,0.7,0.9,1.6,0.9,2.8
				c0,1.2-0.4,2.1-1.1,2.9C44.8,24.3,44,24.7,42.9,24.7z M42.9,22.9c0.5,0,0.8-0.2,1.1-0.5c0.3-0.4,0.5-0.9,0.5-1.6
				s-0.1-1.2-0.4-1.6c-0.3-0.3-0.7-0.5-1.2-0.5c-0.7,0-1.4,0.4-1.9,1.2c0.1,1,0.3,1.8,0.7,2.3C41.9,22.7,42.4,22.9,42.9,22.9z"/>
			<path style="fill:#FFFFFF;" d="M15.8,32.9v-2.6V29c0-0.5,0-0.9-0.1-1.3c0,0,0,0,0.1,0c0.2,0,0.5,0,0.9,0h0.9
				c1.3,0,1.9,0.5,1.9,1.6c0,0.7-0.3,1.2-1,1.5l1.2,2.1h-1.2l-1.1-2h-0.7v2H15.8z M16.8,30.1h0.7c0.7,0,1-0.3,1-0.8
				c0-0.3-0.1-0.5-0.3-0.6c-0.2-0.1-0.4-0.2-0.8-0.2h-0.7v0.8V30.1z"/>
			<path style="fill:#FFFFFF;" d="M23.8,32.9c-0.5,0-1-0.1-1.6-0.1h-0.8c-0.3,0-0.6,0-0.8,0c0,0-0.1,0-0.1,0c0-0.2,0.1-0.5,0.1-1.1
				c0-0.1,0-0.2,0-0.2v-1.3V29c0-0.5,0-0.9-0.1-1.3c0,0,0,0,0.1,0c0.2,0,0.5,0,0.8,0h0.8c0.5,0,1,0,1.6-0.1c0,0,0,0.2,0,0.5
				s0,0.5,0,0.5c-0.3,0-0.7,0-1.1,0h-1.1v1.2h0.9c0.3,0,0.6,0,0.9,0c0,0,0,0.2,0,0.5s0,0.5,0,0.5c-0.2,0-0.5,0-0.9,0h-0.9V32h1.1
				c0.3,0,0.7,0,1.1,0c0,0,0,0.2,0,0.5C23.8,32.7,23.8,32.9,23.8,32.9z"/>
			<path style="fill:#FFFFFF;" d="M26.4,33c-0.4,0-0.7-0.1-1-0.2c-0.3-0.1-0.6-0.3-0.9-0.6l0.6-0.7c0.2,0.2,0.4,0.3,0.6,0.4
				c0.2,0.1,0.5,0.2,0.7,0.2c0.3,0,0.5-0.1,0.6-0.2c0.1-0.1,0.2-0.3,0.2-0.4c0-0.2-0.1-0.3-0.2-0.4c-0.1-0.1-0.3-0.2-0.5-0.3
				c0,0,0,0,0,0l-0.7-0.3c-0.7-0.3-1-0.8-1-1.4c0-0.4,0.2-0.8,0.5-1.1s0.8-0.4,1.3-0.4c0.3,0,0.6,0.1,0.9,0.2
				c0.3,0.1,0.5,0.3,0.7,0.5l-0.5,0.7c-0.3-0.3-0.7-0.4-1.1-0.4c-0.2,0-0.4,0-0.5,0.1c-0.1,0.1-0.2,0.2-0.2,0.4
				c0,0.2,0.1,0.3,0.2,0.4c0.1,0.1,0.3,0.2,0.5,0.3c0,0,0,0,0,0l0.7,0.3c0.3,0.1,0.6,0.3,0.8,0.5c0.2,0.2,0.3,0.5,0.3,0.9
				c0,0.4-0.2,0.8-0.5,1.1C27.5,32.8,27,33,26.4,33z"/>
			<path style="fill:#FFFFFF;" d="M29.2,32.9v-2.6V29c0-0.5,0-0.9-0.1-1.3c0,0,0,0,0.1,0c0.2,0,0.5,0,0.9,0H31
				c1.3,0,1.9,0.5,1.9,1.6c0,0.7-0.3,1.2-1,1.5l1.2,2.1H32l-1.1-2h-0.7v2H29.2z M30.3,30.1h0.7c0.7,0,1-0.3,1-0.8
				c0-0.3-0.1-0.5-0.3-0.6c-0.2-0.1-0.4-0.2-0.8-0.2h-0.7v0.8V30.1z"/>
			<path style="fill:#FFFFFF;" d="M34.8,32.9l-1.6-5.2h1.1l0.7,2.5c0.1,0.2,0.1,0.4,0.2,0.8c0.1,0.4,0.2,0.7,0.2,0.9h0
				c0.1-0.2,0.1-0.5,0.2-0.8c0.1-0.4,0.2-0.7,0.2-0.9l0.7-2.5h1l-0.8,2.6l-0.8,2.6H34.8z"/>
			<path style="fill:#FFFFFF;" d="M41.5,32.9c-0.5,0-1-0.1-1.6-0.1h-0.8c-0.3,0-0.6,0-0.8,0c0,0-0.1,0-0.1,0c0-0.2,0.1-0.5,0.1-1.1
				c0-0.1,0-0.2,0-0.2v-1.3V29c0-0.5,0-0.9-0.1-1.3c0,0,0,0,0.1,0c0.2,0,0.5,0,0.8,0h0.8c0.5,0,1,0,1.6-0.1c0,0,0,0.2,0,0.5
				s0,0.5,0,0.5c-0.3,0-0.7,0-1.1,0h-1.1v1.2h0.9c0.3,0,0.6,0,0.9,0c0,0,0,0.2,0,0.5s0,0.5,0,0.5c-0.2,0-0.5,0-0.9,0h-0.9V32h1.1
				c0.3,0,0.7,0,1.1,0c0,0,0,0.2,0,0.5C41.5,32.7,41.5,32.9,41.5,32.9z"/>
			<path style="fill:#FFFFFF;" d="M42.6,32.9C42.5,32.9,42.5,32.9,42.6,32.9c0-0.2,0-0.6,0-1.1c0-0.1,0-0.2,0-0.2v-1.3V29
				c0-0.5,0-0.9-0.1-1.3c0,0,0,0,0.1,0c0.2,0,0.4,0,0.7,0H44c0.8,0,1.4,0.2,1.9,0.6c0.5,0.4,0.7,1.1,0.7,1.9s-0.2,1.5-0.7,2
				c-0.4,0.4-1,0.7-1.8,0.7h-0.7C43,32.9,42.8,32.9,42.6,32.9z M43.6,32h0.3c1,0,1.6-0.6,1.6-1.8c0-1.2-0.5-1.7-1.6-1.7h-0.3v1.8V32
				z"/>
		</g>
	</g>
</g>
</svg>
