<?xml version="1.0" encoding="utf-8"?>
<!-- Generator: Adobe Illustrator 22.0.0, SVG Export Plug-In . SVG Version: 6.00 Build 0)  -->
<svg version="1.1" xmlns="http://www.w3.org/2000/svg" xmlns:xlink="http://www.w3.org/1999/xlink" x="0px" y="0px"
	 viewBox="0 0 62.4 45.4" style="enable-background:new 0 0 62.4 45.4;" xml:space="preserve">
<g id="圖層_2">
	<g>
		<rect x="2.3" y="2.2" style="fill:#1C191B;" width="57.7" height="41.3"/>
		<polyline style="fill:#656565;" points="60,2.2 62.3,0 0,0 2.3,2.2 60,2.2 		"/>
		<polyline style="fill:#010001;" points="60,43.5 62.3,45.4 0,45.4 2.3,43.5 60,43.5 		"/>
		<polyline style="fill:#4A4A4B;" points="2.3,43.5 0,45.4 0,0 2.3,2.2 2.3,43.5 		"/>
		<polyline style="fill:#353537;" points="60,43.5 62.3,45.4 62.3,0 60,2.2 60,43.5 		"/>
	</g>
</g>
<g id="圖層_1">
	<g>
		<path style="fill:#FFFFFF;" d="M17.4,36.4h1.8h1.8c0.7,0,1.3,0,1.8,0.1c0,0,0-0.2,0-0.5s0-0.5,0-0.5c-0.5,0-1,0.1-1.5,0.1h-1.5
			v-1.5h1.1c0.5,0,0.8,0,1.1,0c0,0,0-0.2,0-0.5c0-0.3,0-0.5,0-0.5c-0.4,0-0.7,0-1.1,0h-1.1v-1.4H21c0.5,0,0.9,0,1.3,0.1
			c0,0,0-0.2,0-0.5c0-0.3,0-0.5,0-0.5c-0.5,0-0.9,0.1-1.2,0.1h-1.2l0.4-0.3c-0.3-0.4-0.8-0.8-1.5-1.2l-0.8,0.5
			c0.5,0.4,0.9,0.7,1.2,1h-1.6c-0.6,0-1.2,0-1.6-0.1c0,0,0,0.2,0,0.5c0,0.3,0,0.5,0,0.5c0.5,0,1-0.1,1.3-0.1h1.3V33h-1.1
			c-0.5,0-0.8,0-1.1,0c0,0,0,0.2,0,0.5c0,0.3,0,0.5,0,0.5c0.4,0,0.7,0,1.1,0h1.1v1.5h-1.5c-0.6,0-1.1,0-1.5-0.1c0,0,0,0.2,0,0.5
			s0,0.5,0,0.5C16.2,36.4,16.8,36.4,17.4,36.4z"/>
		<path style="fill:#FFFFFF;" d="M26.3,34.5h-0.6v-0.5h1.1v-1.4v-1.4h-1.1v-0.4h0.6c0.3,0,0.4,0,0.6,0c0,0,0-0.2,0-0.4
			c0-0.3,0-0.4,0-0.4c-0.2,0-0.4,0-0.6,0h-0.6v-0.3c0-0.1,0-0.2,0.1-0.3c0,0-0.1-0.1-0.4-0.1c-0.2,0-0.4,0-0.6,0c0,0.2,0,0.3,0,0.4
			v0.4h-0.6c-0.2,0-0.4,0-0.6,0c0,0,0,0.2,0,0.4c0,0.3,0,0.4,0,0.4c0.3,0,0.5,0,0.6,0h0.6v0.4h-1.1v2.9h1.1v0.5h-0.7
			c-0.2,0-0.4,0-0.6,0c0,0,0,0.2,0,0.4s0,0.4,0,0.4c0.3,0,0.5,0,0.6,0h0.7V36c0,0.2,0,0.4,0,0.6c0,0,0.2,0,0.4,0c0.3,0,0.4,0,0.4,0
			c0-0.2,0-0.4,0-0.6v-0.6h0.6c0.2,0,0.4,0,0.6,0c0,0,0-0.2,0-0.4s0-0.4,0-0.4C26.6,34.5,26.4,34.5,26.3,34.5z M24.9,33.4h-0.5v-0.5
			h0.2h0.2V33.4z M24.9,32.3h-0.5v-0.5h0.2h0.2V32.3z M25.5,31.8H26v0.5h-0.3h-0.2V31.8z M25.5,33.4v-0.5H26v0.5h-0.3H25.5z"/>
		<path style="fill:#FFFFFF;" d="M30.6,30.9h-1.4V30c0-0.3,0.1-0.5,0.2-0.8c0,0-0.1-0.1-0.4-0.1c-0.2,0-0.5,0-0.7,0
			c0,0.3,0,0.6,0,0.9v0.9H27v2.9v1.4c0,0.6,0,1.1-0.1,1.4c0,0,0.2,0,0.5,0c0.3,0,0.4,0,0.4,0c0-0.1,0-0.2,0-0.2v-0.2h1.9v0.2
			c0,0,0,0.1,0,0.1c0,0,0,0.1,0,0.1c0,0,0.1,0,0.4,0c0.3,0,0.5,0,0.5,0c-0.1-0.6-0.1-1.4-0.1-2.4V30.9z M28.4,34.6v0.7h-0.5v-1.4
			h0.5V34.6z M28.4,32.4V33h-0.5v-1.3h0.5V32.4z M29.8,35.3h-0.6v-0.7v-0.7h0.6V35.3z M29.8,33h-0.6v-0.6v-0.7h0.6V33z"/>
		<path style="fill:#FFFFFF;" d="M38.9,33h-2.6h-2.6v0.8c0,0.3,0,0.5,0,0.8c0,0,0.2,0,0.4,0s0.4,0,0.4,0c0-0.1,0-0.2,0-0.4v-0.4H38
			v0.4c0,0.1,0,0.3,0,0.4c0,0,0.2,0,0.4,0s0.4,0,0.5,0c0-0.3,0-0.5,0-0.8V33z"/>
		<path style="fill:#FFFFFF;" d="M33.2,33.9v-2.8c0.2-0.4,0.4-0.8,0.6-1.2v0.7h2.6c1,0,1.8,0,2.4,0.1c0,0,0-0.2,0-0.5s0-0.4,0-0.5
			c-0.3,0-0.7,0-1,0h-1v-0.3c0-0.1,0-0.2,0.1-0.3c0,0-0.1-0.1-0.4-0.1c-0.2,0-0.5,0-0.7,0c0,0.1,0,0.3,0,0.4v0.4h-1.9
			c0,0,0-0.1,0-0.1s0-0.1,0-0.1c0,0,0-0.1,0.1-0.1c0,0,0,0,0,0c0,0-0.3-0.2-1-0.4c-0.2,0.6-0.5,1.1-0.8,1.7c-0.3,0.5-0.6,1-1,1.3
			c0.1,0.1,0.2,0.3,0.3,0.5c0.1,0.2,0.2,0.4,0.2,0.5c0.2-0.2,0.4-0.4,0.5-0.6v2c0,0.8,0,1.5-0.1,2c0,0,0.2,0,0.5,0s0.5,0,0.5,0
			c0-0.4-0.1-0.8-0.1-1.4V33.9z"/>
		<path style="fill:#FFFFFF;" d="M37,34h-0.8h-0.8c-0.3,0-0.5,0-0.8,0c0,0,0,0.2,0,0.4s0,0.4,0,0.4c0.2,0,0.4,0,0.5,0h0.5v0.9
			c0,0,0,0.1,0,0.1c0,0-0.1,0-0.1,0c-0.2,0-0.5,0-0.9,0c0.1,0.3,0.2,0.6,0.3,0.9c0.4,0,0.6,0,0.8,0c0.2,0,0.4-0.1,0.6-0.1
			c0.2-0.1,0.3-0.2,0.3-0.3c0.1-0.1,0.1-0.3,0.1-0.5v-0.9h0.6c0.2,0,0.4,0,0.6,0c0,0,0-0.1,0-0.4s0-0.4,0-0.4C37.4,34,37.2,34,37,34
			z"/>
		<path style="fill:#FFFFFF;" d="M36.3,32.7c0.8,0,1.4,0,2,0.1c0,0,0,0,0-0.1c0-0.2,0-0.5,0-0.8V31h-2h-1c-0.4,0-0.7,0-1,0
			c0,0,0,0,0,0c0,0.2,0,0.5,0,0.8v0.8H36.3z M35.2,31.6h1.1h1.1V32h-2.1V31.6z"/>
		<path style="fill:#FFFFFF;" d="M44,31.7V30c0-0.3,0.1-0.5,0.2-0.8c0,0-0.2-0.1-0.5-0.1c-0.3,0-0.5,0-0.8,0
			c0.1,0.6,0.1,1.4,0.1,2.4v3.7h-1.4v-3.6c0-0.3,0.1-0.5,0.2-0.8c0,0-0.2-0.1-0.5-0.1c-0.3,0-0.5,0-0.8,0c0.1,0.6,0.1,1.3,0.1,2.3
			v2.2h-0.5c-0.2,0-0.4,0-0.5,0c0,0,0,0.2,0,0.5c0,0.3,0,0.5,0,0.5c0.6,0,1.2-0.1,1.8-0.1h1.8h1.8c0.7,0,1.3,0,1.8,0.1
			c0,0,0-0.2,0-0.5c0-0.3,0-0.5,0-0.5c-0.5,0-1,0.1-1.4,0.1H44v-2.7h1.2c0.5,0,0.9,0,1.2,0c0,0,0-0.2,0-0.5c0-0.3,0-0.5,0-0.5
			c-0.4,0-0.8,0-1.2,0H44z"/>
		<path style="fill:#FFFFFF;" d="M5.3,3.7v38.1H57V3.7H5.3z M55,39.8H7.3V5.7H55V39.8z"/>
		<path style="fill:#FFFFFF;" d="M36,26.2h5.7l0-2h3.4V10.6h-3.4l0-2h-5.8l0,2H17.9v1.5H36l0,10.7H17.9v1.5H36L36,26.2z M40.2,24.7
			h-2.7l0-0.5h2.7L40.2,24.7z M43.7,12.1v10.7h-1.9l0-10.7H43.7z M37.4,10.1h2.8l0,0.5h-2.8L37.4,10.1z M37.5,12.1h2.8l0,10.7h-2.7
			L37.5,12.1z"/>
		<path style="fill:#FFFFFF;" d="M49.8,12.7c1.6,0,2.9-1.3,2.9-2.9s-1.3-2.9-2.9-2.9s-2.9,1.3-2.9,2.9S48.2,12.7,49.8,12.7z
			 M49.8,8.4c0.8,0,1.4,0.6,1.4,1.4s-0.6,1.4-1.4,1.4s-1.4-0.6-1.4-1.4S49,8.4,49.8,8.4z"/>
	</g>
</g>
</svg>
