<?xml version="1.0" encoding="utf-8"?>
<!-- Generator: Adobe Illustrator 22.0.0, SVG Export Plug-In . SVG Version: 6.00 Build 0)  -->
<svg version="1.1" xmlns="http://www.w3.org/2000/svg" xmlns:xlink="http://www.w3.org/1999/xlink" x="0px" y="0px"
	 viewBox="0 0 62.4 45.4" style="enable-background:new 0 0 62.4 45.4;" xml:space="preserve">
<g id="圖層_2">
	<g>
		<rect x="2.3" y="2.2" style="fill:#1C191B;" width="57.7" height="41.3"/>
		<polyline style="fill:#656565;" points="60,2.2 62.4,0 0,0 2.3,2.2 60,2.2 		"/>
		<polyline style="fill:#010001;" points="60,43.4 62.4,45.4 0,45.4 2.3,43.4 60,43.4 		"/>
		<polyline style="fill:#4A4A4B;" points="2.3,43.4 0,45.4 0,0 2.3,2.2 2.3,43.4 		"/>
		<polyline style="fill:#353537;" points="60,43.4 62.4,45.4 62.4,0 60,2.2 60,43.4 		"/>
	</g>
</g>
<g id="圖層_1">
	<g>
		<path style="fill:#FFFFFF;" d="M17.8,36.5h1.8h1.8c0.7,0,1.3,0,1.8,0.1c0,0,0-0.2,0-0.5s0-0.5,0-0.5c-0.5,0-1,0.1-1.5,0.1h-1.5V34
			h1.1c0.5,0,0.8,0,1.1,0c0,0,0-0.2,0-0.5c0-0.3,0-0.5,0-0.5c-0.4,0-0.7,0-1.1,0h-1.1v-1.4h1.3c0.5,0,0.9,0,1.3,0.1c0,0,0-0.2,0-0.5
			c0-0.3,0-0.5,0-0.5c-0.5,0-0.9,0.1-1.2,0.1h-1.2l0.4-0.3c-0.3-0.4-0.8-0.8-1.5-1.2l-0.8,0.5c0.5,0.4,0.9,0.7,1.2,1H18
			c-0.6,0-1.2,0-1.6-0.1c0,0,0,0.2,0,0.5c0,0.3,0,0.5,0,0.5c0.5,0,1-0.1,1.3-0.1h1.3v1.4h-1.1c-0.5,0-0.8,0-1.1,0c0,0,0,0.2,0,0.5
			c0,0.3,0,0.5,0,0.5c0.4,0,0.7,0,1.1,0h1.1v1.5h-1.5c-0.6,0-1.1,0-1.5-0.1c0,0,0,0.2,0,0.5s0,0.5,0,0.5
			C16.7,36.5,17.3,36.5,17.8,36.5z"/>
		<path style="fill:#FFFFFF;" d="M26.7,34.7H26v-0.5h1.1v-1.4v-1.4H26v-0.4h0.6c0.3,0,0.4,0,0.6,0c0,0,0-0.2,0-0.4
			c0-0.3,0-0.4,0-0.4c-0.2,0-0.4,0-0.6,0H26v-0.3c0-0.1,0-0.2,0.1-0.3c0,0-0.1-0.1-0.4-0.1c-0.2,0-0.4,0-0.6,0c0,0.2,0,0.3,0,0.4
			v0.4h-0.6c-0.2,0-0.4,0-0.6,0c0,0,0,0.2,0,0.4c0,0.3,0,0.4,0,0.4c0.3,0,0.5,0,0.6,0h0.6v0.4h-1.1v2.9h1.1v0.5h-0.7
			c-0.2,0-0.4,0-0.6,0c0,0,0,0.2,0,0.4s0,0.4,0,0.4c0.3,0,0.5,0,0.6,0h0.7v0.6c0,0.2,0,0.4,0,0.6c0,0,0.2,0,0.4,0c0.3,0,0.4,0,0.4,0
			c0-0.2,0-0.4,0-0.6v-0.6h0.6c0.2,0,0.4,0,0.6,0c0,0,0-0.2,0-0.4s0-0.4,0-0.4C27.1,34.7,26.8,34.7,26.7,34.7z M25.3,33.5h-0.5v-0.5
			h0.2h0.2V33.5z M25.3,32.4h-0.5V32h0.2h0.2V32.4z M25.9,32h0.5v0.5h-0.3h-0.2V32z M25.9,33.5v-0.5h0.5v0.5h-0.3H25.9z"/>
		<path style="fill:#FFFFFF;" d="M31,31h-1.4v-0.9c0-0.3,0.1-0.5,0.2-0.8c0,0-0.1-0.1-0.4-0.1c-0.2,0-0.5,0-0.7,0c0,0.3,0,0.6,0,0.9
			V31h-1.3v2.9v1.4c0,0.6,0,1.1-0.1,1.4c0,0,0.2,0,0.5,0c0.3,0,0.4,0,0.4,0c0-0.1,0-0.2,0-0.2v-0.2h1.9v0.2c0,0,0,0.1,0,0.1
			c0,0,0,0.1,0,0.1c0,0,0.1,0,0.4,0c0.3,0,0.5,0,0.5,0c-0.1-0.6-0.1-1.4-0.1-2.4V31z M28.8,34.7v0.7h-0.5V34h0.5V34.7z M28.8,32.5
			v0.6h-0.5v-1.3h0.5V32.5z M30.2,35.5h-0.6v-0.7V34h0.6V35.5z M30.2,33.2h-0.6v-0.6v-0.7h0.6V33.2z"/>
		<path style="fill:#FFFFFF;" d="M37.7,35.5h-1.4v-2.1h1.1c0.5,0,0.8,0,1.1,0c0,0,0-0.2,0-0.5s0-0.5,0-0.5c-0.4,0-0.7,0-1.1,0h-1.1
			v-1.8h1.3c0.5,0,0.9,0,1.3,0.1c0,0,0-0.2,0-0.5s0-0.5,0-0.5c-0.7,0.1-1.4,0.1-2.1,0.1h-2.1c-1,0-1.8,0-2.4-0.1c0,0,0,0.2,0,0.6
			s0,0.5,0,0.5c0.5,0,1-0.1,1.5-0.1h1.5v4.8H34v-2.7c0-0.3,0.1-0.5,0.2-0.8c0,0-0.2-0.1-0.5-0.1c-0.3,0-0.5,0-0.8,0
			c0,0.5,0.1,1.1,0.1,1.8v1.8h-0.5c-0.2,0-0.4,0-0.5,0c0,0,0,0.2,0,0.5s0,0.5,0,0.5c0.6,0,1.2-0.1,1.8-0.1h1.8h1.8
			c0.8,0,1.3,0,1.8,0.1c0,0,0-0.2,0-0.5c0-0.3,0-0.5,0-0.5C38.6,35.5,38.2,35.5,37.7,35.5z"/>
		<path style="fill:#FFFFFF;" d="M44.8,29.6v0.3H44c-0.3,0-0.5,0-0.7,0c0,0,0,0.1,0,0.4s0,0.4,0,0.4c0.3,0,0.6,0,0.7,0h0.8v0.3h-1.4
			V33h1.4v0.4c-0.6,0-1.1,0-1.6,0l0,0.7c1,0,2,0,3.2-0.1c0,0.1,0.1,0.2,0.1,0.3l0.7-0.3c-0.2-0.3-0.4-0.6-0.6-0.9H47v-1.1v-1.1h-1.4
			v-0.3h0.8c0.3,0,0.5,0,0.8,0c0,0,0-0.1,0-0.4s0-0.4,0-0.4c-0.3,0-0.6,0-0.8,0h-0.8v-0.2c0-0.1,0-0.1,0.1-0.2c0,0-0.1-0.1-0.4-0.1
			c-0.2,0-0.4,0-0.6,0C44.7,29.4,44.8,29.5,44.8,29.6z M44.8,32.5h-0.6v-0.3h0.3h0.3V32.5z M44.8,31.7h-0.6v-0.3h0.3h0.3V31.7z
			 M45.5,31.3h0.7v0.3h-0.3h-0.3V31.3z M45.5,32.1h0.7v0.3h-0.3h-0.3V32.1z M45.5,33h0.5l-0.2,0.1c0,0,0.1,0.1,0.1,0.1
			c0,0,0.1,0.1,0.1,0.1l-0.5,0V33z"/>
		<path style="fill:#FFFFFF;" d="M46.8,34.3h-0.4v-0.1c0,0,0-0.1,0.1-0.1c0,0-0.1-0.1-0.4-0.1c-0.2,0-0.4,0-0.6,0c0,0,0,0.1,0,0.1
			c0,0,0,0.1,0,0.1v0.2h-2.3v0.3H42v-0.5h1v-1.4v-1.4h-1v-0.4h0.6c0.2,0,0.4,0,0.6,0c0,0,0-0.2,0-0.4c0-0.3,0-0.4,0-0.4
			c-0.2,0-0.4,0-0.6,0H42v-0.3c0-0.1,0-0.2,0.1-0.3c0,0-0.1-0.1-0.4-0.1c-0.2,0-0.4,0-0.6,0c0,0.2,0,0.3,0,0.4v0.4h-0.6
			c-0.2,0-0.4,0-0.6,0c0,0,0,0.2,0,0.4c0,0.3,0,0.4,0,0.4c0.2,0,0.4,0,0.6,0h0.6v0.4h-1v2.9h1v0.5h-0.6c-0.2,0-0.4,0-0.6,0
			c0,0,0,0.2,0,0.4s0,0.4,0,0.4c0.3,0,0.5,0,0.6,0h0.6v0.6c0,0.2,0,0.4,0,0.6c0,0,0.2,0,0.4,0c0.3,0,0.4,0,0.4,0c0-0.2,0-0.4,0-0.6
			v-0.6h1.2V35h0.7l-0.4,0.2c0.3,0.3,0.5,0.6,0.7,1l0.3-0.2c0.1,0.3,0.2,0.6,0.2,0.7c0.6,0,1,0,1.2-0.1c0.1-0.1,0.2-0.1,0.3-0.3
			c0-0.1,0.1-0.3,0.1-0.5V35h0.4c0.2,0,0.3,0,0.4,0c0,0,0-0.1,0-0.4s0-0.4,0-0.4C47.1,34.3,46.9,34.3,46.8,34.3z M41.3,33.3v0.2
			h-0.4v-0.5h0.4V33.3z M41.3,32.2v0.2h-0.4V32h0.4V32.2z M41.9,32h0.5v0.5h-0.2h-0.2V32z M41.9,33.5v-0.5h0.5v0.5h-0.2H41.9z
			 M45.5,35.9c0,0.1,0,0.1-0.1,0.1c-0.3,0-0.6,0-0.8,0l0.3-0.2c-0.1-0.3-0.3-0.5-0.6-0.8h0.6h0.6V35.9z"/>
		<rect x="46.2" y="6.3" style="fill:#FFFFFF;" width="1.5" height="5.2"/>
		<path style="fill:#FFFFFF;" d="M5.3,3.6v38.1H57V3.6H5.3z M55,39.7H7.3V5.6H55V39.7z"/>
		<path style="fill:#FFFFFF;" d="M26.8,12.6c-2.6,0-4.7,2.1-4.7,4.7c0,2.4,1.8,4.3,4.1,4.6l-0.2-1.5c-1.4-0.3-2.5-1.6-2.5-3.1
			c0-1.7,1.4-3.2,3.2-3.2s3.2,1.4,3.2,3.2c0,0.5-0.1,1-0.4,1.5l-1.2-1.3l-0.7,2.2L27,21.9l2.2-0.5l2.2-0.5l-0.9-1
			c0.5-0.7,0.8-1.6,0.8-2.6C31.4,14.7,29.4,12.6,26.8,12.6z"/>
		<path style="fill:#FFFFFF;" d="M35.6,26.1h5.7l0-2h3.4V10.5h-3.4l0-2h-5.8l0,2H17.5V12h18.1l0,10.7H17.5v1.5h18.1L35.6,26.1z
			 M39.8,24.6h-2.7l0-0.5h2.7L39.8,24.6z M43.3,12v10.7h-1.9l0-10.7H43.3z M37.1,10h2.8l0,0.5h-2.8L37.1,10z M37.1,12h2.8l0,10.7
			h-2.7L37.1,12z"/>
	</g>
</g>
</svg>
