<?xml version="1.0" encoding="utf-8"?>
<!-- Generator: Adobe Illustrator 22.0.0, SVG Export Plug-In . SVG Version: 6.00 Build 0)  -->
<svg version="1.1" xmlns="http://www.w3.org/2000/svg" xmlns:xlink="http://www.w3.org/1999/xlink" x="0px" y="0px"
	 viewBox="0 0 62.4 45.4" style="enable-background:new 0 0 62.4 45.4;" xml:space="preserve">
<g id="圖層_2">
	<g>
		<rect x="2.3" y="2.2" style="fill:#1C191B;" width="57.7" height="41.3"/>
		<polyline style="fill:#656565;" points="60,2.2 62.4,0 0,0 2.3,2.2 60,2.2 		"/>
		<polyline style="fill:#010001;" points="60,43.4 62.4,45.4 0,45.4 2.3,43.4 60,43.4 		"/>
		<polyline style="fill:#4A4A4B;" points="2.3,43.4 0,45.4 0,0 2.3,2.2 2.3,43.4 		"/>
		<polyline style="fill:#353537;" points="60,43.4 62.4,45.4 62.4,0 60,2.2 60,43.4 		"/>
	</g>
</g>
<g id="圖層_1">
	<g>
		<path style="fill:#FFFFFF;" d="M17.4,36.3h1.8H21c0.7,0,1.3,0,1.8,0.1c0,0,0-0.2,0-0.5s0-0.5,0-0.5c-0.5,0-1,0.1-1.5,0.1h-1.5
			v-1.5h1.1c0.5,0,0.8,0,1.1,0c0,0,0-0.2,0-0.5c0-0.3,0-0.5,0-0.5c-0.4,0-0.7,0-1.1,0h-1.1v-1.4H21c0.5,0,0.9,0,1.3,0.1
			c0,0,0-0.2,0-0.5c0-0.3,0-0.5,0-0.5c-0.5,0-0.9,0.1-1.2,0.1h-1.2l0.4-0.3c-0.3-0.4-0.8-0.8-1.5-1.2L18,29.6c0.5,0.4,0.9,0.7,1.2,1
			h-1.6c-0.6,0-1.2,0-1.6-0.1c0,0,0,0.2,0,0.5c0,0.3,0,0.5,0,0.5c0.5,0,1-0.1,1.3-0.1h1.3v1.4h-1.1c-0.5,0-0.8,0-1.1,0
			c0,0,0,0.2,0,0.5c0,0.3,0,0.5,0,0.5c0.4,0,0.7,0,1.1,0h1.1v1.5h-1.5c-0.6,0-1.1,0-1.5-0.1c0,0,0,0.2,0,0.5s0,0.5,0,0.5
			C16.3,36.3,16.9,36.3,17.4,36.3z"/>
		<path style="fill:#FFFFFF;" d="M30.6,30.8h-1.4v-0.9c0-0.3,0.1-0.5,0.2-0.8c0,0-0.1-0.1-0.4-0.1c-0.2,0-0.5,0-0.7,0
			c0,0.3,0,0.6,0,0.9v0.9h-1.3v2.9v1.4c0,0.6,0,1.1-0.1,1.4c0,0,0.2,0,0.5,0c0.3,0,0.4,0,0.4,0c0-0.1,0-0.2,0-0.2v-0.2h1.9v0.2
			c0,0,0,0.1,0,0.1c0,0,0,0.1,0,0.1c0,0,0.1,0,0.4,0c0.3,0,0.5,0,0.5,0c-0.1-0.6-0.1-1.4-0.1-2.4V30.8z M28.4,34.5v0.7h-0.5v-1.4
			h0.5V34.5z M28.4,32.3V33h-0.5v-1.3h0.5V32.3z M29.8,35.2h-0.6v-0.7v-0.7h0.6V35.2z M29.8,33h-0.6v-0.6v-0.7h0.6V33z"/>
		<path style="fill:#FFFFFF;" d="M26.3,34.4h-0.6V34h1.1v-1.4v-1.4h-1.1v-0.4h0.6c0.3,0,0.4,0,0.6,0c0,0,0-0.2,0-0.4
			c0-0.3,0-0.4,0-0.4c-0.2,0-0.4,0-0.6,0h-0.6v-0.3c0-0.1,0-0.2,0.1-0.3c0,0-0.1-0.1-0.4-0.1c-0.2,0-0.4,0-0.6,0c0,0.2,0,0.3,0,0.4
			v0.4h-0.6c-0.2,0-0.4,0-0.6,0c0,0,0,0.2,0,0.4c0,0.3,0,0.4,0,0.4c0.3,0,0.5,0,0.6,0h0.6v0.4h-1.1V34h1.1v0.5h-0.7
			c-0.2,0-0.4,0-0.6,0c0,0,0,0.2,0,0.4s0,0.4,0,0.4c0.3,0,0.5,0,0.6,0h0.7v0.6c0,0.2,0,0.4,0,0.6c0,0,0.2,0,0.4,0c0.3,0,0.4,0,0.4,0
			c0-0.2,0-0.4,0-0.6v-0.6h0.6c0.2,0,0.4,0,0.6,0c0,0,0-0.2,0-0.4s0-0.4,0-0.4C26.7,34.4,26.4,34.4,26.3,34.4z M24.9,33.3h-0.5v-0.5
			h0.2h0.2V33.3z M24.9,32.2h-0.5v-0.5h0.2h0.2V32.2z M25.5,31.7H26v0.5h-0.3h-0.2V31.7z M25.5,33.3v-0.5H26v0.5h-0.3H25.5z"/>
		<path style="fill:#FFFFFF;" d="M38.1,31.8l-0.7-0.3l-0.2,0h-3.8v-1.1H36c1,0,1.8,0,2.4,0.1c0,0,0-0.2,0-0.6s0-0.5,0-0.5
			c-0.5,0-1,0.1-1.5,0.1h-1.5H34c-0.6,0-1.1,0-1.5-0.1c0,0,0,0,0,0.1c0,0.3,0,0.6,0,1.1v1.1c0,0.9,0,1.6-0.1,2.2
			c-0.1,0.9-0.4,1.6-0.8,2.1c0.1,0.1,0.3,0.1,0.4,0.3c0.2,0.1,0.3,0.2,0.4,0.3c0.6-0.9,1-2.3,1.1-4.1h0.3c0.3,0.9,0.8,1.7,1.3,2.3
			c-0.6,0.4-1.2,0.7-2,0.9c0.2,0.2,0.4,0.5,0.5,0.9c0.9-0.3,1.6-0.6,2.2-1.1c0.7,0.5,1.4,0.9,2.4,1.1c0.2-0.4,0.4-0.7,0.6-0.9
			c-0.9-0.2-1.6-0.5-2.2-0.9C37.3,34,37.8,33,38.1,31.8z M34.7,32.5h1.1h1.1c-0.2,0.6-0.6,1.2-1,1.7C35.3,33.7,35,33.1,34.7,32.5z"
			/>
		<path style="fill:#FFFFFF;" d="M46.4,34.1h-0.4V34c0,0,0-0.1,0.1-0.1c0,0-0.1-0.1-0.4-0.1c-0.2,0-0.4,0-0.6,0c0,0,0,0.1,0,0.1
			c0,0,0,0.1,0,0.1v0.2h-2.3v0.3h-1.2V34h1v-1.4v-1.4h-1v-0.4h0.6c0.2,0,0.4,0,0.6,0c0,0,0-0.2,0-0.4c0-0.3,0-0.4,0-0.4
			c-0.2,0-0.4,0-0.6,0h-0.6v-0.3c0-0.1,0-0.2,0.1-0.3c0,0-0.1-0.1-0.4-0.1c-0.2,0-0.4,0-0.6,0c0,0.2,0,0.3,0,0.4v0.4h-0.6
			c-0.2,0-0.4,0-0.6,0c0,0,0,0.2,0,0.4c0,0.3,0,0.4,0,0.4c0.2,0,0.4,0,0.6,0h0.6v0.4h-1V34h1v0.5h-0.6c-0.2,0-0.4,0-0.6,0
			c0,0,0,0.2,0,0.4s0,0.4,0,0.4c0.3,0,0.5,0,0.6,0h0.6v0.6c0,0.2,0,0.4,0,0.6c0,0,0.2,0,0.4,0c0.3,0,0.4,0,0.4,0c0-0.2,0-0.4,0-0.6
			v-0.6h1.2v-0.5h0.7L43.1,35c0.3,0.3,0.5,0.6,0.7,1l0.3-0.2c0.1,0.3,0.2,0.6,0.2,0.7c0.6,0,1,0,1.2-0.1c0.1-0.1,0.2-0.1,0.3-0.3
			c0-0.1,0.1-0.3,0.1-0.5v-0.9h0.4c0.2,0,0.3,0,0.4,0c0,0,0-0.1,0-0.4s0-0.4,0-0.4C46.7,34.1,46.5,34.1,46.4,34.1z M40.9,33.1v0.2
			h-0.4v-0.5h0.4V33.1z M40.9,32v0.2h-0.4v-0.5h0.4V32z M41.5,31.7H42v0.5h-0.2h-0.2V31.7z M41.5,33.3v-0.5H42v0.5h-0.2H41.5z
			 M45.1,35.7c0,0.1,0,0.1-0.1,0.1c-0.3,0-0.6,0-0.8,0l0.3-0.2c-0.1-0.3-0.3-0.5-0.6-0.8h0.6h0.6V35.7z"/>
		<path style="fill:#FFFFFF;" d="M44.4,29.3v0.3h-0.8c-0.3,0-0.5,0-0.7,0c0,0,0,0.1,0,0.4s0,0.4,0,0.4c0.3,0,0.6,0,0.7,0h0.8v0.3H43
			v2.1h1.4v0.4c-0.6,0-1.1,0-1.6,0l0,0.7c1,0,2,0,3.2-0.1c0,0.1,0.1,0.2,0.1,0.3l0.7-0.3c-0.2-0.3-0.4-0.6-0.6-0.9h0.3v-1.1v-1.1
			h-1.4v-0.3h0.8c0.3,0,0.5,0,0.8,0c0,0,0-0.1,0-0.4s0-0.4,0-0.4c-0.3,0-0.6,0-0.8,0h-0.8v-0.2c0-0.1,0-0.1,0.1-0.2
			c0,0-0.1-0.1-0.4-0.1c-0.2,0-0.4,0-0.6,0C44.4,29.2,44.4,29.3,44.4,29.3z M44.4,32.2h-0.6v-0.3H44h0.3V32.2z M44.4,31.4h-0.6v-0.3
			H44h0.3V31.4z M45.1,31.1h0.7v0.3h-0.3h-0.3V31.1z M45.1,31.9h0.7v0.3h-0.3h-0.3V31.9z M45.1,32.7h0.5l-0.2,0.1
			c0,0,0.1,0.1,0.1,0.1c0,0,0.1,0.1,0.1,0.1l-0.5,0V32.7z"/>
		<path style="fill:#FFFFFF;" d="M5.3,3.6v38.1H57V3.6H5.3z M55,39.7H7.3V5.6H55V39.7z"/>
		<rect x="45.8" y="6.3" style="fill:#FFFFFF;" width="1.5" height="5.2"/>
		<path style="fill:#FFFFFF;" d="M35.2,26.1h5.7l0-2h3.4V10.5h-3.4l0-2h-5.8l0,2H17.1V12h18.1l0,10.7H17.1v1.5h18.1L35.2,26.1z
			 M39.4,24.6h-2.7l0-0.5h2.7L39.4,24.6z M42.9,12v10.7h-1.9l0-10.7H42.9z M36.7,10h2.8l0,0.5h-2.8L36.7,10z M36.7,12h2.8l0,10.7
			h-2.7L36.7,12z"/>
		<path style="fill:#FFFFFF;" d="M24.7,21.4l2.2,0.5l-0.7-2.2l-0.7-2.2l-1.2,1.3c-0.2-0.4-0.4-0.9-0.4-1.5c0-1.7,1.4-3.2,3.2-3.2
			s3.2,1.4,3.2,3.2c0,1.5-1.1,2.8-2.5,3.1l-0.2,1.5c2.3-0.3,4.1-2.2,4.1-4.6c0-2.6-2.1-4.7-4.7-4.7s-4.7,2.1-4.7,4.7
			c0,1,0.3,1.9,0.8,2.6l-0.9,1L24.7,21.4z"/>
	</g>
</g>
</svg>
