<?xml version="1.0" encoding="utf-8"?>
<!-- Generator: Adobe Illustrator 22.0.0, SVG Export Plug-In . SVG Version: 6.00 Build 0)  -->
<svg version="1.1" xmlns="http://www.w3.org/2000/svg" xmlns:xlink="http://www.w3.org/1999/xlink" x="0px" y="0px"
	 viewBox="0 0 62.4 45.4" style="enable-background:new 0 0 62.4 45.4;" xml:space="preserve">
<g id="圖層_2">
	<g>
		<rect x="2.3" y="2.2" style="fill:#1C191B;" width="57.7" height="41.3"/>
		<polyline style="fill:#656565;" points="60,2.2 62.4,0 0,0 2.3,2.2 60,2.2 		"/>
		<polyline style="fill:#010001;" points="60,43.4 62.4,45.4 0,45.4 2.3,43.4 60,43.4 		"/>
		<polyline style="fill:#4A4A4B;" points="2.3,43.4 0,45.4 0,0 2.3,2.2 2.3,43.4 		"/>
		<polyline style="fill:#353537;" points="60,43.4 62.4,45.4 62.4,0 60,2.2 60,43.4 		"/>
	</g>
</g>
<g id="圖層_1">
	<g>
		<path style="fill:#FFFFFF;" d="M13.4,36.5h1.8H17c0.7,0,1.3,0,1.8,0.1c0,0,0-0.2,0-0.5s0-0.5,0-0.5c-0.5,0-1,0.1-1.5,0.1h-1.5V34
			h1.1c0.5,0,0.8,0,1.1,0c0,0,0-0.2,0-0.5c0-0.3,0-0.5,0-0.5c-0.4,0-0.7,0-1.1,0h-1.1v-1.4H17c0.5,0,0.9,0,1.3,0.1c0,0,0-0.2,0-0.5
			c0-0.3,0-0.5,0-0.5c-0.5,0-0.9,0.1-1.2,0.1h-1.2l0.4-0.3c-0.3-0.4-0.8-0.8-1.5-1.2L14,29.8c0.5,0.4,0.9,0.7,1.2,1h-1.6
			c-0.6,0-1.2,0-1.6-0.1c0,0,0,0.2,0,0.5c0,0.3,0,0.5,0,0.5c0.5,0,1-0.1,1.3-0.1h1.3v1.4h-1.1c-0.5,0-0.8,0-1.1,0c0,0,0,0.2,0,0.5
			c0,0.3,0,0.5,0,0.5c0.4,0,0.7,0,1.1,0h1.1v1.5h-1.5c-0.6,0-1.1,0-1.5-0.1c0,0,0,0.2,0,0.5s0,0.5,0,0.5
			C12.3,36.5,12.9,36.5,13.4,36.5z"/>
		<path style="fill:#FFFFFF;" d="M26.6,31h-1.4v-0.9c0-0.3,0.1-0.5,0.2-0.8c0,0-0.1-0.1-0.4-0.1c-0.2,0-0.5,0-0.7,0
			c0,0.3,0,0.6,0,0.9V31h-1.3v2.9v1.4c0,0.6,0,1.1-0.1,1.4c0,0,0.2,0,0.5,0c0.3,0,0.4,0,0.4,0c0-0.1,0-0.2,0-0.2v-0.2h1.9v0.2
			c0,0,0,0.1,0,0.1c0,0,0,0.1,0,0.1c0,0,0.1,0,0.4,0c0.3,0,0.5,0,0.5,0c-0.1-0.6-0.1-1.4-0.1-2.4V31z M24.4,34.7v0.7h-0.5V34h0.5
			V34.7z M24.4,32.5v0.6h-0.5v-1.3h0.5V32.5z M25.8,35.5h-0.6v-0.7V34h0.6V35.5z M25.8,33.2h-0.6v-0.6v-0.7h0.6V33.2z"/>
		<path style="fill:#FFFFFF;" d="M22.3,34.7h-0.6v-0.5h1.1v-1.4v-1.4h-1.1v-0.4h0.6c0.3,0,0.4,0,0.6,0c0,0,0-0.2,0-0.4
			c0-0.3,0-0.4,0-0.4c-0.2,0-0.4,0-0.6,0h-0.6v-0.3c0-0.1,0-0.2,0.1-0.3c0,0-0.1-0.1-0.4-0.1c-0.2,0-0.4,0-0.6,0c0,0.2,0,0.3,0,0.4
			v0.4h-0.6c-0.2,0-0.4,0-0.6,0c0,0,0,0.2,0,0.4c0,0.3,0,0.4,0,0.4c0.3,0,0.5,0,0.6,0h0.6v0.4h-1.1v2.9h1.1v0.5h-0.7
			c-0.2,0-0.4,0-0.6,0c0,0,0,0.2,0,0.4s0,0.4,0,0.4c0.3,0,0.5,0,0.6,0h0.7v0.6c0,0.2,0,0.4,0,0.6c0,0,0.2,0,0.4,0c0.3,0,0.4,0,0.4,0
			c0-0.2,0-0.4,0-0.6v-0.6h0.6c0.2,0,0.4,0,0.6,0c0,0,0-0.2,0-0.4s0-0.4,0-0.4C22.7,34.7,22.4,34.7,22.3,34.7z M20.9,33.5h-0.5v-0.5
			h0.2h0.2V33.5z M20.9,32.4h-0.5V32h0.2h0.2V32.4z M21.5,32H22v0.5h-0.3h-0.2V32z M21.5,33.5v-0.5H22v0.5h-0.3H21.5z"/>
		<path style="fill:#FFFFFF;" d="M31.7,35.7v-1.2h1.1c0.5,0,0.8,0,1.1,0c0,0,0-0.2,0-0.5s0-0.5,0-0.5c-0.4,0-0.7,0-1.1,0h-1.1v-1
			h0.8c0.3,0,0.6,0,0.8,0c0,0,0-0.2,0-0.5c0-0.3,0-0.5,0-0.5c-0.4,0-0.7,0-1.1,0h-1.1h-1.1c-0.4,0-0.8,0-1.1,0c0,0,0,0.2,0,0.5
			c0,0.3,0,0.5,0,0.5c0.3,0,0.6,0,0.8,0h0.8v2.8c-0.5-0.2-0.9-0.7-1.1-1.3c0-0.2,0.1-0.3,0.1-0.5c0-0.1,0.1-0.2,0.1-0.2
			c0,0,0.1-0.1,0.1-0.1c0,0-0.1-0.1-0.3-0.2c-0.2-0.1-0.5-0.1-0.7-0.1c-0.2,1.5-0.6,2.5-1.4,3.1c0.3,0.2,0.5,0.4,0.8,0.6
			c0.4-0.4,0.8-0.9,1-1.5c0.3,0.5,0.8,0.9,1.3,1.1c0.5,0.2,1.1,0.3,1.9,0.3h2c0-0.1,0.1-0.3,0.1-0.5c0.1-0.2,0.1-0.4,0.2-0.5
			c-0.4,0-1.1,0-2.2,0C32.2,35.7,31.9,35.7,31.7,35.7z"/>
		<path style="fill:#FFFFFF;" d="M27.8,30.1v1c0,0.4,0,0.7,0,1c0,0,0.2,0,0.5,0c0.3,0,0.5,0,0.5,0c0-0.1,0-0.3,0-0.5V31h2.4h2.4v0.6
			c0,0.2,0,0.4,0,0.5c0,0,0.2,0,0.5,0c0.3,0,0.5,0,0.5,0c0-0.3,0-0.6,0-1v-1h-2.9v-0.4c0-0.1,0-0.2,0.1-0.4c0,0-0.1-0.1-0.4-0.1
			c-0.2,0-0.5,0-0.7,0c0,0.2,0,0.3,0,0.4v0.4H27.8z"/>
		<path style="fill:#FFFFFF;" d="M41.2,31.1h-1c0.2-0.3,0.4-0.7,0.6-1l-0.6-0.4l-0.1,0h-1.6c0,0,0.1-0.1,0.1-0.2c0,0,0,0,0.1,0
			c0,0,0,0,0,0c0,0-0.1-0.1-0.3-0.1c-0.2-0.1-0.5-0.1-0.7-0.1c-0.5,1-1.1,1.8-2,2.4c0.1,0.1,0.2,0.2,0.4,0.3
			c0.1,0.1,0.2,0.3,0.3,0.4c0.2-0.1,0.3-0.3,0.4-0.3v1.2c0,0.6-0.1,1.1-0.2,1.5c-0.2,0.6-0.5,1.1-1,1.4c0.1,0.1,0.2,0.2,0.4,0.3
			c0.1,0.1,0.2,0.3,0.3,0.4c0.6-0.4,1-1,1.2-1.8h3.9v0.6c0,0.1,0,0.1-0.1,0.2c0,0-0.1,0-0.2,0.1c0,0,0,0-0.1,0c-0.5,0-1,0-1.3,0
			c0.2,0.4,0.3,0.7,0.4,0.9c0.4,0,0.8,0,1,0c0.3,0,0.5-0.1,0.7-0.1c0.2-0.1,0.3-0.2,0.4-0.3c0.1-0.1,0.1-0.3,0.1-0.6v-2.3v-1.2
			c0-0.5,0-0.9,0-1.1c0,0,0,0,0,0C41.9,31.1,41.6,31.1,41.2,31.1z M39,34.2h-0.7h-0.7c0-0.2,0.1-0.5,0.1-0.8H39V34.2z M39,32.7h-1.3
			v-0.7h0.7H39V32.7z M39.2,31.1h-0.8h-0.8c0.1-0.1,0.2-0.3,0.4-0.5c0,0,0-0.1,0.1-0.1h1.5C39.4,30.8,39.3,31,39.2,31.1z M41.3,34.2
			h-1.4v-0.8h0.7h0.7V34.2z M41.3,32.7h-0.7h-0.7v-0.7h1.4V32.7z"/>
		<path style="fill:#FFFFFF;" d="M50.3,34.1l-0.6-0.3l-0.2,0h-2.1h-1.1c-0.4,0-0.8,0-1.1,0c0,0,0,0.2,0,0.4c0,0.3,0,0.4,0,0.4
			c0.2,0,0.4,0,0.6,0h0.6l-0.4,0.1c0.2,0.3,0.5,0.6,0.9,0.9c-0.6,0.2-1.2,0.3-2,0.4c0.2,0.2,0.3,0.5,0.4,0.8c1-0.1,1.9-0.3,2.6-0.6
			c0.7,0.3,1.5,0.5,2.4,0.6c0.2-0.3,0.3-0.6,0.6-0.8c-0.7-0.1-1.4-0.2-1.9-0.3C49.5,35.2,50,34.7,50.3,34.1z M47.9,35.3
			c-0.4-0.2-0.7-0.4-0.9-0.7H48h0.9C48.6,34.9,48.3,35.1,47.9,35.3z"/>
		<path style="fill:#FFFFFF;" d="M44,34.3c-0.1,0.8-0.3,1.5-0.6,2c0.1,0,0.2,0.1,0.4,0.2c0.2,0.1,0.3,0.2,0.4,0.3
			c0.5-0.9,0.8-2.4,0.8-4.5v-1.4h2.8h1.4c0.6,0,1,0,1.4,0.1c0,0,0-0.2,0-0.5c0-0.3,0-0.5,0-0.5c-0.5,0-1,0.1-1.4,0.1h-1.4v-0.3
			c0-0.1,0-0.2,0.1-0.3c0,0-0.1-0.1-0.4-0.1c-0.2,0-0.5,0-0.7,0c0,0.2,0,0.3,0,0.4V30h-1.4c-0.5,0-1,0-1.4-0.1c0,0,0,0,0,0.1
			c0,0.3,0,0.7,0,1.1v1.1C44.1,33.1,44.1,33.7,44,34.3z"/>
		<path style="fill:#FFFFFF;" d="M45.8,31.5c-0.2,0-0.4,0-0.5,0c0,0,0,0.1,0,0.4c0,0.3,0,0.4,0,0.4c0.2,0,0.4,0,0.5,0h0.5v1.2h1.6
			h1.6v-1.2h0.6c0.2,0,0.4,0,0.6,0c0,0,0-0.1,0-0.4c0-0.3,0-0.4,0-0.4c-0.2,0-0.4,0-0.6,0h-0.6v-0.2c0-0.1,0-0.1,0.1-0.2
			c0,0-0.1-0.1-0.4-0.1c-0.2,0-0.4,0-0.7,0c0,0.1,0,0.2,0,0.3v0.3h-1.4v-0.2c0-0.1,0-0.1,0.1-0.2c0,0-0.1-0.1-0.4-0.1
			c-0.2,0-0.4,0-0.6,0c0,0.1,0,0.2,0,0.3v0.3H45.8z M47.2,32.3h1.4v0.5h-0.7h-0.7V32.3z"/>
		<path style="fill:#FFFFFF;" d="M5.3,3.6v38.1H57V3.6H5.3z M55,39.7H7.3V5.6H55V39.7z"/>
		<path style="fill:#FFFFFF;" d="M27.6,20l0.5,1.5c1.5-0.8,2.5-2.3,2.5-4.1c0-2.6-2.1-4.7-4.7-4.7s-4.7,2.1-4.7,4.7s2.1,4.7,4.7,4.7
			c0.1,0,0.2,0,0.2,0l-0.5-1.5c-1.6-0.1-2.9-1.5-2.9-3.1c0-1.7,1.4-3.2,3.2-3.2s3.2,1.4,3.2,3.2C29.1,18.4,28.5,19.4,27.6,20z"/>
		<path style="fill:#FFFFFF;" d="M34.8,26.1h5.7l0-2h3.4V10.5h-3.4l0-2h-5.8l0,2H16.6V12h18.1l0,10.7H16.6v1.5h18.1L34.8,26.1z
			 M39,24.6h-2.7l0-0.5H39L39,24.6z M42.4,12v10.7h-1.9l0-10.7H42.4z M36.2,10H39l0,0.5h-2.8L36.2,10z M36.2,12H39l0,10.7h-2.7
			L36.2,12z"/>
	</g>
</g>
</svg>
