<?xml version="1.0" encoding="utf-8"?>
<!-- Generator: Adobe Illustrator 22.0.0, SVG Export Plug-In . SVG Version: 6.00 Build 0)  -->
<svg version="1.1" xmlns="http://www.w3.org/2000/svg" xmlns:xlink="http://www.w3.org/1999/xlink" x="0px" y="0px"
	 viewBox="0 0 62.4 45.4" style="enable-background:new 0 0 62.4 45.4;" xml:space="preserve">
<g id="圖層_2">
	<g>
		<rect x="2.3" y="2.2" style="fill:#1C191B;" width="57.7" height="41.3"/>
		<polyline style="fill:#656565;" points="60,2.2 62.4,0 0,0 2.3,2.2 60,2.2 		"/>
		<polyline style="fill:#010001;" points="60,43.4 62.4,45.4 0,45.4 2.3,43.4 60,43.4 		"/>
		<polyline style="fill:#4A4A4B;" points="2.3,43.4 0,45.4 0,0 2.3,2.2 2.3,43.4 		"/>
		<polyline style="fill:#353537;" points="60,43.4 62.4,45.4 62.4,0 60,2.2 60,43.4 		"/>
	</g>
</g>
<g id="圖層_1">
	<g>
		<g>
			<path style="fill:#FFFFFF;" d="M57,41.7H5.3V3.6H57V41.7z M7.3,39.7H55V5.6H7.3V39.7z"/>
		</g>
		<g>
			<g>
				<path style="fill:#FFFFFF;" d="M27.6,24.2c-0.1,0-0.1-0.5-0.1-1.5s0-1.4,0.1-1.5c0.9,0.1,2.1,0.2,3.5,0.2H33
					c0.6,0,1.2,0,1.8-0.1c0.1,0,0.1,0.5,0.1,1.4c0,0.9,0,1.4-0.1,1.4c-0.4-0.1-1-0.1-1.8-0.1h-1.8h-1.8
					C28.8,24.1,28.2,24.1,27.6,24.2z"/>
			</g>
		</g>
	</g>
</g>
</svg>
