<?xml version="1.0" encoding="utf-8"?>
<!-- Generator: Adobe Illustrator 22.0.0, SVG Export Plug-In . SVG Version: 6.00 Build 0)  -->
<svg version="1.1" xmlns="http://www.w3.org/2000/svg" xmlns:xlink="http://www.w3.org/1999/xlink" x="0px" y="0px"
	 viewBox="0 0 62.4 45.4" style="enable-background:new 0 0 62.4 45.4;" xml:space="preserve">
<g id="圖層_2">
	<g>
		<rect x="2.3" y="2.2" style="fill:#1C191B;" width="57.7" height="41.3"/>
		<polyline style="fill:#656565;" points="60,2.2 62.4,0.1 0,0.1 2.3,2.2 60,2.2 		"/>
		<polyline style="fill:#010001;" points="60,43.5 62.4,45.4 0,45.4 2.3,43.5 60,43.5 		"/>
		<polyline style="fill:#4A4A4B;" points="2.3,43.5 0,45.4 0,0.1 2.3,2.2 2.3,43.5 		"/>
		<polyline style="fill:#353537;" points="60,43.5 62.4,45.4 62.4,0.1 60,2.2 60,43.5 		"/>
	</g>
</g>
<g id="圖層_1">
	<g>
		<path style="fill:#FFFFFF;" d="M6.2,4.1v38.1h51.7V4.1H6.2z M55.8,40.2H8.2V6.1h47.7V40.2z"/>
		<g>
			<polygon style="fill:#FFFFFF;" points="20.4,19.9 21.3,21.2 23.1,20.2 23.1,28.4 25.1,28.4 25.1,23.2 25.1,18 23.6,18 			"/>
			<path style="fill:#FFFFFF;" d="M31.8,17.8c-1.1,0-1.9,0.4-2.5,1.3c-0.6,0.9-1,2.3-1,4c0,1.7,0.3,3.1,1,4c0.6,0.9,1.5,1.4,2.5,1.4
				c1.1,0,1.9-0.5,2.5-1.4c0.6-1,1-2.3,1-4c0-1.7-0.3-3.1-1-4C33.7,18.3,32.9,17.8,31.8,17.8z M31.8,27c-0.5,0-0.9-0.3-1.1-0.8
				c-0.3-0.6-0.4-1.6-0.4-3c0-2.5,0.5-3.7,1.6-3.7c1,0,1.6,1.2,1.6,3.7C33.4,25.7,32.9,27,31.8,27z"/>
			<path style="fill:#FFFFFF;" d="M42.6,19.1c-0.6-0.9-1.5-1.3-2.5-1.3c-1.1,0-1.9,0.4-2.5,1.3c-0.6,0.9-1,2.3-1,4
				c0,1.7,0.3,3.1,1,4c0.6,0.9,1.5,1.4,2.5,1.4c1.1,0,1.9-0.5,2.5-1.4c0.6-1,1-2.3,1-4C43.6,21.4,43.2,20.1,42.6,19.1z M40.1,27
				c-0.5,0-0.9-0.3-1.1-0.8c-0.3-0.6-0.4-1.6-0.4-3c0-2.5,0.5-3.7,1.6-3.7c1,0,1.6,1.2,1.6,3.7C41.6,25.7,41.1,27,40.1,27z"/>
		</g>
	</g>
</g>
</svg>
