<?xml version="1.0" encoding="utf-8"?>
<!-- Generator: Adobe Illustrator 22.0.0, SVG Export Plug-In . SVG Version: 6.00 Build 0)  -->
<svg version="1.1" xmlns="http://www.w3.org/2000/svg" xmlns:xlink="http://www.w3.org/1999/xlink" x="0px" y="0px"
	 viewBox="0 0 62.4 45.4" style="enable-background:new 0 0 62.4 45.4;" xml:space="preserve">
<g id="圖層_2">
	<g>
		<rect x="2.3" y="2.2" style="fill:#1C191B;" width="57.7" height="41.3"/>
		<polyline style="fill:#656565;" points="60,2.2 62.4,0.1 0,0.1 2.3,2.2 60,2.2 		"/>
		<polyline style="fill:#010001;" points="60,43.5 62.4,45.4 0,45.4 2.3,43.5 60,43.5 		"/>
		<polyline style="fill:#4A4A4B;" points="2.3,43.5 0,45.4 0,0.1 2.3,2.2 2.3,43.5 		"/>
		<polyline style="fill:#353537;" points="60,43.5 62.4,45.4 62.4,0.1 60,2.2 60,43.5 		"/>
	</g>
</g>
<g id="圖層_1">
	<g>
		<g>
			<path style="fill:#FFFFFF;" d="M57,41.8H5.3V3.7H57V41.8z M7.3,39.8H55V5.7H7.3V39.8z"/>
		</g>
		<g>
			<g>
				<path style="fill:#FFFFFF;" d="M31.2,26.5c-0.5,0-0.8,0-0.8-0.1c0-0.4,0.1-0.9,0.1-1.5v-1.5H29c-0.4,0-0.9,0-1.4,0.1
					c0,0,0-0.3,0-0.8s0-0.8,0-0.8C28,22,28.5,22,29,22h1.4v-1.5c0-0.6,0-1.1-0.1-1.5c0,0,0.3-0.1,0.8-0.1c0.5,0,0.8,0,0.8,0.1
					c0,0.4-0.1,0.9-0.1,1.5V22h1.4c0.4,0,0.9,0,1.4-0.1c0,0,0,0.3,0,0.8s0,0.8,0,0.8c-0.4,0-0.9-0.1-1.4-0.1h-1.4V25v0.7
					c0,0.3,0,0.6,0,0.7C32,26.5,31.7,26.5,31.2,26.5z"/>
			</g>
		</g>
	</g>
</g>
</svg>
