<?xml version="1.0" encoding="utf-8"?>
<!-- Generator: Adobe Illustrator 22.0.0, SVG Export Plug-In . SVG Version: 6.00 Build 0)  -->
<svg version="1.1" xmlns="http://www.w3.org/2000/svg" xmlns:xlink="http://www.w3.org/1999/xlink" x="0px" y="0px"
	 viewBox="0 0 62.4 45.4" style="enable-background:new 0 0 62.4 45.4;" xml:space="preserve">
<g id="圖層_2">
	<g>
		<rect x="2.3" y="2.2" style="fill:#1C191B;" width="57.7" height="41.3"/>
		<polyline style="fill:#656565;" points="60,2.2 62.4,0 0,0 2.3,2.2 60,2.2 		"/>
		<polyline style="fill:#010001;" points="60,43.4 62.4,45.4 0,45.4 2.3,43.4 60,43.4 		"/>
		<polyline style="fill:#4A4A4B;" points="2.3,43.4 0,45.4 0,0 2.3,2.2 2.3,43.4 		"/>
		<polyline style="fill:#353537;" points="60,43.4 62.4,45.4 62.4,0 60,2.2 60,43.4 		"/>
	</g>
</g>
<g id="圖層_1">
	<g>
		<path style="fill:#FFFFFF;" d="M22.5,19.7c0.5-0.1,1.5-0.2,3.2-0.2l1.2,0v1.8h7v-1.6l5.1,0.1v5.8h6V10.1h-6v5.5l-5.1-0.1v-1.7h2.7
			v-7H24.2v7h2.7v1.6l-1.2,0c-4.5,0-5.9,0.8-6.5,1.5c-0.5,0.5-0.7,1.1-0.7,1.6v6.3h4L22.5,19.7z"/>
		<rect x="19.6" y="25.7" style="fill:#FFFFFF;" width="2" height="2.6"/>
		
			<rect x="15.6" y="25.7" transform="matrix(0.7071 -0.7071 0.7071 0.7071 -13.9036 19.9248)" style="fill:#FFFFFF;" width="2.9" height="2"/>
		
			<rect x="23" y="25.3" transform="matrix(0.7071 -0.7071 0.7071 0.7071 -11.7913 24.7538)" style="fill:#FFFFFF;" width="2" height="2.5"/>
		<path style="fill:#FFFFFF;" d="M5.3,3.6v38.1H57V3.6H5.3z M55,39.7H7.3V5.6H55V39.7z"/>
		<path style="fill:#FFFFFF;" d="M22,34.9c0.1-0.2,0.2-0.6,0.3-1.2c-0.1,0-0.3-0.1-0.4-0.2c-0.2-0.1-0.3-0.2-0.4-0.2
			c0,0.4,0,0.7,0,0.8c0,0.1-0.1,0.2-0.1,0.2h-0.4c-0.1,0-0.1,0-0.1-0.1c0,0,0-0.1,0-0.3v-1.6l1.7-0.3l-0.1-0.9l-1.5,0.3v-1
			c0-0.3,0.1-0.5,0.2-0.8c0,0-0.1-0.1-0.4-0.1c-0.2,0-0.5,0-0.7,0c0,0.1,0,0.3,0,0.5v0.5v1l-0.9,0.2l0.1,0.9l0.7-0.1v1.5
			c0,0.5,0.1,0.8,0.2,1c0.1,0.2,0.4,0.3,0.7,0.3h0.6C21.6,35.2,21.8,35.1,22,34.9z"/>
		<path style="fill:#FFFFFF;" d="M22.9,29.9c-0.4,0-0.8,0-1.1,0c0,0,0,0.2,0,0.5c0,0.3,0,0.5,0,0.5c0.2,0,0.4,0,0.6,0H23
			c0,0.9,0,1.6-0.1,2.1c-0.1,0.7-0.3,1.3-0.5,1.8c-0.3,0.5-0.7,1-1.3,1.3c0.1,0.1,0.2,0.2,0.4,0.4c0.1,0.1,0.2,0.3,0.3,0.4
			c0.6-0.4,1.1-0.9,1.4-1.6c0.3-0.5,0.5-1.2,0.6-2c0.1-0.6,0.1-1.4,0.2-2.4h1.2c0,1.6-0.1,2.8-0.1,3.5c-0.1,0.7-0.1,1.1-0.2,1.3
			c-0.1,0.1-0.2,0.2-0.3,0.2c-0.4,0-0.7,0-1,0c0.1,0.1,0.1,0.3,0.2,0.5c0,0.2,0.1,0.3,0.1,0.5c0.5,0,0.9,0,1.1,0
			c0.2,0,0.3-0.1,0.4-0.1c0.1-0.1,0.2-0.2,0.3-0.3c0.1-0.2,0.2-0.7,0.3-1.6c0.1-0.8,0.1-2.2,0.1-4.2c0-0.2,0-0.3,0-0.5H24H22.9z"/>
		<path style="fill:#FFFFFF;" d="M29.5,30c0.1,0.2,0.3,0.5,0.4,0.8c0.2,0.4,0.3,0.6,0.3,0.8l0.8-0.4c-0.2-0.5-0.4-1-0.8-1.5L29.5,30
			z"/>
		<path style="fill:#FFFFFF;" d="M29.4,30.2c0-0.3,0.1-0.5,0.2-0.8c0,0-0.1-0.1-0.4-0.1c-0.3,0-0.5,0-0.7,0c0,0.3,0,0.7,0,1.2v1.2
			h-0.9c0.2-0.2,0.4-0.6,0.5-1c0.1-0.1,0.1-0.2,0.2-0.3c0.1,0,0.1-0.1,0.1-0.1c0-0.1-0.1-0.2-0.3-0.3c-0.2-0.1-0.4-0.2-0.6-0.2
			c-0.1,0.3-0.1,0.5-0.3,0.8c-0.1,0.3-0.3,0.5-0.4,0.7c0.1,0.1,0.3,0.2,0.6,0.4h-0.2v2.6v1.3c0,0.5,0,0.9-0.1,1.3c0,0,0.2,0,0.5,0
			c0.3,0,0.5,0,0.5,0c0-0.2,0-0.5,0-0.8v-0.8h1.6v0.6c0,0.1,0,0.1-0.1,0.1c-0.3,0-0.5,0-0.7,0c0.2,0.3,0.3,0.6,0.3,0.9
			c0.5,0,0.9-0.1,1.1-0.2c0.1-0.1,0.2-0.2,0.3-0.3c0-0.1,0.1-0.3,0.1-0.5v-4.2h-1.2V30.2z M29.8,34.3h-1.6v-0.5H29h0.8V34.3z
			 M29.8,32.5V33H29h-0.8v-0.5H29.8z"/>
		<path style="fill:#FFFFFF;" d="M31.2,33.7c0,0.5,0,0.8,0,1.1c0,0,0.2,0,0.5,0c0.3,0,0.5,0,0.5,0c-0.1-0.5-0.1-1.1-0.1-1.8v-1.8
			c0-0.3,0.1-0.5,0.2-0.8c0,0-0.1-0.1-0.4-0.1c-0.2,0-0.5,0-0.7,0c0,0.3,0,0.7,0,1.2v1.1V33.7z"/>
		<path style="fill:#FFFFFF;" d="M33,29.4c0,0.4,0.1,1,0.1,1.6v1.5v3.1c0,0.1-0.1,0.2-0.2,0.2c-0.4,0-0.8,0-1.2,0
			c0.2,0.3,0.3,0.6,0.3,1c0.8,0,1.3-0.1,1.6-0.2c0.2-0.1,0.3-0.2,0.3-0.3c0.1-0.1,0.1-0.4,0.1-0.6v-5.3c0-0.3,0.1-0.5,0.2-0.8
			c0,0-0.1-0.1-0.4-0.1C33.4,29.4,33.2,29.4,33,29.4z"/>
		<path style="fill:#FFFFFF;" d="M42.1,32l-0.6-0.2l-0.1,0h-1.2c0.1-0.1,0.1-0.3,0.2-0.6L39.7,31H41c0.5,0,0.9,0,1.3,0.1
			c0,0,0-0.2,0-0.5c0-0.3,0-0.5,0-0.5c-0.4,0-0.7,0-1.1,0H40v-0.4c0-0.1,0-0.2,0.1-0.4c0,0-0.1-0.1-0.4-0.1c-0.2,0-0.5,0-0.7,0
			c0,0.2,0,0.3,0,0.4v0.4h-2c-0.3-0.3-0.7-0.5-1.3-0.8L35.3,30c0.2,0.1,0.5,0.2,0.7,0.4c0.3,0.2,0.4,0.3,0.6,0.4l0.5-0.7V31h1
			c-0.1,0.4-0.3,0.9-0.6,1.3c-0.3,0.5-0.6,0.9-0.9,1.2c0.2,0.2,0.4,0.4,0.6,0.6c0.1-0.1,0.2-0.3,0.4-0.5v1.6V36c0,0.3,0,0.5,0,0.8
			c0,0,0.2,0,0.4,0c0.3,0,0.4,0,0.4,0c0-0.1,0-0.2,0-0.3v-0.3c0.2,0.2,0.4,0.4,0.5,0.7c0.6-0.3,1.1-0.7,1.5-1.1
			c0.4,0.5,0.9,0.8,1.4,1.1c0.2-0.3,0.4-0.6,0.6-0.8c-0.5-0.2-1-0.6-1.5-1C41.5,34.2,41.9,33.2,42.1,32z M38.1,31h0.7h0.7
			c-0.1,0.4-0.3,0.8-0.5,1.2c-0.2,0.4-0.5,0.8-0.7,1.1v-1.1c0.2-0.4,0.4-0.7,0.5-1.1L38.1,31z M38.4,36.1v-1.2v-1.2
			c0.2,0.2,0.3,0.3,0.4,0.4c0.1-0.1,0.2-0.3,0.4-0.4c0.2,0.5,0.4,0.9,0.7,1.2C39.4,35.4,38.9,35.8,38.4,36.1z M40.4,33.8l0.4-0.4
			c-0.1,0.3-0.3,0.6-0.5,0.9c-0.3-0.4-0.5-0.8-0.7-1.3c0.1-0.1,0.2-0.3,0.3-0.5h0.6h0.6c-0.1,0.3-0.2,0.5-0.3,0.8
			c-0.1-0.2-0.3-0.5-0.6-0.7L39.8,33C40.1,33.3,40.3,33.6,40.4,33.8z"/>
		<path style="fill:#FFFFFF;" d="M36.2,33.6C36,34,35.8,34.5,35.6,35c-0.1,0.4-0.3,0.7-0.5,1.2l0.8,0.5c0.3-0.6,0.5-1.2,0.7-1.8
			c0-0.1,0.1-0.2,0.2-0.3c0.1,0,0.1-0.1,0.1-0.1c0-0.1-0.1-0.2-0.2-0.4C36.6,33.9,36.4,33.8,36.2,33.6z"/>
		<path style="fill:#FFFFFF;" d="M36.7,32.2c-0.1-0.1-0.3-0.2-0.6-0.4c-0.2-0.1-0.4-0.2-0.7-0.3l-0.5,0.7c0.6,0.3,1,0.5,1.2,0.8
			L36.7,32.2z"/>
	</g>
</g>
</svg>
