<?xml version="1.0" encoding="utf-8"?>
<!-- Generator: Adobe Illustrator 22.0.0, SVG Export Plug-In . SVG Version: 6.00 Build 0)  -->
<svg version="1.1" xmlns="http://www.w3.org/2000/svg" xmlns:xlink="http://www.w3.org/1999/xlink" x="0px" y="0px"
	 viewBox="0 0 62.4 45.4" style="enable-background:new 0 0 62.4 45.4;" xml:space="preserve">
<g id="圖層_2">
	<g>
		<rect x="2.3" y="2.2" style="fill:#1C191B;" width="57.7" height="41.3"/>
		<polyline style="fill:#656565;" points="60,2.2 62.4,0 0,0 2.3,2.2 60,2.2 		"/>
		<polyline style="fill:#010001;" points="60,43.4 62.4,45.4 0,45.4 2.3,43.4 60,43.4 		"/>
		<polyline style="fill:#4A4A4B;" points="2.3,43.4 0,45.4 0,0 2.3,2.2 2.3,43.4 		"/>
		<polyline style="fill:#353537;" points="60,43.4 62.4,45.4 62.4,0 60,2.2 60,43.4 		"/>
	</g>
</g>
<g id="圖層_1">
	<g>
		<path style="fill:#FFFFFF;" d="M5.3,3.6v38.1H57V3.6H5.3z M55,39.7H7.3V5.6H55V39.7z"/>
		<path style="fill:#FFFFFF;" d="M19.2,29.9c-0.4,0-0.8,0-1.1,0c0,0,0,0.2,0,0.5c0,0.3,0,0.5,0,0.5c0.2,0,0.4,0,0.6,0h0.6
			c0,0.9,0,1.6-0.1,2.1c-0.1,0.7-0.3,1.3-0.5,1.8c-0.3,0.5-0.7,1-1.3,1.3c0.1,0.1,0.2,0.2,0.4,0.4s0.2,0.3,0.3,0.4
			c0.6-0.4,1.1-0.9,1.4-1.6c0.3-0.5,0.5-1.2,0.6-2c0.1-0.6,0.1-1.4,0.2-2.4h1.2c0,1.6-0.1,2.8-0.1,3.5c-0.1,0.7-0.1,1.1-0.2,1.3
			c-0.1,0.1-0.2,0.2-0.3,0.2c-0.4,0-0.7,0-1,0c0.1,0.1,0.1,0.3,0.2,0.5c0,0.2,0.1,0.3,0.1,0.5c0.5,0,0.9,0,1.1,0
			c0.2,0,0.3-0.1,0.4-0.1c0.1-0.1,0.2-0.2,0.3-0.3c0.1-0.2,0.2-0.7,0.3-1.6c0.1-0.8,0.1-2.2,0.1-4.2c0-0.2,0-0.3,0-0.5h-2.2H19.2z"
			/>
		<path style="fill:#FFFFFF;" d="M18.3,34.9c0.1-0.2,0.2-0.6,0.3-1.2c-0.1,0-0.3-0.1-0.4-0.2c-0.2-0.1-0.3-0.2-0.4-0.2
			c0,0.4,0,0.7,0,0.8c0,0.1-0.1,0.2-0.1,0.2h-0.4c-0.1,0-0.1,0-0.1-0.1c0,0,0-0.1,0-0.3v-1.6l1.7-0.3l-0.1-0.9L17,31.4v-1
			c0-0.3,0.1-0.5,0.2-0.8c0,0-0.1-0.1-0.4-0.1c-0.2,0-0.5,0-0.7,0c0,0.1,0,0.3,0,0.5v0.5v1l-0.9,0.2l0.1,0.9l0.7-0.1v1.5
			c0,0.5,0.1,0.8,0.2,1c0.1,0.2,0.4,0.3,0.7,0.3h0.6C17.9,35.2,18.2,35.1,18.3,34.9z"/>
		<path style="fill:#FFFFFF;" d="M27.5,33.7c0,0.5,0,0.8,0,1.1c0,0,0.2,0,0.5,0c0.3,0,0.5,0,0.5,0c-0.1-0.5-0.1-1.1-0.1-1.8v-1.8
			c0-0.3,0.1-0.5,0.2-0.8c0,0-0.1-0.1-0.4-0.1c-0.2,0-0.5,0-0.7,0c0,0.3,0,0.7,0,1.2v1.1V33.7z"/>
		<path style="fill:#FFFFFF;" d="M25.7,30.2c0-0.3,0.1-0.5,0.2-0.8c0,0-0.1-0.1-0.4-0.1c-0.3,0-0.5,0-0.7,0c0,0.3,0,0.7,0,1.2v1.2
			h-0.9c0.2-0.2,0.4-0.6,0.5-1c0.1-0.1,0.1-0.2,0.2-0.3c0.1,0,0.1-0.1,0.1-0.1c0-0.1-0.1-0.2-0.3-0.3c-0.2-0.1-0.4-0.2-0.6-0.2
			c-0.1,0.3-0.1,0.5-0.3,0.8c-0.1,0.3-0.3,0.5-0.4,0.7c0.1,0.1,0.3,0.2,0.6,0.4h-0.2v2.6v1.3c0,0.5,0,0.9-0.1,1.3c0,0,0.2,0,0.5,0
			c0.3,0,0.5,0,0.5,0c0-0.2,0-0.5,0-0.8v-0.8h1.6v0.6c0,0.1,0,0.1-0.1,0.1c-0.3,0-0.5,0-0.7,0c0.2,0.3,0.3,0.6,0.3,0.9
			c0.5,0,0.9-0.1,1.1-0.2c0.1-0.1,0.2-0.2,0.3-0.3c0-0.1,0.1-0.3,0.1-0.5v-4.2h-1.2V30.2z M26.1,34.3h-1.6v-0.5h0.8h0.8V34.3z
			 M26.1,32.5V33h-0.8h-0.8v-0.5H26.1z"/>
		<path style="fill:#FFFFFF;" d="M29.3,29.4c0,0.4,0.1,1,0.1,1.6v1.5v3.1c0,0.1-0.1,0.2-0.2,0.2c-0.4,0-0.8,0-1.2,0
			c0.2,0.3,0.3,0.6,0.3,1c0.8,0,1.3-0.1,1.6-0.2c0.2-0.1,0.3-0.2,0.3-0.3c0.1-0.1,0.1-0.4,0.1-0.6v-5.3c0-0.3,0.1-0.5,0.2-0.8
			c0,0-0.1-0.1-0.4-0.1C29.8,29.4,29.5,29.4,29.3,29.4z"/>
		<path style="fill:#FFFFFF;" d="M25.8,30c0.1,0.2,0.3,0.5,0.4,0.8c0.2,0.4,0.3,0.6,0.3,0.8l0.8-0.4c-0.2-0.5-0.4-1-0.8-1.5L25.8,30
			z"/>
		<path style="fill:#FFFFFF;" d="M33.2,30.9l0.6-0.8c-0.1-0.1-0.4-0.3-0.7-0.4c-0.3-0.1-0.5-0.3-0.8-0.4L31.7,30
			c0.3,0.1,0.5,0.3,0.8,0.4C32.8,30.6,33,30.8,33.2,30.9z"/>
		<path style="fill:#FFFFFF;" d="M38.4,31.8c0-0.4,0-0.7,0-0.9c0,0,0,0,0,0c-0.3,0-0.6,0-1,0h-1v-0.7c0-0.2,0.1-0.5,0.2-0.7
			c0,0-0.1-0.1-0.4-0.1c-0.2,0-0.5,0-0.7,0c0,0.3,0,0.5,0,0.8v0.8h-0.9c-0.4,0-0.7,0-0.9,0c0,0,0,0,0,0c0,0.3,0,0.6,0,1v1v1
			c0,0.4,0,0.7,0,1c0,0,0.2,0,0.5,0c0.3,0,0.5,0,0.5,0c0-0.1,0-0.2,0-0.2v-0.2h1v1.3c0,0.5,0,0.9-0.1,1.3c0,0,0.2,0,0.5,0
			c0.3,0,0.5,0,0.5,0c0-0.4-0.1-0.8-0.1-1.3v-1.3h1v0.2c0,0,0,0.1,0,0.1c0,0,0,0.1,0,0.1c0,0,0.2,0,0.5,0c0.3,0,0.5,0,0.5,0
			c-0.1-0.5-0.1-1.1-0.1-1.9V31.8z M35.6,33.3h-1v-0.8v-0.8h1V33.3z M37.5,33.3h-1v-0.8v-0.8h1V33.3z"/>
		<path style="fill:#FFFFFF;" d="M33,33.5c-0.3,0.5-0.5,1-0.7,1.4c-0.3,0.4-0.5,0.8-0.7,1.1l0.8,0.6c0.3-0.5,0.6-1.1,1-1.8
			c0.1-0.1,0.1-0.2,0.2-0.3c0.1,0,0.1-0.1,0.1-0.1c0-0.1,0-0.2-0.2-0.4C33.3,33.9,33.2,33.7,33,33.5z"/>
		<path style="fill:#FFFFFF;" d="M32.1,32.6c0.3,0.2,0.5,0.3,0.7,0.4l0.5-0.8c-0.3-0.3-0.8-0.5-1.5-0.8l-0.5,0.7
			C31.5,32.3,31.8,32.4,32.1,32.6z"/>
		<path style="fill:#FFFFFF;" d="M43.9,33.6c0,0.5,0,0.9,0,1.2c0,0,0.2,0,0.5,0c0.3,0,0.5,0,0.5,0c-0.1-0.5-0.1-1.2-0.1-1.9v-1.9
			c0-0.3,0.1-0.5,0.2-0.8c0,0-0.1-0.1-0.4-0.1c-0.2,0-0.5,0-0.7,0c0,0.3,0,0.7,0,1.2v1.2V33.6z"/>
		<path style="fill:#FFFFFF;" d="M43.5,32v-1.2c0-0.5,0-0.9,0-1.2c0,0,0,0,0,0c-0.3,0-0.6,0-0.9,0h-1h-0.9c-0.4,0-0.7,0-0.9,0
			c0,0-0.1,0-0.1,0c0,0.4,0.1,0.8,0.1,1.3v1.3c0,0.8,0,1.4-0.1,1.9c-0.1,0.8-0.2,1.4-0.5,1.9c0.1,0.1,0.2,0.1,0.4,0.2
			c0.1,0.1,0.3,0.2,0.3,0.3c0.3-0.7,0.5-1.6,0.6-2.9v1.1c0,0.5,0,0.8,0,1.1c0,0,0.2,0,0.4,0c0.2,0,0.4,0,0.4,0
			c0-0.4-0.1-0.8-0.1-1.2v-1.2h0.4v1.6c0,0.7,0,1.2-0.1,1.6c0,0,0.2,0,0.5,0c0.3,0,0.4,0,0.5,0c0-0.4-0.1-0.9-0.1-1.6v-1.6h0.4v1.6
			c0,0.1,0,0.1-0.1,0.1c-0.1,0-0.2,0-0.3,0c0.1,0.2,0.2,0.5,0.2,0.7c0.3,0,0.6-0.1,0.7-0.2c0.1-0.1,0.2-0.1,0.2-0.3
			c0-0.1,0-0.2,0-0.4v-2.4h-1.2V32H43.5z M41.6,32.7h-1c0-0.1,0-0.1,0-0.2s0-0.1,0-0.2V32h1V32.7z M41.6,31.2h-1v-0.6h2.1v0.6H41.6z
			"/>
		<path style="fill:#FFFFFF;" d="M45.4,29.4c0,0.4,0.1,1,0.1,1.6v1.6v3.1c0,0.1,0,0.1,0,0.1c0,0-0.1,0-0.1,0c-0.4,0-0.7,0-1,0
			c0.2,0.4,0.3,0.7,0.3,1c0.7,0,1.1-0.1,1.3-0.2c0.1-0.1,0.2-0.2,0.3-0.3c0.1-0.1,0.1-0.3,0.1-0.6v-5.3c0-0.3,0.1-0.5,0.2-0.8
			c0,0-0.1-0.1-0.4-0.1C45.8,29.4,45.6,29.4,45.4,29.4z"/>
		
			<rect x="20.5" y="20.9" transform="matrix(0.9281 -0.3723 0.3723 0.9281 -5.3835 15.465)" style="fill:#FFFFFF;" width="33.6" height="1.5"/>
		<path style="fill:#FFFFFF;" d="M15.5,17.9c0.4-0.1,1-0.1,2-0.1l0.1,0v1.5h7v-1.4l2.4,0v2.8h6v-10h-6V14l-2.4,0v-1.5h1.3v-4h-9.5v4
			h1.2v1.4l-0.1,0c-2.9,0-4.5,0.4-5.3,1.3c-0.4,0.5-0.7,1.1-0.7,1.6v4.8h4L15.5,17.9z"/>
		<rect x="12.6" y="22.1" style="fill:#FFFFFF;" width="2" height="2.7"/>
		
			<rect x="9.3" y="22.1" transform="matrix(0.7071 -0.7071 0.7071 0.7071 -13.1758 14.3304)" style="fill:#FFFFFF;" width="2.7" height="2"/>
		
			<rect x="15.3" y="21.7" transform="matrix(0.7071 -0.7071 0.7071 0.7071 -11.4686 18.2908)" style="fill:#FFFFFF;" width="2" height="2.5"/>
	</g>
</g>
</svg>
