<?xml version="1.0" encoding="utf-8"?>
<!-- Generator: Adobe Illustrator 22.0.0, SVG Export Plug-In . SVG Version: 6.00 Build 0)  -->
<svg version="1.1" xmlns="http://www.w3.org/2000/svg" xmlns:xlink="http://www.w3.org/1999/xlink" x="0px" y="0px"
	 viewBox="0 0 62.4 45.4" style="enable-background:new 0 0 62.4 45.4;" xml:space="preserve">
<g id="圖層_2">
	<g>
		<rect x="2.3" y="2.3" style="fill:#1C191B;" width="57.7" height="41.3"/>
		<polyline style="fill:#656565;" points="60,2.3 62.4,0.1 0,0.1 2.3,2.3 60,2.3 		"/>
		<polyline style="fill:#010001;" points="60,43.5 62.4,45.4 0,45.4 2.3,43.5 60,43.5 		"/>
		<polyline style="fill:#4A4A4B;" points="2.3,43.5 0,45.4 0,0.1 2.3,2.3 2.3,43.5 		"/>
		<polyline style="fill:#353537;" points="60,43.5 62.4,45.4 62.4,0.1 60,2.3 60,43.5 		"/>
	</g>
</g>
<g id="圖層_1">
	<g>
		<path style="fill:#FFFFFF;" d="M5.3,3.7v38.1H57V3.7H5.3z M55,39.8H7.3V5.7H55V39.8z"/>
		<path style="fill:#FFFFFF;" d="M17.4,22.5l4,5.3l0.5-1.2c0.7-1.7,1.6-3.1,2-3.1c0,0,0.6,0.3,1.1,3.5l0.1,0.7h3.6l0.2-0.5
			c0.9-2.5,1.6-2.6,1.7-2.6c0,0,0,0,0,0c0.5,0,1.2,1.4,1.6,2.5l0.2,0.5h4.5l0.2-0.5c1.3-3.3,2-3.2,2-3.2c0.5,0,1.2,1.5,1.6,3.1
			l0.5,2.3l3.5-8.2L44,20.8c-1.2-0.7-1.8-1.5-1.8-2.2c0-1.1,1.3-2.1,1.8-2.4l0.5-0.3l-1.9-5.2l-0.8,0.4c-0.6,0.3-0.9,0.3-1,0.2
			c-0.3-0.3-0.3-1.7,0-2.7l0.2-0.9h-7.7L33.3,8c-1.6,2.8-2.6,2.9-2.8,2.8c-0.7-0.1-1.4-1.6-1.6-2.6l-0.1-0.6H21l0.7,1.2
			c0.8,1.3,1.1,2.3,0.8,2.8c-0.4,0.6-1.8,0.7-2.5,0.6l-0.6-0.1l-1.7,4.5l0.7,0.3c0.8,0.3,2.5,1.2,2.7,2.1c0,0.1,0.1,0.5-0.4,0.9
			L17.4,22.5z M22.7,18.6c-0.3-1.4-2-2.4-2.9-2.9l0.8-2c0.9,0,2.6-0.1,3.3-1.3c0.5-0.8,0.5-1.9-0.2-3.2h3.8c0.3,1,1.1,3,2.7,3.2
			c1.3,0.2,2.7-0.8,4.1-3.2h4.9c-0.2,1-0.2,2.6,0.7,3.3c0.5,0.4,1.1,0.5,1.8,0.3l0.9,2.6c-0.7,0.6-2,1.8-2,3.3c0,1.1,0.7,2.2,2,3.1
			l-1.3,3c-0.5-1.1-1.2-2.2-2.3-2.3c-1.2-0.1-2.3,1.1-3.4,3.7h-2.4c-0.4-1.1-1.3-3-2.8-3.1c-1.4-0.1-2.3,1.6-2.9,3.1h-1.3
			c-0.4-2.7-1.1-4-2.3-4.2c-1.3-0.2-2.4,1.5-3.1,2.8l-1.5-2l2.3-1.8C22.7,20.1,22.8,19.2,22.7,18.6z"/>
		<path style="fill:#FFFFFF;" d="M30.6,22.3l-0.2-1.5c-1.6-0.3-2.8-1.6-2.8-3.2c0-1.8,1.5-3.3,3.4-3.3s3.4,1.5,3.4,3.3
			c0,0.6-0.1,1.1-0.4,1.5l-1.2-1.2l-0.8,2.4l-0.8,2.4l2.5-0.5l2.5-0.5l-1.3-1.3c0.5-0.8,0.8-1.7,0.8-2.6c0-2.6-2.2-4.8-4.9-4.8
			s-4.9,2.1-4.9,4.8C26.1,20,28.1,22.1,30.6,22.3z"/>
		<path style="fill:#FFFFFF;" d="M15.5,36.6c0.1,0.1,0.3,0.2,0.4,0.4c0.1,0.1,0.2,0.3,0.3,0.4c1.1-0.6,1.9-1.5,2.3-2.6
			c0.3-0.8,0.5-1.8,0.6-3.2h2.2c0,1.5-0.1,2.6-0.2,3.2c-0.1,0.7-0.2,1.1-0.3,1.2c-0.1,0.1-0.2,0.1-0.4,0.1c0,0,0,0-0.1,0
			c-0.5,0-0.8,0-1.2,0c0.1,0.1,0.2,0.3,0.2,0.5c0.1,0.2,0.1,0.4,0.1,0.5c0.6,0,1.1,0,1.3,0c0.2,0,0.3-0.1,0.5-0.1
			c0.1-0.1,0.3-0.2,0.4-0.4c0.2-0.2,0.3-0.7,0.4-1.6c0.1-0.7,0.1-2.1,0.2-4c0-0.2,0-0.3,0-0.5h-3.2h-1.6c-0.7,0-1.2,0-1.6-0.1
			c0,0,0,0.2,0,0.6s0,0.5,0,0.5c0.4,0,0.7,0,1.1,0h1.1c0,1.2-0.2,2.1-0.5,2.7C17.2,35.3,16.5,36.1,15.5,36.6z"/>
		<path style="fill:#FFFFFF;" d="M29.5,35.7h-1.3v-0.4h1c0.4,0,0.7,0,1,0c0,0,0.1,0,0.1,0c0-0.4-0.1-0.8-0.1-1.2v-1.3h-1.9v-0.4h1.1
			c0.5,0,0.9,0,1.1,0c0,0,0-0.2,0-0.4c0-0.2,0-0.4,0-0.4c-0.4,0-0.8,0-1.1,0h-1.1v-0.4h1.2c0.5,0,0.9,0,1.2,0.1c0,0,0-0.2,0-0.5
			s0-0.4,0-0.5c-0.3,0-0.5,0-0.7,0h-0.7h-1.4v-0.3c0-0.1,0-0.2,0.1-0.3c0,0-0.1-0.1-0.4-0.1c-0.2,0-0.5,0-0.7,0c0,0.1,0,0.3,0,0.3
			v0.3h-1.4c-0.5,0-1,0-1.4-0.1c0,0-0.1,0-0.1,0.1c0,0.4,0.1,0.8,0.1,1.3v1.3c0,0.8,0,1.4-0.1,1.9c-0.1,0.8-0.3,1.4-0.6,1.8
			c0.1,0,0.2,0.1,0.4,0.2s0.3,0.2,0.4,0.3c0.6-0.9,0.8-2.3,0.8-4.3v-1.8h2.3v0.4h-1c-0.4,0-0.8,0-1,0c0,0,0,0.2,0,0.4
			c0,0.2,0,0.4,0,0.4c0.3,0,0.7,0,1,0h1v0.4h-0.9c-0.4,0-0.7,0-0.9,0c0,0-0.1,0-0.1,0c0,0.4,0.1,0.8,0.1,1.2v1.3h1.8v0.4h-1.2
			c-0.5,0-0.9,0-1.2,0c0,0,0,0.2,0,0.4c0,0.3,0,0.4,0,0.4c0.4,0,0.8,0,1.2,0h1.2v0.4c0,0.2,0,0.3,0,0.4c0,0,0.2,0,0.5,0
			c0.3,0,0.5,0,0.5,0c0-0.1,0-0.2,0-0.4v-0.4h1.3c0.5,0,0.9,0,1.3,0.1c0,0,0-0.2,0-0.4s0-0.4,0-0.4C30.3,35.7,29.9,35.7,29.5,35.7z
			 M28.3,33.4h1.1v0.4h-0.5h-0.5V33.4z M28.3,34.4h1.1v0.4h-0.5h-0.5V34.4z M27.4,34.8h-1v-0.4h0.5h0.5V34.8z M27.4,33.8h-1v-0.4
			h0.5h0.5V33.8z"/>
		<path style="fill:#FFFFFF;" d="M37.3,36.1h-1.4V34H37c0.5,0,0.8,0,1.1,0c0,0,0-0.2,0-0.5s0-0.5,0-0.5c-0.4,0-0.7,0-1.1,0h-1.1
			v-1.8h1.3c0.5,0,0.9,0,1.3,0.1c0,0,0-0.2,0-0.5c0-0.3,0-0.5,0-0.5c-0.7,0.1-1.4,0.1-2.1,0.1h-2.1c-1,0-1.8,0-2.4-0.1
			c0,0,0,0.2,0,0.6c0,0.3,0,0.5,0,0.5c0.5,0,1-0.1,1.5-0.1h1.5v4.8h-1.4v-2.7c0-0.3,0.1-0.5,0.2-0.8c0,0-0.2-0.1-0.5-0.1
			c-0.3,0-0.5,0-0.8,0c0,0.5,0.1,1.1,0.1,1.8v1.8h-0.5c-0.2,0-0.4,0-0.5,0c0,0,0,0.2,0,0.5c0,0.3,0,0.5,0,0.5c0.6,0,1.2-0.1,1.8-0.1
			h1.8H37c0.8,0,1.3,0,1.8,0.1c0,0,0-0.2,0-0.5s0-0.5,0-0.5C38.2,36.1,37.8,36.1,37.3,36.1z"/>
		<path style="fill:#FFFFFF;" d="M46.4,34.9h-0.4v-0.1c0,0,0-0.1,0.1-0.1c0,0-0.1-0.1-0.4-0.1c-0.2,0-0.4,0-0.6,0c0,0,0,0.1,0,0.1
			c0,0,0,0.1,0,0.1v0.2h-2.3v0.3h-1.2v-0.5h1v-1.4v-1.4h-1v-0.4h0.6c0.2,0,0.4,0,0.6,0c0,0,0-0.2,0-0.4c0-0.3,0-0.4,0-0.4
			c-0.2,0-0.4,0-0.6,0h-0.6v-0.3c0-0.1,0-0.2,0.1-0.3c0,0-0.1-0.1-0.4-0.1c-0.2,0-0.4,0-0.6,0c0,0.2,0,0.3,0,0.4v0.4h-0.6
			c-0.2,0-0.4,0-0.6,0c0,0,0,0.2,0,0.4c0,0.3,0,0.4,0,0.4c0.2,0,0.4,0,0.6,0h0.6v0.4h-1v2.9h1v0.5h-0.6c-0.2,0-0.4,0-0.6,0
			c0,0,0,0.2,0,0.4c0,0.3,0,0.4,0,0.4c0.3,0,0.5,0,0.6,0h0.6v0.6c0,0.2,0,0.4,0,0.6c0,0,0.2,0,0.4,0c0.3,0,0.4,0,0.4,0
			c0-0.2,0-0.4,0-0.6v-0.6h1.2v-0.5h0.7l-0.4,0.2c0.3,0.3,0.5,0.6,0.7,1l0.3-0.2c0.1,0.3,0.2,0.6,0.2,0.7c0.6,0,1,0,1.2-0.1
			c0.1-0.1,0.2-0.1,0.3-0.3c0-0.1,0.1-0.3,0.1-0.5v-0.9h0.4c0.2,0,0.3,0,0.4,0c0,0,0-0.1,0-0.4s0-0.4,0-0.4
			C46.7,34.9,46.5,34.9,46.4,34.9z M40.9,33.9v0.2h-0.4v-0.5h0.4V33.9z M40.9,32.8V33h-0.4v-0.5h0.4V32.8z M41.5,32.6H42V33h-0.2
			h-0.2V32.6z M41.5,34.1v-0.5H42v0.5h-0.2H41.5z M45.1,36.5c0,0.1,0,0.1-0.1,0.1c-0.3,0-0.6,0-0.8,0l0.3-0.2
			c-0.1-0.3-0.3-0.5-0.6-0.8h0.6h0.6V36.5z"/>
		<path style="fill:#FFFFFF;" d="M44.4,30.2v0.3h-0.8c-0.3,0-0.5,0-0.7,0c0,0,0,0.1,0,0.4s0,0.4,0,0.4c0.3,0,0.6,0,0.7,0h0.8v0.3H43
			v2.1h1.4v0.4c-0.6,0-1.1,0-1.6,0l0,0.7c1,0,2,0,3.2-0.1c0,0.1,0.1,0.2,0.1,0.3l0.7-0.3c-0.2-0.3-0.4-0.6-0.6-0.9h0.3v-1.1v-1.1
			h-1.4v-0.3h0.8c0.3,0,0.5,0,0.8,0c0,0,0-0.1,0-0.4s0-0.4,0-0.4c-0.3,0-0.6,0-0.8,0h-0.8v-0.2c0-0.1,0-0.1,0.1-0.2
			c0,0-0.1-0.1-0.4-0.1c-0.2,0-0.4,0-0.6,0C44.4,30,44.4,30.1,44.4,30.2z M44.4,33h-0.6v-0.3H44h0.3V33z M44.4,32.2h-0.6v-0.3H44
			h0.3V32.2z M45.1,31.9h0.7v0.3h-0.3h-0.3V31.9z M45.1,32.7h0.7V33h-0.3h-0.3V32.7z M45.1,33.6h0.5l-0.2,0.1c0,0,0.1,0.1,0.1,0.1
			c0,0,0.1,0.1,0.1,0.1l-0.5,0V33.6z"/>
	</g>
</g>
</svg>
