<?xml version="1.0" encoding="utf-8"?>
<!-- Generator: Adobe Illustrator 22.0.0, SVG Export Plug-In . SVG Version: 6.00 Build 0)  -->
<svg version="1.1" xmlns="http://www.w3.org/2000/svg" xmlns:xlink="http://www.w3.org/1999/xlink" x="0px" y="0px"
	 viewBox="0 0 62.4 45.4" style="enable-background:new 0 0 62.4 45.4;" xml:space="preserve">
<g id="圖層_2">
	<g>
		<rect x="2.3" y="2.2" style="fill:#1C191B;" width="57.7" height="41.3"/>
		<polyline style="fill:#656565;" points="60,2.2 62.4,0 0,0 2.3,2.2 60,2.2 		"/>
		<polyline style="fill:#010001;" points="60,43.4 62.4,45.4 0,45.4 2.3,43.4 60,43.4 		"/>
		<polyline style="fill:#4A4A4B;" points="2.3,43.4 0,45.4 0,0 2.3,2.2 2.3,43.4 		"/>
		<polyline style="fill:#353537;" points="60,43.4 62.4,45.4 62.4,0 60,2.2 60,43.4 		"/>
	</g>
</g>
<g id="圖層_1">
	<g>
		<path style="fill:#FFFFFF;" d="M5.3,3.6v38.1H57V3.6H5.3z M55,39.7H7.3V5.6H55V39.7z"/>
		<path style="fill:#FFFFFF;" d="M17.2,22.3l4,5.3l0.5-1.2c0.7-1.7,1.6-3.1,2-3.1c0,0,0.6,0.3,1.1,3.5l0.1,0.7h3.6l0.2-0.5
			c0.9-2.5,1.6-2.6,1.7-2.6c0,0,0,0,0,0c0.5,0,1.2,1.4,1.6,2.5l0.2,0.5h4.5l0.2-0.5c1.3-3.3,2-3.2,2-3.2c0.5,0,1.2,1.5,1.6,3.1
			l0.5,2.3l3.5-8.2l-0.6-0.3c-1.2-0.7-1.8-1.5-1.8-2.2c0-1.1,1.3-2.1,1.8-2.4l0.5-0.3l-1.9-5.2l-0.8,0.4c-0.6,0.3-0.9,0.3-1,0.2
			c-0.3-0.3-0.3-1.7,0-2.7l0.2-0.9h-7.7L33,7.8c-1.6,2.8-2.6,2.9-2.8,2.8C29.5,10.5,28.9,9,28.6,8l-0.1-0.6h-7.7l0.7,1.2
			c0.8,1.3,1.1,2.3,0.8,2.8C22,12,20.5,12,19.9,11.9l-0.6-0.1l-1.7,4.5l0.7,0.3c0.8,0.3,2.5,1.2,2.7,2.1c0,0.1,0.1,0.5-0.4,0.9
			L17.2,22.3z M22.5,18.4c-0.3-1.4-2-2.4-2.9-2.9l0.8-2c0.9,0,2.6-0.1,3.3-1.3c0.5-0.8,0.5-1.9-0.2-3.2h3.8c0.3,1,1.1,3,2.7,3.2
			c1.3,0.2,2.7-0.8,4.1-3.2H39c-0.2,1-0.2,2.6,0.7,3.3c0.5,0.4,1.1,0.5,1.8,0.3l0.9,2.6c-0.7,0.6-2,1.8-2,3.3c0,1.1,0.7,2.2,2,3.1
			l-1.3,3c-0.5-1.1-1.2-2.2-2.3-2.3c-1.2-0.1-2.3,1.1-3.4,3.7h-2.4c-0.4-1.1-1.3-3-2.8-3.1c-1.4-0.1-2.3,1.6-2.9,3.1h-1.3
			c-0.4-2.7-1.1-4-2.3-4.2c-1.3-0.2-2.4,1.5-3.1,2.8l-1.5-2l2.3-1.8C22.5,19.8,22.6,19,22.5,18.4z"/>
		<path style="fill:#FFFFFF;" d="M30.4,22.1l-0.2-1.5c-1.6-0.3-2.8-1.6-2.8-3.2c0-1.8,1.5-3.3,3.4-3.3s3.4,1.5,3.4,3.3
			c0,0.6-0.1,1.1-0.4,1.5l-1.2-1.2L31.9,20l-0.8,2.4l2.5-0.5l2.5-0.5L34.9,20c0.5-0.8,0.8-1.7,0.8-2.6c0-2.6-2.2-4.8-4.9-4.8
			s-4.9,2.1-4.9,4.8C25.9,19.8,27.9,21.8,30.4,22.1z"/>
		<path style="fill:#FFFFFF;" d="M15.5,36.5c0.1,0.1,0.3,0.2,0.4,0.4c0.1,0.1,0.2,0.3,0.3,0.4c1.1-0.6,1.9-1.5,2.3-2.6
			c0.3-0.8,0.5-1.8,0.6-3.2h2.2c0,1.5-0.1,2.6-0.2,3.2c-0.1,0.7-0.2,1.1-0.3,1.2c-0.1,0.1-0.2,0.1-0.4,0.1c0,0,0,0-0.1,0
			c-0.5,0-0.8,0-1.2,0c0.1,0.1,0.2,0.3,0.2,0.5c0.1,0.2,0.1,0.4,0.1,0.5c0.6,0,1.1,0,1.3,0c0.2,0,0.3-0.1,0.5-0.1
			c0.1-0.1,0.3-0.2,0.4-0.4c0.2-0.2,0.3-0.7,0.4-1.6c0.1-0.7,0.1-2.1,0.2-4c0-0.2,0-0.3,0-0.5h-3.2h-1.6c-0.7,0-1.2,0-1.6-0.1
			c0,0,0,0.2,0,0.6s0,0.5,0,0.5c0.4,0,0.7,0,1.1,0h1.1c0,1.2-0.2,2.1-0.5,2.7C17.2,35.3,16.5,36,15.5,36.5z"/>
		<path style="fill:#FFFFFF;" d="M29.5,35.6h-1.3v-0.4h1c0.4,0,0.7,0,1,0c0,0,0.1,0,0.1,0c0-0.4-0.1-0.8-0.1-1.2v-1.3h-1.9v-0.4h1.1
			c0.5,0,0.9,0,1.1,0c0,0,0-0.2,0-0.4s0-0.4,0-0.4c-0.4,0-0.8,0-1.1,0h-1.1v-0.4h1.2c0.5,0,0.9,0,1.2,0.1c0,0,0-0.2,0-0.5
			s0-0.4,0-0.5c-0.3,0-0.5,0-0.7,0h-0.7h-1.4v-0.3c0-0.1,0-0.2,0.1-0.3c0,0-0.1-0.1-0.4-0.1c-0.2,0-0.5,0-0.7,0c0,0.1,0,0.3,0,0.3
			v0.3h-1.4c-0.5,0-1,0-1.4-0.1c0,0-0.1,0-0.1,0.1c0,0.4,0.1,0.8,0.1,1.3V33c0,0.8,0,1.4-0.1,1.9c-0.1,0.8-0.3,1.4-0.6,1.8
			c0.1,0,0.2,0.1,0.4,0.2s0.3,0.2,0.4,0.3C24.7,36.4,25,35,25,33v-1.8h2.3v0.4h-1c-0.4,0-0.8,0-1,0c0,0,0,0.2,0,0.4s0,0.4,0,0.4
			c0.3,0,0.7,0,1,0h1v0.4h-0.9c-0.4,0-0.7,0-0.9,0c0,0-0.1,0-0.1,0c0,0.4,0.1,0.8,0.1,1.2v1.3h1.8v0.4h-1.2c-0.5,0-0.9,0-1.2,0
			c0,0,0,0.2,0,0.4c0,0.3,0,0.4,0,0.4c0.4,0,0.8,0,1.2,0h1.2v0.4c0,0.2,0,0.3,0,0.4c0,0,0.2,0,0.5,0c0.3,0,0.5,0,0.5,0
			c0-0.1,0-0.2,0-0.4v-0.4h1.3c0.5,0,0.9,0,1.3,0.1c0,0,0-0.2,0-0.4s0-0.4,0-0.4C30.3,35.6,29.9,35.6,29.5,35.6z M28.3,33.4h1.1v0.4
			h-0.5h-0.5V33.4z M28.3,34.3h1.1v0.4h-0.5h-0.5V34.3z M27.4,34.7h-1v-0.4h0.5h0.5V34.7z M27.4,33.7h-1v-0.4h0.5h0.5V33.7z"/>
		<path style="fill:#FFFFFF;" d="M38.1,32.5l-0.7-0.3l-0.2,0h-3.8v-1.1H36c1,0,1.8,0,2.4,0.1c0,0,0-0.2,0-0.6s0-0.5,0-0.5
			c-0.5,0-1,0.1-1.5,0.1h-1.5H34c-0.6,0-1.1,0-1.5-0.1c0,0,0,0,0,0.1c0,0.3,0,0.6,0,1.1v1.1c0,0.9,0,1.6-0.1,2.2
			c-0.1,0.9-0.4,1.6-0.8,2.1c0.1,0.1,0.3,0.1,0.4,0.3c0.2,0.1,0.3,0.2,0.4,0.3c0.6-0.9,1-2.3,1.1-4.1h0.3c0.3,0.9,0.8,1.7,1.3,2.3
			c-0.6,0.4-1.2,0.7-2,0.9c0.2,0.2,0.4,0.5,0.5,0.9c0.9-0.3,1.6-0.6,2.2-1.1c0.7,0.5,1.4,0.9,2.4,1.1c0.2-0.4,0.4-0.7,0.6-0.9
			c-0.9-0.2-1.6-0.5-2.2-0.9C37.3,34.7,37.8,33.7,38.1,32.5z M34.7,33.2h1.1h1.1c-0.2,0.6-0.6,1.2-1,1.7
			C35.3,34.4,35,33.9,34.7,33.2z"/>
		<path style="fill:#FFFFFF;" d="M46.4,34.8h-0.4v-0.1c0,0,0-0.1,0.1-0.1c0,0-0.1-0.1-0.4-0.1c-0.2,0-0.4,0-0.6,0c0,0,0,0.1,0,0.1
			c0,0,0,0.1,0,0.1v0.2h-2.3v0.3h-1.2v-0.5h1v-1.4v-1.4h-1v-0.4h0.6c0.2,0,0.4,0,0.6,0c0,0,0-0.2,0-0.4c0-0.3,0-0.4,0-0.4
			c-0.2,0-0.4,0-0.6,0h-0.6v-0.3c0-0.1,0-0.2,0.1-0.3c0,0-0.1-0.1-0.4-0.1c-0.2,0-0.4,0-0.6,0c0,0.2,0,0.3,0,0.4v0.4h-0.6
			c-0.2,0-0.4,0-0.6,0c0,0,0,0.2,0,0.4c0,0.3,0,0.4,0,0.4c0.2,0,0.4,0,0.6,0h0.6v0.4h-1v2.9h1v0.5h-0.6c-0.2,0-0.4,0-0.6,0
			c0,0,0,0.2,0,0.4c0,0.3,0,0.4,0,0.4c0.3,0,0.5,0,0.6,0h0.6v0.6c0,0.2,0,0.4,0,0.6c0,0,0.2,0,0.4,0c0.3,0,0.4,0,0.4,0
			c0-0.2,0-0.4,0-0.6V36h1.2v-0.5h0.7l-0.4,0.2c0.3,0.3,0.5,0.6,0.7,1l0.3-0.2c0.1,0.3,0.2,0.6,0.2,0.7c0.6,0,1,0,1.2-0.1
			c0.1-0.1,0.2-0.1,0.3-0.3c0-0.1,0.1-0.3,0.1-0.5v-0.9h0.4c0.2,0,0.3,0,0.4,0c0,0,0-0.1,0-0.4s0-0.4,0-0.4
			C46.7,34.8,46.5,34.8,46.4,34.8z M40.9,33.8V34h-0.4v-0.5h0.4V33.8z M40.9,32.7v0.2h-0.4v-0.5h0.4V32.7z M41.5,32.5H42v0.5h-0.2
			h-0.2V32.5z M41.5,34v-0.5H42V34h-0.2H41.5z M45.1,36.4c0,0.1,0,0.1-0.1,0.1c-0.3,0-0.6,0-0.8,0l0.3-0.2c-0.1-0.3-0.3-0.5-0.6-0.8
			h0.6h0.6V36.4z"/>
		<path style="fill:#FFFFFF;" d="M44.4,30.3h-0.8c-0.3,0-0.5,0-0.7,0c0,0,0,0.1,0,0.4s0,0.4,0,0.4c0.3,0,0.6,0,0.7,0h0.8v0.3H43v2.1
			h1.4v0.4c-0.6,0-1.1,0-1.6,0l0,0.7c1,0,2,0,3.2-0.1c0,0.1,0.1,0.2,0.1,0.3l0.7-0.3c-0.2-0.3-0.4-0.6-0.6-0.9h0.3v-1.1v-1.1h-1.4
			V31h0.8c0.3,0,0.5,0,0.8,0c0,0,0-0.1,0-0.4s0-0.4,0-0.4c-0.3,0-0.6,0-0.8,0h-0.8v-0.2c0-0.1,0-0.1,0.1-0.2c0,0-0.1-0.1-0.4-0.1
			c-0.2,0-0.4,0-0.6,0c0,0.1,0,0.2,0,0.3V30.3z M44.4,33h-0.6v-0.3H44h0.3V33z M44.4,32.2h-0.6v-0.3H44h0.3V32.2z M45.1,31.8h0.7
			v0.3h-0.3h-0.3V31.8z M45.1,32.6h0.7V33h-0.3h-0.3V32.6z M45.1,33.5h0.5l-0.2,0.1c0,0,0.1,0.1,0.1,0.1c0,0,0.1,0.1,0.1,0.1l-0.5,0
			V33.5z"/>
	</g>
</g>
</svg>
