<?xml version="1.0" encoding="utf-8"?>
<!-- Generator: Adobe Illustrator 22.0.0, SVG Export Plug-In . SVG Version: 6.00 Build 0)  -->
<svg version="1.1" xmlns="http://www.w3.org/2000/svg" xmlns:xlink="http://www.w3.org/1999/xlink" x="0px" y="0px"
	 viewBox="0 0 62.4 45.4" style="enable-background:new 0 0 62.4 45.4;" xml:space="preserve">
<g id="圖層_2">
	<g>
		<rect x="2.3" y="2.2" style="fill:#1C191B;" width="57.7" height="41.3"/>
		<polyline style="fill:#656565;" points="60,2.2 62.4,0.1 0,0.1 2.3,2.2 60,2.2 		"/>
		<polyline style="fill:#010001;" points="60,43.5 62.4,45.4 0,45.4 2.3,43.5 60,43.5 		"/>
		<polyline style="fill:#4A4A4B;" points="2.3,43.5 0,45.4 0,0.1 2.3,2.2 2.3,43.5 		"/>
		<polyline style="fill:#353537;" points="60,43.5 62.4,45.4 62.4,0.1 60,2.2 60,43.5 		"/>
	</g>
</g>
<g id="圖層_1">
	<g>
		<g>
			<path style="fill:#FFFFFF;" d="M57,41.8H5.3V3.7H57V41.8z M7.3,39.8H55V5.7H7.3V39.8z"/>
		</g>
		<g>
			<g>
				<path style="fill:#FFFFFF;" d="M14.6,26.9c-0.4,0-0.6,0-0.6,0c0.1-0.5,0.1-1.1,0.1-1.8v-1.8v-1.8c0-0.8,0-1.4-0.1-1.8
					c0,0,0,0,0.1,0c0.3,0,0.7,0,1.1,0h1.1c0.1-0.5,0.2-0.9,0.2-1.2l1.3,0.1c-0.1,0.3-0.2,0.6-0.4,1h1.5c0.6,0,1.1,0,1.5-0.1
					c0.1,0,0.1,0,0.1,0.1c-0.1,0.6-0.1,1.3-0.1,2.3v2.3c0,1.1,0,2,0.1,2.7c-0.1,0-0.3,0-0.7,0s-0.6,0-0.6,0c0,0,0,0,0-0.1
					c0-0.1,0-0.1,0-0.1v-0.2h-4.2v0.2c0,0,0,0.1,0,0.1c0,0,0,0.1,0,0.1C15.1,26.9,15,26.9,14.6,26.9z M15.1,21.6h2.1h2.1v-0.9h-4.2
					V21.6z M15.1,23.5h2.1h2.1v-0.9h-4.2V23.5z M15.1,25.5h4.2v-0.9h-2.1h-2.1V25.5z"/>
			</g>
			<g>
				<path style="fill:#FFFFFF;" d="M26.3,27c-0.2-0.3-0.4-0.5-0.6-0.7c-1.7,0.2-2.9,0.3-3.5,0.4l-0.1-0.9c0.7-0.1,1.3-0.1,1.8-0.1
					V25h-0.8c-0.2,0-0.4,0-0.8,0c0,0,0-0.2,0-0.4s0-0.4,0-0.4c0.3,0,0.5,0,0.8,0h0.8v-0.4h-1.5v-1.4v-1.4h1.5v-0.4H23
					c-0.2,0-0.5,0-0.9,0c0,0,0-0.2,0-0.4c0-0.3,0-0.4,0-0.4c0.3,0,0.6,0,0.9,0h0.9v-0.4c-0.6,0-1.1,0.1-1.5,0.1
					c0-0.3-0.1-0.5-0.2-0.8c1.6-0.1,2.9-0.2,3.8-0.4l0.5,0.8c-0.4,0.1-1,0.2-1.6,0.2V20h1.7v0.5h0.8c0-0.4,0-1,0-1.9h1
					c0,0.9,0,1.5,0,1.9h1.8c0,0.2,0,0.3,0,0.5c0,1.9-0.1,3.2-0.1,3.9c-0.1,0.8-0.2,1.3-0.3,1.5c-0.1,0.1-0.2,0.2-0.3,0.3
					c-0.1,0.1-0.2,0.1-0.4,0.1c-0.2,0-0.5,0-1.1,0c0-0.4-0.1-0.7-0.3-1c0.3,0,0.6,0,0.9,0c0.1,0,0.2-0.1,0.3-0.2
					c0.1-0.1,0.2-0.5,0.2-1.1c0-0.6,0.1-1.7,0.1-3.1h-0.8c-0.1,1.3-0.2,2.4-0.5,3.2C27.5,25.7,27,26.4,26.3,27z M23.2,22.2h0.7v-0.4
					h-0.3h-0.3V22.2z M23.2,23.3h0.7v-0.4h-0.3h-0.3V23.3z M24.8,25.5c0.4,0,0.9-0.1,1.5-0.1c0.3-0.5,0.6-1,0.7-1.7
					c0.1-0.6,0.2-1.3,0.2-2.2h-0.8v-0.7h-1.7v0.4h1.6v1.4v1.4h-1.6v0.4h0.8c0.2,0,0.5,0,0.8,0c0,0,0,0.2,0,0.4s0,0.4,0,0.4
					c-0.3,0-0.5,0-0.8,0h-0.8V25.5z M24.8,22.2h0.7v-0.4h-0.4h-0.3V22.2z M24.8,23.3h0.3h0.4v-0.4h-0.7V23.3z"/>
			</g>
			<g>
				<path style="fill:#FFFFFF;" d="M38.1,27c-0.3,0-0.5,0-0.6,0c0.1-0.6,0.1-1.4,0.1-2.3v-2.3h-0.8v0c0,2-0.3,3.5-1,4.5
					c-0.1-0.1-0.2-0.2-0.3-0.4c-0.1-0.1-0.3-0.2-0.4-0.3l0-0.1h-2.9v0.3c0,0.1,0,0.2,0,0.3c0,0-0.2,0-0.5,0c-0.3,0-0.5,0-0.5,0
					c0.1-0.5,0.1-1.2,0.1-2v-2v-2c0-0.8,0-1.5-0.1-2c0.2,0,0.5,0,0.7,0c0.3,0,0.4,0.1,0.4,0.1c-0.1,0.1-0.1,0.2-0.1,0.3v0.3l0.3-0.4
					l0.1,0.1c0.1-0.3,0.2-0.6,0.3-0.7c0.1,0,0.3,0.1,0.4,0.2c0.1,0.1,0.2,0.2,0.2,0.2c0,0,0,0.1-0.1,0.1c-0.1,0-0.1,0.1-0.2,0.2
					c-0.1,0.1-0.2,0.3-0.2,0.4c0,0,0.1,0.1,0.1,0.2c0.1-0.2,0.2-0.4,0.3-0.6c0.1,0,0.3,0.1,0.4,0.2c0.1,0.1,0.2,0.2,0.1,0.3
					c0,0-0.1,0.1-0.1,0.1c-0.1,0-0.2,0.1-0.3,0.3c-0.1,0.2-0.3,0.4-0.4,0.7l0.4,0c0-0.1-0.1-0.2-0.1-0.3l0.4-0.2
					c0.1,0.2,0.1,0.4,0.2,0.5l0.3,0c0.1-0.1,0.2-0.3,0.3-0.4c-0.2-0.3-0.3-0.6-0.6-0.8l0.3-0.4l0,0c0,0,0,0.1,0.1,0.1
					c0.1-0.3,0.2-0.5,0.3-0.7c0.1,0,0.3,0.1,0.4,0.2c0.1,0.1,0.2,0.2,0.2,0.2c0,0,0,0.1-0.1,0.1c-0.1,0-0.1,0.1-0.2,0.2
					c0,0,0,0.1-0.1,0.1c-0.1,0.1-0.1,0.2-0.2,0.3c0,0,0,0.1,0.1,0.1c0,0,0.1,0.1,0.1,0.1c0.1-0.3,0.2-0.5,0.3-0.7
					c0.1,0,0.3,0.1,0.4,0.2c0.1,0.1,0.2,0.2,0.1,0.3c0,0.1-0.1,0.1-0.1,0.1c-0.1,0-0.2,0.1-0.3,0.3c-0.1,0.2-0.3,0.5-0.4,0.7l0.4,0
					c0,0,0-0.1-0.1-0.2c0-0.1-0.1-0.1-0.1-0.2l0.4-0.2c0.2,0.3,0.3,0.6,0.4,1l-0.4,0.2c0-0.1,0-0.2-0.1-0.3c-0.2,0-0.5,0.1-0.8,0.1
					c-0.2,0-0.4,0.1-0.5,0.1l0-0.1l-0.4,0.2c0-0.1,0-0.2-0.1-0.3h0c-0.5,0.1-0.9,0.1-1.2,0.2l-0.1-0.4v0.5h1.7c0.5,0,1.1,0,1.7-0.1
					c0,0,0,0.2,0,0.4s0,0.4,0,0.4c-0.1,0-0.2,0-0.3,0H35c-0.2,0.4-0.4,0.7-0.5,0.9c0,0,0,0,0,0c0.1,0.1,0.1,0.2,0.1,0.2
					c0.1-0.2,0.2-0.4,0.3-0.6c0.1,0,0.3,0.1,0.4,0.2c0.1,0.1,0.2,0.2,0.1,0.3c0,0.1-0.1,0.1-0.1,0.1c-0.1,0-0.2,0.1-0.3,0.3
					c-0.2,0.3-0.4,0.6-0.5,0.7l0.4,0c-0.1-0.1-0.1-0.2-0.1-0.3l0.4-0.2c0.1,0.2,0.2,0.5,0.3,0.8c0.1-0.6,0.2-1.4,0.2-2.4v-3.2
					l0.6,0.2c0.8-0.2,1.4-0.5,1.8-0.8c0.2,0.2,0.4,0.4,0.6,0.6c0.2,0.2,0.2,0.4,0.1,0.4c-0.1,0-0.1,0-0.2,0c-0.1,0-0.2,0-0.4,0.1
					c-0.4,0.2-1,0.3-1.6,0.5v1.3h1.3c0.4,0,0.8,0,1.2-0.1c0,0,0,0.2,0,0.5s0,0.5,0,0.5c-0.1,0-0.2,0-0.4,0h-0.4v2.3
					c0,0.9,0,1.6,0.1,2.3C38.6,26.9,38.4,27,38.1,27z M32.2,20.9l0.2,0c0.1-0.1,0.2-0.3,0.3-0.5c-0.1-0.1-0.1-0.3-0.2-0.4
					c-0.1-0.2-0.2-0.3-0.3-0.4V20.9z M32.2,23.2l0.3-0.4l0.1,0.1c0-0.1,0.1-0.2,0.1-0.3c0,0,0-0.1,0.1-0.2c0,0,0-0.1,0-0.1h-0.5
					V23.2z M32.2,24.6l0.2,0l0,0c0.1-0.2,0.2-0.4,0.3-0.5c-0.1-0.3-0.3-0.5-0.5-0.8V24V24.6z M35.5,25.5c0.1-0.1,0.1-0.3,0.2-0.5
					l-0.3,0.2c0,0,0,0,0-0.1c0-0.1,0-0.1,0-0.2c-0.2,0-0.4,0.1-0.7,0.1c-0.3,0-0.5,0.1-0.6,0.1l0-0.1l-0.3,0.2c0,0,0-0.1,0-0.2
					c0,0,0,0,0,0c-0.4,0.1-0.8,0.1-1.2,0.2l-0.1-0.3v0.5h1.6h1.6V25.5z M33.9,24.6l0.2,0c0.1-0.2,0.2-0.4,0.3-0.5
					c-0.2-0.3-0.4-0.6-0.6-0.8l0.3-0.4l0.1,0.1c0.1-0.2,0.2-0.4,0.2-0.5h-1c-0.1,0.3-0.3,0.6-0.5,0.9c0.1,0.1,0.1,0.2,0.1,0.2
					c0.1-0.2,0.2-0.4,0.3-0.6c0.1,0,0.3,0.1,0.4,0.2c0.1,0.1,0.2,0.1,0.2,0.2c0,0,0,0-0.1,0.1c-0.1,0-0.1,0.1-0.1,0.1
					c-0.1,0.2-0.2,0.3-0.2,0.4c-0.2,0.3-0.3,0.6-0.4,0.7l0.4,0c0,0,0-0.1-0.1-0.1c0-0.1-0.1-0.1-0.1-0.2l0.4-0.2
					C33.7,24.1,33.8,24.3,33.9,24.6z"/>
			</g>
			<g>
				<path style="fill:#FFFFFF;" d="M44.2,22.6c-0.3,0-0.5,0-0.6,0c0-0.3,0-0.6,0-0.9v-0.9h-2.4v0.6c0,0.2,0,0.4,0,0.6
					c0,0-0.2,0-0.5,0c-0.3,0-0.5,0-0.5,0c0-0.3,0-0.6,0-0.9V20h3.3v-0.3h-1.4c-0.4,0-0.8,0-1.4,0.1c0,0,0-0.2,0-0.5
					c0-0.3,0-0.4,0-0.5c0.4,0,1,0.1,1.6,0.1h1.6h1.6c0.5,0,1.1,0,1.6-0.1c0,0,0,0.2,0,0.5c0,0.3,0,0.4,0,0.5c-0.4,0-0.9-0.1-1.4-0.1
					h-1.4V20h3.4v0.9c0,0.4,0,0.7,0,0.9c0,0-0.2,0-0.5,0s-0.5,0-0.5,0c0-0.1,0-0.3,0-0.6v-0.6h-2.4v0.9c0,0.4,0,0.7,0,0.9
					C44.7,22.6,44.5,22.6,44.2,22.6z M45.2,26.9c-0.6,0-1-0.1-1.2-0.2s-0.3-0.5-0.3-1v0h-1.5v0.2c0,0,0,0.1,0,0.1c0,0,0,0.1,0,0.1
					c0,0-0.2,0-0.5,0c-0.3,0-0.5,0-0.6,0c0-0.4,0.1-1,0.1-1.6v-1.6h3.1h3.1v1.4c0,0.5,0,1,0.1,1.4c0,0,0,0.1-0.1,0.1
					c-0.3,0-0.8-0.1-1.3-0.1h-1.3v0c0,0.2,0,0.3,0.1,0.3s0.3,0.1,0.5,0.1h1.7c0.2,0,0.4-0.1,0.4-0.2c0.1-0.1,0.1-0.4,0.1-0.7
					c0.2,0.2,0.5,0.3,0.9,0.3c-0.1,0.5-0.2,0.9-0.4,1.1c-0.2,0.2-0.5,0.3-1,0.3H45.2z M41.4,22.5c0,0,0-0.1,0-0.3c0-0.2,0-0.3,0-0.3
					c0.3,0,0.6,0,1,0h0.5c0.2,0,0.3,0,0.5,0c0,0,0,0.1,0,0.3c0,0.2,0,0.3,0,0.3c-0.1,0-0.3,0-0.5,0h-0.5h-0.5
					C41.8,22.4,41.6,22.5,41.4,22.5z M41.6,21.6c0,0,0-0.1,0-0.3c0-0.2,0-0.3,0-0.3c0.1,0,0.3,0,0.4,0h0.4h0.4c0.1,0,0.2,0,0.4,0
					c0,0,0,0.1,0,0.3s0,0.3,0,0.3c-0.1,0-0.3,0-0.4,0h-0.4C42.3,21.5,42,21.6,41.6,21.6z M42.1,23.9h0.7h0.7v-0.4h-1.5V23.9z
					 M42.1,24.9h1.5v-0.4h-0.7h-0.7V24.9z M44.6,23.9h0.8h0.8v-0.4h-1.6V23.9z M44.6,24.9h1.6v-0.4h-0.8h-0.8V24.9z M45,21.6
					c0,0,0-0.1,0-0.3s0-0.3,0-0.3c0.3,0,0.6,0,0.9,0h0.4c0.1,0,0.2,0,0.4,0c0,0,0,0.1,0,0.3s0,0.3,0,0.3c-0.1,0-0.3,0-0.4,0h-0.4
					h-0.4C45.3,21.5,45.2,21.6,45,21.6z M45,22.5c0,0,0-0.1,0-0.3c0-0.2,0-0.3,0-0.3c0.3,0,0.6,0,1,0h0.5c0.2,0,0.3,0,0.5,0
					c0,0,0,0.1,0,0.3c0,0.2,0,0.3,0,0.3c-0.1,0-0.3,0-0.5,0H46h-0.5C45.3,22.4,45.2,22.5,45,22.5z"/>
			</g>
		</g>
	</g>
</g>
</svg>
