<?xml version="1.0" encoding="utf-8"?>
<!-- Generator: Adobe Illustrator 22.0.0, SVG Export Plug-In . SVG Version: 6.00 Build 0)  -->
<svg version="1.1" xmlns="http://www.w3.org/2000/svg" xmlns:xlink="http://www.w3.org/1999/xlink" x="0px" y="0px"
	 viewBox="0 0 62.4 45.4" style="enable-background:new 0 0 62.4 45.4;" xml:space="preserve">
<g id="圖層_2">
	<g>
		<rect x="2.3" y="2.2" style="fill:#1C191B;" width="57.7" height="41.3"/>
		<polyline style="fill:#656565;" points="60,2.2 62.4,0 0,0 2.3,2.2 60,2.2 		"/>
		<polyline style="fill:#010001;" points="60,43.4 62.4,45.4 0,45.4 2.3,43.4 60,43.4 		"/>
		<polyline style="fill:#4A4A4B;" points="2.3,43.4 0,45.4 0,0 2.3,2.2 2.3,43.4 		"/>
		<polyline style="fill:#353537;" points="60,43.4 62.4,45.4 62.4,0 60,2.2 60,43.4 		"/>
	</g>
</g>
<g id="圖層_1">
	<g>
		<g>
			<path style="fill:#FFFFFF;" d="M57,41.7H5.3V3.6H57V41.7z M7.3,39.7H55V5.6H7.3V39.7z"/>
		</g>
		<g>
			<g>
				<path style="fill:#FFFFFF;" d="M24,27.9v-5.2v-2.6c0-1,0-1.9-0.1-2.6c0,0,0-0.1,0.1-0.1c0.4,0,1,0.1,1.6,0.1h1.6
					c0.9,0,2,0,3.2-0.1c0,0.1,0,0.4,0,1c0,0.6,0,0.9,0,1c-0.6-0.1-1.3-0.1-2.2-0.1h-2.2V22h1.8c0.6,0,1.2,0,1.8-0.1c0,0,0,0.4,0,0.9
					s0,0.9,0,1c-0.4-0.1-1.1-0.1-1.8-0.1h-1.8v4.2H24z"/>
			</g>
			<g>
				<path style="fill:#FFFFFF;" d="M38.4,28c-0.5,0-1.1-0.1-1.7-0.1H35h-3.5v-1.2c1.5-1.3,2.6-2.5,3.3-3.4c0.8-1,1.2-1.9,1.2-2.7
					c0-0.5-0.1-0.9-0.4-1.2S34.9,19,34.4,19c-0.6,0-1.3,0.4-1.9,1.1l-1.1-1.1c0.5-0.5,1-0.9,1.5-1.2c0.5-0.3,1.1-0.4,1.8-0.4
					c1,0,1.8,0.3,2.4,0.9c0.6,0.6,0.9,1.4,0.9,2.3c0,1.6-1.1,3.5-3.4,5.7c0.7-0.1,1.3-0.1,1.7-0.1h1.1c0.3,0,0.6,0,1.1-0.1
					c0,0,0,0.3,0,0.9S38.5,28,38.4,28z"/>
			</g>
		</g>
	</g>
</g>
</svg>
