<?xml version="1.0" encoding="utf-8"?>
<!-- Generator: Adobe Illustrator 22.0.0, SVG Export Plug-In . SVG Version: 6.00 Build 0)  -->
<svg version="1.1" xmlns="http://www.w3.org/2000/svg" xmlns:xlink="http://www.w3.org/1999/xlink" x="0px" y="0px"
	 viewBox="0 0 62.4 45.4" style="enable-background:new 0 0 62.4 45.4;" xml:space="preserve">
<g id="圖層_2">
	<g>
		<rect x="2.3" y="2.2" style="fill:#1C191B;" width="57.7" height="41.3"/>
		<polyline style="fill:#656565;" points="60,2.2 62.3,0 -0.1,0 2.3,2.2 60,2.2 		"/>
		<polyline style="fill:#010001;" points="60,43.4 62.3,45.4 -0.1,45.4 2.3,43.4 60,43.4 		"/>
		<polyline style="fill:#4A4A4B;" points="2.3,43.4 -0.1,45.4 -0.1,0 2.3,2.2 2.3,43.4 		"/>
		<polyline style="fill:#353537;" points="60,43.4 62.3,45.4 62.3,0 60,2.2 60,43.4 		"/>
	</g>
</g>
<g id="圖層_1">
	<g>
		<g>
			<path style="fill:#FFFFFF;" d="M25.4,29.9C25.4,29.8,25.4,29.8,25.4,29.9c-0.5,0-1,0-1.6,0h-1.5c-1,0-1.8,0-2.4-0.1
				c0,0-0.1,0-0.1,0.1c0,0.4,0.1,1,0.1,1.7v1.7V35c0,0.7,0,1.3-0.1,1.7c0,0,0.2,0,0.5,0c0.3,0,0.5,0,0.5,0c0-0.1,0-0.2,0-0.3v-0.3
				h3.5v0.3c0,0.1,0,0.2,0,0.2c0,0,0.2,0,0.5,0c0.3,0,0.5,0,0.6,0c-0.1-0.6-0.1-1.4-0.1-2.4v-2.2C25.4,31.2,25.4,30.4,25.4,29.9z
				 M24.4,35.3h-3.5v-1.8h1.7h1.7V35.3z M24.4,32.5h-1.7h-1.7v-1.7h3.5V32.5z"/>
			<path style="fill:#FFFFFF;" d="M33.2,31.1c0-0.1,0.1-0.2,0.2-0.3c0.1-0.1,0.1-0.2,0.1-0.2c0-0.1,0.1-0.2,0.2-0.2
				c0,0,0.1,0,0.1-0.1c0,0-0.1-0.1-0.3-0.3c-0.2-0.1-0.4-0.2-0.7-0.3c-0.1,0.3-0.2,0.7-0.4,1s-0.3,0.7-0.5,1l0.8,0.3
				C32.8,31.7,33,31.4,33.2,31.1z"/>
			<path style="fill:#FFFFFF;" d="M33.3,35.7c0,0.1-0.1,0.2-0.2,0.2h-0.7c-0.1,0-0.2,0-0.3-0.1c0,0-0.1-0.1-0.1-0.3v-2.4h1
				c0.4,0,0.8,0,1,0c0,0,0-0.2,0-0.5c0-0.3,0-0.5,0-0.5c-0.3,0-0.6,0-0.8,0h-0.8H31v-2.1c0-0.3,0.1-0.5,0.2-0.8c0,0-0.2-0.1-0.5-0.1
				c-0.3,0-0.5,0-0.7,0c0,0.4,0.1,0.9,0.1,1.5v1.5h-1.5c-0.6,0-1.1,0-1.5-0.1c0,0,0,0.2,0,0.5s0,0.5,0,0.5c0.3,0,0.7,0,1,0h1
				c0,0.5-0.1,0.9-0.2,1.2c-0.1,0.4-0.3,0.7-0.6,1c-0.3,0.3-0.8,0.5-1.3,0.7c0.1,0.1,0.2,0.2,0.3,0.4c0.1,0.2,0.2,0.3,0.2,0.4
				c0.9-0.3,1.6-0.8,2-1.5c0.3-0.5,0.5-1.2,0.6-2.2h1.1v2.4c0,0.5,0.1,0.8,0.2,1c0.2,0.2,0.5,0.3,0.9,0.3h0.9c0.4,0,0.7-0.1,0.8-0.4
				c0.1-0.2,0.2-0.7,0.3-1.4c-0.4-0.1-0.7-0.2-0.9-0.4C33.4,35.2,33.4,35.6,33.3,35.7z"/>
			<path style="fill:#FFFFFF;" d="M29.4,31.7c-0.1-0.2-0.2-0.6-0.4-0.9c-0.2-0.4-0.3-0.7-0.5-1L27.7,30c0.4,0.8,0.7,1.4,0.8,2
				L29.4,31.7z"/>
			<path style="fill:#FFFFFF;" d="M41.5,35.9h-0.6c0.1-0.2,0.3-0.6,0.5-1.1l-0.8-0.2h1v-1c0-0.4,0-0.7,0-1c0,0,0,0,0,0
				c-0.2,0-0.5,0-0.9,0h-0.9c-0.7,0-1.3,0-1.7-0.1c0.2-0.2,0.5-0.4,0.7-0.6v0.3h2.1v-0.3c0.3,0.4,0.7,0.7,1,0.9
				c0.1-0.3,0.3-0.5,0.6-0.7c-0.3-0.2-0.7-0.4-0.9-0.7c0,0,0.1,0,0.1-0.1c0.1-0.1,0.2-0.1,0.3-0.2c0.1-0.1,0.1-0.1,0.2-0.1
				c0,0,0.1,0,0.1,0c0,0,0-0.1-0.1-0.3c-0.1-0.1-0.2-0.3-0.4-0.4c-0.1,0.1-0.3,0.3-0.6,0.6c-0.1-0.1-0.2-0.2-0.2-0.3
				c0.1-0.1,0.3-0.2,0.4-0.3c0.1-0.1,0.2-0.1,0.2-0.1c0,0,0.1,0,0.1,0c0,0,0-0.1-0.1-0.3c-0.1-0.2-0.2-0.3-0.4-0.4
				c-0.2,0.2-0.4,0.4-0.5,0.6c-0.1-0.2-0.2-0.4-0.2-0.7l-0.7,0.2c0,0.1,0.1,0.2,0.1,0.3l-0.5-0.2l-0.1,0h-0.7c-0.2,0-0.4,0-0.7,0
				c0,0,0,0.1,0,0.4c0,0.2,0,0.4,0,0.4c0.2,0,0.3,0,0.5,0h0.5c0,0.1-0.1,0.3-0.2,0.5c-0.2-0.1-0.3-0.3-0.5-0.4l-0.2,0.3l-0.7-0.3
				c-0.1,0.2-0.2,0.5-0.4,0.9v-1.1c0-0.3,0.1-0.5,0.2-0.8c0,0-0.1-0.1-0.4-0.1c-0.2,0-0.4,0-0.6,0c0,0.3,0,0.5,0,0.7v0.7v1.4
				c0,0.8-0.1,1.5-0.2,2.1c-0.2,0.8-0.5,1.4-0.9,1.9c0.1,0.1,0.2,0.2,0.3,0.3c0.1,0.1,0.2,0.2,0.3,0.3c0.5-0.5,0.8-1.2,1-1.9
				c0.3,0.5,0.5,0.9,0.6,1.1l0.6-0.7c0-0.1-0.2-0.2-0.4-0.5c-0.4-0.5-0.6-0.9-0.7-1c0.1-0.5,0.1-1,0.1-1.7V32l0.3,0.1
				c0.1-0.2,0.3-0.5,0.6-1c0.1,0.1,0.3,0.2,0.4,0.4c-0.3,0.4-0.7,0.7-1.1,0.9c0.2,0.2,0.3,0.4,0.5,0.6c0.2-0.1,0.3-0.2,0.5-0.3
				c0,0.3,0,0.6,0,1v1h1h1.4c-0.1,0.3-0.2,0.7-0.4,1.1l0.5,0.1H39l0.5-0.2c-0.1-0.4-0.2-0.7-0.4-1.1l-0.8,0.2c0.2,0.3,0.3,0.7,0.4,1
				H38c-0.2,0-0.4,0-0.6,0c0,0,0,0.2,0,0.4c0,0.3,0,0.4,0,0.4c0.4,0,0.8,0,1.2,0h1.2H41c0.5,0,0.9,0,1.2,0c0,0,0-0.2,0-0.4
				c0-0.3,0-0.4,0-0.4C41.9,35.9,41.6,35.9,41.5,35.9z M39.7,29.9c0.2,0.6,0.5,1.1,0.8,1.6h-0.7h-0.7C39.4,31,39.6,30.5,39.7,29.9z
				 M38.9,33.9v-0.6h0.9h0.9v0.6H38.9z"/>
			<path style="fill:#FFFFFF;" d="M35.8,32.3c0-0.2,0-0.4,0.1-0.6c0-0.1,0-0.2,0.1-0.3c0,0,0-0.1,0-0.1c0-0.1-0.1-0.1-0.3-0.2
				c-0.1-0.1-0.3-0.1-0.5-0.1c0,0.4,0,0.7-0.1,1.1c-0.1,0.4-0.1,0.7-0.2,0.9l0.6,0.3C35.6,33,35.7,32.7,35.8,32.3z"/>
		</g>
		<path style="fill:#FFFFFF;" d="M5.3,3.6v38.1H57V3.6H5.3z M55,39.7H7.3V5.6H55V39.7z"/>
		<g>
			<path style="fill:#FFFFFF;" d="M34.8,14.8l-0.1-0.2c-0.5-0.7-0.9-1.4-0.8-2.3c0-0.3,0-0.5-0.1-0.7c-0.2-0.2-0.5-0.3-0.8-0.3h-3.6
				c-0.4,0-0.7,0-0.9,0.2c-0.2,0.2-0.2,0.5-0.2,0.8c0.1,0.6-0.1,1.2-0.6,1.8c-0.2,0.2-0.3,0.4-0.5,0.7c-0.1,0.2-0.3,0.3-0.4,0.5
				c-0.6,0.8-0.9,1.6-1.1,2.7c-0.2,1.4,0.2,2.9,1.2,4.1c1,1.2,2.4,1.9,4,1.9c0,0,0.1,0,0.1,0c2,0,3.5-0.9,4.6-2.6
				c0.9-1.6,1-3.2,0.3-4.8C35.7,16.1,35.2,15.4,34.8,14.8z M34.9,20.6C34.2,22,33,22.8,31.3,23c-1,0.1-2.1-0.3-2.9-1.1
				C27.5,21.1,27,20.1,27,19c0-1,0.3-1.9,0.9-2.7c0.2-0.3,0.4-0.6,0.6-0.9c0.2-0.3,0.4-0.6,0.6-0.9c0.3-0.4,0.5-0.9,0.4-1.4
				c0-0.1,0-0.2,0-0.3h3.1c-0.2,0.9,0.2,1.6,0.7,2.2c0.2,0.2,0.4,0.5,0.5,0.8c0.1,0.2,0.3,0.4,0.4,0.6
				C35.4,17.6,35.6,19.1,34.9,20.6z"/>
			<path style="fill:#FFFFFF;" d="M29.1,11C29.1,11,29.1,11,29.1,11c1.4,0,2.8,0,4.2,0c0.1,0,0.4,0,0.5-0.2c0.1-0.1,0.2-0.3,0.2-0.4
				c0-0.3-0.1-0.4-0.2-0.5c-0.1-0.1-0.3-0.1-0.4-0.1c0,0,0,0,0,0c-0.5,0-1,0-1.5,0l-0.6,0l-0.6,0c-0.5,0-1,0-1.5,0c0,0,0,0,0,0
				c-0.2,0-0.4,0.1-0.5,0.2c-0.1,0.1-0.2,0.2-0.2,0.4c0,0.2,0.1,0.3,0.2,0.4C28.7,11,28.8,11,29.1,11z"/>
			<path style="fill:#FFFFFF;" d="M29.1,9.4C29.1,9.4,29.1,9.4,29.1,9.4c0.5,0,1,0,1.5,0l2.6,0c0.2,0,0.7,0,0.7-0.6
				c0-0.2-0.1-0.3-0.2-0.4c-0.2-0.2-0.4-0.2-0.6-0.2l-4.1,0c-0.6,0-0.7,0.4-0.8,0.6c0,0.2,0,0.3,0.2,0.4C28.7,9.4,28.9,9.4,29.1,9.4
				z"/>
			<path style="fill:#FFFFFF;" d="M30,7.8C30,7.8,30,7.8,30,7.8h0.4c0.7,0,1.4,0,2.1,0c0,0,0,0,0,0c0.2,0,0.4-0.1,0.5-0.2
				c0.1-0.1,0.2-0.3,0.2-0.4S33,6.6,32.4,6.6c-0.3,0-0.7,0-1,0l-0.2,0l-0.4,0c-0.3,0-0.6,0-0.9,0c-0.2,0-0.3,0-0.4,0.1
				c-0.1,0.1-0.3,0.2-0.2,0.5C29.3,7.5,29.4,7.8,30,7.8z"/>
			<path style="fill:#FFFFFF;" d="M27.7,23.5c-0.2-0.1-0.6-0.1-0.8,0.1c-0.3,0.4-0.6,0.8-1,1.3c-0.1,0.2-0.1,0.4,0,0.6
				c0.1,0.2,0.4,0.3,0.6,0.3c0,0,0,0,0,0l0.1,0l0.1,0c0.1,0,0.2-0.1,0.3-0.2l0.1-0.1c0.3-0.4,0.6-0.8,0.9-1.3c0.1-0.1,0.1-0.3,0-0.4
				C27.9,23.8,27.8,23.6,27.7,23.5z"/>
			<path style="fill:#FFFFFF;" d="M35.3,23.6c-0.1-0.2-0.5-0.2-0.7-0.1c-0.1,0.1-0.2,0.2-0.3,0.3c0,0,0,0,0,0.1l-0.1,0.1l0,0.2
				c0,0.1,0,0.1,0.1,0.2l0.2,0.3c0.3,0.4,0.5,0.8,0.9,1.1c0.1,0.1,0.2,0.1,0.4,0.1c0.2,0,0.3,0,0.4-0.1c0.2-0.1,0.3-0.5,0.2-0.8
				C36.1,24.6,35.7,24.1,35.3,23.6z"/>
			<path style="fill:#FFFFFF;" d="M38.9,20.7c-0.5-0.2-1-0.4-1.6-0.5c-0.3-0.1-0.6,0.2-0.7,0.4c-0.1,0.2,0,0.7,0.3,0.8
				c0.4,0.2,0.8,0.3,1.2,0.4l0.6,0.2l0.1-0.1c0,0,0.1,0,0.1-0.1c0.1-0.1,0.3-0.2,0.3-0.4C39.3,21.2,39.2,20.8,38.9,20.7z"/>
			<path style="fill:#FFFFFF;" d="M25.3,20.3C25.3,20.3,25.3,20.2,25.3,20.3l-0.2-0.2l-0.6,0.2c-0.4,0.1-0.8,0.3-1.2,0.4
				c-0.2,0.1-0.4,0.5-0.3,0.7c0.1,0.2,0.4,0.4,0.6,0.4c0,0,0.1,0,0.1,0c0.5-0.1,1.1-0.3,1.7-0.5c0.2-0.1,0.4-0.5,0.3-0.7
				C25.6,20.5,25.4,20.4,25.3,20.3z"/>
			<path style="fill:#FFFFFF;" d="M31.1,24.6C31.1,24.6,31.1,24.6,31.1,24.6c-0.2,0-0.3,0.1-0.5,0.2c-0.1,0.1-0.2,0.3-0.2,0.5l0,0.3
				c0,0.4,0,0.8,0,1.2c0,0.3,0.3,0.6,0.6,0.6c0,0,0.1,0,0.1,0c0.1,0,0.3,0,0.4-0.1c0.1-0.1,0.2-0.3,0.2-0.5v-1.4
				C31.8,24.9,31.5,24.6,31.1,24.6z"/>
			<path style="fill:#FFFFFF;" d="M23.3,17c0.5,0.2,1,0.3,1.5,0.5c0,0,0.1,0,0.1,0c0.2,0,0.5-0.2,0.6-0.3c0.1-0.2,0-0.4,0-0.5
				c-0.1-0.2-0.1-0.3-0.2-0.3c-0.4-0.2-0.8-0.3-1.2-0.5l-0.6-0.2l-0.1,0.1c0,0-0.1,0.1-0.1,0.1c-0.1,0.1-0.3,0.2-0.3,0.4
				C22.9,16.5,23.1,16.9,23.3,17z"/>
			<path style="fill:#FFFFFF;" d="M37.3,17.5c0.1,0,0.2,0,0.3,0c0.4-0.1,0.9-0.3,1.4-0.5c0.2-0.1,0.4-0.4,0.4-0.7
				c0-0.2-0.2-0.3-0.3-0.4c0,0-0.1-0.1-0.1-0.1l-0.1-0.1l-0.7,0.2c-0.4,0.1-0.7,0.2-1,0.4c-0.2,0.1-0.3,0.2-0.4,0.3
				c0,0.1-0.1,0.3,0,0.5C36.8,17.3,37,17.5,37.3,17.5z"/>
		</g>
	</g>
</g>
</svg>
