<?xml version="1.0" encoding="utf-8"?>
<!-- Generator: Adobe Illustrator 22.0.0, SVG Export Plug-In . SVG Version: 6.00 Build 0)  -->
<svg version="1.1" xmlns="http://www.w3.org/2000/svg" xmlns:xlink="http://www.w3.org/1999/xlink" x="0px" y="0px"
	 viewBox="0 0 62.4 45.4" style="enable-background:new 0 0 62.4 45.4;" xml:space="preserve">
<g id="圖層_2">
	<g>
		<rect x="2.3" y="2.2" style="fill:#1C191B;" width="57.7" height="41.3"/>
		<polyline style="fill:#656565;" points="60,2.2 62.4,0 0,0 2.3,2.2 60,2.2 		"/>
		<polyline style="fill:#010001;" points="60,43.4 62.4,45.4 0,45.4 2.3,43.4 60,43.4 		"/>
		<polyline style="fill:#4A4A4B;" points="2.3,43.4 0,45.4 0,0 2.3,2.2 2.3,43.4 		"/>
		<polyline style="fill:#353537;" points="60,43.4 62.4,45.4 62.4,0 60,2.2 60,43.4 		"/>
	</g>
</g>
<g id="圖層_1">
	<g>
		<g>
			<path style="fill:#FFFFFF;" d="M57,41.7H5.3V3.6H57V41.7z M7.3,39.7H55V5.6H7.3V39.7z"/>
		</g>
		<g>
			<g>
				<path style="fill:#FFFFFF;" d="M24,27.8v-5.2v-2.6c0-1,0-1.9-0.1-2.6c0,0,0-0.1,0.1-0.1c0.4,0,1,0.1,1.6,0.1h1.6
					c0.9,0,2,0,3.2-0.1c0,0.1,0,0.4,0,1c0,0.6,0,0.9,0,1c-0.6-0.1-1.3-0.1-2.2-0.1h-2.2v2.7H28c0.6,0,1.2,0,1.8-0.1c0,0,0,0.4,0,0.9
					c0,0.6,0,0.9,0,1c-0.4-0.1-1.1-0.1-1.8-0.1h-1.8v4.2H24z"/>
			</g>
			<g>
				<path style="fill:#FFFFFF;" d="M34.8,28c-1.4,0-2.6-0.5-3.5-1.4l1-1.3c0.7,0.7,1.5,1.1,2.3,1.1c0.5,0,1-0.2,1.3-0.5
					c0.3-0.3,0.5-0.8,0.5-1.4s-0.2-1.1-0.5-1.4c-0.3-0.3-0.7-0.5-1.3-0.5c-0.3,0-0.6,0-0.8,0.1c-0.2,0.1-0.5,0.2-0.8,0.4l-0.9-0.6
					l0.3-5h2.8h1.4c0.3,0,0.8,0,1.4-0.1c0,0,0,0.3,0,0.9c0,0.6,0,0.9,0,0.9c-0.5-0.1-1.1-0.1-1.9-0.1h-1.9L34,21.4
					c0.4-0.2,0.8-0.3,1.2-0.3c0.9,0,1.7,0.3,2.3,0.8c0.6,0.6,0.9,1.4,0.9,2.5c0,1.1-0.4,2-1.1,2.7C36.7,27.7,35.8,28,34.8,28z"/>
			</g>
		</g>
	</g>
</g>
</svg>
