<?xml version="1.0" encoding="utf-8"?>
<!-- Generator: Adobe Illustrator 22.0.0, SVG Export Plug-In . SVG Version: 6.00 Build 0)  -->
<svg version="1.1" xmlns="http://www.w3.org/2000/svg" xmlns:xlink="http://www.w3.org/1999/xlink" x="0px" y="0px"
	 viewBox="0 0 62.4 45.4" style="enable-background:new 0 0 62.4 45.4;" xml:space="preserve">
<g id="圖層_2">
	<g>
		<rect x="2.3" y="2.2" style="fill:#1C191B;" width="57.7" height="41.3"/>
		<polyline style="fill:#656565;" points="60,2.2 62.4,0 0,0 2.3,2.2 60,2.2 		"/>
		<polyline style="fill:#010001;" points="60,43.4 62.4,45.4 0,45.4 2.3,43.4 60,43.4 		"/>
		<polyline style="fill:#4A4A4B;" points="2.3,43.4 0,45.4 0,0 2.3,2.2 2.3,43.4 		"/>
		<polyline style="fill:#353537;" points="60,43.4 62.4,45.4 62.4,0 60,2.2 60,43.4 		"/>
	</g>
</g>
<g id="圖層_1">
	<g>
		<path style="fill:#FFFFFF;" d="M30.2,30.4h-0.6v-0.5h0.5c0.2,0,0.4,0,0.5,0c0,0,0-0.2,0-0.5s0-0.4,0-0.5c-0.1,0-0.3,0-0.5,0h-0.5
			v-0.3c0-0.1,0-0.2,0.1-0.3c0,0-0.1-0.1-0.4-0.1c-0.2,0-0.4,0-0.6,0c0,0.1,0,0.3,0,0.3v0.3h-1v-0.3c0-0.1,0-0.2,0.1-0.3
			c0,0-0.1-0.1-0.4-0.1c-0.2,0-0.4,0-0.6,0c0,0.1,0,0.3,0,0.3v0.3h-0.6c-0.2,0-0.4,0-0.5,0c0,0,0.1,0,0.1-0.1c0-0.1-0.1-0.2-0.3-0.3
			c-0.2-0.1-0.4-0.2-0.6-0.3c-0.2,0.6-0.4,1.1-0.6,1.7c-0.3,0.5-0.6,1-0.9,1.4c0.1,0.1,0.2,0.3,0.2,0.5c0.1,0.2,0.2,0.4,0.2,0.5
			c0.2-0.2,0.3-0.4,0.4-0.6v2v1c0,0.4,0,0.7,0,1c0,0,0.2,0,0.5,0c0.3,0,0.5,0,0.5,0c0-0.4-0.1-1-0.1-1.7v-1.7
			c0.2,0.2,0.3,0.5,0.5,0.7c0,0,0.1-0.1,0.1-0.1c0.1-0.1,0.2-0.2,0.3-0.2v1.5c0,0.6,0,1.1-0.1,1.5c0,0,0.2,0,0.5,0
			c0.3,0,0.5,0,0.5,0c0-0.1,0-0.3,0-0.6v-0.6h0.9v0.5c0,0.2,0,0.4,0,0.5c0,0,0.2,0,0.4,0c0.3,0,0.4,0,0.4,0c0-0.1,0-0.3,0-0.5v-0.5
			h0.9V35c0,0.1,0,0.1-0.1,0.1c-0.2,0-0.4,0-0.5,0c0.1,0.2,0.2,0.5,0.2,0.7c0.5,0,0.8,0,1-0.1c0.1-0.1,0.2-0.1,0.2-0.2
			c0-0.1,0.1-0.2,0.1-0.4v-1.7c0-0.7,0-1.2,0.1-1.6c0,0,0-0.1-0.1-0.1c-0.4,0-1,0.1-1.7,0.1h-1.7c0.1-0.2,0.2-0.3,0.3-0.4h1.7
			c0.7,0,1.3,0,1.7,0.1c0,0,0-0.2,0-0.5s0-0.5,0-0.5C30.6,30.4,30.4,30.4,30.2,30.4z M26.9,30.4h-0.7c-0.2,0-0.4,0-0.7,0
			c0,0,0,0.2,0,0.5c0,0.3,0,0.5,0,0.5c0.1,0,0.3,0,0.4,0h0.4c-0.3,0.4-0.7,0.8-1.2,1.1v-2.2c0.1-0.3,0.2-0.5,0.3-0.8
			c0-0.1,0.1-0.2,0.2-0.3c0,0,0,0,0,0c0,0,0,0.2,0,0.4c0,0.3,0,0.4,0,0.5c0.2,0,0.4,0,0.6,0h0.6V30.4z M28.7,32.5h0.9v0.4h-0.4h-0.4
			V32.5z M28.7,33.5h0.4h0.4V34h-0.9V33.5z M27.9,34H27v-0.4h0.4h0.4V34z M27.5,32.5h0.4v0.4H27v-0.4H27.5z M28.7,30.4h-1v-0.5h0.5
			h0.5V30.4z"/>
		<path style="fill:#FFFFFF;" d="M37.2,28.4c-0.9,0.2-2,0.4-3.5,0.5l-0.9-0.2c-0.1,0.4-0.3,0.8-0.5,1.2c-0.3,0.5-0.5,0.8-0.8,1.1
			c0.3,0.2,0.6,0.4,0.8,0.6c0.5-0.4,0.9-1.1,1.2-1.9c0.8-0.1,1.6-0.1,2.3-0.2c0.6-0.1,1.1-0.2,1.4-0.2c0.1,0,0.2,0,0.3,0
			c0.1,0,0.1,0,0.2,0c0.1,0,0-0.1-0.1-0.3C37.5,28.8,37.4,28.6,37.2,28.4z"/>
		<path style="fill:#FFFFFF;" d="M37.7,31.8h-1h-1.9c0-0.1,0.1-0.1,0.1-0.3c0.1-0.1,0.1-0.2,0.1-0.2l0.6-0.2c0-0.2-0.1-0.4-0.2-0.7
			c-0.1-0.3-0.2-0.5-0.3-0.7l-0.8,0.2c0.2,0.5,0.4,0.9,0.5,1.3l-0.7-0.2c-0.1,0.2-0.2,0.4-0.4,0.7h-1.1c-0.4,0-0.8,0-1.1,0
			c0,0,0,0.2,0,0.5s0,0.5,0,0.5c0.3,0,0.6,0,0.8,0h0.8c-0.3,0.5-0.5,1-0.8,1.4l0.9,0.3l0.1-0.2c0.1,0,0.3,0.1,0.5,0.1
			c0.2,0.1,0.4,0.1,0.5,0.1c-0.7,0.3-1.6,0.4-2.8,0.5c0.2,0.3,0.3,0.6,0.4,0.9c0.8-0.1,1.5-0.2,2.1-0.3c0.6-0.2,1.1-0.4,1.5-0.6
			c0.9,0.3,1.7,0.7,2.3,1l0.7-0.8c-0.6-0.3-1.3-0.6-2.2-0.9c0.3-0.4,0.6-0.9,0.8-1.5H38c0.2,0,0.5,0,0.7,0c0,0,0-0.2,0-0.5
			s0-0.4,0-0.5C38.3,31.8,38,31.8,37.7,31.8z M35.5,33.9c-0.4-0.1-0.9-0.3-1.4-0.5c0.1-0.1,0.2-0.3,0.3-0.5c0.1-0.1,0.1-0.2,0.1-0.2
			h0.9h0.9C36.1,33.2,35.8,33.6,35.5,33.9z"/>
		<path style="fill:#FFFFFF;" d="M36.5,29.8c0.3,0.3,0.5,0.6,0.8,0.9c0.3,0.4,0.5,0.7,0.6,0.9l0.8-0.5c-0.3-0.5-0.7-1-1.4-1.7
			L36.5,29.8z"/>
		<path style="fill:#FFFFFF;" d="M5.3,3.6v38.1H57V3.6H5.3z M55,39.7H7.3V5.6H55V39.7z"/>
		<path style="fill:#FFFFFF;" d="M31.5,26.7c5.3,0,9.7-4.3,9.7-9.7c0-4.4-2.9-8.1-6.9-9.3V11c2.3,1.1,3.9,3.4,3.9,6.1
			c0,3.7-3,6.7-6.7,6.7s-6.7-3-6.7-6.7c0-2.4,1.3-4.5,3.2-5.7V8c-3.6,1.4-6.2,4.9-6.2,9C21.8,22.4,26.2,26.7,31.5,26.7z"/>
	</g>
</g>
</svg>
