<?xml version="1.0" encoding="utf-8"?>
<!-- Generator: Adobe Illustrator 22.0.0, SVG Export Plug-In . SVG Version: 6.00 Build 0)  -->
<svg version="1.1" xmlns="http://www.w3.org/2000/svg" xmlns:xlink="http://www.w3.org/1999/xlink" x="0px" y="0px"
	 viewBox="0 0 62.4 45.4" style="enable-background:new 0 0 62.4 45.4;" xml:space="preserve">
<g id="圖層_2">
	<g>
		<rect x="2.3" y="2.2" style="fill:#1C191B;" width="57.7" height="41.3"/>
		<polyline style="fill:#656565;" points="60,2.2 62.4,0 0,0 2.3,2.2 60,2.2 		"/>
		<polyline style="fill:#010001;" points="60,43.4 62.4,45.4 0,45.4 2.3,43.4 60,43.4 		"/>
		<polyline style="fill:#4A4A4B;" points="2.3,43.4 0,45.4 0,0 2.3,2.2 2.3,43.4 		"/>
		<polyline style="fill:#353537;" points="60,43.4 62.4,45.4 62.4,0 60,2.2 60,43.4 		"/>
	</g>
</g>
<g id="圖層_1">
	<g>
		<path style="fill:#FFFFFF;" d="M15.9,31.9c0.1-0.1,0.2-0.2,0.3-0.3v1.8h1.5c0.6,0,1.1,0,1.5,0.1c0,0,0-0.2,0-0.4s0-0.3,0-0.3
			c-0.2,0-0.3,0-0.5,0h-0.5v-0.3h0.4c0.1,0,0.3,0,0.4,0c0,0,0-0.1,0-0.3c0-0.2,0-0.3,0-0.3c-0.2,0-0.3,0-0.4,0h-0.4v-0.3H19v-0.1
			c0.2,0.2,0.3,0.4,0.3,0.4c0.1-0.1,0.2-0.2,0.3-0.3v0.9c0,0,0,0.1,0,0.2c0,0.4,0,0.6,0,0.7c0,0,0,0,0,0c0.3,0,0.5,0,0.8,0h0.8h0.8
			c0.3,0,0.5,0,0.8,0c0,0,0-0.1,0-0.3c0-0.2,0-0.3,0-0.3c-0.2,0-0.4,0-0.6,0h-0.6v-0.3H22c0.2,0,0.3,0,0.4,0c0,0,0-0.1,0-0.3
			s0-0.3,0-0.3c-0.1,0-0.3,0-0.4,0h-0.4v-0.3H22c0.2,0,0.3,0,0.4,0c0,0,0-0.1,0-0.3c0-0.2,0-0.3,0-0.3c-0.1,0-0.3,0-0.4,0h-0.4v-0.3
			h0.5c0.2,0,0.4,0,0.5,0c0,0,0-0.1,0-0.3c0-0.2,0-0.3,0-0.3c-0.2,0-0.3,0-0.5,0h-0.5c0,0,0-0.1,0.1-0.1c0-0.1,0.1-0.1,0.1-0.1
			c0-0.1,0.1-0.1,0.1-0.1c0,0,0.1,0,0.1,0c0,0-0.1-0.1-0.2-0.1c-0.2-0.1-0.4-0.1-0.6-0.2c0,0.2-0.1,0.4-0.3,0.7h-0.4
			c0-0.1,0.1-0.2,0.1-0.3c0-0.1,0.1-0.1,0.1-0.1c0,0,0,0,0.1,0c0,0-0.1-0.1-0.2-0.2c-0.2-0.1-0.3-0.1-0.5-0.2
			c-0.2,0.7-0.5,1.3-1,1.7v0h-0.8v-0.3h0.5c0.2,0,0.3,0,0.4,0c0,0,0-0.1,0-0.3c0-0.2,0-0.3,0-0.3c-0.1,0-0.3,0-0.4,0h-0.4
			c0,0,0.1-0.1,0.1-0.1c0-0.1,0.1-0.1,0.1-0.1c0,0,0.1-0.1,0.1-0.1c0,0,0.1,0,0.1,0s-0.1-0.1-0.2-0.1s-0.4-0.1-0.5-0.2
			c-0.1,0.2-0.1,0.4-0.3,0.7h-0.5c0-0.1,0.1-0.2,0.1-0.3c0-0.1,0.1-0.1,0.1-0.1c0,0,0.1,0,0.1,0c0,0-0.1-0.1-0.2-0.2
			c-0.2-0.1-0.3-0.1-0.5-0.2c-0.2,0.8-0.6,1.4-1.1,1.9c0.1,0.1,0.2,0.2,0.2,0.3S15.9,31.8,15.9,31.9z M20.3,30.8h0.5v0.3h-0.2h-0.2
			V30.8z M20.3,31.6h0.5v0.3h-0.2h-0.2V31.6z M20.3,32.5h0.5v0.3h-0.2h-0.2V32.5z M17,30.8h0.5v0.3h-0.2H17V30.8z M17,31.6h0.5v0.3
			h-0.2H17V31.6z M17,32.5h0.5v0.3h-0.2H17V32.5z"/>
		<path style="fill:#FFFFFF;" d="M22,34.1l-0.6-0.4l-0.2,0h-2.6h-1.3c-0.5,0-0.9,0-1.3-0.1c0,0,0,0.2,0,0.4c0,0.3,0,0.4,0,0.4
			c0.3,0,0.5,0,0.7,0h0.7l-0.5,0.2c0.3,0.3,0.7,0.6,1.1,0.9c-0.7,0.2-1.5,0.3-2.4,0.4c0.2,0.3,0.3,0.5,0.4,0.9
			c1.3-0.1,2.3-0.4,3.2-0.7c0.9,0.3,1.9,0.6,3,0.7c0.2-0.3,0.3-0.6,0.6-0.9c-0.9-0.1-1.7-0.2-2.4-0.3C21.1,35.2,21.6,34.7,22,34.1z
			 M18,34.5h1.2h1.2c-0.3,0.3-0.7,0.5-1.2,0.7C18.7,35,18.3,34.8,18,34.5z"/>
		<path style="fill:#FFFFFF;" d="M29.2,33.5h-1.5v-0.9H29c0.5,0,0.9,0,1.3,0.1c0,0,0-0.2,0-0.5c0-0.3,0-0.5,0-0.5
			c-0.5,0-0.9,0.1-1.3,0.1h-1.3v-1c0.6-0.1,1.2-0.2,1.7-0.3c0.1,0,0.3,0,0.3,0c0.1,0,0.1,0,0.2,0c0.1,0,0.1-0.1-0.1-0.4
			c-0.1-0.2-0.2-0.4-0.4-0.6c-0.6,0.2-1.4,0.3-2.4,0.4c-0.9,0.1-1.9,0.2-2.9,0.2c0.1,0.3,0.2,0.6,0.2,0.8c0.9,0,1.7-0.1,2.4-0.2v0.9
			h-1.3c-0.5,0-0.9,0-1.3-0.1c0,0,0,0.2,0,0.5c0,0.3,0,0.5,0,0.5c0.5,0,0.9-0.1,1.3-0.1h1.3v0.9h-1.6c-0.6,0-1.1,0-1.5-0.1
			c0,0,0,0.2,0,0.5c0,0.3,0,0.5,0,0.5c0.5,0,1.1-0.1,1.5-0.1h1.6v1.3c0,0.1-0.1,0.2-0.2,0.2c-0.6,0-1,0-1.4,0
			c0.2,0.3,0.3,0.7,0.4,0.9c0.9,0,1.4,0,1.7-0.2c0.2-0.1,0.3-0.2,0.4-0.3s0.1-0.4,0.1-0.6v-1.3h1.6c0.6,0,1.1,0,1.5,0.1
			c0,0,0-0.2,0-0.5s0-0.5,0-0.5c-0.3,0-0.6,0-0.8,0H29.2z"/>
		<path style="fill:#FFFFFF;" d="M38,34.9c0.3,0,0.5,0,0.8,0c0,0,0-0.2,0-0.4s0-0.4,0-0.4c-0.4,0-0.7,0-1,0h-1v-0.5h0.9
			c0.4,0,0.7,0,0.9,0c0,0,0,0,0,0c0-0.3,0-0.6,0-0.9v-0.9h-1.1h-1.1v1.8h-0.3v-1.8h-1c-0.4,0-0.8,0-1,0c0,0,0,0,0,0
			c0,0.3,0,0.6,0,0.9v0.9h1.8v0.5H35c-0.4,0-0.7,0-0.9,0c0,0,0,0.2,0,0.4s0,0.4,0,0.4c0.3,0,0.6,0,0.7,0h0.7
			c-0.3,0.2-0.6,0.4-0.9,0.6s-0.7,0.3-1.1,0.4c0.2,0.2,0.4,0.4,0.6,0.7c0.7-0.3,1.4-0.6,1.9-1.2v0.6c0,0.2,0,0.4,0,0.6
			c0,0,0.2,0,0.5,0c0.3,0,0.5,0,0.5,0c0-0.2,0-0.4,0-0.6v-0.7c0.4,0.5,1,0.9,1.5,1.1c0.2-0.3,0.4-0.5,0.6-0.7
			c-0.7-0.2-1.3-0.6-1.7-1H38z M37.2,32.4h0.3h0.3V33h-0.7V32.4z M35.4,33h-0.3h-0.3v-0.6h0.6V33z"/>
		<path style="fill:#FFFFFF;" d="M36.3,29.7h-1.5v0.9c0,0,0,0.1,0,0.2c0,0.4,0,0.6,0,0.8c0,0,0,0.1,0,0.1c0.4,0,0.9-0.1,1.5-0.1h0.8
			c0.3,0,0.5,0,0.8,0c0,0,0,0,0,0c0-0.3,0-0.6,0-0.9v-0.9H36.3z M37,30.8h-0.7h-0.7v-0.5H37V30.8z"/>
		<path style="fill:#FFFFFF;" d="M32.1,33.2c-0.3,0.1-0.5,0.2-0.7,0.2l0.2,0.9c0.1,0,0.2-0.1,0.3-0.1c0.1,0,0.3-0.1,0.3-0.1v1.7
			c0,0.1,0,0.1-0.1,0.1c-0.2,0-0.4,0-0.5,0c0.1,0.3,0.2,0.6,0.2,0.8c0.5,0,0.8-0.1,1-0.2c0.1-0.1,0.2-0.2,0.2-0.3
			c0-0.1,0.1-0.3,0.1-0.5v-1v-1l0.7-0.3l-0.1-0.8l-0.6,0.2v-1.2h0.3c0.1,0,0.2,0,0.3,0c0,0,0-0.2,0-0.5s0-0.4,0-0.5
			c-0.1,0-0.2,0-0.3,0h-0.3v-0.7c0-0.2,0.1-0.5,0.2-0.7c0,0-0.1-0.1-0.4-0.1c-0.2,0-0.5,0-0.7,0c0,0.3,0,0.5,0,0.8v0.8H32
			c-0.1,0-0.3,0-0.4,0c0,0,0,0.2,0,0.5s0,0.4,0,0.5c0.2,0,0.3,0,0.4,0h0.4v1.4C32.3,33.2,32.2,33.2,32.1,33.2z"/>
		<path style="fill:#FFFFFF;" d="M44,30.2c0-0.1,0.1-0.2,0.1-0.2c0,0,0.1-0.1,0.1-0.1c0,0-0.1-0.1-0.3-0.2c-0.2-0.1-0.4-0.2-0.7-0.2
			c-0.2,0.6-0.4,1.1-0.7,1.7c-0.3,0.5-0.6,1-1,1.4c0.3,0.3,0.6,0.5,0.7,0.7c0.4-0.4,0.7-0.9,1-1.6h0.3v2.6v1.3c0,0.5,0,0.9-0.1,1.3
			c0,0,0.2,0,0.5,0s0.5,0,0.5,0c0-0.2,0-0.5,0-0.9v-0.9h1.1c0.4,0,0.8,0,1.1,0c0,0,0-0.2,0-0.5s0-0.5,0-0.5c-0.4,0-0.7,0-1.1,0h-1.1
			v-0.9h1c0.4,0,0.8,0,1,0c0,0,0-0.2,0-0.5c0-0.3,0-0.5,0-0.5c-0.3,0-0.7,0-1,0h-1v-0.8h1.1c0.5,0,0.8,0,1.1,0c0,0,0-0.2,0-0.5
			s0-0.5,0-0.5c-0.5,0-1,0.1-1.5,0.1h-1.5C43.9,30.5,43.9,30.4,44,30.2z"/>
		<path style="fill:#FFFFFF;" d="M41.4,34.1v-2.7c0.1-0.3,0.3-0.6,0.5-1c0.1-0.1,0.1-0.2,0.2-0.3c0.1,0,0.1-0.1,0.1-0.1
			c0-0.1-0.1-0.2-0.3-0.3c-0.2-0.1-0.4-0.2-0.7-0.3C41,30,40.8,30.5,40.5,31c-0.3,0.5-0.7,1-1,1.3c0.1,0.1,0.2,0.3,0.3,0.5
			c0.1,0.2,0.2,0.4,0.2,0.5c0.1-0.1,0.2-0.2,0.3-0.4c0.1-0.1,0.1-0.1,0.1-0.2v2c0,0.8,0,1.5-0.1,2c0,0,0.2,0,0.6,0
			c0.3,0,0.5,0,0.5,0c0-0.4-0.1-0.8-0.1-1.4V34.1z"/>
		<path style="fill:#FFFFFF;stroke:#000000;stroke-width:0.25;stroke-miterlimit:10;" d="M5.3,3.6v38.1H57V3.6H5.3z M55,39.7H7.3
			V5.6H55V39.7z"/>
		<g>
			<path style="fill:#FFFFFF;" d="M30,10.9c-0.4-0.3-0.9-0.5-1.4-0.4c-0.1,0-0.2,0-0.4,0.1l0,0c-0.3-2-0.6-2.3-2.4-2.1
				c-0.4-0.9-1-1.3-1.8-1.2c-1,0.1-1.3,0.5-1.6,1.9c-1-0.2-1.5,0-1.8,0.3c-0.4,0.3-0.6,0.9-0.5,1.5c0,0.5,0,1,0,1.5
				c0,0.2,0,0.4,0,0.7v2.1l-2.4-0.6v0.2c0,0.5,0,1,0,1.5c0,1.1,0,2.1,0,3.1c0.1,2.1,1.1,3.8,3,4.9c0.1,0.1,0.2,0.3,0.3,0.5
				c0,0.5,0,1,0,1.5c0,0.2,0,0.4,0,0.6v0.1H22V27c0-0.2,0-0.5,0-0.7c0-0.7,0-1.4,0-2.1c0-0.2-0.2-0.5-0.5-0.6
				c-1.5-0.7-2.4-1.9-2.7-3.4c-0.1-0.9-0.1-1.9-0.1-2.8c0-0.4,0-0.8,0-1.2c0-0.1,0-0.1,0-0.2c0.6,0.2,0.9,0.6,0.9,1.2
				c0,0.2,0,0.4,0,0.5c0,0.3,0,0.6,0,1c0,0.3,0.4,0.6,0.6,0.6c0.3,0.1,0.4,0,0.5-0.1c0.2-0.1,0.2-0.3,0.3-0.6c0-0.2,0-0.3,0-0.5l0-2
				c0-1.8,0-3.5,0-5.3c0-0.1,0-0.1,0-0.2c0-0.2,0-0.4,0.1-0.5c0.1-0.1,0.2-0.1,0.4-0.1c0,0,0,0,0,0c0.2,0,0.3,0,0.3,0.1
				c0.1,0.1,0.1,0.3,0.1,0.5c0,0.1,0,0.1,0,0.2c0,1.5,0,3,0,4.6c0,0.3,0,0.5,0.2,0.7c0.1,0.1,0.3,0.2,0.5,0.2c0,0,0,0,0,0
				c0.7,0,0.7-0.6,0.7-0.9c0-1.2,0-2.5,0-3.7l0-1.4c0-0.2,0-0.3,0-0.5c0-0.4,0-0.8,0-1.1c0-0.1,0.2-0.2,0.3-0.4c0,0,0.1-0.1,0.1-0.1
				c0,0,0.1,0.1,0.1,0.1c0.1,0.1,0.3,0.3,0.3,0.4c0.1,0.1,0,0.3,0,0.4c0,0.1,0,0.2,0,0.2v1.4c0,1.4,0,2.8,0,4.2c0,0.3,0,0.6,0.2,0.7
				c0.1,0.1,0.3,0.2,0.6,0.2c0,0,0,0,0,0c0.7,0,0.7-0.5,0.7-0.9c0-0.9,0-1.9,0-2.8l0-1.3c0-0.3,0-0.6,0-0.9c0-0.4,0.1-0.7,0.5-0.7
				c0.2,0,0.3,0,0.4,0.1c0.1,0.1,0.1,0.4,0.1,0.5c0,0.1,0,0.2,0,0.3l0,1.5c0,1.2,0,2.4,0,3.6c0,0.2,0,0.4,0.1,0.6
				c0.1,0.2,0.3,0.3,0.6,0.3c0,0,0,0,0,0c0.3,0,0.4-0.1,0.6-0.2c0.2-0.2,0.2-0.5,0.2-0.7c0-0.4,0-0.9,0-1.3c0-0.7,0-1.4,0-2.1
				c0-0.4,0.1-0.6,0.4-0.6c0.2,0,0.3,0,0.3,0.1c0.1,0.1,0.1,0.3,0.1,0.5c0,0.9,0,1.9,0,2.8c0,2.1,0,4.2,0,6.3c0,0.4-0.2,0.8-0.4,1.3
				c0,0.1-0.1,0.2-0.1,0.3c0,0.1-0.2,0.2-0.3,0.3c-0.2,0.2-0.3,0.3-0.3,0.5c0,0.8,0,1.6,0,2.4c0,0.3,0,0.6,0,0.9v0.1h1.2l-0.1-0.8
				c0-0.4-0.1-0.9-0.1-1.3c0-0.6-0.1-1.2,0.5-1.6c0.6-0.5,0.9-1.1,0.9-2c0-3,0-6.1,0-9.5C30.5,11.5,30.3,11.2,30,10.9z"/>
			<path style="fill:#FFFFFF;" d="M44.5,15.4c0-0.2,0-0.4,0-0.6v-0.2l-2.4,0.6v-0.4c0-0.4,0-0.8,0-1.3c0-1,0-2,0-3
				c0-0.8-0.6-1.4-1.4-1.5c-0.2,0-0.5,0-0.7,0c-0.1,0-0.1,0-0.2,0c-0.2-1.4-0.6-1.8-1.5-1.9c-0.9-0.1-1.4,0.3-1.9,1.2
				c-0.8-0.2-1.4-0.1-1.9,0.3c-0.4,0.4-0.6,1-0.6,1.8c-0.8-0.1-1.5,0-1.9,0.3c-0.3,0.2-0.4,0.6-0.4,1l0,1c0,2.8,0,5.8,0,8.7
				c0,0.8,0.6,1.5,0.9,1.8c0.4,0.5,0.5,0.9,0.5,1.6c-0.1,0.4-0.1,0.9-0.1,1.3c0,0.2,0,0.4,0,0.6l0,0.1H34l0-0.9c0-0.9,0-1.7,0-2.5
				c0-0.1-0.1-0.3-0.2-0.4c0,0,0,0-0.1-0.1l-0.1-0.1c-0.4-0.6-0.8-1.1-0.8-1.8c0-3.3,0-6.7,0-9.2c0-0.2,0-0.4,0.1-0.4
				c0.1-0.1,0.2-0.1,0.3-0.1c0.2,0,0.3,0,0.3,0.1c0.1,0.1,0.1,0.2,0.1,0.4c0,0.7,0,1.4,0,2.2c0,0.4,0,0.8,0,1.3c0,0.3,0,0.9,0.8,0.9
				c0.2,0,0.4-0.1,0.5-0.2c0.2-0.2,0.2-0.4,0.2-0.7c0-1,0-2,0-3.1c0-0.8,0-1.6,0-2.3c0-0.2,0-0.4,0.1-0.6c0.1-0.1,0.2-0.1,0.3-0.1
				c0.4,0,0.5,0.2,0.5,0.7c0,1.1,0,2.1,0,3.2V15c0,0,0,0.1,0,0.1c0,0.1,0,0.3,0.1,0.4c0.2,0.4,0.4,0.5,0.6,0.5c0,0,0,0,0,0
				c0.3,0,0.7-0.4,0.7-0.5c0.1-0.1,0.1-0.3,0.1-0.5c0,0,0-0.1,0-0.1c0-1.2,0-2.3,0-3.5l0-2.3c0-0.1,0-0.1,0-0.2c0-0.1,0-0.2,0-0.3
				c0.1-0.2,0.3-0.4,0.4-0.4c0.2,0,0.3,0.2,0.5,0.4c0,0,0,0.1,0,0.2c0,0.1,0,0.1,0,0.2v1.6c0,1.6,0,3.2,0,4.8c0,0.3,0,0.5,0.2,0.7
				c0.1,0.1,0.3,0.2,0.6,0.2c0.7,0,0.7-0.6,0.7-0.9c0-0.8,0-1.6,0-2.4c0-0.8,0-1.6,0-2.4c0-0.2,0-0.3,0.1-0.4
				c0.1-0.1,0.2-0.1,0.4-0.1c0,0,0,0,0,0c0.3,0,0.4,0.1,0.4,0.5c0,0.4,0,0.7,0,1.1v1.5c0,1.8,0,3.5,0,5.3c0,0.2,0,0.5,0.2,0.6
				c0.1,0.1,0.3,0.2,0.5,0.2c0,0,0,0,0,0c0.2,0,0.4-0.1,0.5-0.2c0.2-0.2,0.2-0.4,0.2-0.6l0-0.3c0-0.4,0-0.7,0-1.1
				c0-0.6,0.4-0.9,0.9-1c0,0.3,0,0.7,0,1c0,0.8,0,1.7,0,2.5c-0.2,1.9-1.1,3.2-2.9,4c0,0-0.4,0.2-0.4,0.4c0,0.8,0,1.6,0,2.3l0,0.8
				h1.2V27c0-0.2,0-0.4,0-0.6c0-0.5,0-1,0-1.6c0-0.2,0.1-0.4,0.3-0.5c1.6-0.9,2.5-2.2,2.7-3.6c0.2-1,0.2-2.1,0.2-3.1
				c0-0.4,0-0.8,0-1.2C44.5,16.1,44.5,15.8,44.5,15.4z"/>
		</g>
	</g>
</g>
</svg>
