<?xml version="1.0" encoding="utf-8"?>
<!-- Generator: Adobe Illustrator 22.0.0, SVG Export Plug-In . SVG Version: 6.00 Build 0)  -->
<svg version="1.1" xmlns="http://www.w3.org/2000/svg" xmlns:xlink="http://www.w3.org/1999/xlink" x="0px" y="0px"
	 viewBox="0 0 62.4 45.4" style="enable-background:new 0 0 62.4 45.4;" xml:space="preserve">
<g id="圖層_2">
	<g>
		<rect x="2.3" y="2.2" style="fill:#1C191B;" width="57.7" height="41.3"/>
		<polyline style="fill:#656565;" points="60,2.2 62.4,0.1 0,0.1 2.3,2.2 60,2.2 		"/>
		<polyline style="fill:#010001;" points="60,43.5 62.4,45.4 0,45.4 2.3,43.5 60,43.5 		"/>
		<polyline style="fill:#4A4A4B;" points="2.3,43.5 0,45.4 0,0.1 2.3,2.2 2.3,43.5 		"/>
		<polyline style="fill:#353537;" points="60,43.5 62.4,45.4 62.4,0.1 60,2.2 60,43.5 		"/>
	</g>
</g>
<g id="圖層_1">
	<g>
		<path style="fill:#FFFFFF;" d="M12.1,33.2H13c-0.4,0.8-0.7,1.4-1,1.7l1,0.3l0.1-0.3c0.2,0.1,0.4,0.1,0.8,0.3
			c0.1,0,0.2,0.1,0.2,0.1c-0.7,0.3-1.6,0.5-2.7,0.6c0.1,0.1,0.2,0.2,0.3,0.4c0.1,0.2,0.2,0.3,0.2,0.4c1.4-0.2,2.5-0.6,3.2-1.1
			c0.9,0.4,1.5,0.7,2,1.1L18,36c-0.5-0.3-1.1-0.6-2-1c0.4-0.5,0.7-1.1,1-1.8h0.7c0.2,0,0.4,0,0.6,0c0,0,0-0.2,0-0.5
			c0-0.3,0-0.5,0-0.5c-0.3,0-0.7,0-0.9,0h-0.9h-1.9c0.1-0.2,0.2-0.3,0.2-0.5c0-0.1,0.1-0.2,0.2-0.2c0,0,0.1,0,0.1-0.1
			c0,0-0.1-0.1-0.3-0.2c-0.2-0.1-0.5-0.2-0.7-0.2c-0.2,0.5-0.4,0.9-0.6,1.2h-1.1c-0.4,0-0.8,0-1.1,0c0,0,0,0.2,0,0.5s0,0.5,0,0.5
			C11.6,33.2,11.9,33.2,12.1,33.2z M14.1,33.2H15h0.9c-0.2,0.6-0.4,1.1-0.8,1.5c-0.6-0.2-1.1-0.4-1.5-0.5
			C13.8,33.8,13.9,33.5,14.1,33.2z"/>
		<path style="fill:#FFFFFF;" d="M12.4,32c0-0.1,0-0.3,0-0.5V31h2.4h2.4v0.5c0,0.2,0,0.4,0,0.5c0,0,0.2,0,0.5,0s0.5,0,0.5,0
			c0-0.3,0-0.6,0-0.9v-0.9h-2.9v-0.3c0-0.1,0-0.2,0.1-0.3c0,0-0.1-0.1-0.4-0.1c-0.2,0-0.5,0-0.7,0c0,0.2,0,0.3,0,0.4v0.4h-2.8V31
			c0,0.4,0,0.7,0,0.9c0,0,0.2,0,0.5,0C12.3,32,12.4,32,12.4,32z"/>
		<path style="fill:#FFFFFF;" d="M20.6,29.6c0,0,0,0.2,0,0.5c0,0.3,0,0.5,0,0.5c0.2,0,0.3,0,0.5,0h0.5c-0.4,0.4-0.8,0.7-1.2,1
			c-0.5,0.3-0.9,0.6-1.3,0.7c0.2,0.2,0.4,0.4,0.6,0.8c0.3-0.2,0.7-0.4,1-0.6v0.7h1.6V34h-1c-0.4,0-0.8,0-1,0c0,0,0,0.2,0,0.5
			c0,0.3,0,0.4,0,0.5c0.3,0,0.7,0,1,0h1v1h-1.4c-0.5,0-1,0-1.4-0.1c0,0,0,0.2,0,0.5s0,0.5,0,0.5c0.6,0,1.1-0.1,1.7-0.1h1.7h1.7
			c0.7,0,1.2,0,1.7,0.1c0,0,0-0.2,0-0.5s0-0.5,0-0.5c-0.5,0-1,0.1-1.4,0.1h-1.4v-1h1c0.4,0,0.8,0,1,0c0,0,0-0.2,0-0.5
			c0-0.3,0-0.4,0-0.5c-0.3,0-0.7,0-1,0h-1v-0.9h1.7v-0.7c0.3,0.2,0.7,0.4,1,0.6c0.2-0.3,0.4-0.6,0.6-0.9c-0.7-0.2-1.3-0.6-1.9-1.1
			c-0.6-0.5-1-0.9-1.4-1.4h-1.3C21.4,29.6,21,29.6,20.6,29.6z M24.7,32.2h-1.9h-1.9c0.8-0.5,1.4-1.1,1.9-1.8
			C23.3,31.1,23.9,31.7,24.7,32.2z"/>
		<path style="fill:#FFFFFF;" d="M33.3,29.7h-0.8c-0.6,0-1.1,0-1.5-0.1c0,0-0.1,0-0.1,0.1c0,0.4,0.1,0.9,0.1,1.6V32c0,0,0,0.1,0,0.2
			c0,0.3,0,0.5,0,0.6c0,0,0,0,0,0c0.3,0,0.6,0,1.1,0h1.1v2.9c0,0.1,0,0.1,0,0.2s-0.1,0-0.2,0c0,0,0,0-0.1,0c-0.5,0-0.9,0-1.2,0
			c0.1,0.1,0.1,0.3,0.2,0.5c0.1,0.2,0.1,0.4,0.1,0.5c0.4,0,0.8,0,1,0c0.3,0,0.5-0.1,0.6-0.2c0.2-0.1,0.3-0.2,0.4-0.3
			c0.1-0.1,0.1-0.4,0.1-0.6v-3v-1.5c0-0.6,0-1.1,0.1-1.5c0,0,0,0-0.1,0C33.9,29.7,33.6,29.7,33.3,29.7z M33.2,32h-1.2v-0.5h0.6h0.6
			V32z M33.2,30.9h-0.6h-0.6v-0.4h1.2V30.9z"/>
		<path style="fill:#FFFFFF;" d="M30.5,29.7H29c-0.6,0-1.1,0-1.5-0.1c0,0-0.1,0-0.1,0.1c0,0.4,0.1,1,0.1,1.8v1.8V35
			c0,0.8,0,1.3-0.1,1.8c0,0,0.2,0,0.5,0c0.3,0,0.5,0,0.6,0c-0.1-0.5-0.1-1.2-0.1-2v-2h1c0.4,0,0.8,0,1,0c0,0,0.1,0,0.1,0
			c0-0.4-0.1-0.9-0.1-1.5V29.7z M29.6,32h-1.2v-0.5H29h0.6V32z M29.6,30.9H29h-0.6v-0.4h1.2V30.9z"/>
		<path style="fill:#FFFFFF;" d="M36.2,31.9c0-0.4-0.2-0.8-0.4-1.3l-0.6,0.2c0.1,0.2,0.1,0.4,0.2,0.7c0.1,0.2,0.1,0.5,0.1,0.6
			L36.2,31.9z"/>
		<path style="fill:#FFFFFF;" d="M35.1,35.2c0.2,0.4,0.3,0.7,0.4,0.9c0.3-0.4,0.6-1,0.9-1.7v1.3c0,0.5,0,0.9-0.1,1.2
			c0,0,0.2,0,0.4,0c0.3,0,0.4,0,0.4,0c0-0.4-0.1-0.8-0.1-1.3v-1.3c0.3,0.3,0.5,0.6,0.6,0.8l0.5-0.6c-0.1-0.1-0.3-0.3-0.5-0.5
			c-0.3-0.3-0.5-0.5-0.6-0.6V33h1v0.5h1l-0.3,0.1c0.1,0.2,0.2,0.4,0.3,0.7h-0.4c-0.2,0-0.3,0-0.4,0c0,0,0,0.1,0,0.4
			c0,0.2,0,0.3,0,0.4c0.3,0,0.6,0,0.8,0h0.8v0.4h-0.7c-0.2,0-0.4,0-0.7,0c0,0,0,0.1,0,0.4s0,0.3,0,0.4c0.3,0,0.5,0,0.7,0h0.7v0.4
			c0,0.2,0,0.3,0,0.4c0,0,0.2,0,0.5,0c0.3,0,0.4,0,0.5,0c0-0.1,0-0.2,0-0.4V36h0.7c0.2,0,0.5,0,0.7,0c0,0,0-0.1,0-0.4s0-0.3,0-0.4
			c-0.3,0-0.5,0-0.7,0h-0.7v-0.4h0.8c0.3,0,0.5,0,0.8,0c0,0,0-0.1,0-0.4c0-0.2,0-0.3,0-0.4c-0.2,0-0.3,0-0.5,0h-0.5
			c0.1-0.2,0.3-0.5,0.4-0.7l-0.2-0.1H42c0.2,0,0.4,0,0.5,0c0,0,0-0.1,0-0.3s0-0.3,0-0.4c-0.3,0-0.6,0-0.9,0h-0.9v-0.3h0.6
			c0.2,0,0.4,0,0.6,0c0,0,0-0.1,0-0.4s0-0.3,0-0.4c-0.3,0-0.5,0-0.6,0h-0.6v-0.3h1.5v-1c0-0.4,0-0.7,0-1c0,0,0,0,0,0
			c-0.3,0-0.6,0-1,0h-1h-1c-0.4,0-0.7,0-1,0c0,0,0,0,0,0c0,0.3,0,0.6,0,1V31c0,0-0.1-0.1-0.2-0.2c-0.2-0.1-0.3-0.2-0.5-0.3
			c-0.1,0.5-0.2,1-0.4,1.4l0.5,0.3c0-0.1,0.1-0.2,0.2-0.4c0-0.1,0.1-0.2,0.1-0.2c0,0,0-0.1,0.1-0.2c0-0.1,0.1-0.1,0.1-0.2
			c0-0.1,0.1-0.1,0.1-0.1c0,0,0,0,0,0v0.6h1.4v0.3h-0.6c-0.3,0-0.4,0-0.6,0c0,0,0,0.1,0,0.3s0,0.3,0,0.3c0.2,0,0.4,0,0.6,0h0.6v0.3
			h-1.6v-0.6h-1.1v-2c0.2,0,0.4-0.1,0.6-0.1c0.1,0,0.2,0,0.3,0c0,0,0.1,0,0.1,0c0.1,0,0-0.1-0.1-0.3c-0.1-0.2-0.2-0.3-0.4-0.5
			c-0.6,0.2-1.5,0.4-2.6,0.5c0.1,0.2,0.2,0.4,0.2,0.6c0.4,0,0.7-0.1,1-0.1v1.9h-0.6c-0.2,0-0.4,0-0.6,0c0,0,0,0.2,0,0.4
			c0,0.3,0,0.4,0,0.4c0.2,0,0.4,0,0.5,0h0.5c-0.1,0.4-0.3,0.8-0.5,1.2C35.5,34.6,35.3,34.9,35.1,35.2z M41.1,30.3h0.4v0.3V31h-0.4
			V30.3z M39.5,31h-0.4v-0.3v-0.3h0.4V31z M40.1,30.3h0.4v0.3V31h-0.4V30.3z M40.3,33.5H41c-0.1,0.2-0.2,0.5-0.3,0.7l0.2,0.1h-1
			l0.2-0.1c-0.1-0.2-0.2-0.5-0.3-0.7H40.3z"/>
		<path style="fill:#FFFFFF;" d="M49,34.6c0.4-0.8,0.7-1.8,0.9-3h0.3c0.1,0,0.2,0,0.3,0c0,0,0-0.2,0-0.5s0-0.4,0-0.5
			c-0.2,0-0.4,0-0.6,0h-0.6h-1.1c0-0.1,0.1-0.4,0.2-0.6c0-0.1,0.1-0.2,0.1-0.3c0,0,0.1-0.1,0.1-0.1c0-0.1-0.1-0.1-0.3-0.2
			c-0.2-0.1-0.5-0.1-0.7-0.2c-0.2,1.5-0.6,2.6-1.1,3.3v-0.1c0-0.1,0-0.3,0-0.4h-1.6v-0.8h0.9c0.3,0,0.6,0,0.9,0c0,0,0-0.2,0-0.5
			c0-0.3,0-0.5,0-0.5c-0.3,0-0.5,0-0.6,0h-0.6V30c0-0.2,0.1-0.4,0.2-0.6c0,0-0.1-0.1-0.4-0.1c-0.2,0-0.5,0-0.7,0c0,0.2,0,0.5,0,0.6
			v0.6h-0.6c-0.2,0-0.4,0-0.6,0c0,0,0,0.2,0,0.5s0,0.4,0,0.5c0.2,0,0.3,0,0.4,0H44V33c0,0.6-0.1,1.2-0.2,1.6
			c-0.1,0.6-0.4,1.1-0.8,1.6c0.3,0.2,0.5,0.4,0.7,0.6c0.4-0.5,0.8-1.1,0.9-1.8c0.1-0.5,0.2-1.2,0.2-1.9h0.7c0,1.7-0.1,2.6-0.2,2.7
			c-0.1,0.1-0.1,0.1-0.2,0.1c-0.2,0-0.4,0-0.6,0c0.1,0.2,0.2,0.5,0.2,0.9c0.4,0,0.7,0,0.8,0c0.2,0,0.4-0.2,0.5-0.3
			c0.1-0.1,0.2-0.5,0.2-1c0-0.4,0.1-1.2,0.1-2.4c0,0,0,0,0.1,0c0.3,0.2,0.5,0.4,0.6,0.5c0.1-0.2,0.2-0.3,0.3-0.5
			c0.1,0.6,0.3,1.1,0.6,1.6c-0.4,0.6-1,1-1.7,1.4c0.1,0.1,0.2,0.2,0.3,0.4c0.1,0.2,0.2,0.3,0.2,0.4c0.7-0.4,1.3-0.8,1.7-1.4
			c0.4,0.5,0.9,1,1.5,1.3c0.2-0.3,0.4-0.6,0.6-0.8C49.9,35.7,49.4,35.2,49,34.6z M48.8,32.7c-0.1,0.3-0.2,0.6-0.3,0.9
			c-0.2-0.5-0.4-1.2-0.6-1.9l0-0.1h1C48.9,32.1,48.8,32.4,48.8,32.7z"/>
		<path style="fill:#FFFFFF;" d="M5.3,3.6v38.1H57V3.6H5.3z M55,39.7H7.3V5.6H55V39.7z"/>
		<polygon style="fill:#FFFFFF;" points="38.6,26.2 50.1,26.2 50.1,19.3 51.1,18.9 50.4,17.5 48.6,18.4 48.6,24.7 40.1,24.7 
			40.1,18.3 38,17.5 37.4,18.9 38.6,19.4 		"/>
		<path style="fill:#FFFFFF;" d="M41.5,23.7h5.4V12.9h2.6l-5.3-5.1L39,13.4l2.5-0.1V23.7z M44.3,9.9l1.5,1.5h-0.4v10.8H43V11.7
			l-0.5,0L44.3,9.9z"/>
		<path style="fill:#FFFFFF;" d="M34.8,26.2l0-17.7l-11,0l0,17.7L34.8,26.2z M25.3,24.7l0-1.7l3.5,0l0,0.9l2.6-1l1.9-0.7l0,2.4
			L25.3,24.7z M33.3,10l0,11.7L31.4,21l-2.6-1l0,0.9l-3.5,0l0-11L33.3,10z"/>
		<path style="fill:#FFFFFF;" d="M25.7,15.3l7.3,0l0-5.1l-7.3,0L25.7,15.3z M32.2,11l0,3.6l-5.8,0l0-3.6L32.2,11z"/>
		<path style="fill:#FFFFFF;" d="M22.6,26.2l0-17.7l-11,0l0,17.7L22.6,26.2z M13.1,24.7l0-2.4l1.9,0.7l2.6,0.9l0-0.9l3.5,0l0,1.7
			L13.1,24.7z M21.1,10l0,11l-3.5,0l0-0.9L15,21l-1.9,0.7l0-11.7L21.1,10z"/>
		<path style="fill:#FFFFFF;" d="M13.4,15.3l7.3,0l0-5.1l-7.3,0L13.4,15.3z M19.9,11l0,3.6l-5.8,0l0-3.6L19.9,11z"/>
	</g>
</g>
</svg>
