<?xml version="1.0" encoding="utf-8"?>
<!-- Generator: Adobe Illustrator 22.0.0, SVG Export Plug-In . SVG Version: 6.00 Build 0)  -->
<svg version="1.1" xmlns="http://www.w3.org/2000/svg" xmlns:xlink="http://www.w3.org/1999/xlink" x="0px" y="0px"
	 viewBox="0 0 62.4 45.4" style="enable-background:new 0 0 62.4 45.4;" xml:space="preserve">
<g id="圖層_2">
	<g>
		<rect x="2.3" y="2.2" style="fill:#1C191B;" width="57.7" height="41.3"/>
		<polyline style="fill:#656565;" points="60,2.2 62.4,0 0,0 2.3,2.2 60,2.2 		"/>
		<polyline style="fill:#010001;" points="60,43.4 62.4,45.4 0,45.4 2.3,43.4 60,43.4 		"/>
		<polyline style="fill:#4A4A4B;" points="2.3,43.4 0,45.4 0,0 2.3,2.2 2.3,43.4 		"/>
		<polyline style="fill:#353537;" points="60,43.4 62.4,45.4 62.4,0 60,2.2 60,43.4 		"/>
	</g>
</g>
<g id="圖層_1">
	<g>
		<path style="fill:#FFFFFF;" d="M20.7,36.3h1.8h1.8c0.8,0,1.3,0,1.8,0.1c0,0,0-0.2,0-0.6c0-0.3,0-0.5,0-0.5c-0.5,0-1.1,0.1-1.5,0.1
			H23v-4.1h1.3c0.5,0,0.9,0,1.3,0.1c0,0,0-0.2,0-0.6s0-0.5,0-0.6c-0.7,0.1-1.4,0.1-1.9,0.1h-1.9c-1,0-1.8,0-2.4-0.1c0,0,0,0.2,0,0.6
			s0,0.5,0,0.6c0.5,0,0.9-0.1,1.3-0.1h1.3v4.1h-1.5c-0.6,0-1.1,0-1.5-0.1c0,0,0,0.2,0,0.5c0,0.3,0,0.5,0,0.6
			C19.5,36.3,20.1,36.3,20.7,36.3z"/>
		<path style="fill:#FFFFFF;" d="M28.7,34.1v-2.7c0.1-0.3,0.3-0.6,0.5-1c0.1-0.1,0.1-0.2,0.2-0.3c0.1,0,0.1-0.1,0.1-0.1
			c0-0.1-0.1-0.2-0.3-0.3c-0.2-0.1-0.4-0.2-0.7-0.3C28.3,30,28,30.5,27.7,31c-0.3,0.5-0.7,1-1,1.3c0.1,0.1,0.2,0.3,0.3,0.5
			c0.1,0.2,0.2,0.4,0.2,0.5c0.1-0.1,0.2-0.2,0.3-0.4c0.1-0.1,0.1-0.1,0.1-0.2v2c0,0.8,0,1.5-0.1,2c0,0,0.2,0,0.6,0s0.5,0,0.5,0
			c0-0.4-0.1-0.8-0.1-1.4V34.1z"/>
		<path style="fill:#FFFFFF;" d="M32.6,30.7h-1.5c0.1-0.1,0.1-0.3,0.2-0.5c0-0.1,0.1-0.2,0.1-0.2c0,0,0.1-0.1,0.1-0.1
			c0,0-0.1-0.1-0.3-0.2c-0.2-0.1-0.4-0.2-0.7-0.2c-0.2,0.6-0.4,1.1-0.7,1.7c-0.3,0.5-0.6,1-1,1.4c0.3,0.3,0.6,0.5,0.7,0.7
			c0.4-0.4,0.7-0.9,1-1.6h0.3v2.6v1.3c0,0.5,0,0.9-0.1,1.3c0,0,0.2,0,0.5,0c0.3,0,0.5,0,0.5,0c0-0.2,0-0.5,0-0.9v-0.9H33
			c0.4,0,0.8,0,1.1,0c0,0,0-0.2,0-0.5c0-0.3,0-0.5,0-0.5c-0.4,0-0.7,0-1.1,0h-1.1v-0.9h1c0.4,0,0.8,0,1,0c0,0,0-0.2,0-0.5
			c0-0.3,0-0.5,0-0.5c-0.3,0-0.7,0-1,0h-1v-0.8H33c0.5,0,0.8,0,1.1,0c0,0,0-0.2,0-0.5c0-0.3,0-0.5,0-0.5
			C33.6,30.6,33.1,30.7,32.6,30.7z"/>
		<path style="fill:#FFFFFF;" d="M37.6,29.7c0,0,0,0.1,0,0.4c0,0.2,0,0.4,0,0.4c0.2,0,0.3,0,0.5,0h0.5c0,0.1-0.1,0.3-0.2,0.5
			c-0.1-0.1-0.3-0.3-0.5-0.4l-0.2,0.3L37,30.5c-0.1,0.2-0.2,0.5-0.4,0.9v-1.1c0-0.3,0.1-0.5,0.2-0.8c0,0-0.1-0.1-0.4-0.1
			c-0.2,0-0.4,0-0.6,0c0,0.3,0,0.5,0,0.7v0.7v1.4c0,0.8-0.1,1.5-0.2,2.1c-0.2,0.8-0.5,1.4-0.9,1.9c0.1,0.1,0.2,0.2,0.3,0.3
			c0.1,0.1,0.2,0.2,0.3,0.3c0.5-0.5,0.8-1.2,1-1.9c0.3,0.5,0.5,0.9,0.6,1.1l0.6-0.7c0-0.1-0.2-0.2-0.4-0.5c-0.4-0.5-0.6-0.9-0.7-1
			c0.1-0.5,0.1-1,0.1-1.7v-0.3l0.3,0.1c0.1-0.2,0.3-0.5,0.6-1c0.1,0.1,0.3,0.2,0.4,0.4c-0.3,0.4-0.7,0.7-1.1,0.9
			c0.2,0.2,0.3,0.4,0.5,0.6c0.2-0.1,0.3-0.2,0.5-0.3c0,0.3,0,0.6,0,1v1h1h1.4c-0.1,0.3-0.2,0.7-0.4,1.1l0.5,0.1h-1.6l0.5-0.2
			c-0.1-0.4-0.2-0.7-0.4-1.1l-0.8,0.2c0.2,0.3,0.3,0.7,0.4,1h-0.6c-0.2,0-0.4,0-0.6,0c0,0,0,0.2,0,0.4c0,0.3,0,0.4,0,0.4
			c0.4,0,0.8,0,1.2,0h1.2h1.2c0.5,0,0.9,0,1.2,0c0,0,0-0.2,0-0.4c0-0.3,0-0.4,0-0.4c-0.3,0-0.5,0-0.6,0h-0.6
			c0.1-0.2,0.3-0.6,0.5-1.1l-0.8-0.2h1v-1c0-0.4,0-0.7,0-1c0,0,0,0,0,0c-0.2,0-0.5,0-0.9,0h-0.9c-0.7,0-1.3,0-1.7-0.1
			c0.2-0.2,0.5-0.4,0.7-0.6v0.3h2.1v-0.3c0.3,0.4,0.7,0.7,1,0.9c0.1-0.3,0.3-0.5,0.6-0.7c-0.3-0.2-0.7-0.4-0.9-0.7
			c0,0,0.1,0,0.1-0.1c0.1-0.1,0.2-0.1,0.3-0.2c0.1-0.1,0.1-0.1,0.2-0.1c0,0,0.1,0,0.1,0c0,0,0-0.1-0.1-0.3c-0.1-0.1-0.2-0.3-0.4-0.4
			c-0.1,0.1-0.3,0.3-0.6,0.6c-0.1-0.1-0.2-0.2-0.2-0.3c0.1-0.1,0.3-0.2,0.4-0.3c0.1-0.1,0.2-0.1,0.2-0.1c0,0,0.1,0,0.1,0
			c0,0,0-0.1-0.1-0.3c-0.1-0.2-0.2-0.3-0.4-0.4c-0.2,0.2-0.4,0.4-0.5,0.6c-0.1-0.2-0.2-0.4-0.2-0.7l-0.7,0.2c0,0.1,0.1,0.2,0.1,0.3
			l-0.5-0.2l-0.1,0h-0.7C38.1,29.7,37.8,29.7,37.6,29.7z M38.7,33.3h0.9h0.9v0.6h-1.9V33.3z M39.6,29.9c0.2,0.6,0.5,1.1,0.8,1.6
			h-0.7h-0.7C39.2,31,39.4,30.5,39.6,29.9z"/>
		<path style="fill:#FFFFFF;" d="M35,31c0,0.4,0,0.7-0.1,1.1c-0.1,0.4-0.1,0.7-0.2,0.9l0.6,0.3c0.1-0.3,0.2-0.6,0.3-1
			c0-0.2,0-0.4,0.1-0.6c0-0.1,0-0.2,0.1-0.3c0,0,0-0.1,0-0.1c0-0.1-0.1-0.1-0.3-0.2C35.4,31.1,35.2,31,35,31z"/>
		<path style="fill:#FFFFFF;" d="M5.3,3.6v38.1H57V3.6H5.3z M55,39.7H7.3V5.6H55V39.7z"/>
		<path style="fill:#FFFFFF;" d="M30.2,24.3c0,0,0.1,0,0.1,0c2,0,3.5-0.9,4.6-2.6c0.9-1.6,1-3.2,0.3-4.8c-0.3-0.7-0.8-1.3-1.2-1.9
			l-0.1-0.2c-0.5-0.7-0.9-1.4-0.8-2.3c0-0.3,0-0.5-0.1-0.7c-0.2-0.2-0.5-0.2-0.8-0.3c-0.4,0-0.9,0-1.3,0h-2.3c-0.4,0-0.7,0-0.9,0.2
			c-0.2,0.2-0.2,0.5-0.2,0.8c0.1,0.6-0.1,1.2-0.6,1.8c-0.2,0.2-0.3,0.4-0.5,0.7c-0.1,0.2-0.2,0.3-0.4,0.5c-0.6,0.8-0.9,1.6-1.1,2.7
			c-0.2,1.4,0.2,2.9,1.2,4.1C27.2,23.6,28.6,24.3,30.2,24.3z M27,16.3c0.2-0.3,0.4-0.6,0.6-0.9c0.2-0.3,0.4-0.6,0.6-0.9
			c0.3-0.4,0.5-0.9,0.4-1.4c0-0.1,0-0.2,0-0.3h3.1c-0.2,0.9,0.2,1.6,0.7,2.2c0.2,0.3,0.4,0.5,0.6,0.8c0.1,0.2,0.3,0.4,0.4,0.6
			c1,1.4,1.2,2.8,0.5,4.3v0c-0.7,1.5-1.9,2.3-3.5,2.4c-1,0.1-2.1-0.3-2.9-1.1c-0.9-0.8-1.4-1.8-1.4-2.9C26.1,18.1,26.4,17.2,27,16.3
			z"/>
		<path style="fill:#FFFFFF;" d="M28.2,11.1C28.2,11.1,28.2,11.1,28.2,11.1c1.4,0,2.8,0,4.2,0c0.2,0,0.4,0,0.5-0.2
			c0.1-0.1,0.2-0.3,0.2-0.4c0-0.2-0.1-0.3-0.2-0.4c-0.1-0.1-0.3-0.2-0.5-0.2c-0.5,0-1,0-1.4,0l-0.6,0l-0.6,0c-0.5,0-1,0-1.5,0
			c0,0,0,0,0,0c-0.2,0-0.4,0.1-0.5,0.2c-0.1,0.1-0.2,0.2-0.2,0.4c0,0.2,0.1,0.3,0.2,0.4C27.8,11.1,28,11.1,28.2,11.1z"/>
		<path style="fill:#FFFFFF;" d="M28.2,9.5C28.2,9.5,28.3,9.5,28.2,9.5c0.5,0,1,0,1.5,0l2.6,0c0.2,0,0.7,0,0.7-0.6
			c0-0.2-0.1-0.3-0.2-0.4c-0.2-0.2-0.4-0.2-0.6-0.2l-4.1,0c-0.6,0-0.7,0.4-0.8,0.6c0,0.2,0,0.3,0.2,0.4C27.8,9.5,28.1,9.5,28.2,9.5z
			"/>
		<path style="fill:#FFFFFF;" d="M29.1,7.9L29.1,7.9c0.8,0,1.6,0,2.4,0c0,0,0,0,0,0c0.2,0,0.4-0.1,0.5-0.2c0.1-0.1,0.2-0.3,0.2-0.4
			s-0.1-0.6-0.7-0.6c-0.3,0-0.6,0-0.8,0l-0.4,0l-0.4,0c-0.3,0-0.6,0-0.9,0c-0.2,0-0.3,0-0.4,0.1c-0.1,0.1-0.3,0.2-0.2,0.5
			C28.4,7.6,28.6,7.9,29.1,7.9z"/>
		<path style="fill:#FFFFFF;" d="M27.1,24c0-0.1-0.1-0.3-0.2-0.3c-0.2-0.1-0.6-0.1-0.8,0.1c-0.3,0.4-0.6,0.8-1,1.3
			c-0.1,0.2-0.1,0.4,0,0.6c0.1,0.2,0.4,0.3,0.6,0.3c0,0,0,0,0,0l0.1,0c0.1,0,0.2-0.1,0.3-0.2l0.1-0.1c0.3-0.4,0.6-0.8,0.9-1.3
			C27.1,24.3,27.1,24.1,27.1,24z"/>
		<path style="fill:#FFFFFF;" d="M35.3,25.9c0.2-0.1,0.3-0.5,0.2-0.8c-0.3-0.5-0.6-0.9-1-1.4c-0.1-0.2-0.5-0.2-0.7-0.1
			c-0.1,0.1-0.2,0.2-0.3,0.3c0,0,0,0,0,0.1L33.4,24l0,0.2c0,0.1,0,0.1,0.1,0.2l0.2,0.3c0.3,0.4,0.6,0.8,0.9,1.2
			c0.1,0.1,0.2,0.1,0.4,0.1C35.1,26,35.2,26,35.3,25.9z"/>
		<path style="fill:#FFFFFF;" d="M36.1,21.5c0.4,0.2,0.8,0.3,1.2,0.4l0.6,0.2L38,22c0,0,0.1,0,0.1-0.1c0.1-0.1,0.3-0.2,0.3-0.4
			c0-0.2-0.1-0.6-0.4-0.7c-0.5-0.2-1-0.4-1.6-0.5c-0.3-0.1-0.6,0.2-0.7,0.4C35.7,20.9,35.8,21.4,36.1,21.5z"/>
		<path style="fill:#FFFFFF;" d="M22.7,22C22.7,22,22.8,22,22.7,22c0.6-0.1,1.2-0.3,1.7-0.5c0.2-0.1,0.4-0.5,0.3-0.7
			c0-0.2-0.2-0.3-0.3-0.4c0,0-0.1,0-0.1-0.1l-0.1-0.1l-0.6,0.2c-0.4,0.1-0.8,0.3-1.2,0.4c-0.2,0.1-0.4,0.5-0.3,0.7
			C22.2,21.8,22.5,22,22.7,22z"/>
		<path style="fill:#FFFFFF;" d="M30.2,27.5c0,0,0.1,0,0.1,0c0.1,0,0.3,0,0.4-0.1c0.1-0.1,0.2-0.3,0.2-0.5v-1.4
			c0-0.4-0.3-0.7-0.6-0.7c0,0,0,0,0,0c-0.2,0-0.3,0.1-0.4,0.2c-0.1,0.1-0.2,0.3-0.2,0.5l0,0.3c0,0.4,0,0.8,0,1.2
			C29.7,27.2,30,27.5,30.2,27.5z"/>
		<path style="fill:#FFFFFF;" d="M22.5,17.1c0.5,0.2,1,0.3,1.5,0.5c0,0,0.1,0,0.1,0c0.2,0,0.5-0.1,0.6-0.3c0.1-0.2,0-0.4,0-0.5
			c-0.1-0.2-0.1-0.3-0.2-0.3c-0.4-0.2-0.8-0.3-1.2-0.4l-0.6-0.2l-0.1,0.1c0,0-0.1,0.1-0.1,0.1c-0.1,0.1-0.3,0.2-0.3,0.4
			C22,16.6,22.2,17,22.5,17.1z"/>
		<path style="fill:#FFFFFF;" d="M36.4,17.6c0.1,0,0.2,0,0.3,0c0.4-0.1,0.9-0.3,1.4-0.5c0.2-0.1,0.4-0.4,0.4-0.7
			c0-0.2-0.2-0.3-0.3-0.4c0,0-0.1-0.1-0.1-0.1L38,15.8L37.4,16c-0.4,0.1-0.8,0.3-1.2,0.4c-0.2,0.1-0.3,0.2-0.4,0.3
			c0,0.1-0.1,0.3,0,0.5C35.9,17.5,36.1,17.6,36.4,17.6z"/>
	</g>
</g>
</svg>
