<?xml version="1.0" encoding="utf-8"?>
<!-- Generator: Adobe Illustrator 22.0.0, SVG Export Plug-In . SVG Version: 6.00 Build 0)  -->
<svg version="1.1" xmlns="http://www.w3.org/2000/svg" xmlns:xlink="http://www.w3.org/1999/xlink" x="0px" y="0px"
	 viewBox="0 0 62.4 45.4" style="enable-background:new 0 0 62.4 45.4;" xml:space="preserve">
<g id="圖層_2">
	<g>
		<rect x="2.3" y="2.2" style="fill:#1C191B;" width="57.7" height="41.3"/>
		<polyline style="fill:#656565;" points="60,2.2 62.4,0 0,0 2.3,2.2 60,2.2 		"/>
		<polyline style="fill:#010001;" points="60,43.4 62.4,45.4 0,45.4 2.3,43.4 60,43.4 		"/>
		<polyline style="fill:#4A4A4B;" points="2.3,43.4 0,45.4 0,0 2.3,2.2 2.3,43.4 		"/>
		<polyline style="fill:#353537;" points="60,43.4 62.4,45.4 62.4,0 60,2.2 60,43.4 		"/>
	</g>
</g>
<g id="圖層_1">
	<g>
		<g>
			<path style="fill:#FFFFFF;" d="M5.3,3.6v38.1H57V3.6H5.3z M55,39.7H7.3V5.6H55V39.7z"/>
			<path style="fill:#FFFFFF;" d="M17.5,31l0.6-0.8c-0.3-0.2-0.9-0.5-1.6-0.8L16,30.1c0.3,0.2,0.6,0.3,0.8,0.5
				C17.1,30.8,17.4,30.9,17.5,31z"/>
			<path style="fill:#FFFFFF;" d="M17.1,33.8c-0.2,0.3-0.4,0.8-0.6,1.2c-0.2,0.4-0.4,0.7-0.6,1l0.8,0.6c0.3-0.6,0.6-1.1,0.8-1.6
				c0.1-0.1,0.1-0.2,0.2-0.3c0.1,0,0.1-0.1,0.1-0.1c0-0.1,0-0.2-0.2-0.4C17.5,34.1,17.3,34,17.1,33.8z"/>
			<path style="fill:#FFFFFF;" d="M22.6,32.6c0-0.7,0-1.3,0.1-1.7c0,0,0,0-0.1,0c-0.3,0-0.6,0-0.9,0h-0.9v-0.8
				c0-0.3,0.1-0.5,0.2-0.8c0,0-0.1-0.1-0.4-0.1c-0.2,0-0.5,0-0.7,0c0,0.3,0,0.5,0,0.8V31h-0.9c-0.4,0-0.6,0-0.9,0c0,0-0.1,0-0.1,0
				c0,0.4,0.1,0.9,0.1,1.4v1.4v1.4c0,0.6,0,1.1-0.1,1.4c0,0,0.2,0,0.5,0c0.3,0,0.5,0,0.5,0c0-0.1,0-0.2,0-0.2v-0.2h2.7v0.2
				c0,0.1,0,0.1,0,0.2c0,0,0.2,0,0.5,0c0.3,0,0.5,0,0.5,0c-0.1-0.6-0.1-1.4-0.1-2.4V32.6z M19.8,34.7v0.6h-0.9V34h0.9V34.7z
				 M19.8,32.5v0.6h-0.9v-1.3h0.9V32.5z M21.7,35.3h-0.9v-0.6V34h0.9V35.3z M21.7,32.5v0.6h-0.9v-1.3h0.9V32.5z"/>
			<path style="fill:#FFFFFF;" d="M16.4,32.7c0.3,0.2,0.6,0.3,0.7,0.4l0.5-0.8c-0.3-0.2-0.8-0.5-1.5-0.8l-0.5,0.7
				C15.8,32.4,16.1,32.6,16.4,32.7z"/>
			<path style="fill:#FFFFFF;" d="M30.4,34.1c0.2-0.3,0.4-0.6,0.6-0.8c-0.6-0.2-1.1-0.5-1.6-0.9c0.5-0.6,0.9-1.3,1.1-2.2L29.8,30
				l-0.2,0h-1.1c0-0.1,0.1-0.2,0.1-0.3c0,0,0.1-0.1,0.1-0.1c0,0,0,0,0.1,0c0,0-0.1-0.1-0.3-0.2c-0.2-0.1-0.4-0.1-0.6-0.2
				c-0.1,0.4-0.3,0.9-0.5,1.3c-0.2,0.4-0.5,0.7-0.8,1v-2h-1.4c-0.5,0-1,0-1.4-0.1c0,0-0.1,0-0.1,0.1c0,0.4,0.1,0.8,0.1,1.3v1.3H25
				v1.5v1.5l-0.4,0.1v-1.7c0-0.3,0.1-0.5,0.2-0.8c0,0-0.1-0.1-0.4-0.1c-0.2,0-0.4,0-0.6,0c0,0.4,0.1,0.9,0.1,1.4v1.3l-0.4,0.1
				l0.2,0.9c1.4-0.3,2.4-0.6,3.2-0.8l-0.1-0.8l-0.9,0.2V34h0.9v-0.2c0.1,0.2,0.2,0.3,0.3,0.5l0.2-0.1v1.3c0,0.5,0,0.9-0.1,1.3
				c0,0,0.2,0,0.5,0c0.3,0,0.4,0,0.4,0c0,0,0,0,0,0c0,0,0-0.1,0-0.1v-0.1h1.5v0.1c0,0,0,0,0,0.1c0,0,0,0,0,0c0,0,0.2,0,0.5,0
				c0.3,0,0.5,0,0.5,0c0-0.4-0.1-0.8-0.1-1.3L30.4,34.1L30.4,34.1z M25.7,31.4h-1l0-1h0.5h0.5V31.4z M28.2,30.9h1.1
				c-0.1,0.2-0.2,0.3-0.3,0.5c-0.1,0.1-0.2,0.3-0.3,0.5c-0.2-0.3-0.4-0.6-0.6-0.8L28.2,30.9z M27.5,33c-0.3,0.2-0.5,0.3-0.8,0.4
				v-0.2h-0.9v-0.9h0.8v-0.5c0.2,0.1,0.4,0.3,0.6,0.5c0.1-0.2,0.3-0.3,0.5-0.6c0.1,0.3,0.3,0.5,0.5,0.7C28,32.6,27.7,32.8,27.5,33z
				 M29.5,35.7H28v-1.1h0.7h0.7V35.7z M28.8,33.8h-1c0.4-0.2,0.7-0.5,1-0.7c0.3,0.3,0.6,0.5,1,0.7H28.8z"/>
			<path style="fill:#FFFFFF;" d="M38.5,31.7c0,0.1,0,0.2,0,0.2c0,0.1,0,0.1,0,0.1c0,0,0,0-0.1,0h-0.1c0,0,0,0-0.1,0v-0.2v-0.5h0.3
				c0.1,0,0.2,0,0.3,0c0,0,0-0.1,0-0.3s0-0.3,0-0.3c-0.1,0-0.3,0-0.4,0H38v-0.4h0.3c0.1,0,0.2,0,0.3,0c0,0,0-0.1,0-0.3
				c0-0.2,0-0.3,0-0.3c-0.1,0-0.2,0-0.3,0H38v-0.2c0-0.1,0-0.2,0.1-0.2c0,0-0.1-0.1-0.3-0.1c-0.2,0-0.3,0-0.5,0c0,0.1,0,0.2,0,0.3
				v0.3h-0.2c0,0,0,0,0-0.1c0,0,0-0.1,0-0.1c0,0,0-0.1,0.1-0.1c0,0,0,0,0,0c0,0-0.2-0.1-0.6-0.2c-0.1,0.5-0.2,0.8-0.4,1.1
				c0.1,0,0.3,0.1,0.5,0.3h-0.2c0,0-0.1,0-0.1,0c0,0,0,0-0.1,0c0,0,0,0.1,0,0.3c0,0.2,0,0.3,0,0.3c0,0,0,0,0.1,0c0,0,0.1,0,0.1,0
				h0.2c0,0.3-0.1,0.5-0.3,0.7l0-0.3l-0.4,0.1v-0.4h0.1c0,0,0,0,0.1,0c0,0,0,0,0,0c0,0,0-0.1,0-0.3s0-0.3,0-0.3c-0.1,0-0.2,0-0.3,0
				h-0.3v-0.3h0.3c0.1,0,0.2,0,0.3,0c0,0,0-0.1,0-0.3s0-0.3,0-0.3c-0.1,0-0.2,0-0.3,0h-0.3v-0.2c0-0.1,0-0.2,0.1-0.2
				c0,0-0.1-0.1-0.3-0.1c-0.2,0-0.3,0-0.5,0c0,0.1,0,0.2,0,0.3v0.3H35c0,0,0,0,0-0.1c0,0,0-0.1,0-0.1c0,0,0-0.1,0.1-0.1c0,0,0,0,0,0
				c0,0-0.2-0.1-0.6-0.2c-0.1,0.4-0.1,0.7-0.3,0.9c-0.2-0.3-0.5-0.6-0.9-1h-0.7c-0.3,0.8-0.7,1.4-1.3,2c0.1,0.1,0.2,0.2,0.3,0.3
				c0.1,0.1,0.2,0.2,0.3,0.3l0.1-0.1v0.3h0.7v0.6h-0.5c-0.2,0-0.4,0-0.5,0c0,0,0,0.2,0,0.4c0,0.3,0,0.4,0,0.4c0.2,0,0.3,0,0.5,0h0.5
				v2.1c-0.4,0.1-0.7,0.1-1.1,0.2l0.2,0.8c0.5-0.1,1.3-0.2,2.2-0.4c0.1,0.1,0.3,0.3,0.5,0.6c0.3-0.1,0.7-0.2,1-0.4
				c0.3-0.2,0.6-0.3,0.8-0.5l-0.5-0.4h1.4l-0.4,0.4c0.6,0.3,1.1,0.6,1.5,0.9l0.7-0.5c-0.3-0.2-0.8-0.5-1.3-0.7h0.7v-1.5v-1.5h-1.6
				c0.2-0.1,0.4-0.3,0.5-0.5c0.1-0.2,0.2-0.4,0.2-0.7h0.2v0.4c0,0.2,0,0.3,0,0.4c0,0.1,0,0.1,0.1,0.2c0.1,0.1,0.2,0.1,0.4,0.1h0.3
				c0.1,0,0.2,0,0.3,0c0.1-0.1,0.1-0.1,0.2-0.2c0-0.1,0.1-0.2,0.1-0.5v0c-0.2-0.1-0.3-0.1-0.4-0.2C38.5,31.6,38.5,31.6,38.5,31.7z
				 M34.8,30.6C34.8,30.6,34.8,30.5,34.8,30.6c0.1-0.1,0.1-0.2,0.1-0.2h0.4v0.3h-0.5C34.7,30.7,34.7,30.6,34.8,30.6z M35.4,35.5
				c-0.3,0.2-0.6,0.3-1,0.5l-0.1-0.7l-1,0.2v-2h0.4c0.2,0,0.3,0,0.4,0c0,0,0-0.2,0-0.4c0-0.3,0-0.4,0-0.4c-0.1,0-0.3,0-0.4,0h-0.4
				v-0.6h0.4c0.1,0,0.2,0,0.4,0c0,0,0-0.1,0-0.4c0-0.3,0-0.4,0-0.4c-0.3,0-0.6,0-0.8,0h-0.8c0.3-0.3,0.5-0.7,0.7-1.1
				c0.3,0.4,0.5,0.7,0.7,1l0.6-0.7c0.1,0,0.1,0.1,0.2,0.1h-0.1c0,0,0,0-0.1,0c0,0,0,0-0.1,0c0,0,0,0.1,0,0.3c0,0.2,0,0.3,0,0.3
				c0,0,0,0,0.1,0c0,0,0.1,0,0.1,0h0.2c-0.1,0.4-0.2,0.7-0.6,0.9c0.2,0.1,0.3,0.3,0.4,0.5c0.3-0.1,0.4-0.3,0.6-0.6
				c0.1-0.2,0.2-0.5,0.2-0.8h0.2v0.5l-0.2,0l0.2,0.6c0.2,0,0.5-0.1,0.8-0.2c0.1,0.1,0.2,0.2,0.3,0.4h-1.9v1.5v1.5H35.4z M37.4,35
				h-0.9h-0.9v-0.3h1.8V35z M37.4,34.2h-1.8v-0.3h0.9h0.9V34.2z M37.4,33.1v0.3h-0.9h-0.9v-0.3H37.4z M37.4,30.7h-0.5
				c0,0,0-0.1,0.1-0.2c0,0,0-0.1,0-0.1s0-0.1,0-0.1h0.4V30.7z"/>
			<path style="fill:#FFFFFF;" d="M32.5,35.2c0-0.5-0.1-0.9-0.3-1.4l-0.6,0.1c0.1,0.2,0.1,0.5,0.2,0.7c0,0.2,0.1,0.5,0.1,0.7
				L32.5,35.2z"/>
			<path style="fill:#FFFFFF;" d="M34.2,33.9c-0.1-0.1-0.3-0.1-0.5-0.2c-0.1,0.5-0.2,0.9-0.3,1.3l0.6,0.1c0-0.1,0.1-0.3,0.2-0.6
				c0,0,0-0.1,0-0.2c0-0.1,0-0.1,0-0.2c0-0.1,0.1-0.1,0.1-0.1c0,0,0.1,0,0.1-0.1C34.5,34,34.4,33.9,34.2,33.9z"/>
			<path style="fill:#FFFFFF;" d="M43.6,30.1l-0.6-0.5l-0.2,0.1h-1.5h-0.7c-0.2,0-0.5,0-0.7,0c0,0,0,0.2,0,0.5c0,0.3,0,0.5,0,0.5
				c0.4,0,0.8,0,1.2,0h1.2c-0.3,0.3-0.5,0.6-0.7,0.9h-0.2v1.1c-0.5,0.1-1,0.1-1.6,0.2l0.2,1c0.1,0,0.4-0.1,0.7-0.1
				c0.3-0.1,0.6-0.1,0.8-0.1v2.1c0,0.1,0,0.1,0,0.1c0,0-0.1,0-0.1,0c-0.4,0-0.7,0-0.9,0c0.1,0.3,0.2,0.6,0.3,1
				c0.7,0,1.1-0.1,1.3-0.2c0.1-0.1,0.2-0.2,0.3-0.3C42,36.1,42,36,42,35.7v-2.3l1.5-0.2l0-0.9c-0.1,0-0.2,0-0.3,0
				c-0.5,0.1-0.9,0.1-1.1,0.2V32C42.6,31.5,43.1,30.9,43.6,30.1z"/>
			<path style="fill:#FFFFFF;" d="M46.1,34.4c0,0.6-0.1,1-0.1,1.2c0,0.2-0.1,0.3-0.3,0.3h-0.8c-0.1,0-0.2,0-0.3-0.1
				c0-0.1-0.1-0.2-0.1-0.4v-2.9v-2.1c0-0.3,0.1-0.5,0.2-0.8c0,0-0.2-0.1-0.5-0.1c-0.3,0-0.5,0-0.8,0c0.1,0.6,0.1,1.4,0.1,2.4v3.4
				c0,0.5,0.1,0.9,0.2,1.1c0.2,0.2,0.4,0.3,0.9,0.3h1c0.4,0,0.7-0.1,0.8-0.4c0.1-0.3,0.2-0.8,0.3-1.5c-0.1,0-0.3-0.1-0.4-0.2
				C46.3,34.6,46.2,34.5,46.1,34.4z"/>
			<path style="fill:#FFFFFF;" d="M27.4,21.7l17.9,0c0.7,0,1.5,0,2.2,0c0,0,0,0,0,0c0.3,0,0.5-0.1,0.7-0.4c0.3-0.6,0.7-1.3,1.1-2
				c0.1-0.2,0.1-0.5,0-0.7l-0.2-0.3c-0.3-0.5-0.6-1-0.9-1.6c-0.2-0.3-0.4-0.5-0.8-0.5c0,0,0,0,0,0c-3.3,0-6.5,0-9.8,0h-4
				c-2,0-4.1,0-6.1,0v-1.9H9.7v9.3h17.7V21.7z M47.2,20.3c0,0.1-0.1,0.1-0.1,0.1c-0.3-0.1-0.5-0.2-0.7-0.6c0,0,0-0.1-0.1-0.1h1.2
				C47.4,19.9,47.3,20.1,47.2,20.3z M45.3,17.5c0.6,0,1.2,0,1.8,0c0.1,0,0.1,0,0.1,0.1c0.1,0.2,0.2,0.4,0.3,0.6h-2c0,0,0,0,0-0.1
				C45.4,18,45.3,17.8,45.3,17.5l-0.1,0C45.2,17.5,45.3,17.5,45.3,17.5z M44.9,19.8c0.1,0.2,0.2,0.3,0.3,0.5l0,0.1
				c-0.2,0-0.3,0-0.5,0c-0.5,0-1.1,0-1.6,0c-0.3,0-0.5-0.2-0.7-0.5c0-0.1-0.1-0.1-0.1-0.2h2.5C44.9,19.7,44.9,19.8,44.9,19.8z
				 M41.2,17.5c0.2,0,0.3,0,0.5,0c0.1,0,0.2,0,0.3,0c0.3,0,0.6,0,0.9,0c0.5,0,0.9,0.2,1.1,0.6c0,0,0,0,0,0h-2.5c0,0,0,0,0,0
				L41.2,17.5L41.2,17.5z M41.2,20.3l0.1,0.1c0,0,0,0,0,0c-0.2,0-0.3,0-0.5,0c-0.4,0-0.8,0-1.2,0c-0.5,0-0.8-0.2-1.1-0.6
				c0,0-0.1-0.1-0.1-0.1h2.5C41,19.9,41.1,20.1,41.2,20.3z M37.7,17.5c0.1,0,0.2,0,0.3,0c0.3,0,0.6,0,0.9,0c0.5,0,0.8,0.1,1.1,0.6
				c0,0,0,0,0,0.1h-2.5c-0.1-0.1-0.1-0.3-0.2-0.4l-0.1-0.2C37.4,17.5,37.6,17.5,37.7,17.5z M27.5,17.5
				C27.5,17.5,27.5,17.5,27.5,17.5l2.1,0c1.8,0,3.7,0,5.5,0c0,0,0,0,0,0c0.4,0,0.7,0.2,0.9,0.5c0,0.1,0.1,0.1,0.1,0.2h-5.3v1.5h6.1
				c0,0,0,0.1,0.1,0.1c0.1,0.2,0.2,0.3,0.3,0.5l0,0l-9.8,0L27.5,17.5z M25.9,22.1H11.2v-2.4h14.7V22.1z M25.9,18.2H11.2v-2.4h14.7
				V18.2z"/>
			
				<rect x="49.3" y="14.5" transform="matrix(0.7071 -0.7071 0.7071 0.7071 4.0407 40.2876)" style="fill:#FFFFFF;" width="2.8" height="1.5"/>
			
				<rect x="49.9" y="21.3" transform="matrix(0.707 -0.7072 0.7072 0.707 -1.2035 42.4673)" style="fill:#FFFFFF;" width="1.5" height="2.8"/>
			
				<rect x="50.3" y="18.8" transform="matrix(0.2588 -0.9659 0.9659 0.2588 18.287 64.2568)" style="fill:#FFFFFF;" width="1.5" height="2.8"/>
			
				<rect x="49.6" y="17" transform="matrix(0.9659 -0.259 0.259 0.9659 -2.8541 13.8196)" style="fill:#FFFFFF;" width="2.8" height="1.5"/>
		</g>
	</g>
</g>
</svg>
