<?xml version="1.0" encoding="utf-8"?>
<!-- Generator: Adobe Illustrator 22.0.0, SVG Export Plug-In . SVG Version: 6.00 Build 0)  -->
<svg version="1.1" xmlns="http://www.w3.org/2000/svg" xmlns:xlink="http://www.w3.org/1999/xlink" x="0px" y="0px"
	 viewBox="0 0 62.4 45.4" style="enable-background:new 0 0 62.4 45.4;" xml:space="preserve">
<g id="圖層_2">
	<g>
		<rect x="2.3" y="2.2" style="fill:#1C191B;" width="57.7" height="41.3"/>
		<polyline style="fill:#656565;" points="60,2.2 62.4,0 0,0 2.3,2.2 60,2.2 		"/>
		<polyline style="fill:#010001;" points="60,43.4 62.4,45.4 0,45.4 2.3,43.4 60,43.4 		"/>
		<polyline style="fill:#4A4A4B;" points="2.3,43.4 0,45.4 0,0 2.3,2.2 2.3,43.4 		"/>
		<polyline style="fill:#353537;" points="60,43.4 62.4,45.4 62.4,0 60,2.2 60,43.4 		"/>
	</g>
</g>
<g id="圖層_1">
	<g>
		<path style="fill:#FFFFFF;" d="M22,33.5h-0.8h-1.5v-0.9H21c0.5,0,0.9,0,1.3,0.1c0,0,0-0.2,0-0.5s0-0.5,0-0.5
			c-0.5,0-0.9,0.1-1.3,0.1h-1.3v-1c0.6-0.1,1.2-0.2,1.7-0.3c0.1,0,0.3,0,0.3,0c0.1,0,0.1,0,0.2,0c0.1,0,0.1-0.1-0.1-0.4
			s-0.2-0.4-0.4-0.6c-0.6,0.2-1.4,0.3-2.4,0.4c-0.9,0.1-1.9,0.2-2.9,0.2c0.1,0.3,0.2,0.6,0.2,0.8c0.9,0,1.7-0.1,2.4-0.2v0.9h-1.3
			c-0.5,0-0.9,0-1.3-0.1c0,0,0,0.2,0,0.5s0,0.5,0,0.5c0.5,0,0.9-0.1,1.3-0.1h1.3v0.9h-1.6c-0.6,0-1.1,0-1.5-0.1c0,0,0,0.2,0,0.5
			c0,0.3,0,0.5,0,0.5c0.5,0,1.1-0.1,1.5-0.1h1.6v1.3c0,0.1-0.1,0.2-0.2,0.2c-0.6,0-1,0-1.4,0c0.2,0.3,0.3,0.7,0.4,0.9
			c0.9,0,1.4,0,1.7-0.2c0.2-0.1,0.3-0.2,0.4-0.3c0.1-0.1,0.1-0.4,0.1-0.6v-1.3h1.6c0.6,0,1.1,0,1.5,0.1c0,0,0-0.2,0-0.5s0-0.5,0-0.5
			C22.4,33.4,22.2,33.5,22,33.5z"/>
		<path style="fill:#FFFFFF;" d="M23.5,35.8l0.1,0.8c0.6,0,1.6-0.2,3.1-0.3c0.2,0.2,0.4,0.4,0.6,0.6c0.6-0.5,1.1-1.2,1.3-2
			c0.2-0.7,0.4-1.7,0.4-2.8h0.7c0,1.3-0.1,2.2-0.1,2.8c0,0.6-0.1,0.9-0.2,1c-0.1,0.1-0.2,0.1-0.3,0.1c-0.2,0-0.5,0-0.8,0
			c0.2,0.3,0.3,0.6,0.3,0.9c0.5,0,0.8,0,1,0c0.1,0,0.3-0.1,0.3-0.1c0.1-0.1,0.2-0.2,0.3-0.3c0.1-0.2,0.2-0.6,0.3-1.3
			c0-0.6,0.1-1.8,0.1-3.5c0-0.1,0-0.3,0-0.4h-1.6c0-0.4,0-0.9,0-1.7h-0.9c0,0.8,0,1.3,0,1.7h-0.7v-0.4H26v-0.4
			c0.5-0.1,1-0.1,1.4-0.2L27,29.4c-0.8,0.2-1.9,0.3-3.4,0.4c0.1,0.2,0.2,0.4,0.2,0.7c0.4,0,0.8,0,1.3-0.1v0.3h-0.8
			c-0.3,0-0.5,0-0.8,0c0,0,0,0.1,0,0.4s0,0.4,0,0.4c0.3,0,0.6,0,0.8,0h0.8v0.3h-1.3V33v1.2h1.3v0.3h-0.7c-0.2,0-0.5,0-0.7,0
			c0,0,0,0.1,0,0.4s0,0.4,0,0.4c0.3,0,0.5,0,0.7,0h0.7v0.5C24.7,35.7,24.2,35.7,23.5,35.8z M26,32.3h0.3h0.3v0.4H26V32.3z M26,33.2
			h0.6v0.4h-0.3H26V33.2z M26,35.2h0.7c0.2,0,0.5,0,0.7,0c0,0,0-0.1,0-0.4s0-0.4,0-0.4c-0.3,0-0.5,0-0.7,0H26v-0.3h1.4V33v-1.2H26
			v-0.3h1.5V32h0.7c0,0.8-0.1,1.4-0.2,1.9c-0.1,0.6-0.3,1.1-0.6,1.5c-0.6,0.1-1,0.1-1.4,0.1V35.2z M24.5,32.3h0.3h0.3v0.4h-0.6V32.3
			z M24.5,33.6v-0.4h0.3h0.3v0.4H24.5z"/>
		<path style="fill:#FFFFFF;" d="M33.9,32.7l-0.6,0.2v-1.2H34v-0.4c0.1,0.1,0.2,0.2,0.3,0.3v1.1c0,0.5,0,0.8,0,1.1c0,0,0.2,0,0.4,0
			c0.3,0,0.4,0,0.4,0c0-0.1,0-0.2,0-0.4V33c0.1,0.1,0.2,0.2,0.3,0.4c0.3-0.1,0.5-0.3,0.7-0.6c0.1-0.2,0.2-0.5,0.2-0.8h0.3v0.5
			c0,0.3,0,0.5,0.1,0.6c0.1,0.1,0.3,0.2,0.6,0.2h0.5h0v0.3c0,0.1,0,0.2,0,0.3c0,0,0.1,0,0.4,0s0.4,0,0.4,0c0-0.2,0-0.4,0-0.7v-0.7
			v-1.3H37c0.2-0.3,0.4-0.6,0.5-1l-0.6-0.4l-0.1,0h-1c0,0,0-0.1,0.1-0.2c0,0,0,0,0,0c0,0,0.1-0.1,0.1-0.1c0,0,0,0,0.1,0
			c0,0-0.1-0.1-0.3-0.1s-0.4-0.1-0.6-0.1C34.9,30,34.5,30.6,34,31v-0.2h-0.7v-0.7c0-0.2,0.1-0.5,0.2-0.7c0,0-0.1-0.1-0.4-0.1
			c-0.2,0-0.4,0-0.7,0c0,0.3,0,0.5,0,0.8v0.8H32c-0.2,0-0.3,0-0.4,0c0,0,0,0.2,0,0.5s0,0.4,0,0.5c0.1,0,0.3,0,0.4,0h0.4v1.4
			c-0.1,0-0.2,0-0.3,0.1c-0.3,0.1-0.5,0.1-0.7,0.2l0.2,0.9c0,0,0.1,0,0.2,0c0.3-0.1,0.4-0.1,0.6-0.2v1.8c0,0.1,0,0.1-0.1,0.1
			c-0.1,0-0.3,0-0.6,0c0.1,0.3,0.2,0.6,0.2,0.9c0.5,0,0.9,0,1.1-0.2c0.1-0.1,0.2-0.2,0.2-0.3c0-0.1,0.1-0.3,0.1-0.5v-2
			c0.2-0.1,0.5-0.1,0.8-0.2L33.9,32.7z M37.1,32h0.6v0.6c0,0-0.1,0.1-0.1,0.1h-0.3c-0.1,0-0.1,0-0.1,0c0,0,0-0.1,0-0.1V32z
			 M35.4,32.5c-0.1,0.1-0.2,0.3-0.4,0.4V32h0.5C35.5,32.2,35.4,32.3,35.4,32.5z M35.1,31.1c0.1-0.1,0.1-0.1,0.1-0.1
			c0.1-0.1,0.1-0.2,0.2-0.3h1c-0.1,0.1-0.1,0.3-0.3,0.5c0,0,0,0,0,0.1H35C35,31.2,35,31.2,35.1,31.1z"/>
		<path style="fill:#FFFFFF;" d="M37,34.9h0.9c0.3,0,0.6,0,0.9,0c0,0,0-0.2,0-0.4s0-0.4,0-0.4c-0.2,0-0.3,0-0.5,0h-0.5h-1
			c0-0.1,0-0.4,0.1-0.6h-0.8c0,0.3,0,0.5-0.1,0.6h-1c-0.4,0-0.7,0-1,0c0,0,0,0.2,0,0.4s0,0.4,0,0.4c0.3,0,0.6,0,0.8,0h0.9
			c-0.1,0.3-0.4,0.5-0.7,0.7c-0.3,0.2-0.8,0.4-1.4,0.5c0.2,0.2,0.4,0.5,0.5,0.7c0.6-0.1,1.1-0.3,1.5-0.6c0.4-0.2,0.6-0.5,0.8-0.9
			c0.2,0.4,0.5,0.7,0.8,0.9c0.3,0.2,0.7,0.4,1.2,0.5c0.1-0.3,0.3-0.6,0.5-0.8C38,35.9,37.4,35.5,37,34.9z"/>
		<path style="fill:#FFFFFF;" d="M41.5,30.2c-0.7,0-1.2,0-1.6-0.1c0,0,0,0.2,0,0.6s0,0.5,0,0.5c0.4,0,0.7,0,1.1,0h1.1
			c0,1.2-0.2,2.1-0.5,2.7c-0.4,1-1.1,1.7-2.1,2.2c0.1,0.1,0.3,0.2,0.4,0.4c0.1,0.1,0.2,0.3,0.3,0.4c1.1-0.6,1.9-1.5,2.3-2.6
			c0.3-0.8,0.5-1.8,0.6-3.2h2.2c0,1.5-0.1,2.6-0.2,3.2c-0.1,0.7-0.2,1.1-0.3,1.2c-0.1,0.1-0.2,0.1-0.4,0.1c0,0,0,0-0.1,0
			c-0.5,0-0.8,0-1.2,0c0.1,0.1,0.2,0.3,0.2,0.5c0.1,0.2,0.1,0.4,0.1,0.5c0.6,0,1.1,0,1.3,0c0.2,0,0.3-0.1,0.5-0.1
			c0.1-0.1,0.3-0.2,0.4-0.4c0.2-0.2,0.3-0.7,0.4-1.6c0.1-0.7,0.1-2.1,0.2-4c0-0.2,0-0.3,0-0.5h-3.2H41.5z"/>
		<path style="fill:#FFFFFF;" d="M5.3,3.6v38.1H57V3.6H5.3z M55,39.7H7.3V5.6H55V39.7z"/>
		<path style="fill:#FFFFFF;" d="M13.8,23c0.1,0.1,0.2,0.3,0.2,0.4c0,0.5,0,1,0,1.4c0,0.2,0,0.4,0,0.5v0.1h1.2v-0.1
			c0-0.2,0-0.5,0-0.7c0-0.7,0-1.3,0-1.9c0-0.2-0.2-0.4-0.4-0.5c-1.4-0.7-2.3-1.8-2.5-3.1c-0.1-0.8-0.1-1.7-0.1-2.6
			c0-0.4,0-0.7,0-1.1c0,0,0-0.1,0-0.2c0.5,0.2,0.8,0.6,0.8,1.1c0,0.2,0,0.3,0,0.5c0,0.3,0,0.6,0,0.9c0,0.2,0.3,0.5,0.6,0.6
			c0.2,0.1,0.4,0,0.5-0.1c0.1-0.1,0.2-0.3,0.3-0.5c0-0.1,0-0.3,0-0.5v-2.1c0-1.5,0-3.1,0-4.6c0-0.1,0-0.1,0-0.2c0-0.2,0-0.4,0.1-0.5
			c0.1-0.1,0.2-0.1,0.3-0.1c0,0,0,0,0,0c0.2,0,0.3,0,0.3,0.1c0.1,0.1,0.1,0.3,0.1,0.5c0,0.1,0,0.1,0,0.1c0,1.4,0,2.8,0,4.2
			c0,0.2,0,0.5,0.2,0.6c0.1,0.1,0.3,0.2,0.5,0.2c0,0,0,0,0,0c0.7,0,0.7-0.5,0.7-0.8c0-1.2,0-2.4,0-3.6V10c0-0.1,0-0.3,0-0.4
			c0-0.3,0-0.7,0-1c0-0.1,0.2-0.2,0.3-0.3c0,0,0.1-0.1,0.1-0.1c0,0,0.1,0.1,0.1,0.1c0.1,0.1,0.3,0.2,0.3,0.4c0,0.1,0,0.2,0,0.4
			c0,0.1,0,0.1,0,0.2v5.2c0,0.2,0,0.5,0.2,0.7c0.1,0.1,0.3,0.2,0.5,0.2c0,0,0,0,0,0c0.7,0,0.7-0.5,0.7-0.9c0-0.8,0-1.7,0-2.5l0-1.3
			c0-0.3,0-0.5,0-0.8c0-0.5,0.1-0.6,0.4-0.6c0.2,0,0.3,0,0.3,0.1c0.1,0.1,0.1,0.3,0.1,0.5c0,0.1,0,0.2,0,0.2l0,1.4
			c0,1.1,0,2.2,0,3.4c0,0.2,0,0.4,0.1,0.5c0.1,0.2,0.3,0.3,0.6,0.3c0.2,0,0.4-0.1,0.5-0.2c0.2-0.2,0.2-0.4,0.2-0.6
			c0-0.4,0-0.8,0-1.3c0-0.6,0-1.3,0-1.9c0-0.4,0-0.6,0.4-0.6c0.1,0,0.2,0,0.3,0.1c0.1,0.1,0.1,0.2,0.1,0.5c0,0.9,0,1.7,0,2.6
			c0,1.9,0,3.9,0,5.9c0,0.4-0.2,0.8-0.4,1.2c0,0.1-0.1,0.2-0.1,0.3c0,0.1-0.1,0.2-0.2,0.3c-0.1,0.1-0.3,0.3-0.3,0.5
			c0,0.8,0,1.5,0,2.3c0,0.3,0,0.6,0,0.8v0.1h1.1l-0.1-1.9c0-0.6-0.1-1.1,0.4-1.5c0.5-0.4,0.8-1.1,0.8-1.9c0-2.7,0-5.6,0-8.8
			c0-0.4-0.2-0.7-0.4-1c-0.3-0.3-0.8-0.4-1.4-0.4c-0.1,0-0.2,0-0.3,0.1l0,0c-0.3-1.9-0.6-2.1-2.3-2C18.2,7.3,17.7,7,16.9,7
			c-0.9,0.1-1.2,0.5-1.5,1.8c-0.9-0.2-1.4,0-1.7,0.3c-0.4,0.3-0.5,0.8-0.5,1.4c0,0.5,0,0.9,0,1.4c0,0.2,0,0.4,0,0.6v2L11,14v0.2
			c0,0.5,0,1,0,1.4c0,1,0,1.9,0,2.9C11.1,20.4,12.1,21.9,13.8,23z"/>
		<path style="fill:#FFFFFF;" d="M46.9,20.3l0.1-2.2c0-0.2,0.1-0.3,0.1-0.3c0.5-0.3,2.5,0.6,4,1.5l0.8,0.5v-4.1L29.7,16v3.9
			c-0.3,0.2-0.6,0.3-1,0.2c-1.4-0.2-2.9-2.3-3.4-3l-0.9-1.5v7.6H47L46.9,20.3z M50.8,16.8v1.3c-0.8-0.5-2-1.1-3-1.2L50.8,16.8z
			 M39.6,19.9c0-1.3-1-2.4-2.3-2.4s-2.3,1.1-2.3,2.4c0,1,0.6,1.9,1.5,2.3h-4.1V17l10.2-0.1v5.3h-4.7C39,21.8,39.6,20.9,39.6,19.9z
			 M37.4,21.3c-0.7,0-1.3-0.6-1.3-1.4s0.6-1.4,1.3-1.4s1.3,0.6,1.3,1.4S38.1,21.3,37.4,21.3z M25.4,18.8c0.8,0.9,1.9,2,3.2,2.2
			c0.7,0.1,1.4-0.1,2-0.6l0.2-0.1V17l0.9,0v5.2h-6.1V18.8z M46.6,16.9c-0.3,0.1-0.6,0.5-0.6,1.1l-0.1,2.3l0.1,1.8h-2.2v-5.3l3.1,0
			C46.8,16.9,46.7,16.9,46.6,16.9z"/>
	</g>
</g>
</svg>
