<?xml version="1.0" encoding="utf-8"?>
<!-- Generator: Adobe Illustrator 22.0.0, SVG Export Plug-In . SVG Version: 6.00 Build 0)  -->
<svg version="1.1" xmlns="http://www.w3.org/2000/svg" xmlns:xlink="http://www.w3.org/1999/xlink" x="0px" y="0px"
	 viewBox="0 0 62.4 45.4" style="enable-background:new 0 0 62.4 45.4;" xml:space="preserve">
<g id="圖層_2">
	<g>
		<rect x="2.3" y="2.2" style="fill:#1C191B;" width="57.7" height="41.3"/>
		<polyline style="fill:#656565;" points="60,2.2 62.4,0.1 0,0.1 2.3,2.2 60,2.2 		"/>
		<polyline style="fill:#010001;" points="60,43.5 62.4,45.4 0,45.4 2.3,43.5 60,43.5 		"/>
		<polyline style="fill:#4A4A4B;" points="2.3,43.5 0,45.4 0,0.1 2.3,2.2 2.3,43.5 		"/>
		<polyline style="fill:#353537;" points="60,43.5 62.4,45.4 62.4,0.1 60,2.2 60,43.5 		"/>
	</g>
</g>
<g id="圖層_1">
	<g>
		<path style="fill:#FFFFFF;" d="M18.6,23.2c1,1.1,2.5,1.7,4.3,1.7c0.2,0,0.3,0,0.5,0l-0.3,1l2.3-0.6v2.5h1v-2.8l0.5-0.1l-0.5-0.5
			v-4h-1v2.9l-1.3-1.3l-0.5,1.8c-1.9,0.2-3.3-0.3-4.3-1.3c-2.5-2.7-1.3-8.5-1-9.5h2.8v-1h-6.6v1h2.7C16.9,14.6,15.9,20.3,18.6,23.2z
			"/>
		<rect x="30.2" y="12.1" style="fill:#FFFFFF;" width="0.3" height="1"/>
		<rect x="36.1" y="12.1" style="fill:#FFFFFF;" width="0.2" height="1"/>
		<path style="fill:#FFFFFF;" d="M24,16h3.1v-1.4h5.8v1.8h1.7v11.3h2.3h7.8v-0.5V14.9h-7.1v-0.1h3.7v-3.5V9.7V9.4h-3.7V7.8h-4.5v1.8
			l-6.3,0.1V8.9l-2.7,0v3.2h-0.6v1H24V16z M40,11.3h0.2v2.5H40V11.3z M37.5,13.1h1.2v-1h-1.2v0v-1.7H39v3.3h-1.5V13.1z M40.9,19.1
			l1.3,7.7h-2.1l0-7.7H40.9z M38.1,19.1h1l0,7.7H37L38.1,19.1z M34.1,8.8h2.5v1.3l-2.5,0.1V8.8z M33.9,14.2l0-1h1.6v-1H34l0,0h2.6
			v2.8h-2v0.6h-0.7V14.2z M25,13.1h4.4v-1H25V9.9l0.7,0v0.9l7.3-0.1L33,12.1h-1.7v1h1.6l0,0.5h-6.8V15H25V13.1z"/>
		<path style="fill:#FFFFFF;" d="M17.5,30.2c-0.7,0-1.2,0-1.6-0.1c0,0,0,0.2,0,0.6s0,0.5,0,0.5c0.4,0,0.7,0,1.1,0h1.1
			c0,1.2-0.2,2.1-0.5,2.7c-0.4,1-1.1,1.7-2.1,2.2c0.1,0.1,0.3,0.2,0.4,0.4c0.1,0.2,0.2,0.3,0.3,0.4c1.1-0.6,1.9-1.5,2.3-2.6
			c0.3-0.8,0.5-1.8,0.6-3.2h2.2c0,1.5-0.1,2.6-0.2,3.2c-0.1,0.7-0.2,1.1-0.3,1.2c-0.1,0.1-0.2,0.1-0.4,0.1c0,0,0,0-0.1,0
			c-0.5,0-0.8,0-1.2,0c0.1,0.1,0.2,0.3,0.2,0.5c0.1,0.2,0.1,0.4,0.1,0.5c0.6,0,1.1,0,1.3,0c0.2,0,0.3-0.1,0.5-0.1
			c0.1-0.1,0.3-0.2,0.4-0.4c0.2-0.2,0.3-0.7,0.4-1.6c0.1-0.7,0.1-2.1,0.2-4c0-0.2,0-0.3,0-0.5h-3.2H17.5z"/>
		<path style="fill:#FFFFFF;" d="M29.3,31.8L29,32.1v-0.5c0.1-0.3,0.3-0.5,0.3-0.8h0.7c0.2,0,0.5,0,0.7,0c0,0,0-0.2,0-0.5
			c0-0.3,0-0.5,0-0.5c-0.4,0-0.7,0-1.1,0h-1.1h-1.1c-0.5,0-0.8,0-1.1,0c0,0,0,0.2,0,0.5c0,0.3,0,0.5,0,0.5c0.4,0,0.7,0,1,0h1
			c-0.2,0.6-0.6,1.1-0.9,1.5c-0.4,0.5-0.8,0.8-1.3,1.1l0.4-0.6c-0.4-0.4-0.7-0.7-0.9-0.9v-0.1h0.5c0.2,0,0.3,0,0.5,0
			c0,0,0-0.2,0-0.5c0-0.3,0-0.5,0-0.5c-0.1,0-0.3,0-0.5,0h-0.5v-0.8c0-0.3,0.1-0.5,0.2-0.8c0,0-0.1-0.1-0.4-0.1c-0.2,0-0.5,0-0.7,0
			c0,0.3,0,0.5,0,0.8V31h-0.5c-0.2,0-0.4,0-0.5,0c0,0,0,0.2,0,0.5c0,0.3,0,0.5,0,0.5c0.2,0,0.3,0,0.5,0h0.5c-0.1,0.5-0.3,1-0.5,1.5
			c-0.2,0.5-0.4,0.9-0.7,1.2c0.2,0.4,0.4,0.7,0.4,0.9c0.3-0.4,0.6-1,0.8-1.7v1.6c0,0.6,0,1.1-0.1,1.6c0,0,0.2,0,0.5,0
			c0.3,0,0.5,0,0.5,0c-0.1-0.5-0.1-1.2-0.1-1.9V33c0.2,0.2,0.3,0.4,0.4,0.6l0,0l0,0.1l0,0c0.3,0.3,0.5,0.5,0.6,0.8
			c0.5-0.4,1-0.8,1.5-1.4V35c0,0.7,0,1.4-0.1,1.9c0,0,0.2,0,0.5,0c0.3,0,0.5,0,0.5,0c-0.1-0.5-0.1-1.2-0.1-2.1v-2.1
			c0.6,0.6,1,1.1,1.3,1.5l0.7-0.7C30.7,33.1,30.1,32.5,29.3,31.8z"/>
		<path style="fill:#FFFFFF;" d="M38.1,32.7h-0.6V32h0.4c0.2,0,0.3,0,0.4,0c0,0,0-0.2,0-0.5c0-0.3,0-0.5,0-0.5c-0.5,0-1,0.1-1.4,0.1
			h-1.4v-0.6c0.8-0.1,1.4-0.2,1.9-0.2c0.1,0,0.2,0,0.3,0c0.1,0,0.1,0,0.2,0c0.1,0,0.1-0.1,0-0.3s-0.2-0.4-0.4-0.6
			c-0.6,0.1-1.5,0.2-2.5,0.3c-1,0.1-2,0.1-3,0.1c0.1,0.3,0.2,0.6,0.2,0.8c0.7,0,1.6,0,2.4-0.1v0.5h-1.3c-0.5,0-0.9,0-1.3-0.1
			c0,0,0,0.2,0,0.5c0,0.3,0,0.4,0,0.5c0.1,0,0.3,0,0.4,0h0.4v0.7h-0.6c-0.2,0-0.4,0-0.6,0c0,0,0,0.2,0,0.5s0,0.4,0,0.5
			c0.3,0,0.5,0,0.6,0h0.6v0.7h-0.4c-0.2,0-0.3,0-0.4,0c0,0,0,0.2,0,0.5s0,0.4,0,0.5c0.5,0,1-0.1,1.3-0.1h1.4v0.6h-1.5
			c-0.6,0-1.1,0-1.5-0.1c0,0,0,0.2,0,0.5c0,0.3,0,0.5,0,0.5c0.6,0,1.1-0.1,1.7-0.1h1.7h1.7c0.7,0,1.3,0,1.7,0.1c0,0,0-0.2,0-0.5
			c0-0.3,0-0.5,0-0.5c-0.5,0-1,0.1-1.5,0.1h-1.5v-0.6H37c0.5,0,1,0,1.4,0.1c0,0,0-0.2,0-0.5s0-0.4,0-0.5c-0.1,0-0.3,0-0.5,0h-0.5
			v-0.7h0.6c0.2,0,0.4,0,0.6,0c0,0,0-0.2,0-0.5s0-0.4,0-0.5C38.5,32.6,38.2,32.7,38.1,32.7z M34.7,34.3h-0.9v-0.7h0.4h0.4V34.3z
			 M34.7,32.7h-0.9V32h0.4h0.4V32.7z M36.6,34.3h-0.5h-0.5v-0.7h0.9V34.3z M36.6,32.7h-0.5h-0.5V32h0.9V32.7z"/>
		<path style="fill:#FFFFFF;" d="M43.9,35.6H41v-3.2c0-0.3,0.1-0.5,0.2-0.8c0,0-0.2-0.1-0.5-0.1c-0.3,0-0.5,0-0.8,0
			c0.1,0.6,0.1,1.4,0.1,2.4v1.4c0,0.6,0,1.1-0.1,1.4c0,0,0.2,0,0.5,0s0.5,0,0.5,0c0,0,0,0,0-0.1c0,0,0-0.1,0-0.1v-0.2h3.3
			c1,0,1.8,0,2.4,0.1c0,0,0-0.2,0-0.5c0-0.3,0-0.5,0-0.5c-0.5,0-1,0.1-1.4,0.1H43.9z"/>
		<path style="fill:#FFFFFF;" d="M43.9,29.7c0-0.1,0-0.1,0.1-0.1c0,0,0,0,0-0.1c0,0-0.1-0.1-0.4-0.1c-0.3,0-0.5-0.1-0.8-0.1
			c0,0,0,0,0,0.1c0,0.3,0,0.5,0,0.6h-1.5c-0.6,0-1.1,0-1.5-0.1c0,0,0,0.2,0,0.5c0,0.3,0,0.5,0,0.5c0.5,0,1-0.1,1.5-0.1h1.5
			c0,0.1,0,0.3-0.1,0.4h-1v1.9c0,0.1,0,0.2,0,0.4c0,0.8,0,1.3-0.1,1.5c0,0,0,0,0.1,0c0.3,0,0.6,0,1,0h1.1h1.1c0.4,0,0.8,0,1.1,0
			c0.1,0,0.1,0,0.1,0c-0.1-0.5-0.1-1.2-0.1-1.9v-1c0-0.4,0-0.7,0-1c0,0,0,0,0,0c-0.3,0-0.7,0-1.1,0h-1.1c0-0.1,0-0.1,0-0.2
			c0-0.1,0-0.1,0-0.2h1.5c0.6,0,1.1,0,1.5,0.1c0,0,0-0.2,0-0.5c0-0.3,0-0.5,0-0.5c-0.5,0-1,0.1-1.4,0.1h-1.4
			C43.8,29.9,43.9,29.8,43.9,29.7z M44.9,34.5h-1.2h-1.2v-0.4h2.4V34.5z M44.9,33.4h-1.2h-1.2V33h2.4V33.4z M44.9,32v0.4h-1.2h-1.2
			V32H44.9z"/>
		<path style="fill:#FFFFFF;" d="M5.3,3.7v38.1H57V3.7H5.3z M55,39.8H7.3V5.7H55V39.8z"/>
	</g>
</g>
</svg>
