<?xml version="1.0" encoding="utf-8"?>
<!-- Generator: Adobe Illustrator 22.0.0, SVG Export Plug-In . SVG Version: 6.00 Build 0)  -->
<svg version="1.1" xmlns="http://www.w3.org/2000/svg" xmlns:xlink="http://www.w3.org/1999/xlink" x="0px" y="0px"
	 viewBox="0 0 62.4 45.4" style="enable-background:new 0 0 62.4 45.4;" xml:space="preserve">
<g id="圖層_2">
	<g>
		<rect x="2.3" y="2.2" style="fill:#1C191B;" width="57.7" height="41.3"/>
		<polyline style="fill:#656565;" points="60,2.2 62.4,0.1 0,0.1 2.3,2.2 60,2.2 		"/>
		<polyline style="fill:#010001;" points="60,43.5 62.4,45.4 0,45.4 2.3,43.5 60,43.5 		"/>
		<polyline style="fill:#4A4A4B;" points="2.3,43.5 0,45.4 0,0.1 2.3,2.2 2.3,43.5 		"/>
		<polyline style="fill:#353537;" points="60,43.5 62.4,45.4 62.4,0.1 60,2.2 60,43.5 		"/>
	</g>
</g>
<g id="圖層_1">
	<g>
		<path style="fill:#FFFFFF;" d="M16.7,34.8c-0.2,0-0.3,0-0.5,0c0.1,0.2,0.2,0.4,0.2,0.7c0.3,0,0.5,0,0.7,0c0.2,0,0.3-0.1,0.4-0.2
			c0.1-0.1,0.2-0.5,0.2-1c0.2,0.2,0.4,0.4,0.6,0.6c0.2-0.3,0.4-0.6,0.6-0.7c-0.3-0.2-0.7-0.5-0.9-0.9h0.4c0.1,0,0.3,0,0.4,0
			c0,0,0-0.1,0-0.4c0-0.3,0-0.4,0-0.4c-0.2,0-0.4,0-0.6,0h-0.6c-0.1-0.2-0.2-0.4-0.2-0.6h0.8v-0.4l0.7-0.4c-0.2-0.4-0.5-0.9-1-1.4
			L17.1,30c0.3,0.3,0.5,0.7,0.7,1h-1.4c0-0.2,0.1-0.5,0.1-0.8c0-0.2,0.1-0.3,0.1-0.4c0,0,0.1-0.1,0.1-0.2c0-0.1-0.1-0.1-0.3-0.2
			c-0.2-0.1-0.4-0.1-0.7-0.1c-0.1,0.6-0.1,1.2-0.3,1.7H15c0.1-0.2,0.2-0.4,0.3-0.5c0-0.1,0.1-0.2,0.2-0.2c0.1,0,0.1-0.1,0.1-0.1
			c0-0.1-0.1-0.1-0.3-0.2c-0.2-0.1-0.4-0.2-0.6-0.2c-0.2,0.5-0.4,0.9-0.7,1.3v-0.2h-0.7v-0.7c0-0.2,0.1-0.5,0.2-0.7
			c0,0-0.1-0.1-0.4-0.1c-0.2,0-0.4,0-0.7,0c0,0.3,0,0.5,0,0.8v0.8H12c-0.2,0-0.3,0-0.4,0c0,0,0,0.2,0,0.5s0,0.4,0,0.5
			c0.1,0,0.3,0,0.4,0h0.4v1.4c-0.1,0-0.2,0-0.3,0.1c-0.3,0.1-0.5,0.1-0.7,0.2l0.2,0.9c0,0,0.1,0,0.2,0c0.3-0.1,0.4-0.1,0.6-0.2v1.8
			c0,0.1,0,0.1-0.1,0.1c-0.1,0-0.3,0-0.6,0c0.1,0.3,0.2,0.6,0.2,0.9c0.5,0,0.9,0,1.1-0.2c0.1-0.1,0.2-0.2,0.2-0.3
			c0-0.1,0.1-0.3,0.1-0.5v-1v-1c0.2-0.1,0.5-0.1,0.8-0.2l-0.1-0.9l-0.6,0.2v-1.2H14v-0.6c0.2,0.1,0.4,0.3,0.6,0.4l0,0v0.2h0.8
			c-0.1,0.2-0.1,0.4-0.2,0.6h-0.6c-0.3,0-0.5,0-0.6,0c0,0,0,0.1,0,0.4c0,0.3,0,0.4,0,0.4c0.2,0,0.3,0,0.4,0h0.4
			c-0.3,0.4-0.7,0.8-1.1,1.1c0.1,0.1,0.2,0.2,0.3,0.4s0.2,0.3,0.3,0.4c0.2-0.2,0.4-0.3,0.6-0.6v1.3c0,0.4,0.1,0.7,0.3,0.9
			c0.2,0.2,0.5,0.2,1,0.2h1.4c0.4,0,0.7-0.1,0.9-0.3c0.2-0.2,0.3-0.5,0.3-1c-0.1,0-0.3-0.1-0.4-0.1c-0.2-0.1-0.3-0.1-0.4-0.2
			c0,0.4-0.1,0.6-0.1,0.7S17.7,36,17.5,36h-1.3c-0.2,0-0.3,0-0.4-0.1s-0.1-0.1-0.1-0.3v-1.3h1.2c0,0.2,0,0.4-0.1,0.4
			C16.8,34.8,16.8,34.8,16.7,34.8z M16.3,31.8h0.3c0,0.1,0.1,0.2,0.1,0.3c0,0.1,0,0.2,0.1,0.3h-0.6C16.1,32.2,16.2,32,16.3,31.8z
			 M16.4,33.6h-0.9c0.1-0.1,0.2-0.3,0.3-0.5H17c0.1,0.2,0.2,0.4,0.3,0.5H16.4z"/>
		<path style="fill:#FFFFFF;" d="M25.3,31.7l-0.7,0.4c0.4,0.2,0.7,0.5,1,0.8h-1.3v-1.3L25.3,31.7c0.4,0,0.7,0,1,0c0,0,0,0,0,0
			c0-0.3,0-0.6,0-1v-1h-3h-1.5c-0.6,0-1.1,0-1.5-0.1c0,0,0,0,0,0.1c0,0.3,0,0.7,0,1.2V32c0,0.9,0,1.6-0.1,2.2
			c-0.1,0.9-0.4,1.6-0.7,2.1c0.1,0,0.3,0.1,0.4,0.2c0.2,0.1,0.3,0.2,0.4,0.3c0.5-0.8,0.8-2.1,0.9-3.8c0.1,0.1,0.3,0.2,0.5,0.4
			c0,0,0,0,0,0l0,0v1.7c0,0.7,0,1.3-0.1,1.7c0,0,0.2,0,0.5,0c0.3,0,0.5,0,0.5,0c0-0.1,0-0.3,0-0.6v-0.6h2.6v0.3c0,0.1,0,0.1-0.1,0.1
			c0,0,0,0-0.1,0c-0.3,0-0.5,0-0.7,0c0.1,0.3,0.2,0.5,0.3,0.8c0.6,0,1,0,1.2-0.1c0.1-0.1,0.2-0.2,0.3-0.3c0-0.1,0.1-0.3,0.1-0.5
			v-2.6l0.6-0.4c-0.2-0.2-0.4-0.4-0.7-0.6C25.9,32.1,25.6,31.9,25.3,31.7z M21.2,30.4h4.1v0.5h-2.1h-2.1V30.4z M22.3,33
			c0.2-0.1,0.3-0.3,0.5-0.5c0.1-0.1,0.2-0.2,0.3-0.2c0.1,0,0.1,0,0.1-0.1c0,0,0-0.1-0.2-0.2c-0.2-0.1-0.4-0.2-0.6-0.3
			c-0.3,0.4-0.7,0.7-1.2,1.1c0,0,0,0,0,0c0-0.4,0-0.6,0-0.8v-0.3h1.1h1.1V33H22.3z M25.3,35h-2.6v-0.3h1.3h1.3V35z M25.3,34h-1.3
			h-1.3v-0.3h2.6V34z"/>
		<path style="fill:#FFFFFF;" d="M34.3,35.9c0,0.1-0.1,0.2-0.2,0.2c-0.2,0-0.4-0.1-0.5-0.4c0.4-0.4,0.7-0.8,0.9-1.2l-0.7-0.3h0.6
			c0.2,0,0.4,0,0.5,0c0,0,0-0.1,0-0.4c0-0.3,0-0.4,0-0.4c-0.1,0-0.2,0-0.3,0h-0.3l0.2-0.1c-0.1-0.2-0.3-0.3-0.6-0.5l0.6-0.1
			c0,0.1,0,0.1,0.1,0.3c0,0,0,0,0,0.1l0.6-0.2c0-0.3-0.2-0.7-0.4-1.2L34,31.8c0.1,0.1,0.1,0.2,0.1,0.3l-0.5,0
			c0.2-0.3,0.4-0.6,0.6-0.9c0.1-0.1,0.2-0.2,0.3-0.3c0.1,0,0.1-0.1,0.1-0.1c0-0.1,0-0.2-0.2-0.3c-0.1-0.1-0.3-0.2-0.5-0.3
			c-0.1,0.2-0.2,0.5-0.4,0.8c-0.1-0.1-0.1-0.1-0.2-0.2c0.1-0.1,0.2-0.3,0.3-0.5c0.1-0.1,0.1-0.2,0.2-0.2c0.1,0,0.1-0.1,0.1-0.1
			c0-0.1,0-0.1-0.2-0.3c-0.2-0.1-0.3-0.2-0.5-0.3c-0.1,0.3-0.2,0.7-0.4,1l-0.1-0.1l-0.2,0.3c0-0.4,0-0.9,0-1.3h-0.8
			c0,0.3,0,0.7,0,1.2l-0.5-0.3c-0.1,0.2-0.2,0.5-0.4,0.8c0,0-0.1-0.1-0.2-0.2c0-0.1,0.1-0.2,0.2-0.4c0-0.1,0.1-0.1,0.1-0.2
			c0.1-0.1,0.1-0.2,0.2-0.2c0.1,0,0.1-0.1,0.1-0.1c0-0.1,0-0.1-0.2-0.3c-0.2-0.1-0.3-0.2-0.5-0.3c-0.1,0.4-0.2,0.7-0.4,1l-0.1-0.1
			l-0.4,0.5c0,0,0,0,0.1,0c0.1,0,0.1,0.1,0.1,0.1h-0.7v-0.8c0-0.3,0.1-0.5,0.2-0.8c0,0-0.1-0.1-0.4-0.1c-0.2,0-0.4,0-0.6,0
			c0,0.3,0,0.5,0,0.9V31H28c-0.2,0-0.3,0-0.4,0c0,0,0,0.2,0,0.5s0,0.4,0,0.5c0.2,0,0.3,0,0.4,0h0.4c-0.1,0.5-0.2,1-0.4,1.5
			c-0.2,0.5-0.4,0.9-0.6,1.2c0.2,0.4,0.3,0.6,0.4,0.8c0.2-0.3,0.4-0.8,0.6-1.5v1.5c0,0.6,0,1.1-0.1,1.5c0,0,0.2,0,0.5,0
			c0.3,0,0.4,0,0.5,0c0-0.2,0-0.5,0-0.9v-0.9v-1.8c0,0,0,0,0,0c0.2,0.5,0.3,0.8,0.4,0.9l0.3-0.5v0.4h0.5c0,0.5-0.1,0.8-0.3,1.1
			c-0.2,0.4-0.4,0.7-0.7,0.9c0.1,0.1,0.2,0.2,0.3,0.3c0.1,0.1,0.2,0.2,0.2,0.3c0.5-0.4,0.8-0.9,1-1.5c0.3,0.2,0.5,0.4,0.6,0.5
			l0.5-0.6c-0.2-0.2-0.5-0.4-0.9-0.7c0-0.1,0-0.2,0-0.3h0.9c0.1,0.5,0.2,1,0.4,1.3c-0.4,0.3-0.8,0.5-1.3,0.7
			c0.2,0.2,0.4,0.4,0.5,0.6c0.4-0.2,0.8-0.4,1.2-0.6c0.3,0.4,0.7,0.6,1.1,0.6c0.3,0,0.5-0.1,0.7-0.2s0.2-0.5,0.3-0.9
			c-0.3-0.1-0.5-0.3-0.6-0.4C34.3,35.6,34.3,35.8,34.3,35.9z M31.9,30.8c0,0.2,0,0.5,0,0.9c0,0.2,0,0.5,0.1,0.9
			c-0.1-0.3-0.2-0.6-0.3-0.9l-0.5,0.2c0,0.1,0.1,0.2,0.1,0.4l-0.4,0C31.1,31.9,31.5,31.4,31.9,30.8z M31,33.4h-1
			c-0.2-0.4-0.5-0.8-0.7-1.2v-0.3H30V31c0.2,0.2,0.4,0.4,0.6,0.6c-0.1,0.2-0.2,0.4-0.4,0.6c0,0,0,0,0,0.1l-0.2,0L30,33
			c0.1,0,0.4,0,0.7-0.1c0.3,0,0.6-0.1,0.7-0.1c0,0.1,0,0.1,0,0.2v0l0.5-0.2c0,0.2,0.1,0.4,0.1,0.5H31z M32.7,31.6c0-0.3,0-0.5,0-0.6
			c0.2,0.2,0.5,0.4,0.6,0.6c-0.1,0.2-0.3,0.4-0.4,0.6l-0.2,0C32.7,31.9,32.7,31.7,32.7,31.6z M32.9,33.4c0,0,0-0.1,0-0.2
			c0-0.1,0-0.2,0-0.2c0,0,0-0.1,0-0.2c0-0.1,0-0.1,0-0.2l0,0.2c0.1,0,0.1,0,0.3,0c0.2,0,0.3,0,0.4,0l-0.4,0.3
			c0.1,0.1,0.2,0.2,0.4,0.3H32.9z M33.2,34.9c-0.1-0.2-0.1-0.5-0.2-0.7h0.6c-0.1,0.1-0.1,0.2-0.2,0.4C33.4,34.6,33.3,34.7,33.2,34.9
			z"/>
		<path style="fill:#FFFFFF;" d="M36.5,29.7C36.5,29.7,36.4,29.7,36.5,29.7c0,0.3,0,0.7,0,1.2V32c0,0.9,0,1.6-0.1,2.2
			c-0.1,0.9-0.4,1.6-0.8,2.1c0.1,0.1,0.3,0.1,0.4,0.3c0.2,0.1,0.3,0.2,0.4,0.3c0.6-0.9,1-2.3,1.1-4.1h0.3c0.3,0.9,0.8,1.7,1.3,2.3
			c-0.6,0.4-1.2,0.7-2,0.9c0.2,0.2,0.4,0.5,0.5,0.9c0.9-0.3,1.6-0.6,2.2-1.1c0.7,0.5,1.4,0.9,2.4,1.1c0.2-0.4,0.4-0.7,0.6-0.9
			c-0.9-0.2-1.6-0.5-2.2-0.9c0.7-0.8,1.2-1.8,1.5-3l-0.7-0.3l-0.2,0h-3.8v-1.1H40c1,0,1.8,0,2.4,0.1c0,0,0-0.2,0-0.6s0-0.5,0-0.5
			c-0.5,0-1,0.1-1.5,0.1h-1.5H38C37.4,29.8,36.9,29.7,36.5,29.7z M39.8,32.8h1.1c-0.2,0.6-0.6,1.2-1,1.7c-0.4-0.4-0.8-1-1.1-1.7
			H39.8z"/>
		<path style="fill:#FFFFFF;" d="M50.4,34.4h-0.4v-0.1c0,0,0-0.1,0.1-0.1c0,0-0.1-0.1-0.4-0.1c-0.2,0-0.4,0-0.6,0c0,0,0,0.1,0,0.1
			c0,0,0,0.1,0,0.1v0.2h-2.3v0.3h-1.2v-0.5h1v-1.4v-1.4h-1V31h0.6c0.2,0,0.4,0,0.6,0c0,0,0-0.2,0-0.4c0-0.3,0-0.4,0-0.4
			c-0.2,0-0.4,0-0.6,0h-0.6v-0.3c0-0.1,0-0.2,0.1-0.3c0,0-0.1-0.1-0.4-0.1c-0.2,0-0.4,0-0.6,0c0,0.2,0,0.3,0,0.4v0.4h-0.6
			c-0.2,0-0.4,0-0.6,0c0,0,0,0.2,0,0.4c0,0.3,0,0.4,0,0.4c0.2,0,0.4,0,0.6,0h0.6v0.4h-1v2.9h1v0.5h-0.6c-0.2,0-0.4,0-0.6,0
			c0,0,0,0.2,0,0.4c0,0.3,0,0.4,0,0.4c0.3,0,0.5,0,0.6,0h0.6v0.6c0,0.2,0,0.4,0,0.6c0,0,0.2,0,0.4,0c0.3,0,0.4,0,0.4,0
			c0-0.2,0-0.4,0-0.6v-0.6h1.2v-0.5h0.7l-0.4,0.2c0.3,0.3,0.5,0.6,0.7,1l0.3-0.2c0.1,0.3,0.2,0.6,0.2,0.7c0.6,0,1,0,1.2-0.1
			c0.1-0.1,0.2-0.1,0.3-0.3c0-0.1,0.1-0.3,0.1-0.5v-0.9h0.4c0.2,0,0.3,0,0.4,0c0,0,0-0.1,0-0.4s0-0.4,0-0.4
			C50.7,34.4,50.5,34.4,50.4,34.4z M44.9,33.4v0.2h-0.4v-0.5h0.4V33.4z M44.9,32.3v0.2h-0.4V32h0.4V32.3z M45.5,32H46v0.5h-0.2h-0.2
			V32z M45.5,33.6v-0.5H46v0.5h-0.2H45.5z M49.1,36c0,0.1,0,0.1-0.1,0.1c-0.3,0-0.6,0-0.8,0l0.3-0.2c-0.1-0.3-0.3-0.5-0.6-0.8h0.6
			h0.6V36z"/>
		<path style="fill:#FFFFFF;" d="M50.6,33V32v-1.1h-1.4v-0.3h0.8c0.3,0,0.5,0,0.8,0c0,0,0-0.1,0-0.4s0-0.4,0-0.4c-0.3,0-0.6,0-0.8,0
			h-0.8v-0.2c0-0.1,0-0.1,0.1-0.2c0,0-0.1-0.1-0.4-0.1c-0.2,0-0.4,0-0.6,0c0,0.1,0,0.2,0,0.3v0.3h-0.8c-0.3,0-0.5,0-0.7,0
			c0,0,0,0.1,0,0.4s0,0.4,0,0.4c0.3,0,0.6,0,0.7,0h0.8v0.3H47V33h1.4v0.4c-0.6,0-1.1,0-1.6,0l0,0.7c1,0,2,0,3.2-0.1
			c0,0.1,0.1,0.2,0.1,0.3l0.7-0.3c-0.2-0.3-0.4-0.6-0.6-0.9H50.6z M48.4,32.5h-0.6v-0.3H48h0.3V32.5z M48.4,31.7h-0.6v-0.3H48h0.3
			V31.7z M49.6,33.2c0,0,0.1,0.1,0.1,0.1l-0.5,0V33h0.5l-0.2,0.1C49.5,33.2,49.5,33.2,49.6,33.2z M49.8,32.5h-0.3h-0.3v-0.3h0.7
			V32.5z M49.8,31.7h-0.3h-0.3v-0.3h0.7V31.7z"/>
		<path style="fill:#FFFFFF;" d="M5.3,3.7v38.1H57V3.7H5.3z M55,39.8H7.3V5.7H55V39.8z"/>
		<path style="fill:#FFFFFF;" d="M12.8,21.4v1l9.8,1.3v-2.3c0.5,0.8,1.3,1.5,2.2,1.6l0.1,0l0.1,0c0.3,0,2.7-0.3,3.4-5.8
			c0.3,0.4,0.9,1.6,1.6,5.1l0.1,0.2c0.2,0.5,0.8,1.3,1.8,1.3c0,0,0.1,0,0.1,0c1.5-0.1,2.7-2.2,3.9-6.6c0.1-0.2,0.2-0.4,0.3-0.5
			c0.2,0.1,0.6,0.6,1.3,2.5l1.4-0.5c-0.9-2.4-1.7-3.5-2.7-3.5c0,0,0,0,0,0c-1.1,0-1.6,1.3-1.7,1.6c-1.5,5.4-2.6,5.5-2.6,5.5
			c0,0,0,0,0,0c-0.1,0-0.3-0.2-0.4-0.4c-1.2-5.5-2.1-6.3-3-6.4c-0.8-0.1-1.3,0.6-1.5,1.1l0,0.2c-0.5,3.9-1.7,4.6-1.9,4.7
			c-1.5-0.5-2.3-3.5-2.4-4.6v-4.8L12.8,15v1.3c-1,0.5-2.9,1.6-2.8,3C10.2,20.5,11.6,21.1,12.8,21.4z M14.3,20.1
			c0.2,0.4,0.4,0.7,0.7,1.1l-0.7-0.1V20.1z M21.1,22l-3.2-0.4c-2.3-0.9-3.2-4.1-3.5-5.5l6.7-1.9V22z M12.8,18v1.9
			c-1.2-0.4-1.3-0.7-1.3-0.7C11.5,18.9,12.1,18.4,12.8,18z"/>
		<path style="fill:#FFFFFF;" d="M41.5,22.4l-0.9,2l5-0.5l-3-4.1l-0.5,1.2C41.4,20,41,18.9,41,17.6c0-2.9,2.1-5.2,4.8-5.2
			s4.8,2.3,4.8,5.2c0,2-1,3.7-2.5,4.5v1.7c2.4-1,4-3.4,4-6.2c0-3.7-2.8-6.7-6.3-6.7s-6.3,3-6.3,6.7C39.5,19.5,40.3,21.2,41.5,22.4z"
			/>
	</g>
</g>
</svg>
